<?xml version="1.0" encoding="UTF-8" standalone="no"?>
<!DOCTYPE svg PUBLIC "-//W3C//DTD SVG 1.1//EN"
 "http://www.w3.org/Graphics/SVG/1.1/DTD/svg11.dtd">
<!-- Generated by graphviz version 2.43.0 (0)
 -->
<!-- Title: G Pages: 1 -->
<svg width="699pt" height="916pt"
 viewBox="0.00 0.00 699.00 916.00" xmlns="http://www.w3.org/2000/svg" xmlns:xlink="http://www.w3.org/1999/xlink">
<g id="graph0" class="graph" transform="scale(1 1) rotate(0) translate(4 912)">
<title>G</title>
<polygon fill="white" stroke="transparent" points="-4,4 -4,-912 695,-912 695,4 -4,4"/>
<g id="clust1" class="cluster">
<title>cluster_mlir_frontends</title>
<polygon fill="none" stroke="black" points="8,-825 8,-900 248,-900 248,-825 8,-825"/>
<text text-anchor="middle" x="128" y="-884.8" font-family="Times,serif" font-size="14.00">Upstream frontends (selection)</text>
</g>
<g id="clust2" class="cluster">
<title>cluster_mlir</title>
<polygon fill="none" stroke="black" points="88,-726 88,-817 376,-817 376,-726 88,-726"/>
<text text-anchor="middle" x="232" y="-801.8" font-family="Times,serif" font-size="14.00">Upstream MLIR</text>
</g>
<g id="clust3" class="cluster">
<title>cluster_std_arith_dialect</title>
<polygon fill="none" stroke="black" points="96,-734 96,-786 234,-786 234,-734 96,-734"/>
</g>
<g id="clust4" class="cluster">
<title>cluster_circt</title>
<polygon fill="none" stroke="black" points="182,-136 182,-718 683,-718 683,-136 182,-136"/>
<text text-anchor="middle" x="432.5" y="-702.8" font-family="Times,serif" font-size="14.00">CIRCT</text>
</g>
<g id="clust5" class="cluster">
<title>cluster_RTL</title>
<polygon fill="none" stroke="black" points="278,-208 278,-355 488,-355 488,-208 278,-208"/>
<text text-anchor="middle" x="383" y="-339.8" font-family="Times,serif" font-size="14.00">Core dialects</text>
</g>
<g id="clust8" class="cluster">
<title>cluster_input_langs</title>
<polygon fill="none" stroke="black" points="256,-825 256,-900 570,-900 570,-825 256,-825"/>
<text text-anchor="middle" x="413" y="-884.8" font-family="Times,serif" font-size="14.00">Input languages</text>
</g>
<!-- PyTorch -->
<g id="node1" class="node">
<title>PyTorch</title>
<polygon fill="white" stroke="black" points="144,-869 70,-869 70,-833 144,-833 144,-869"/>
<text text-anchor="middle" x="107" y="-847.3" font-family="Times,serif" font-size="14.00">PyTorch</text>
</g>
<!-- CF -->
<g id="node5" class="node">
<title>CF</title>
<polygon fill="#beaed4" stroke="black" points="226,-778 172,-778 172,-742 226,-742 226,-778"/>
<text text-anchor="middle" x="199" y="-756.3" font-family="Times,serif" font-size="14.00">CF</text>
</g>
<!-- PyTorch&#45;&gt;CF -->
<g id="edge1" class="edge">
<title>PyTorch&#45;&gt;CF</title>
<path fill="none" stroke="black" d="M130.77,-832.98C137.22,-829.09 143.79,-825.24 148.86,-822.29"/>
<polygon fill="black" stroke="black" points="151.1,-825.04 158,-817 147.59,-818.98 151.1,-825.04"/>
</g>
<!-- PyTorch&#45;&gt;CF -->
<!-- Polygeist -->
<g id="node2" class="node">
<title>Polygeist</title>
<polygon fill="white" stroke="black" points="240,-869 158,-869 158,-833 240,-833 240,-869"/>
<text text-anchor="middle" x="199" y="-847.3" font-family="Times,serif" font-size="14.00">Polygeist</text>
</g>
<!-- Affine -->
<g id="node4" class="node">
<title>Affine</title>
<polygon fill="#beaed4" stroke="black" points="368,-778 310,-778 310,-742 368,-742 368,-778"/>
<text text-anchor="middle" x="339" y="-756.3" font-family="Times,serif" font-size="14.00">Affine</text>
</g>
<!-- Polygeist&#45;&gt;Affine -->
<g id="edge2" class="edge">
<title>Polygeist&#45;&gt;Affine</title>
<path fill="none" stroke="black" d="M232.14,-832.93C238.91,-829.94 246.08,-827.11 253,-825 270.83,-819.56 280.5,-826.09 294,-821.5"/>
<polygon fill="black" stroke="black" points="295.62,-824.6 303,-817 292.49,-818.34 295.62,-824.6"/>
</g>
<!-- Polygeist&#45;&gt;CF -->
<!-- SCF -->
<g id="node3" class="node">
<title>SCF</title>
<polygon fill="#beaed4" stroke="black" points="296,-778 242,-778 242,-742 296,-742 296,-778"/>
<text text-anchor="middle" x="269" y="-756.3" font-family="Times,serif" font-size="14.00">SCF</text>
</g>
<!-- Calyx -->
<g id="node8" class="node">
<title>Calyx</title>
<g id="a_node8"><a xlink:href="https://circt.llvm.org/docs/Dialects/Calyx/" xlink:title="Calyx">
<polygon fill="white" stroke="black" points="356,-543 300,-543 300,-507 356,-507 356,-543"/>
<text text-anchor="middle" x="328" y="-521.3" font-family="Times,serif" font-size="14.00">Calyx</text>
</a>
</g>
</g>
<!-- SCF&#45;&gt;Calyx -->
<g id="edge3" class="edge">
<title>SCF&#45;&gt;Calyx</title>
<path fill="none" stroke="black" d="M267.12,-741.84C264.2,-708.88 261.1,-635.02 284,-579 288.18,-568.77 295.08,-559.01 302.19,-550.72"/>
<polygon fill="black" stroke="black" points="304.84,-553.01 308.99,-543.26 299.67,-548.3 304.84,-553.01"/>
</g>
<!-- Pipeline -->
<g id="node10" class="node">
<title>Pipeline</title>
<g id="a_node10"><a xlink:href="https://circt.llvm.org/docs/Dialects/Pipeline/" xlink:title="Pipeline">
<polygon fill="white" stroke="black" points="365,-615 291,-615 291,-579 365,-579 365,-615"/>
<text text-anchor="middle" x="328" y="-593.3" font-family="Times,serif" font-size="14.00">Pipeline</text>
</a>
</g>
</g>
<!-- Affine&#45;&gt;Pipeline -->
<g id="edge4" class="edge">
<title>Affine&#45;&gt;Pipeline</title>
<path fill="none" stroke="black" d="M337.82,-741.77C335.92,-713.93 332.15,-658.81 329.88,-625.5"/>
<polygon fill="black" stroke="black" points="333.34,-624.84 329.17,-615.11 326.36,-625.32 333.34,-624.84"/>
</g>
<!-- Arith -->
<g id="node6" class="node">
<title>Arith</title>
<polygon fill="#beaed4" stroke="black" points="158,-778 104,-778 104,-742 158,-742 158,-778"/>
<text text-anchor="middle" x="131" y="-756.3" font-family="Times,serif" font-size="14.00">Arith</text>
</g>
<!-- Handshake -->
<g id="node7" class="node">
<title>Handshake</title>
<g id="a_node7"><a xlink:href="https://circt.llvm.org/docs/Dialects/Handshake/" xlink:title="Handshake">
<polygon fill="white" stroke="black" points="286,-543 190,-543 190,-507 286,-507 286,-543"/>
<text text-anchor="middle" x="238" y="-521.3" font-family="Times,serif" font-size="14.00">Handshake</text>
</a>
</g>
</g>
<!-- Arith&#45;&gt;Handshake -->
<g id="edge6" class="edge">
<title>Arith&#45;&gt;Handshake</title>
<path fill="none" stroke="black" d="M135.48,-734C142.71,-697.89 159.26,-629.87 189,-579 195,-568.73 203.29,-558.79 211.35,-550.34"/>
<polygon fill="black" stroke="black" points="214.04,-552.6 218.61,-543.04 209.07,-547.67 214.04,-552.6"/>
</g>
<!-- Arith&#45;&gt;Calyx -->
<g id="edge7" class="edge">
<title>Arith&#45;&gt;Calyx</title>
<path fill="none" stroke="black" d="M148.21,-734C173.3,-698.22 222.16,-630.97 270,-579 279.26,-568.94 290.15,-558.64 299.99,-549.82"/>
<polygon fill="black" stroke="black" points="302.42,-552.34 307.6,-543.1 297.78,-547.1 302.42,-552.34"/>
</g>
<!-- FIRRTL -->
<g id="node9" class="node">
<title>FIRRTL</title>
<g id="a_node9"><a xlink:href="https://circt.llvm.org/docs/Dialects/FIRRTL/" xlink:title="FIRRTL">
<polygon fill="white" stroke="black" points="261.5,-471 190.5,-471 190.5,-435 261.5,-435 261.5,-471"/>
<text text-anchor="middle" x="226" y="-449.3" font-family="Times,serif" font-size="14.00">FIRRTL</text>
</a>
</g>
</g>
<!-- Handshake&#45;&gt;FIRRTL -->
<g id="edge8" class="edge">
<title>Handshake&#45;&gt;FIRRTL</title>
<path fill="none" stroke="black" d="M235.03,-506.7C233.71,-498.98 232.12,-489.71 230.65,-481.11"/>
<polygon fill="black" stroke="black" points="234.07,-480.37 228.93,-471.1 227.17,-481.55 234.07,-480.37"/>
</g>
<!-- FSM -->
<g id="node13" class="node">
<title>FSM</title>
<g id="a_node13"><a xlink:href="https://circt.llvm.org/docs/Dialects/FSM/" xlink:title="FSM">
<polygon fill="white" stroke="black" points="330,-471 276,-471 276,-435 330,-435 330,-471"/>
<text text-anchor="middle" x="303" y="-449.3" font-family="Times,serif" font-size="14.00">FSM</text>
</a>
</g>
</g>
<!-- Calyx&#45;&gt;FSM -->
<g id="edge9" class="edge">
<title>Calyx&#45;&gt;FSM</title>
<path fill="none" stroke="black" d="M321.82,-506.7C319,-498.81 315.61,-489.3 312.48,-480.55"/>
<polygon fill="black" stroke="black" points="315.77,-479.34 309.11,-471.1 309.18,-481.7 315.77,-479.34"/>
</g>
<!-- Calyx_native -->
<g id="node30" class="node">
<title>Calyx_native</title>
<polygon fill="#ffff99" stroke="black" points="173.73,-445.54 173.73,-460.46 130.54,-471 69.46,-471 26.27,-460.46 26.27,-445.54 69.46,-435 130.54,-435 173.73,-445.54"/>
<text text-anchor="middle" x="100" y="-449.3" font-family="Times,serif" font-size="14.00">Calyx native</text>
</g>
<!-- Calyx&#45;&gt;Calyx_native -->
<g id="edge31" class="edge">
<title>Calyx&#45;&gt;Calyx_native</title>
<path fill="none" stroke="black" d="M299.92,-509.81C297.6,-508.81 295.28,-507.86 293,-507 250.46,-490.98 201,-477.5 162.8,-468.14"/>
<polygon fill="black" stroke="black" points="163.39,-464.68 152.85,-465.73 161.74,-471.48 163.39,-464.68"/>
</g>
<!-- space_above_RTL -->
<!-- FIRRTL&#45;&gt;space_above_RTL -->
<!-- Seq -->
<g id="node18" class="node">
<title>Seq</title>
<g id="a_node18"><a xlink:href="https://circt.llvm.org/docs/Dialects/Seq/" xlink:title="Seq">
<polygon fill="white" stroke="black" points="408,-324 354,-324 354,-288 408,-288 408,-324"/>
<text text-anchor="middle" x="381" y="-302.3" font-family="Times,serif" font-size="14.00">Seq</text>
</a>
</g>
</g>
<!-- FIRRTL&#45;&gt;Seq -->
<g id="edge10" class="edge">
<title>FIRRTL&#45;&gt;Seq</title>
<path fill="none" stroke="black" d="M239.57,-434.66C256.2,-414.56 286.24,-381.79 319,-363 326.54,-358.67 331.82,-359.93 337.68,-358.95"/>
<polygon fill="black" stroke="black" points="339.16,-362.12 347,-355 336.43,-355.67 339.16,-362.12"/>
</g>
<!-- Pipeline&#45;&gt;Calyx -->
<g id="edge5" class="edge">
<title>Pipeline&#45;&gt;Calyx</title>
<path fill="none" stroke="black" d="M328,-578.7C328,-570.98 328,-561.71 328,-553.11"/>
<polygon fill="black" stroke="black" points="331.5,-553.1 328,-543.1 324.5,-553.1 331.5,-553.1"/>
</g>
<!-- MSFT -->
<g id="node11" class="node">
<title>MSFT</title>
<g id="a_node11"><a xlink:href="https://circt.llvm.org/docs/Dialects/MSFT/" xlink:title="MSFT">
<polygon fill="white" stroke="black" points="403.5,-471 344.5,-471 344.5,-435 403.5,-435 403.5,-471"/>
<text text-anchor="middle" x="374" y="-449.3" font-family="Times,serif" font-size="14.00">MSFT</text>
</a>
</g>
</g>
<!-- MSFT&#45;&gt;space_above_RTL -->
<!-- MSFT&#45;&gt;Seq -->
<g id="edge11" class="edge">
<title>MSFT&#45;&gt;Seq</title>
<path fill="none" stroke="black" d="M362.53,-434.67C356.63,-424.69 350.04,-411.65 347,-399 343.85,-385.87 342.95,-380.24 346.96,-364.74"/>
<polygon fill="black" stroke="black" points="350.36,-365.57 349.71,-355 343.62,-363.67 350.36,-365.57"/>
</g>
<!-- TCL -->
<g id="node40" class="node">
<title>TCL</title>
<polygon fill="#7fc97f" stroke="black" points="447,-36 321,-36 321,0 453,0 453,-30 447,-36"/>
<polyline fill="none" stroke="black" points="447,-36 447,-30 "/>
<polyline fill="none" stroke="black" points="453,-30 447,-30 "/>
<text text-anchor="middle" x="387" y="-14.3" font-family="Times,serif" font-size="14.00">Placements (tcl)</text>
</g>
<!-- MSFT&#45;&gt;TCL -->
<g id="edge37" class="edge">
<title>MSFT&#45;&gt;TCL</title>
<path fill="none" stroke="black" d="M403.91,-437.48C468.25,-405.78 614,-331.28 614,-307 614,-307 614,-307 614,-161 614,-120.81 625.43,-101.37 598,-72 595.57,-69.39 522.51,-51.4 463.04,-37.09"/>
<polygon fill="black" stroke="black" points="463.79,-33.67 453.25,-34.74 462.15,-40.48 463.79,-33.67"/>
</g>
<!-- ESI -->
<g id="node12" class="node">
<title>ESI</title>
<g id="a_node12"><a xlink:href="https://circt.llvm.org/docs/Dialects/ESI/" xlink:title="ESI">
<polygon fill="white" stroke="black" points="472,-471 418,-471 418,-435 472,-435 472,-471"/>
<text text-anchor="middle" x="445" y="-449.3" font-family="Times,serif" font-size="14.00">ESI</text>
</a>
</g>
</g>
<!-- ESI&#45;&gt;space_above_RTL -->
<!-- ESI&#45;&gt;Seq -->
<g id="edge12" class="edge">
<title>ESI&#45;&gt;Seq</title>
<path fill="none" stroke="black" d="M440.44,-434.84C435.81,-418.37 427.95,-392.75 415.32,-364.32"/>
<polygon fill="black" stroke="black" points="418.4,-362.63 411.05,-355 412.03,-365.54 418.4,-362.63"/>
</g>
<!-- CapNProto -->
<g id="node38" class="node">
<title>CapNProto</title>
<polygon fill="#7fc97f" stroke="black" points="660.5,-36 467.5,-36 467.5,0 666.5,0 666.5,-30 660.5,-36"/>
<polyline fill="none" stroke="black" points="660.5,-36 660.5,-30 "/>
<polyline fill="none" stroke="black" points="666.5,-30 660.5,-30 "/>
<text text-anchor="middle" x="567" y="-14.3" font-family="Times,serif" font-size="14.00">Message schema (Capnp)</text>
</g>
<!-- ESI&#45;&gt;CapNProto -->
<g id="edge35" class="edge">
<title>ESI&#45;&gt;CapNProto</title>
<path fill="none" stroke="black" d="M472.28,-437.63C504.21,-420.19 557.93,-388.89 599,-355 621.56,-336.39 644,-336.24 644,-307 644,-307 644,-307 644,-161 644,-119.66 637.73,-107.76 617,-72 611.07,-61.78 602.82,-51.96 594.72,-43.61"/>
<polygon fill="black" stroke="black" points="596.97,-40.92 587.39,-36.39 592.06,-45.9 596.97,-40.92"/>
</g>
<!-- ServiceDesc -->
<g id="node39" class="node">
<title>ServiceDesc</title>
<polygon fill="#7fc97f" stroke="black" points="300.5,-36 103.5,-36 103.5,0 306.5,0 306.5,-30 300.5,-36"/>
<polyline fill="none" stroke="black" points="300.5,-36 300.5,-30 "/>
<polyline fill="none" stroke="black" points="306.5,-30 300.5,-30 "/>
<text text-anchor="middle" x="205" y="-14.3" font-family="Times,serif" font-size="14.00">Software API Spec (JSON)</text>
</g>
<!-- ESI&#45;&gt;ServiceDesc -->
<g id="edge36" class="edge">
<title>ESI&#45;&gt;ServiceDesc</title>
<path fill="none" stroke="black" d="M417.71,-438.09C351.93,-404.35 190,-319.99 190,-307 190,-307 190,-307 190,-161 190,-120.99 195.96,-75 200.37,-46.46"/>
<polygon fill="black" stroke="black" points="203.85,-46.85 201.96,-36.43 196.94,-45.75 203.85,-46.85"/>
</g>
<!-- FSM&#45;&gt;space_above_RTL -->
<!-- FSM&#45;&gt;Seq -->
<g id="edge13" class="edge">
<title>FSM&#45;&gt;Seq</title>
<path fill="none" stroke="black" d="M308.29,-434.81C314.4,-416.27 325.51,-386.3 340,-363 340.08,-362.87 340.16,-362.75 340.23,-362.63"/>
<polygon fill="black" stroke="black" points="342.98,-364.8 347,-355 337.75,-360.16 342.98,-364.8"/>
</g>
<!-- HWArith -->
<g id="node14" class="node">
<title>HWArith</title>
<g id="a_node14"><a xlink:href="https://circt.llvm.org/docs/Dialects/HWArith/" xlink:title="HWArith">
<polygon fill="white" stroke="black" points="564,-471 486,-471 486,-435 564,-435 564,-471"/>
<text text-anchor="middle" x="525" y="-449.3" font-family="Times,serif" font-size="14.00">HWArith</text>
</a>
</g>
</g>
<!-- HWArith&#45;&gt;space_above_RTL -->
<!-- HWArith&#45;&gt;Seq -->
<g id="edge14" class="edge">
<title>HWArith&#45;&gt;Seq</title>
<path fill="none" stroke="black" d="M506.89,-434.68C487.41,-416.3 455.28,-386.7 426,-363 424.97,-362.17 424.07,-361.52 423.25,-360.98"/>
<polygon fill="black" stroke="black" points="425.15,-358.04 415,-355 421.04,-363.7 425.15,-358.04"/>
</g>
<!-- SystemC -->
<g id="node15" class="node">
<title>SystemC</title>
<g id="a_node15"><a xlink:href="https://circt.llvm.org/docs/Dialects/SystemC/" xlink:title="SystemC">
<polygon fill="white" stroke="black" points="576,-252 496,-252 496,-216 576,-216 576,-252"/>
<text text-anchor="middle" x="536" y="-230.3" font-family="Times,serif" font-size="14.00">SystemC</text>
</a>
</g>
</g>
<!-- ExportSystemC -->
<g id="node25" class="node">
<title>ExportSystemC</title>
<polygon fill="#fdc086" stroke="black" points="591.5,-180 462.5,-180 462.5,-144 591.5,-144 591.5,-180"/>
<text text-anchor="middle" x="527" y="-158.3" font-family="Times,serif" font-size="14.00">ExportSystemC</text>
</g>
<!-- SystemC&#45;&gt;ExportSystemC -->
<g id="edge24" class="edge">
<title>SystemC&#45;&gt;ExportSystemC</title>
<path fill="none" stroke="black" d="M533.78,-215.7C532.78,-207.98 531.59,-198.71 530.49,-190.11"/>
<polygon fill="black" stroke="black" points="533.95,-189.58 529.2,-180.1 527,-190.47 533.95,-189.58"/>
</g>
<!-- MooreMIR -->
<g id="node16" class="node">
<title>MooreMIR</title>
<g id="a_node16"><a xlink:href="https://circt.llvm.org/docs/Dialects/Moore/" xlink:title="Moore MIR">
<polygon fill="white" stroke="black" points="675.5,-471 578.5,-471 578.5,-435 675.5,-435 675.5,-471"/>
<text text-anchor="middle" x="627" y="-449.3" font-family="Times,serif" font-size="14.00">Moore MIR</text>
</a>
</g>
</g>
<!-- MooreMIR&#45;&gt;space_above_RTL -->
<!-- MooreMIR&#45;&gt;Seq -->
<g id="edge15" class="edge">
<title>MooreMIR&#45;&gt;Seq</title>
<path fill="none" stroke="black" d="M598.52,-434.97C564.31,-415.16 504.7,-382.68 450,-363 438.86,-358.99 432.28,-361.41 424.21,-359.3"/>
<polygon fill="black" stroke="black" points="425.54,-356.06 415,-355 422.58,-362.4 425.54,-356.06"/>
</g>
<!-- space_above_RTL&#45;&gt;Seq -->
<!-- HW -->
<g id="node19" class="node">
<title>HW</title>
<g id="a_node19"><a xlink:href="https://circt.llvm.org/docs/Dialects/HW/" xlink:title="HW">
<polygon fill="white" stroke="black" points="340,-324 286,-324 286,-288 340,-288 340,-324"/>
<text text-anchor="middle" x="313" y="-302.3" font-family="Times,serif" font-size="14.00">HW</text>
</a>
</g>
</g>
<!-- space_above_RTL&#45;&gt;HW -->
<!-- Comb -->
<g id="node21" class="node">
<title>Comb</title>
<g id="a_node21"><a xlink:href="https://circt.llvm.org/docs/Dialects/Comb/" xlink:title="Comb">
<polygon fill="white" stroke="black" points="480,-324 422,-324 422,-288 480,-288 480,-324"/>
<text text-anchor="middle" x="451" y="-302.3" font-family="Times,serif" font-size="14.00">Comb</text>
</a>
</g>
</g>
<!-- space_above_RTL&#45;&gt;Comb -->
<!-- SV -->
<g id="node20" class="node">
<title>SV</title>
<g id="a_node20"><a xlink:href="https://circt.llvm.org/docs/Dialects/SV/" xlink:title="SV">
<polygon fill="white" stroke="black" points="408,-252 354,-252 354,-216 408,-216 408,-252"/>
<text text-anchor="middle" x="381" y="-230.3" font-family="Times,serif" font-size="14.00">SV</text>
</a>
</g>
</g>
<!-- Seq&#45;&gt;SV -->
<g id="edge16" class="edge">
<title>Seq&#45;&gt;SV</title>
<path fill="none" stroke="black" d="M381,-287.7C381,-279.98 381,-270.71 381,-262.11"/>
<polygon fill="black" stroke="black" points="384.5,-262.1 381,-252.1 377.5,-262.1 384.5,-262.1"/>
</g>
<!-- HW&#45;&gt;SystemC -->
<g id="edge18" class="edge">
<title>HW&#45;&gt;SystemC</title>
<path fill="none" stroke="black" d="M340.24,-290.74C342.5,-289.75 344.77,-288.82 347,-288 405.85,-266.23 426.06,-271.12 486.25,-253.36"/>
<polygon fill="black" stroke="black" points="487.3,-256.69 495.85,-250.43 485.26,-250 487.3,-256.69"/>
</g>
<!-- LLHD -->
<g id="node22" class="node">
<title>LLHD</title>
<g id="a_node22"><a xlink:href="https://circt.llvm.org/docs/Dialects/LLHD/" xlink:title="LLHD">
<polygon fill="white" stroke="black" points="270,-252 212,-252 212,-216 270,-216 270,-252"/>
<text text-anchor="middle" x="241" y="-230.3" font-family="Times,serif" font-size="14.00">LLHD</text>
</a>
</g>
</g>
<!-- HW&#45;&gt;LLHD -->
<g id="edge17" class="edge">
<title>HW&#45;&gt;LLHD</title>
<path fill="none" stroke="black" d="M295.2,-287.7C286.4,-279.14 275.62,-268.66 266,-259.3"/>
<polygon fill="black" stroke="black" points="268.2,-256.57 258.59,-252.1 263.32,-261.58 268.2,-256.57"/>
</g>
<!-- llhd_sim -->
<g id="node24" class="node">
<title>llhd_sim</title>
<polygon fill="#fdc086" stroke="black" points="300,-180 224,-180 224,-144 300,-144 300,-180"/>
<text text-anchor="middle" x="262" y="-158.3" font-family="Times,serif" font-size="14.00">llhd_sim</text>
</g>
<!-- SV&#45;&gt;llhd_sim -->
<g id="edge28" class="edge">
<title>SV&#45;&gt;llhd_sim</title>
<path fill="none" stroke="black" d="M350,-208C337.14,-199.65 322.53,-191.65 308.96,-184.76"/>
<polygon fill="black" stroke="black" points="310.28,-181.51 299.77,-180.19 307.16,-187.78 310.28,-181.51"/>
</g>
<!-- ExportVerilog -->
<g id="node26" class="node">
<title>ExportVerilog</title>
<g id="a_node26"><a xlink:href="https://circt.llvm.org/docs/VerilogGeneration/" xlink:title="ExportVerilog">
<polygon fill="#fdc086" stroke="black" points="443,-180 327,-180 327,-144 443,-144 443,-180"/>
<text text-anchor="middle" x="385" y="-158.3" font-family="Times,serif" font-size="14.00">ExportVerilog</text>
</a>
</g>
</g>
<!-- SV&#45;&gt;ExportVerilog -->
<g id="edge27" class="edge">
<title>SV&#45;&gt;ExportVerilog</title>
<path fill="none" stroke="black" d="M382.43,-208C382.76,-202.2 383.11,-196 383.45,-190.11"/>
<polygon fill="black" stroke="black" points="386.95,-190.29 384.02,-180.1 379.96,-189.89 386.95,-190.29"/>
</g>
<!-- Comb&#45;&gt;ExportSystemC -->
<g id="edge25" class="edge">
<title>Comb&#45;&gt;ExportSystemC</title>
<path fill="none" stroke="black" d="M480.05,-289.78C481.38,-289.16 482.7,-288.57 484,-288 526.9,-269.24 556.14,-290.35 583,-252 594.22,-235.98 591.45,-225.63 583,-208 579.09,-199.84 572.89,-192.68 566.02,-186.62"/>
<polygon fill="black" stroke="black" points="567.74,-183.52 557.74,-180.02 563.38,-188.99 567.74,-183.52"/>
</g>
<!-- LLHD&#45;&gt;llhd_sim -->
<g id="edge33" class="edge">
<title>LLHD&#45;&gt;llhd_sim</title>
<path fill="none" stroke="black" d="M246.19,-215.7C248.53,-207.9 251.35,-198.51 253.95,-189.83"/>
<polygon fill="black" stroke="black" points="257.35,-190.69 256.87,-180.1 250.64,-188.68 257.35,-190.69"/>
</g>
<!-- FIRRTLParser -->
<g id="node23" class="node">
<title>FIRRTLParser</title>
<polygon fill="#fdc086" stroke="black" points="504.5,-543 387.5,-543 387.5,-507 504.5,-507 504.5,-543"/>
<text text-anchor="middle" x="446" y="-521.3" font-family="Times,serif" font-size="14.00">FIRRTLParser</text>
</g>
<!-- FIRRTLParser&#45;&gt;FIRRTL -->
<g id="edge23" class="edge">
<title>FIRRTLParser&#45;&gt;FIRRTL</title>
<path fill="none" stroke="black" d="M387.4,-507.82C355.11,-498.58 314.15,-486.36 271.09,-471.62"/>
<polygon fill="black" stroke="black" points="272.17,-468.29 261.58,-468.34 269.89,-474.91 272.17,-468.29"/>
</g>
<!-- VCDTrace -->
<g id="node35" class="node">
<title>VCDTrace</title>
<polygon fill="#7fc97f" stroke="black" points="304,-108 214,-108 214,-72 310,-72 310,-102 304,-108"/>
<polyline fill="none" stroke="black" points="304,-108 304,-102 "/>
<polyline fill="none" stroke="black" points="310,-102 304,-102 "/>
<text text-anchor="middle" x="262" y="-86.3" font-family="Times,serif" font-size="14.00">Trace (vcd)</text>
</g>
<!-- llhd_sim&#45;&gt;VCDTrace -->
<g id="edge34" class="edge">
<title>llhd_sim&#45;&gt;VCDTrace</title>
<path fill="none" stroke="black" d="M262,-143.7C262,-135.98 262,-126.71 262,-118.11"/>
<polygon fill="black" stroke="black" points="265.5,-118.1 262,-108.1 258.5,-118.1 265.5,-118.1"/>
</g>
<!-- SystemCFile -->
<g id="node36" class="node">
<title>SystemCFile</title>
<polygon fill="#7fc97f" stroke="black" points="584.5,-108 463.5,-108 463.5,-72 590.5,-72 590.5,-102 584.5,-108"/>
<polyline fill="none" stroke="black" points="584.5,-108 584.5,-102 "/>
<polyline fill="none" stroke="black" points="590.5,-102 584.5,-102 "/>
<text text-anchor="middle" x="527" y="-86.3" font-family="Times,serif" font-size="14.00">SystemC (c++)</text>
</g>
<!-- ExportSystemC&#45;&gt;SystemCFile -->
<g id="edge26" class="edge">
<title>ExportSystemC&#45;&gt;SystemCFile</title>
<path fill="none" stroke="black" d="M527,-143.7C527,-135.98 527,-126.71 527,-118.11"/>
<polygon fill="black" stroke="black" points="530.5,-118.1 527,-108.1 523.5,-118.1 530.5,-118.1"/>
</g>
<!-- SVFile -->
<g id="node37" class="node">
<title>SVFile</title>
<polygon fill="#7fc97f" stroke="black" points="441,-108 327,-108 327,-72 447,-72 447,-102 441,-108"/>
<polyline fill="none" stroke="black" points="441,-108 441,-102 "/>
<polyline fill="none" stroke="black" points="447,-102 441,-102 "/>
<text text-anchor="middle" x="387" y="-86.3" font-family="Times,serif" font-size="14.00">SystemVerilog</text>
</g>
<!-- ExportVerilog&#45;&gt;SVFile -->
<g id="edge19" class="edge">
<title>ExportVerilog&#45;&gt;SVFile</title>
<path fill="none" stroke="black" d="M385.49,-143.7C385.71,-135.98 385.98,-126.71 386.23,-118.11"/>
<polygon fill="black" stroke="black" points="389.72,-118.2 386.51,-108.1 382.73,-118 389.72,-118.2"/>
</g>
<!-- PyCDE -->
<g id="node27" class="node">
<title>PyCDE</title>
<g id="a_node27"><a xlink:href="https://circt.llvm.org/docs/PyCDE/" xlink:title="PyCDE">
<polygon fill="#fdc086" stroke="black" points="585.5,-543 518.5,-543 518.5,-507 585.5,-507 585.5,-543"/>
<text text-anchor="middle" x="552" y="-521.3" font-family="Times,serif" font-size="14.00">PyCDE</text>
</a>
</g>
</g>
<!-- PyCDE&#45;&gt;MSFT -->
<g id="edge40" class="edge">
<title>PyCDE&#45;&gt;MSFT</title>
<path fill="none" stroke="black" d="M518.45,-509.57C516.27,-508.69 514.11,-507.82 512,-507 470.47,-490.79 456.88,-489.13 413.25,-471.78"/>
<polygon fill="black" stroke="black" points="414.37,-468.46 403.79,-467.96 411.75,-474.95 414.37,-468.46"/>
</g>
<!-- PyCDE&#45;&gt;ESI -->
<g id="edge39" class="edge">
<title>PyCDE&#45;&gt;ESI</title>
<path fill="none" stroke="black" d="M525.82,-506.88C511.96,-497.81 494.76,-486.55 479.79,-476.76"/>
<polygon fill="black" stroke="black" points="481.56,-473.74 471.28,-471.19 477.73,-479.59 481.56,-473.74"/>
</g>
<!-- PyCDE&#45;&gt;FSM -->
<g id="edge42" class="edge">
<title>PyCDE&#45;&gt;FSM</title>
<path fill="none" stroke="black" d="M518.13,-509.07C516.07,-508.33 514.02,-507.63 512,-507 439.72,-484.41 414.8,-495.44 340.11,-471.32"/>
<polygon fill="black" stroke="black" points="340.83,-467.87 330.24,-468.02 338.62,-474.51 340.83,-467.87"/>
</g>
<!-- PyCDE&#45;&gt;HWArith -->
<g id="edge41" class="edge">
<title>PyCDE&#45;&gt;HWArith</title>
<path fill="none" stroke="black" d="M545.33,-506.7C542.29,-498.81 538.62,-489.3 535.24,-480.55"/>
<polygon fill="black" stroke="black" points="538.46,-479.17 531.6,-471.1 531.93,-481.69 538.46,-479.17"/>
</g>
<!-- Scheduling -->
<g id="node28" class="node">
<title>Scheduling</title>
<g id="a_node28"><a xlink:href="https://circt.llvm.org/docs/Scheduling/" xlink:title="Scheduling">
<polygon fill="#fdc086" stroke="black" points="459,-687 363,-687 363,-651 459,-651 459,-687"/>
<text text-anchor="middle" x="411" y="-665.3" font-family="Times,serif" font-size="14.00">Scheduling</text>
</a>
</g>
</g>
<!-- Scheduling&#45;&gt;Pipeline -->
<g id="edge20" class="edge">
<title>Scheduling&#45;&gt;Pipeline</title>
<path fill="none" stroke="black" d="M382.58,-644.03C374.04,-636.83 364.67,-628.93 356.14,-621.74"/>
<polygon fill="black" stroke="black" points="380.58,-646.93 390.48,-650.7 385.1,-641.57 380.58,-646.93"/>
<polygon fill="black" stroke="black" points="358.18,-618.88 348.28,-615.1 353.67,-624.23 358.18,-618.88"/>
</g>
<!-- Scheduling&#45;&gt;MSFT -->
<g id="edge43" class="edge">
<title>Scheduling&#45;&gt;MSFT</title>
<path fill="none" stroke="black" stroke-dasharray="5,2" d="M403.18,-640.88C396.25,-615.72 386.4,-577.14 381,-543 377.75,-522.46 375.98,-499.01 375.04,-481.34"/>
<polygon fill="black" stroke="black" points="399.89,-642.1 405.96,-650.78 406.63,-640.21 399.89,-642.1"/>
<polygon fill="black" stroke="black" points="378.52,-480.98 374.55,-471.16 371.53,-481.31 378.52,-480.98"/>
</g>
<!-- Moore -->
<g id="node29" class="node">
<title>Moore</title>
<polygon fill="#ffff99" stroke="black" points="569.73,-752.54 569.73,-767.46 544.11,-778 507.89,-778 482.27,-767.46 482.27,-752.54 507.89,-742 544.11,-742 569.73,-752.54"/>
<text text-anchor="middle" x="526" y="-756.3" font-family="Times,serif" font-size="14.00">Moore</text>
</g>
<!-- Moore&#45;&gt;MooreMIR -->
<g id="edge30" class="edge">
<title>Moore&#45;&gt;MooreMIR</title>
<path fill="none" stroke="black" d="M531.72,-741.73C548.52,-690.98 597.84,-542.06 618.13,-480.8"/>
<polygon fill="black" stroke="black" points="621.52,-481.68 621.34,-471.08 614.88,-479.48 621.52,-481.68"/>
</g>
<!-- Moore&#45;&gt;Scheduling -->
<!-- Calyx_native&#45;&gt;HW -->
<g id="edge32" class="edge">
<title>Calyx_native&#45;&gt;HW</title>
<path fill="none" stroke="black" d="M111.58,-434.83C125.56,-415.2 150.76,-383.18 179,-363 208.69,-341.79 247.64,-326.66 275.89,-317.52"/>
<polygon fill="black" stroke="black" points="270.74,-324.14 278,-316.42 267.51,-317.93 270.74,-324.14"/>
</g>
<!-- FIRFile -->
<g id="node31" class="node">
<title>FIRFile</title>
<polygon fill="#7fc97f" stroke="black" points="432,-778 384,-778 384,-742 438,-742 438,-772 432,-778"/>
<polyline fill="none" stroke="black" points="432,-778 432,-772 "/>
<polyline fill="none" stroke="black" points="438,-772 432,-772 "/>
<text text-anchor="middle" x="411" y="-756.3" font-family="Times,serif" font-size="14.00">.fir</text>
</g>
<!-- FIRFile&#45;&gt;FIRRTLParser -->
<g id="edge22" class="edge">
<title>FIRFile&#45;&gt;FIRRTLParser</title>
<path fill="none" stroke="black" d="M428.74,-741.81C434.87,-736.36 441.97,-730.58 449,-726 456,-721.44 461.53,-725.05 466,-718 498.61,-666.61 474.89,-591.51 458.35,-552.2"/>
<polygon fill="black" stroke="black" points="461.54,-550.77 454.33,-543.01 455.13,-553.58 461.54,-550.77"/>
</g>
<!-- FIRFile&#45;&gt;Scheduling -->
<!-- Chisel -->
<g id="node32" class="node">
<title>Chisel</title>
<polygon fill="#ffff99" stroke="black" points="349.83,-843.54 349.83,-858.46 324.74,-869 289.26,-869 264.17,-858.46 264.17,-843.54 289.26,-833 324.74,-833 349.83,-843.54"/>
<text text-anchor="middle" x="307" y="-847.3" font-family="Times,serif" font-size="14.00">Chisel</text>
</g>
<!-- Chisel&#45;&gt;CF -->
<!-- Chisel&#45;&gt;FIRFile -->
<g id="edge21" class="edge">
<title>Chisel&#45;&gt;FIRFile</title>
<path fill="none" stroke="black" d="M340.75,-839.57C353.78,-834.32 368.14,-826.93 379,-817 387.98,-808.78 395.11,-797.45 400.33,-787.12"/>
<polygon fill="black" stroke="black" points="403.51,-788.58 404.6,-778.04 397.18,-785.61 403.51,-788.58"/>
</g>
<!-- SVVHDL -->
<g id="node33" class="node">
<title>SVVHDL</title>
<polygon fill="#7fc97f" stroke="black" points="556,-869 490,-869 490,-833 562,-833 562,-863 556,-869"/>
<polyline fill="none" stroke="black" points="556,-869 556,-863 "/>
<polyline fill="none" stroke="black" points="562,-863 556,-863 "/>
<text text-anchor="middle" x="526" y="-847.3" font-family="Times,serif" font-size="14.00">.sv/.vhd</text>
</g>
<!-- SVVHDL&#45;&gt;Moore -->
<g id="edge29" class="edge">
<title>SVVHDL&#45;&gt;Moore</title>
<path fill="none" stroke="black" d="M526,-832.84C526,-820.28 526,-802.98 526,-788.5"/>
<polygon fill="black" stroke="black" points="529.5,-788.11 526,-778.11 522.5,-788.11 529.5,-788.11"/>
</g>
<!-- PyFile -->
<g id="node34" class="node">
<title>PyFile</title>
<polygon fill="#ffff99" stroke="black" points="476.27,-843.54 476.27,-858.46 448.58,-869 409.42,-869 381.73,-858.46 381.73,-843.54 409.42,-833 448.58,-833 476.27,-843.54"/>
<text text-anchor="middle" x="429" y="-847.3" font-family="Times,serif" font-size="14.00">Python</text>
</g>
<!-- PyFile&#45;&gt;PyCDE -->
<g id="edge38" class="edge">
<title>PyFile&#45;&gt;PyCDE</title>
<path fill="none" stroke="black" d="M437.91,-832.73C440.35,-827.72 442.9,-822.19 445,-817 460.99,-777.53 450.7,-760.97 475,-726 478.25,-721.33 481.71,-722.65 485,-718 521.71,-666.13 539.92,-592.28 547.5,-553.01"/>
<polygon fill="black" stroke="black" points="550.95,-553.59 549.32,-543.12 544.07,-552.32 550.95,-553.59"/>
</g>
<!-- SVFile&#45;&gt;CapNProto -->
<!-- SVFile&#45;&gt;ServiceDesc -->
<!-- SVFile&#45;&gt;TCL -->
</g>
</svg>
