<?xml version="1.0" encoding="UTF-8" standalone="no"?>
<!DOCTYPE svg PUBLIC "-//W3C//DTD SVG 1.1//EN"
 "http://www.w3.org/Graphics/SVG/1.1/DTD/svg11.dtd">
<!-- Generated by graphviz version 12.0.0 (20240704.0754)
 -->
<!-- Title: G Pages: 1 -->
<svg width="657pt" height="1004pt"
 viewBox="0.00 0.00 656.78 1004.00" xmlns="http://www.w3.org/2000/svg" xmlns:xlink="http://www.w3.org/1999/xlink">
<g id="graph0" class="graph" transform="scale(1 1) rotate(0) translate(4 1000)">
<title>G</title>
<polygon fill="white" stroke="none" points="-4,4 -4,-1000 652.78,-1000 652.78,4 -4,4"/>
<g id="clust1" class="cluster">
<title>cluster_mlir_frontends</title>
<polygon fill="none" stroke="black" points="52.78,-911.5 52.78,-988 236.78,-988 236.78,-911.5 52.78,-911.5"/>
<text text-anchor="middle" x="144.78" y="-970.7" font-family="Times,serif" font-size="14.00">Upstream frontends (selection)</text>
</g>
<g id="clust2" class="cluster">
<title>cluster_mlir</title>
<polygon fill="none" stroke="black" points="152.78,-811 152.78,-903.5 436.78,-903.5 436.78,-811 152.78,-811"/>
<text text-anchor="middle" x="294.78" y="-886.2" font-family="Times,serif" font-size="14.00">Upstream MLIR</text>
</g>
<g id="clust3" class="cluster">
<title>cluster_std_arith_dialect</title>
<polygon fill="none" stroke="black" points="160.78,-819 160.78,-871 298.78,-871 298.78,-819 160.78,-819"/>
</g>
<g id="clust4" class="cluster">
<title>cluster_circt</title>
<polygon fill="none" stroke="black" points="133.78,-218 133.78,-803 637.78,-803 637.78,-218 133.78,-218"/>
<text text-anchor="middle" x="385.78" y="-785.7" font-family="Times,serif" font-size="14.00">CIRCT</text>
</g>
<g id="clust6" class="cluster">
<title>cluster_RTL</title>
<polygon fill="none" stroke="black" points="220.78,-362 220.78,-438.5 496.78,-438.5 496.78,-362 220.78,-362"/>
<text text-anchor="middle" x="358.78" y="-421.2" font-family="Times,serif" font-size="14.00">Core dialects</text>
</g>
<g id="clust9" class="cluster">
<title>cluster_input_langs</title>
<polygon fill="none" stroke="black" points="244.78,-911.5 244.78,-988 640.78,-988 640.78,-911.5 244.78,-911.5"/>
<text text-anchor="middle" x="442.78" y="-970.7" font-family="Times,serif" font-size="14.00">Input languages</text>
</g>
<!-- PyTorch -->
<g id="node1" class="node">
<title>PyTorch</title>
<polygon fill="white" stroke="black" points="149.03,-955.5 86.53,-955.5 86.53,-919.5 149.03,-919.5 149.03,-955.5"/>
<text text-anchor="middle" x="117.78" y="-932.45" font-family="Times,serif" font-size="14.00">PyTorch</text>
</g>
<!-- CF -->
<g id="node5" class="node">
<title>CF</title>
<polygon fill="#beaed4" stroke="black" points="222.78,-863 168.78,-863 168.78,-827 222.78,-827 222.78,-863"/>
<text text-anchor="middle" x="195.78" y="-839.95" font-family="Times,serif" font-size="14.00">CF</text>
</g>
<!-- PyTorch&#45;&gt;CF -->
<g id="edge1" class="edge">
<title>PyTorch&#45;&gt;CF</title>
<path fill="none" stroke="black" d="M128.58,-919.05C133.27,-913.02 139.09,-905.91 145.32,-898.53"/>
<polygon fill="black" stroke="black" points="147.97,-900.82 151.81,-890.95 142.65,-896.27 147.97,-900.82"/>
</g>
<!-- PyTorch&#45;&gt;CF -->
<!-- Polygeist -->
<g id="node2" class="node">
<title>Polygeist</title>
<polygon fill="white" stroke="black" points="228.91,-955.5 162.66,-955.5 162.66,-919.5 228.91,-919.5 228.91,-955.5"/>
<text text-anchor="middle" x="195.78" y="-932.45" font-family="Times,serif" font-size="14.00">Polygeist</text>
</g>
<!-- Affine -->
<g id="node4" class="node">
<title>Affine</title>
<polygon fill="#beaed4" stroke="black" points="428.78,-863 374.78,-863 374.78,-827 428.78,-827 428.78,-863"/>
<text text-anchor="middle" x="401.78" y="-839.95" font-family="Times,serif" font-size="14.00">Affine</text>
</g>
<!-- Polygeist&#45;&gt;Affine -->
<g id="edge2" class="edge">
<title>Polygeist&#45;&gt;Affine</title>
<path fill="none" stroke="black" d="M223.17,-919.13C229.11,-916.08 235.5,-913.31 241.78,-911.5 265.58,-904.64 326.92,-915.09 357.43,-907.54"/>
<polygon fill="black" stroke="black" points="358.33,-910.94 366.37,-904.05 355.79,-904.42 358.33,-910.94"/>
</g>
<!-- Polygeist&#45;&gt;CF -->
<!-- SCF -->
<g id="node3" class="node">
<title>SCF</title>
<polygon fill="#beaed4" stroke="black" points="360.78,-863 306.78,-863 306.78,-827 360.78,-827 360.78,-863"/>
<text text-anchor="middle" x="333.78" y="-839.95" font-family="Times,serif" font-size="14.00">SCF</text>
</g>
<!-- Calyx -->
<g id="node11" class="node">
<title>Calyx</title>
<g id="a_node11"><a xlink:href="https://circt.llvm.org/docs/Dialects/Calyx/" xlink:title="Calyx">
<polygon fill="white" stroke="black" points="285.78,-626.5 231.78,-626.5 231.78,-590.5 285.78,-590.5 285.78,-626.5"/>
<text text-anchor="middle" x="258.78" y="-603.45" font-family="Times,serif" font-size="14.00">Calyx</text>
</a>
</g>
</g>
<!-- SCF&#45;&gt;Calyx -->
<g id="edge3" class="edge">
<title>SCF&#45;&gt;Calyx</title>
<path fill="none" stroke="black" d="M328.27,-826.76C315.43,-786.61 283.44,-686.58 267.75,-637.53"/>
<polygon fill="black" stroke="black" points="271.15,-636.67 264.77,-628.21 264.48,-638.8 271.15,-636.67"/>
</g>
<!-- LoopSchedule -->
<g id="node14" class="node">
<title>LoopSchedule</title>
<g id="a_node14"><a xlink:href="https://circt.llvm.org/docs/Dialects/LoopSchedule/" xlink:title="LoopSchedule">
<polygon fill="white" stroke="black" points="411.78,-698.5 317.78,-698.5 317.78,-662.5 411.78,-662.5 411.78,-698.5"/>
<text text-anchor="middle" x="364.78" y="-675.45" font-family="Times,serif" font-size="14.00">LoopSchedule</text>
</a>
</g>
</g>
<!-- Affine&#45;&gt;LoopSchedule -->
<g id="edge4" class="edge">
<title>Affine&#45;&gt;LoopSchedule</title>
<path fill="none" stroke="black" d="M397.82,-826.61C391.45,-798.63 378.87,-743.36 371.2,-709.69"/>
<polygon fill="black" stroke="black" points="374.68,-709.21 369.05,-700.24 367.86,-710.77 374.68,-709.21"/>
</g>
<!-- Arith -->
<g id="node6" class="node">
<title>Arith</title>
<polygon fill="#beaed4" stroke="black" points="290.78,-863 236.78,-863 236.78,-827 290.78,-827 290.78,-863"/>
<text text-anchor="middle" x="263.78" y="-839.95" font-family="Times,serif" font-size="14.00">Arith</text>
</g>
<!-- Handshake -->
<g id="node10" class="node">
<title>Handshake</title>
<g id="a_node10"><a xlink:href="https://circt.llvm.org/docs/Dialects/Handshake/" xlink:title="Handshake">
<polygon fill="white" stroke="black" points="217.78,-626.5 141.78,-626.5 141.78,-590.5 217.78,-590.5 217.78,-626.5"/>
<text text-anchor="middle" x="179.78" y="-603.45" font-family="Times,serif" font-size="14.00">Handshake</text>
</a>
</g>
</g>
<!-- Arith&#45;&gt;Handshake -->
<g id="edge6" class="edge">
<title>Arith&#45;&gt;Handshake</title>
<path fill="none" stroke="black" d="M254.83,-819C239.04,-774.92 206.35,-683.67 189.82,-637.53"/>
<polygon fill="black" stroke="black" points="193.15,-636.43 186.48,-628.19 186.56,-638.79 193.15,-636.43"/>
</g>
<!-- Arith&#45;&gt;Calyx -->
<g id="edge7" class="edge">
<title>Arith&#45;&gt;Calyx</title>
<path fill="none" stroke="black" d="M263.25,-819C262.32,-775.12 260.38,-684.49 259.39,-638.15"/>
<polygon fill="black" stroke="black" points="262.9,-638.2 259.18,-628.28 255.9,-638.35 262.9,-638.2"/>
</g>
<!-- FIRRTLParser -->
<g id="node7" class="node">
<title>FIRRTLParser</title>
<polygon fill="#fdc086" stroke="black" points="395.91,-626.5 299.66,-626.5 299.66,-590.5 395.91,-590.5 395.91,-626.5"/>
<text text-anchor="middle" x="347.78" y="-603.45" font-family="Times,serif" font-size="14.00">FIRRTLParser</text>
</g>
<!-- FIRRTL -->
<g id="node12" class="node">
<title>FIRRTL</title>
<g id="a_node12"><a xlink:href="https://circt.llvm.org/docs/Dialects/FIRRTL/" xlink:title="FIRRTL">
<polygon fill="white" stroke="black" points="204.03,-554.5 141.53,-554.5 141.53,-518.5 204.03,-518.5 204.03,-554.5"/>
<text text-anchor="middle" x="172.78" y="-531.45" font-family="Times,serif" font-size="14.00">FIRRTL</text>
</a>
</g>
</g>
<!-- FIRRTLParser&#45;&gt;FIRRTL -->
<g id="edge33" class="edge">
<title>FIRRTLParser&#45;&gt;FIRRTL</title>
<path fill="none" stroke="black" d="M300.94,-590.06C276.96,-580.98 247.09,-569.44 214.81,-556.11"/>
<polygon fill="black" stroke="black" points="216.22,-552.91 205.65,-552.31 213.54,-559.38 216.22,-552.91"/>
</g>
<!-- PyCDE -->
<g id="node8" class="node">
<title>PyCDE</title>
<g id="a_node8"><a xlink:href="https://circt.llvm.org/docs/PyCDE/" xlink:title="PyCDE">
<polygon fill="#fdc086" stroke="black" points="467.41,-626.5 410.16,-626.5 410.16,-590.5 467.41,-590.5 467.41,-626.5"/>
<text text-anchor="middle" x="438.78" y="-603.45" font-family="Times,serif" font-size="14.00">PyCDE</text>
</a>
</g>
</g>
<!-- MSFT -->
<g id="node16" class="node">
<title>MSFT</title>
<g id="a_node16"><a xlink:href="https://circt.llvm.org/docs/Dialects/MSFT/" xlink:title="MSFT">
<polygon fill="white" stroke="black" points="487.78,-554.5 433.78,-554.5 433.78,-518.5 487.78,-518.5 487.78,-554.5"/>
<text text-anchor="middle" x="460.78" y="-531.45" font-family="Times,serif" font-size="14.00">MSFT</text>
</a>
</g>
</g>
<!-- PyCDE&#45;&gt;MSFT -->
<g id="edge45" class="edge">
<title>PyCDE&#45;&gt;MSFT</title>
<path fill="none" stroke="black" d="M444.22,-590.2C446.57,-582.74 449.37,-573.82 452,-565.47"/>
<polygon fill="black" stroke="black" points="455.3,-566.64 454.95,-556.05 448.62,-564.54 455.3,-566.64"/>
</g>
<!-- ESI -->
<g id="node17" class="node">
<title>ESI</title>
<g id="a_node17"><a xlink:href="https://circt.llvm.org/docs/Dialects/ESI/" xlink:title="ESI">
<polygon fill="white" stroke="black" points="339.78,-554.5 285.78,-554.5 285.78,-518.5 339.78,-518.5 339.78,-554.5"/>
<text text-anchor="middle" x="312.78" y="-531.45" font-family="Times,serif" font-size="14.00">ESI</text>
</a>
</g>
</g>
<!-- PyCDE&#45;&gt;ESI -->
<g id="edge46" class="edge">
<title>PyCDE&#45;&gt;ESI</title>
<path fill="none" stroke="black" d="M409.88,-591.44C392.14,-581.59 369.24,-568.87 350.14,-558.25"/>
<polygon fill="black" stroke="black" points="352.02,-555.3 341.58,-553.5 348.63,-561.42 352.02,-555.3"/>
</g>
<!-- FSM -->
<g id="node18" class="node">
<title>FSM</title>
<g id="a_node18"><a xlink:href="https://circt.llvm.org/docs/Dialects/FSM/" xlink:title="FSM">
<polygon fill="white" stroke="black" points="271.78,-554.5 217.78,-554.5 217.78,-518.5 271.78,-518.5 271.78,-554.5"/>
<text text-anchor="middle" x="244.78" y="-531.45" font-family="Times,serif" font-size="14.00">FSM</text>
</a>
</g>
</g>
<!-- PyCDE&#45;&gt;FSM -->
<g id="edge47" class="edge">
<title>PyCDE&#45;&gt;FSM</title>
<path fill="none" stroke="black" d="M409.88,-593.37C407.5,-592.35 405.11,-591.38 402.78,-590.5 352.36,-571.41 334.4,-574.88 282.53,-555.67"/>
<polygon fill="black" stroke="black" points="284.06,-552.51 273.47,-552.21 281.56,-559.05 284.06,-552.51"/>
</g>
<!-- HWArith -->
<g id="node19" class="node">
<title>HWArith</title>
<g id="a_node19"><a xlink:href="https://circt.llvm.org/docs/Dialects/HWArith/" xlink:title="HWArith">
<polygon fill="white" stroke="black" points="419.91,-554.5 353.66,-554.5 353.66,-518.5 419.91,-518.5 419.91,-554.5"/>
<text text-anchor="middle" x="386.78" y="-531.45" font-family="Times,serif" font-size="14.00">HWArith</text>
</a>
</g>
</g>
<!-- PyCDE&#45;&gt;HWArith -->
<g id="edge48" class="edge">
<title>PyCDE&#45;&gt;HWArith</title>
<path fill="none" stroke="black" d="M425.93,-590.2C420.01,-582.23 412.86,-572.6 406.29,-563.76"/>
<polygon fill="black" stroke="black" points="409.17,-561.76 400.39,-555.82 403.55,-565.93 409.17,-561.76"/>
</g>
<!-- Scheduling -->
<g id="node9" class="node">
<title>Scheduling</title>
<g id="a_node9"><a xlink:href="https://circt.llvm.org/docs/Scheduling/" xlink:title="Scheduling">
<polygon fill="#fdc086" stroke="black" points="510.16,-770.5 433.41,-770.5 433.41,-734.5 510.16,-734.5 510.16,-770.5"/>
<text text-anchor="middle" x="471.78" y="-747.45" font-family="Times,serif" font-size="14.00">Scheduling</text>
</a>
</g>
</g>
<!-- Pipeline -->
<g id="node13" class="node">
<title>Pipeline</title>
<g id="a_node13"><a xlink:href="https://circt.llvm.org/docs/Dialects/Pipeline/" xlink:title="Pipeline">
<polygon fill="white" stroke="black" points="561.91,-554.5 501.66,-554.5 501.66,-518.5 561.91,-518.5 561.91,-554.5"/>
<text text-anchor="middle" x="531.78" y="-531.45" font-family="Times,serif" font-size="14.00">Pipeline</text>
</a>
</g>
</g>
<!-- Scheduling&#45;&gt;Pipeline -->
<g id="edge30" class="edge">
<title>Scheduling&#45;&gt;Pipeline</title>
<path fill="none" stroke="black" d="M490.02,-724.51C494.79,-716.43 499.51,-707.36 502.78,-698.5 519.18,-654.09 526.52,-599.24 529.65,-566.39"/>
<polygon fill="black" stroke="black" points="487.15,-722.5 484.85,-732.84 493.1,-726.19 487.15,-722.5"/>
<polygon fill="black" stroke="black" points="533.13,-566.72 530.52,-556.45 526.16,-566.11 533.13,-566.72"/>
</g>
<!-- Scheduling&#45;&gt;LoopSchedule -->
<g id="edge29" class="edge">
<title>Scheduling&#45;&gt;LoopSchedule</title>
<path fill="none" stroke="black" d="M435.8,-727.96C424.5,-720.56 412.03,-712.41 400.73,-705.02"/>
<polygon fill="black" stroke="black" points="433.51,-730.64 443.79,-733.19 437.34,-724.78 433.51,-730.64"/>
<polygon fill="black" stroke="black" points="402.72,-702.13 392.43,-699.59 398.89,-707.99 402.72,-702.13"/>
</g>
<!-- SSP -->
<g id="node15" class="node">
<title>SSP</title>
<g id="a_node15"><a xlink:href="https://circt.llvm.org/docs/Dialects/SSP/" xlink:title="SSP">
<polygon fill="white" stroke="black" points="495.78,-698.5 441.78,-698.5 441.78,-662.5 495.78,-662.5 495.78,-698.5"/>
<text text-anchor="middle" x="468.78" y="-675.45" font-family="Times,serif" font-size="14.00">SSP</text>
</a>
</g>
</g>
<!-- Scheduling&#45;&gt;SSP -->
<g id="edge49" class="edge">
<title>Scheduling&#45;&gt;SSP</title>
<path fill="none" stroke="black" d="M470.55,-722.74C470.37,-718.51 470.18,-714.16 470,-709.94"/>
<polygon fill="black" stroke="black" points="467.05,-722.84 470.98,-732.68 474.05,-722.54 467.05,-722.84"/>
<polygon fill="black" stroke="black" points="473.51,-709.96 469.58,-700.12 466.51,-710.26 473.51,-709.96"/>
</g>
<!-- Scheduling&#45;&gt;MSFT -->
<g id="edge50" class="edge">
<title>Scheduling&#45;&gt;MSFT</title>
<path fill="none" stroke="black" stroke-dasharray="5,2" d="M448.94,-725.46C443.18,-717.36 437.78,-708.04 434.78,-698.5 429.98,-683.24 428.27,-677.12 434.78,-662.5 444.51,-640.65 465.05,-648.35 474.78,-626.5 483.33,-607.3 479.05,-583.74 473.06,-565.69"/>
<polygon fill="black" stroke="black" points="445.97,-727.33 454.83,-733.14 451.52,-723.08 445.97,-727.33"/>
<polygon fill="black" stroke="black" points="476.37,-564.56 469.62,-556.4 469.81,-566.99 476.37,-564.56"/>
</g>
<!-- Handshake&#45;&gt;FIRRTL -->
<g id="edge8" class="edge">
<title>Handshake&#45;&gt;FIRRTL</title>
<path fill="none" stroke="black" d="M178.05,-590.2C177.32,-582.91 176.46,-574.23 175.64,-566.04"/>
<polygon fill="black" stroke="black" points="179.12,-565.71 174.65,-556.11 172.16,-566.41 179.12,-565.71"/>
</g>
<!-- Calyx&#45;&gt;FSM -->
<g id="edge9" class="edge">
<title>Calyx&#45;&gt;FSM</title>
<path fill="none" stroke="black" d="M255.32,-590.2C253.85,-582.82 252.09,-574.02 250.43,-565.75"/>
<polygon fill="black" stroke="black" points="253.9,-565.21 248.5,-556.09 247.03,-566.58 253.9,-565.21"/>
</g>
<!-- Calyx_native -->
<g id="node36" class="node">
<title>Calyx_native</title>
<polygon fill="#ffff99" stroke="black" points="125.57,-529.04 125.57,-543.96 88.79,-554.5 36.78,-554.5 0,-543.96 0,-529.04 36.78,-518.5 88.79,-518.5 125.57,-529.04"/>
<text text-anchor="middle" x="62.78" y="-531.45" font-family="Times,serif" font-size="14.00">Calyx native</text>
</g>
<!-- Calyx&#45;&gt;Calyx_native -->
<g id="edge40" class="edge">
<title>Calyx&#45;&gt;Calyx_native</title>
<path fill="none" stroke="black" d="M231.48,-593.41C229.23,-592.39 226.98,-591.4 224.78,-590.5 189.65,-576.06 149.02,-562.78 117.24,-553.12"/>
<polygon fill="black" stroke="black" points="118.42,-549.82 107.84,-550.29 116.41,-556.52 118.42,-549.82"/>
</g>
<!-- lower_to_sv_and_core -->
<g id="node21" class="node">
<title>lower_to_sv_and_core</title>
<ellipse fill="black" stroke="black" cx="222.78" cy="-464.5" rx="1.8" ry="1.8"/>
</g>
<!-- FIRRTL&#45;&gt;lower_to_sv_and_core -->
<g id="edge15" class="edge">
<title>FIRRTL&#45;&gt;lower_to_sv_and_core</title>
<path fill="none" stroke="black" d="M185.14,-518.2C198.56,-499.41 218.57,-471.4 222.21,-466.31"/>
</g>
<!-- space_above_RTL -->
<!-- FIRRTL&#45;&gt;space_above_RTL -->
<!-- lower_to_core -->
<g id="node22" class="node">
<title>lower_to_core</title>
<ellipse fill="black" stroke="black" cx="460.78" cy="-464.5" rx="1.8" ry="1.8"/>
</g>
<!-- Pipeline&#45;&gt;lower_to_core -->
<g id="edge10" class="edge">
<title>Pipeline&#45;&gt;lower_to_core</title>
<path fill="none" stroke="black" d="M514.23,-518.2C495.18,-499.41 466.76,-471.4 461.6,-466.31"/>
</g>
<!-- LoopSchedule&#45;&gt;Calyx -->
<g id="edge5" class="edge">
<title>LoopSchedule&#45;&gt;Calyx</title>
<path fill="none" stroke="black" d="M338.31,-662.02C325.06,-653.26 308.82,-642.54 294.48,-633.08"/>
<polygon fill="black" stroke="black" points="296.46,-630.18 286.18,-627.59 292.6,-636.03 296.46,-630.18"/>
</g>
<!-- MSFT&#45;&gt;lower_to_core -->
<g id="edge11" class="edge">
<title>MSFT&#45;&gt;lower_to_core</title>
<path fill="none" stroke="black" d="M460.78,-518.2C460.78,-499.41 460.78,-471.4 460.78,-466.31"/>
</g>
<!-- MSFT&#45;&gt;space_above_RTL -->
<!-- TCL -->
<g id="node46" class="node">
<title>TCL</title>
<polygon fill="#7fc97f" stroke="black" points="588.03,-115.5 489.53,-115.5 489.53,-79.5 594.03,-79.5 594.03,-109.5 588.03,-115.5"/>
<polyline fill="none" stroke="black" points="588.03,-115.5 588.03,-109.5"/>
<polyline fill="none" stroke="black" points="594.03,-109.5 588.03,-109.5"/>
<text text-anchor="middle" x="541.78" y="-92.45" font-family="Times,serif" font-size="14.00">Placements (tcl)</text>
</g>
<!-- MSFT&#45;&gt;TCL -->
<g id="edge43" class="edge">
<title>MSFT&#45;&gt;TCL</title>
<path fill="none" stroke="black" d="M487.89,-521.52C513.74,-507.96 549.4,-488.56 553.78,-482.5 578.65,-448.15 572.78,-431.4 572.78,-389 572.78,-389 572.78,-389 572.78,-243 572.78,-201.73 560.55,-155.28 551.45,-126.45"/>
<polygon fill="black" stroke="black" points="554.81,-125.45 548.38,-117.03 548.15,-127.63 554.81,-125.45"/>
</g>
<!-- ESI&#45;&gt;lower_to_sv_and_core -->
<g id="edge16" class="edge">
<title>ESI&#45;&gt;lower_to_sv_and_core</title>
<path fill="none" stroke="black" d="M290.54,-518.2C266.38,-499.41 230.36,-471.4 223.82,-466.31"/>
</g>
<!-- ESI&#45;&gt;space_above_RTL -->
<!-- ServiceDesc -->
<g id="node44" class="node">
<title>ServiceDesc</title>
<polygon fill="#7fc97f" stroke="black" points="469.78,-118 333.78,-118 333.78,-77 475.78,-77 475.78,-112 469.78,-118"/>
<polyline fill="none" stroke="black" points="469.78,-118 469.78,-112"/>
<polyline fill="none" stroke="black" points="475.78,-112 469.78,-112"/>
<text text-anchor="middle" x="404.78" y="-100.7" font-family="Times,serif" font-size="14.00">ESI system description</text>
<text text-anchor="middle" x="404.78" y="-84.2" font-family="Times,serif" font-size="14.00">(JSON)</text>
</g>
<!-- ESI&#45;&gt;ServiceDesc -->
<g id="edge42" class="edge">
<title>ESI&#45;&gt;ServiceDesc</title>
<path fill="none" stroke="black" d="M340.06,-521.34C342.31,-520.33 344.57,-519.37 346.78,-518.5 399.8,-497.68 422.65,-514.49 469.78,-482.5 513.41,-452.89 542.78,-441.72 542.78,-389 542.78,-389 542.78,-389 542.78,-243 542.78,-201.11 539.21,-185.66 511.78,-154 500.99,-141.53 486.7,-131.48 472.09,-123.54"/>
<polygon fill="black" stroke="black" points="473.81,-120.49 463.31,-119.06 470.63,-126.73 473.81,-120.49"/>
</g>
<!-- FSM&#45;&gt;lower_to_sv_and_core -->
<g id="edge17" class="edge">
<title>FSM&#45;&gt;lower_to_sv_and_core</title>
<path fill="none" stroke="black" d="M239.35,-518.2C233.44,-499.41 224.64,-471.4 223.04,-466.31"/>
</g>
<!-- FSM&#45;&gt;space_above_RTL -->
<!-- HWArith&#45;&gt;lower_to_core -->
<g id="edge12" class="edge">
<title>HWArith&#45;&gt;lower_to_core</title>
<path fill="none" stroke="black" d="M405.08,-518.2C424.94,-499.41 454.55,-471.4 459.93,-466.31"/>
</g>
<!-- HWArith&#45;&gt;space_above_RTL -->
<!-- Moore -->
<g id="node20" class="node">
<title>Moore</title>
<g id="a_node20"><a xlink:href="https://circt.llvm.org/docs/Dialects/Moore/" xlink:title="Moore">
<polygon fill="white" stroke="black" points="629.78,-554.5 575.78,-554.5 575.78,-518.5 629.78,-518.5 629.78,-554.5"/>
<text text-anchor="middle" x="602.78" y="-531.45" font-family="Times,serif" font-size="14.00">Moore</text>
</a>
</g>
</g>
<!-- Moore&#45;&gt;lower_to_core -->
<g id="edge13" class="edge">
<title>Moore&#45;&gt;lower_to_core</title>
<path fill="none" stroke="black" d="M575.33,-521.75C573.12,-520.65 570.91,-519.55 568.78,-518.5 524.62,-496.62 470.1,-470.04 461.85,-466.02"/>
</g>
<!-- Moore&#45;&gt;space_above_RTL -->
<!-- LLHD -->
<g id="node28" class="node">
<title>LLHD</title>
<g id="a_node28"><a xlink:href="https://circt.llvm.org/docs/Dialects/LLHD/" xlink:title="LLHD">
<polygon fill="white" stroke="black" points="518.78,-334 464.78,-334 464.78,-298 518.78,-298 518.78,-334"/>
<text text-anchor="middle" x="491.78" y="-310.95" font-family="Times,serif" font-size="14.00">LLHD</text>
</a>
</g>
</g>
<!-- Moore&#45;&gt;LLHD -->
<g id="edge14" class="edge">
<title>Moore&#45;&gt;LLHD</title>
<path fill="none" stroke="black" d="M594.07,-518.35C574.91,-480.63 528.96,-390.18 505.73,-344.45"/>
<polygon fill="black" stroke="black" points="508.94,-343.05 501.29,-335.72 502.7,-346.22 508.94,-343.05"/>
</g>
<!-- Comb -->
<g id="node26" class="node">
<title>Comb</title>
<g id="a_node26"><a xlink:href="https://circt.llvm.org/docs/Dialects/Comb/" xlink:title="Comb">
<polygon fill="white" stroke="black" points="350.78,-406 296.78,-406 296.78,-370 350.78,-370 350.78,-406"/>
<text text-anchor="middle" x="323.78" y="-382.95" font-family="Times,serif" font-size="14.00">Comb</text>
</a>
</g>
</g>
<!-- lower_to_sv_and_core&#45;&gt;Comb -->
<g id="edge19" class="edge">
<title>lower_to_sv_and_core&#45;&gt;Comb</title>
<path fill="none" stroke="black" d="M224.64,-463.23C231.9,-462.09 259.07,-457.2 280.46,-444.76"/>
<polygon fill="black" stroke="black" points="282.18,-447.82 288.53,-439.34 278.27,-442.01 282.18,-447.82"/>
</g>
<!-- SV -->
<g id="node30" class="node">
<title>SV</title>
<g id="a_node30"><a xlink:href="https://circt.llvm.org/docs/Dialects/SV/" xlink:title="SV">
<polygon fill="white" stroke="black" points="239.78,-334 185.78,-334 185.78,-298 239.78,-298 239.78,-334"/>
<text text-anchor="middle" x="212.78" y="-310.95" font-family="Times,serif" font-size="14.00">SV</text>
</a>
</g>
</g>
<!-- lower_to_sv_and_core&#45;&gt;SV -->
<g id="edge18" class="edge">
<title>lower_to_sv_and_core&#45;&gt;SV</title>
<path fill="none" stroke="black" d="M222.54,-462.55C221.7,-459.26 218.92,-447.99 217.78,-438.5 214,-406.94 212.94,-370.48 212.71,-345.79"/>
<polygon fill="black" stroke="black" points="216.21,-345.87 212.66,-335.89 209.21,-345.9 216.21,-345.87"/>
</g>
<!-- lower_to_core&#45;&gt;Comb -->
<g id="edge20" class="edge">
<title>lower_to_core&#45;&gt;Comb</title>
<path fill="none" stroke="black" d="M458.91,-463.51C449.12,-463.48 402.92,-462.34 368.57,-444.34"/>
<polygon fill="black" stroke="black" points="370.46,-441.4 360.08,-439.28 366.88,-447.41 370.46,-441.4"/>
</g>
<!-- Seq -->
<g id="node24" class="node">
<title>Seq</title>
<g id="a_node24"><a xlink:href="https://circt.llvm.org/docs/Dialects/Seq/" xlink:title="Seq">
<polygon fill="white" stroke="black" points="282.78,-406 228.78,-406 228.78,-370 282.78,-370 282.78,-406"/>
<text text-anchor="middle" x="255.78" y="-382.95" font-family="Times,serif" font-size="14.00">Seq</text>
</a>
</g>
</g>
<!-- space_above_RTL&#45;&gt;Seq -->
<!-- HW -->
<g id="node25" class="node">
<title>HW</title>
<g id="a_node25"><a xlink:href="https://circt.llvm.org/docs/Dialects/HW/" xlink:title="HW">
<polygon fill="white" stroke="black" points="488.78,-406 434.78,-406 434.78,-370 488.78,-370 488.78,-406"/>
<text text-anchor="middle" x="461.78" y="-382.95" font-family="Times,serif" font-size="14.00">HW</text>
</a>
</g>
</g>
<!-- space_above_RTL&#45;&gt;HW -->
<!-- space_above_RTL&#45;&gt;Comb -->
<!-- Seq&#45;&gt;SV -->
<g id="edge21" class="edge">
<title>Seq&#45;&gt;SV</title>
<path fill="none" stroke="black" d="M245.15,-369.7C240.36,-361.9 234.6,-352.51 229.26,-343.83"/>
<polygon fill="black" stroke="black" points="232.3,-342.08 224.08,-335.39 226.34,-345.75 232.3,-342.08"/>
</g>
<!-- ExportVerilog -->
<g id="node34" class="node">
<title>ExportVerilog</title>
<g id="a_node34"><a xlink:href="https://circt.llvm.org/docs/VerilogGeneration/" xlink:title="ExportVerilog">
<polygon fill="#fdc086" stroke="black" points="259.03,-262 166.53,-262 166.53,-226 259.03,-226 259.03,-262"/>
<text text-anchor="middle" x="212.78" y="-238.95" font-family="Times,serif" font-size="14.00">ExportVerilog</text>
</a>
</g>
</g>
<!-- Seq&#45;&gt;ExportVerilog -->
<g id="edge37" class="edge">
<title>Seq&#45;&gt;ExportVerilog</title>
<path fill="none" stroke="black" d="M256.34,-362C256.01,-343.78 254.03,-318.76 246.78,-298 243.56,-288.75 238.43,-279.49 233.12,-271.35"/>
<polygon fill="black" stroke="black" points="236.11,-269.52 227.54,-263.3 230.36,-273.51 236.11,-269.52"/>
</g>
<!-- SystemC -->
<g id="node31" class="node">
<title>SystemC</title>
<g id="a_node31"><a xlink:href="https://circt.llvm.org/docs/Dialects/SystemC/" xlink:title="SystemC">
<polygon fill="white" stroke="black" points="356.53,-334 291.03,-334 291.03,-298 356.53,-298 356.53,-334"/>
<text text-anchor="middle" x="323.78" y="-310.95" font-family="Times,serif" font-size="14.00">SystemC</text>
</a>
</g>
</g>
<!-- Comb&#45;&gt;SystemC -->
<g id="edge24" class="edge">
<title>Comb&#45;&gt;SystemC</title>
<path fill="none" stroke="black" d="M323.78,-362C323.78,-356.67 323.78,-350.99 323.78,-345.54"/>
<polygon fill="black" stroke="black" points="327.28,-345.62 323.78,-335.62 320.28,-345.62 327.28,-345.62"/>
</g>
<!-- Interop -->
<g id="node27" class="node">
<title>Interop</title>
<g id="a_node27"><a xlink:href="https://circt.llvm.org/docs/Dialects/Interop/" xlink:title="Interop">
<polygon fill="white" stroke="black" points="420.28,-406 365.28,-406 365.28,-370 420.28,-370 420.28,-406"/>
<text text-anchor="middle" x="392.78" y="-382.95" font-family="Times,serif" font-size="14.00">Interop</text>
</a>
</g>
</g>
<!-- Arc -->
<g id="node29" class="node">
<title>Arc</title>
<g id="a_node29"><a xlink:href="https://circt.llvm.org/docs/Dialects/Arc/" xlink:title="Arc">
<polygon fill="white" stroke="black" points="436.78,-334 382.78,-334 382.78,-298 436.78,-298 436.78,-334"/>
<text text-anchor="middle" x="409.78" y="-310.95" font-family="Times,serif" font-size="14.00">Arc</text>
</a>
</g>
</g>
<!-- Interop&#45;&gt;Arc -->
<g id="edge23" class="edge">
<title>Interop&#45;&gt;Arc</title>
<path fill="none" stroke="black" d="M398.85,-362C400.17,-356.58 401.58,-350.8 402.92,-345.25"/>
<polygon fill="black" stroke="black" points="406.31,-346.12 405.27,-335.58 399.51,-344.47 406.31,-346.12"/>
</g>
<!-- Arcilator -->
<g id="node32" class="node">
<title>Arcilator</title>
<polygon fill="#fdc086" stroke="black" points="488.16,-262 423.41,-262 423.41,-226 488.16,-226 488.16,-262"/>
<text text-anchor="middle" x="455.78" y="-238.95" font-family="Times,serif" font-size="14.00">Arcilator</text>
</g>
<!-- LLHD&#45;&gt;Arcilator -->
<g id="edge22" class="edge">
<title>LLHD&#45;&gt;Arcilator</title>
<path fill="none" stroke="black" d="M482.89,-297.7C478.92,-289.98 474.15,-280.71 469.73,-272.11"/>
<polygon fill="black" stroke="black" points="472.96,-270.74 465.27,-263.45 466.73,-273.94 472.96,-270.74"/>
</g>
<!-- Arc&#45;&gt;Arcilator -->
<g id="edge26" class="edge">
<title>Arc&#45;&gt;Arcilator</title>
<path fill="none" stroke="black" d="M421.15,-297.7C426.34,-289.81 432.58,-280.3 438.34,-271.55"/>
<polygon fill="black" stroke="black" points="441.15,-273.65 443.71,-263.37 435.3,-269.8 441.15,-273.65"/>
</g>
<!-- SV&#45;&gt;ExportVerilog -->
<g id="edge36" class="edge">
<title>SV&#45;&gt;ExportVerilog</title>
<path fill="none" stroke="black" d="M212.78,-297.7C212.78,-290.41 212.78,-281.73 212.78,-273.54"/>
<polygon fill="black" stroke="black" points="216.28,-273.62 212.78,-263.62 209.28,-273.62 216.28,-273.62"/>
</g>
<!-- ExportSystemC -->
<g id="node33" class="node">
<title>ExportSystemC</title>
<polygon fill="#fdc086" stroke="black" points="374.91,-262 272.66,-262 272.66,-226 374.91,-226 374.91,-262"/>
<text text-anchor="middle" x="323.78" y="-238.95" font-family="Times,serif" font-size="14.00">ExportSystemC</text>
</g>
<!-- SystemC&#45;&gt;ExportSystemC -->
<g id="edge34" class="edge">
<title>SystemC&#45;&gt;ExportSystemC</title>
<path fill="none" stroke="black" d="M323.78,-297.7C323.78,-290.41 323.78,-281.73 323.78,-273.54"/>
<polygon fill="black" stroke="black" points="327.28,-273.62 323.78,-263.62 320.28,-273.62 327.28,-273.62"/>
</g>
<!-- VCDTrace -->
<g id="node41" class="node">
<title>VCDTrace</title>
<polygon fill="#7fc97f" stroke="black" points="313.28,-115.5 240.28,-115.5 240.28,-79.5 319.28,-79.5 319.28,-109.5 313.28,-115.5"/>
<polyline fill="none" stroke="black" points="313.28,-115.5 313.28,-109.5"/>
<polyline fill="none" stroke="black" points="319.28,-109.5 313.28,-109.5"/>
<text text-anchor="middle" x="279.78" y="-92.45" font-family="Times,serif" font-size="14.00">Trace (vcd)</text>
</g>
<!-- Arcilator&#45;&gt;VCDTrace -->
<g id="edge28" class="edge">
<title>Arcilator&#45;&gt;VCDTrace</title>
<path fill="none" stroke="black" d="M474.67,-225.56C492.96,-206.54 515.55,-175.89 497.78,-154 451.05,-96.4 405.28,-136.95 330.36,-118.61"/>
<polygon fill="black" stroke="black" points="331.63,-115.32 321.06,-116.02 329.75,-122.07 331.63,-115.32"/>
</g>
<!-- SimBinary -->
<g id="node47" class="node">
<title>SimBinary</title>
<polygon fill="#7fc97f" stroke="black" points="485.03,-190 344.53,-190 344.53,-154 491.03,-154 491.03,-184 485.03,-190"/>
<polyline fill="none" stroke="black" points="485.03,-190 485.03,-184"/>
<polyline fill="none" stroke="black" points="491.03,-184 485.03,-184"/>
<text text-anchor="middle" x="417.78" y="-166.95" font-family="Times,serif" font-size="14.00">Simulation Binary (obj)</text>
</g>
<!-- Arcilator&#45;&gt;SimBinary -->
<g id="edge27" class="edge">
<title>Arcilator&#45;&gt;SimBinary</title>
<path fill="none" stroke="black" d="M446.39,-225.7C442.2,-217.98 437.17,-208.71 432.5,-200.11"/>
<polygon fill="black" stroke="black" points="435.64,-198.55 427.79,-191.43 429.49,-201.89 435.64,-198.55"/>
</g>
<!-- SystemCFile -->
<g id="node42" class="node">
<title>SystemCFile</title>
<polygon fill="#7fc97f" stroke="black" points="324.16,-190 229.41,-190 229.41,-154 330.16,-154 330.16,-184 324.16,-190"/>
<polyline fill="none" stroke="black" points="324.16,-190 324.16,-184"/>
<polyline fill="none" stroke="black" points="330.16,-184 324.16,-184"/>
<text text-anchor="middle" x="279.78" y="-166.95" font-family="Times,serif" font-size="14.00">SystemC (c++)</text>
</g>
<!-- ExportSystemC&#45;&gt;SystemCFile -->
<g id="edge35" class="edge">
<title>ExportSystemC&#45;&gt;SystemCFile</title>
<path fill="none" stroke="black" d="M312.91,-225.7C308.01,-217.9 302.1,-208.51 296.65,-199.83"/>
<polygon fill="black" stroke="black" points="299.63,-197.99 291.34,-191.39 293.7,-201.71 299.63,-197.99"/>
</g>
<!-- SVFile -->
<g id="node43" class="node">
<title>SVFile</title>
<polygon fill="#7fc97f" stroke="black" points="219.91,-115.5 129.66,-115.5 129.66,-79.5 225.91,-79.5 225.91,-109.5 219.91,-115.5"/>
<polyline fill="none" stroke="black" points="219.91,-115.5 219.91,-109.5"/>
<polyline fill="none" stroke="black" points="225.91,-109.5 219.91,-109.5"/>
<text text-anchor="middle" x="177.78" y="-92.45" font-family="Times,serif" font-size="14.00">SystemVerilog</text>
</g>
<!-- ExportVerilog&#45;&gt;SVFile -->
<g id="edge25" class="edge">
<title>ExportVerilog&#45;&gt;SVFile</title>
<path fill="none" stroke="black" d="M208.56,-225.57C202.65,-201.16 191.83,-156.5 184.72,-127.15"/>
<polygon fill="black" stroke="black" points="188.13,-126.36 182.38,-117.46 181.33,-128.01 188.13,-126.36"/>
</g>
<!-- Slang -->
<g id="node35" class="node">
<title>Slang</title>
<polygon fill="#ffff99" stroke="black" points="612.32,-837.54 612.32,-852.46 592.09,-863 563.48,-863 543.25,-852.46 543.25,-837.54 563.48,-827 592.09,-827 612.32,-837.54"/>
<text text-anchor="middle" x="577.78" y="-839.95" font-family="Times,serif" font-size="14.00">Slang</text>
</g>
<!-- Slang&#45;&gt;Moore -->
<g id="edge39" class="edge">
<title>Slang&#45;&gt;Moore</title>
<path fill="none" stroke="black" d="M579.2,-826.64C583.33,-776.07 595.36,-628.46 600.46,-565.98"/>
<polygon fill="black" stroke="black" points="603.94,-566.43 601.26,-556.18 596.96,-565.86 603.94,-566.43"/>
</g>
<!-- Calyx_native&#45;&gt;lower_to_sv_and_core -->
<g id="edge41" class="edge">
<title>Calyx_native&#45;&gt;lower_to_sv_and_core</title>
<path fill="none" stroke="black" d="M97.11,-520.48C140.45,-501.52 210.69,-470.79 221.4,-466.11"/>
</g>
<!-- FIRFile -->
<g id="node37" class="node">
<title>FIRFile</title>
<polygon fill="#7fc97f" stroke="black" points="492.78,-863 444.78,-863 444.78,-827 498.78,-827 498.78,-857 492.78,-863"/>
<polyline fill="none" stroke="black" points="492.78,-863 492.78,-857"/>
<polyline fill="none" stroke="black" points="498.78,-857 492.78,-857"/>
<text text-anchor="middle" x="471.78" y="-839.95" font-family="Times,serif" font-size="14.00">.fir</text>
</g>
<!-- FIRFile&#45;&gt;FIRRTLParser -->
<g id="edge32" class="edge">
<title>FIRFile&#45;&gt;FIRRTLParser</title>
<path fill="none" stroke="black" d="M492.24,-826.71C503.45,-816.99 515.37,-806.19 516.78,-803 542.14,-745.6 544.01,-709.82 502.78,-662.5 499.37,-658.58 449.26,-641.84 406.92,-628.2"/>
<polygon fill="black" stroke="black" points="408.11,-624.91 397.52,-625.19 405.97,-631.58 408.11,-624.91"/>
</g>
<!-- FIRFile&#45;&gt;Scheduling -->
<!-- Chisel -->
<g id="node38" class="node">
<title>Chisel</title>
<polygon fill="#ffff99" stroke="black" points="327.09,-930.04 327.09,-944.96 305.23,-955.5 274.33,-955.5 252.48,-944.96 252.48,-930.04 274.33,-919.5 305.23,-919.5 327.09,-930.04"/>
<text text-anchor="middle" x="289.78" y="-932.45" font-family="Times,serif" font-size="14.00">Chisel</text>
</g>
<!-- Chisel&#45;&gt;CF -->
<!-- Chisel&#45;&gt;FIRFile -->
<g id="edge31" class="edge">
<title>Chisel&#45;&gt;FIRFile</title>
<path fill="none" stroke="black" d="M327.22,-929.92C368.64,-922.38 430.77,-910.21 439.78,-903.5 449.75,-896.08 457.02,-884.59 462.09,-873.82"/>
<polygon fill="black" stroke="black" points="465.21,-875.45 465.86,-864.87 458.76,-872.73 465.21,-875.45"/>
</g>
<!-- SVVHDL -->
<g id="node39" class="node">
<title>SVVHDL</title>
<polygon fill="#ffff99" stroke="black" points="632.81,-930.04 632.81,-944.96 600.58,-955.5 554.99,-955.5 522.76,-944.96 522.76,-930.04 554.99,-919.5 600.58,-919.5 632.81,-930.04"/>
<text text-anchor="middle" x="577.78" y="-932.45" font-family="Times,serif" font-size="14.00">SV/VHDL</text>
</g>
<!-- SVVHDL&#45;&gt;Slang -->
<g id="edge38" class="edge">
<title>SVVHDL&#45;&gt;Slang</title>
<path fill="none" stroke="black" d="M577.78,-919.05C577.78,-906.53 577.78,-889.37 577.78,-874.83"/>
<polygon fill="black" stroke="black" points="581.28,-874.91 577.78,-864.91 574.28,-874.91 581.28,-874.91"/>
</g>
<!-- PyFile -->
<g id="node40" class="node">
<title>PyFile</title>
<polygon fill="#ffff99" stroke="black" points="508.86,-930.04 508.86,-944.96 485.38,-955.5 452.19,-955.5 428.71,-944.96 428.71,-930.04 452.19,-919.5 485.38,-919.5 508.86,-930.04"/>
<text text-anchor="middle" x="468.78" y="-932.45" font-family="Times,serif" font-size="14.00">Python</text>
</g>
<!-- PyFile&#45;&gt;PyCDE -->
<g id="edge44" class="edge">
<title>PyFile&#45;&gt;PyCDE</title>
<path fill="none" stroke="black" d="M490,-921.09C495.78,-916.03 501.6,-910.02 505.78,-903.5 531.04,-864.17 529.82,-849.22 536.78,-803 541.32,-772.9 539.3,-764.84 536.78,-734.5 534.11,-702.17 542.88,-689.42 524.78,-662.5 513.52,-645.75 495,-633.34 478.02,-624.77"/>
<polygon fill="black" stroke="black" points="479.64,-621.66 469.1,-620.56 476.65,-627.99 479.64,-621.66"/>
</g>
<!-- SystemCFile&#45;&gt;VCDTrace -->
<!-- SystemCFile&#45;&gt;SVFile -->
<!-- SystemCFile&#45;&gt;ServiceDesc -->
<!-- SystemCFile&#45;&gt;TCL -->
<!-- SoftwareAPI -->
<g id="node45" class="node">
<title>SoftwareAPI</title>
<polygon fill="none" stroke="black" stroke-dasharray="5,2" points="451.41,-41 352.16,-41 352.16,0 457.41,0 457.41,-35 451.41,-41"/>
<polyline fill="none" stroke="black" stroke-dasharray="5,2" points="451.41,-41 451.41,-35"/>
<polyline fill="none" stroke="black" stroke-dasharray="5,2" points="457.41,-35 451.41,-35"/>
<text text-anchor="middle" x="404.78" y="-23.7" font-family="Times,serif" font-size="14.00">Software API</text>
<text text-anchor="middle" x="404.78" y="-7.2" font-family="Times,serif" font-size="14.00">(e.g. py/c++/c#)</text>
</g>
<!-- ServiceDesc&#45;&gt;SoftwareAPI -->
<g id="edge51" class="edge">
<title>ServiceDesc&#45;&gt;SoftwareAPI</title>
<path fill="none" stroke="black" stroke-dasharray="5,2" d="M404.78,-76.79C404.78,-69.45 404.78,-60.91 404.78,-52.78"/>
<polygon fill="black" stroke="black" points="408.28,-52.85 404.78,-42.85 401.28,-52.85 408.28,-52.85"/>
</g>
</g>
</svg>
