<?xml version="1.0" encoding="UTF-8" standalone="no"?>
<!DOCTYPE svg PUBLIC "-//W3C//DTD SVG 1.1//EN"
 "http://www.w3.org/Graphics/SVG/1.1/DTD/svg11.dtd">
<!-- Generated by graphviz version 2.43.0 (0)
 -->
<!-- Title: G Pages: 1 -->
<svg width="639pt" height="833pt"
 viewBox="0.00 0.00 638.87 833.00" xmlns="http://www.w3.org/2000/svg" xmlns:xlink="http://www.w3.org/1999/xlink">
<g id="graph0" class="graph" transform="scale(1 1) rotate(0) translate(4 829)">
<title>G</title>
<polygon fill="white" stroke="transparent" points="-4,4 -4,-829 634.87,-829 634.87,4 -4,4"/>
<g id="clust1" class="cluster">
<title>cluster_mlir</title>
<polygon fill="none" stroke="black" points="8,-726 8,-817 326,-817 326,-726 8,-726"/>
<text text-anchor="middle" x="167" y="-801.8" font-family="Times,serif" font-size="14.00">Upstream MLIR</text>
</g>
<g id="clust2" class="cluster">
<title>cluster_std_arith_dialect</title>
<polygon fill="none" stroke="black" points="150,-734 150,-786 318,-786 318,-734 150,-734"/>
</g>
<g id="clust3" class="cluster">
<title>cluster_circt</title>
<polygon fill="none" stroke="black" points="57,-136 57,-718 468,-718 468,-136 57,-136"/>
<text text-anchor="middle" x="262.5" y="-702.8" font-family="Times,serif" font-size="14.00">CIRCT</text>
</g>
<g id="clust4" class="cluster">
<title>cluster_RTL</title>
<polygon fill="none" stroke="black" points="164,-208 164,-355 374,-355 374,-208 164,-208"/>
<text text-anchor="middle" x="269" y="-339.8" font-family="Times,serif" font-size="14.00">RTL dialects</text>
</g>
<!-- SCF -->
<g id="node1" class="node">
<title>SCF</title>
<polygon fill="#beaed4" stroke="black" points="70,-778 16,-778 16,-742 70,-742 70,-778"/>
<text text-anchor="middle" x="43" y="-756.3" font-family="Times,serif" font-size="14.00">SCF</text>
</g>
<!-- Calyx -->
<g id="node6" class="node">
<title>Calyx</title>
<g id="a_node6"><a xlink:href="https://circt.llvm.org/docs/Dialects/Calyx/" xlink:title="Calyx">
<polygon fill="white" stroke="black" points="137,-543 81,-543 81,-507 137,-507 137,-543"/>
<text text-anchor="middle" x="109" y="-521.3" font-family="Times,serif" font-size="14.00">Calyx</text>
</a>
</g>
</g>
<!-- SCF&#45;&gt;Calyx -->
<g id="edge1" class="edge">
<title>SCF&#45;&gt;Calyx</title>
<path fill="none" stroke="black" d="M43.37,-741.9C44.62,-709.04 50.1,-635.34 74,-579 78.03,-569.51 83.78,-559.88 89.47,-551.48"/>
<polygon fill="black" stroke="black" points="92.38,-553.41 95.29,-543.23 86.66,-549.38 92.38,-553.41"/>
</g>
<!-- Affine -->
<g id="node2" class="node">
<title>Affine</title>
<polygon fill="#beaed4" stroke="black" points="142,-778 84,-778 84,-742 142,-742 142,-778"/>
<text text-anchor="middle" x="113" y="-756.3" font-family="Times,serif" font-size="14.00">Affine</text>
</g>
<!-- StaticLogic -->
<g id="node8" class="node">
<title>StaticLogic</title>
<g id="a_node8"><a xlink:href="https://circt.llvm.org/docs/Dialects/StaticLogic/" xlink:title="StaticLogic">
<polygon fill="white" stroke="black" points="177.5,-615 80.5,-615 80.5,-579 177.5,-579 177.5,-615"/>
<text text-anchor="middle" x="129" y="-593.3" font-family="Times,serif" font-size="14.00">StaticLogic</text>
</a>
</g>
</g>
<!-- Affine&#45;&gt;StaticLogic -->
<g id="edge2" class="edge">
<title>Affine&#45;&gt;StaticLogic</title>
<path fill="none" stroke="black" d="M128.1,-741.76C133.62,-736.18 140.2,-730.33 147,-726 155.42,-720.63 162.33,-726.22 168,-718 184.9,-693.48 177.29,-679.29 168,-651 164.69,-640.91 158.63,-631.15 152.27,-622.82"/>
<polygon fill="black" stroke="black" points="154.92,-620.54 145.89,-615.01 149.5,-624.97 154.92,-620.54"/>
</g>
<!-- Scheduling -->
<g id="node23" class="node">
<title>Scheduling</title>
<g id="a_node23"><a xlink:href="https://circt.llvm.org/docs/Scheduling/" xlink:title="Scheduling">
<polygon fill="#fdc086" stroke="black" points="161,-687 65,-687 65,-651 161,-651 161,-687"/>
<text text-anchor="middle" x="113" y="-665.3" font-family="Times,serif" font-size="14.00">Scheduling</text>
</a>
</g>
</g>
<!-- Affine&#45;&gt;Scheduling -->
<!-- Standard -->
<g id="node3" class="node">
<title>Standard</title>
<polygon fill="#beaed4" stroke="black" points="309.5,-778 226.5,-778 226.5,-742 309.5,-742 309.5,-778"/>
<text text-anchor="middle" x="268" y="-756.3" font-family="Times,serif" font-size="14.00">Standard</text>
</g>
<!-- Arith -->
<g id="node4" class="node">
<title>Arith</title>
<polygon fill="#beaed4" stroke="black" points="212,-778 158,-778 158,-742 212,-742 212,-778"/>
<text text-anchor="middle" x="185" y="-756.3" font-family="Times,serif" font-size="14.00">Arith</text>
</g>
<!-- Handshake -->
<g id="node5" class="node">
<title>Handshake</title>
<g id="a_node5"><a xlink:href="https://circt.llvm.org/docs/Dialects/Handshake/" xlink:title="Handshake">
<polygon fill="white" stroke="black" points="247,-543 151,-543 151,-507 247,-507 247,-543"/>
<text text-anchor="middle" x="199" y="-521.3" font-family="Times,serif" font-size="14.00">Handshake</text>
</a>
</g>
</g>
<!-- Arith&#45;&gt;Handshake -->
<g id="edge4" class="edge">
<title>Arith&#45;&gt;Handshake</title>
<path fill="none" stroke="black" d="M214.18,-734C218.19,-729.13 221.71,-723.74 224,-718 246.93,-660.63 237.5,-639.28 224,-579 221.99,-570.01 218.27,-560.75 214.3,-552.53"/>
<polygon fill="black" stroke="black" points="217.32,-550.73 209.63,-543.44 211.09,-553.94 217.32,-550.73"/>
</g>
<!-- Arith&#45;&gt;Calyx -->
<g id="edge5" class="edge">
<title>Arith&#45;&gt;Calyx</title>
<path fill="none" stroke="black" d="M191.88,-734C200.45,-697.58 211.02,-628.86 185,-579 180.47,-570.32 163.05,-557.9 146.03,-547.27"/>
<polygon fill="black" stroke="black" points="147.6,-544.13 137.24,-541.9 143.95,-550.1 147.6,-544.13"/>
</g>
<!-- FIRRTL -->
<g id="node7" class="node">
<title>FIRRTL</title>
<g id="a_node7"><a xlink:href="https://circt.llvm.org/docs/Dialects/FIRRTL/" xlink:title="FIRRTL">
<polygon fill="white" stroke="black" points="225.5,-471 154.5,-471 154.5,-435 225.5,-435 225.5,-471"/>
<text text-anchor="middle" x="190" y="-449.3" font-family="Times,serif" font-size="14.00">FIRRTL</text>
</a>
</g>
</g>
<!-- Handshake&#45;&gt;FIRRTL -->
<g id="edge6" class="edge">
<title>Handshake&#45;&gt;FIRRTL</title>
<path fill="none" stroke="black" d="M196.78,-506.7C195.78,-498.98 194.59,-489.71 193.49,-481.11"/>
<polygon fill="black" stroke="black" points="196.95,-480.58 192.2,-471.1 190,-481.47 196.95,-480.58"/>
</g>
<!-- FSM -->
<g id="node11" class="node">
<title>FSM</title>
<g id="a_node11"><a xlink:href="https://circt.llvm.org/docs/Dialects/FSM/" xlink:title="FSM">
<polygon fill="white" stroke="black" points="140,-471 86,-471 86,-435 140,-435 140,-471"/>
<text text-anchor="middle" x="113" y="-449.3" font-family="Times,serif" font-size="14.00">FSM</text>
</a>
</g>
</g>
<!-- Calyx&#45;&gt;FSM -->
<g id="edge7" class="edge">
<title>Calyx&#45;&gt;FSM</title>
<path fill="none" stroke="black" stroke-dasharray="5,2" d="M109.99,-506.7C110.43,-498.98 110.96,-489.71 111.45,-481.11"/>
<polygon fill="black" stroke="black" points="114.95,-481.29 112.02,-471.1 107.96,-480.89 114.95,-481.29"/>
</g>
<!-- Calyx_native -->
<g id="node26" class="node">
<title>Calyx_native</title>
<polygon fill="#ffff99" stroke="black" points="630.73,-154.54 630.73,-169.46 587.54,-180 526.46,-180 483.27,-169.46 483.27,-154.54 526.46,-144 587.54,-144 630.73,-154.54"/>
<text text-anchor="middle" x="557" y="-158.3" font-family="Times,serif" font-size="14.00">Calyx native</text>
</g>
<!-- Calyx&#45;&gt;Calyx_native -->
<g id="edge26" class="edge">
<title>Calyx&#45;&gt;Calyx_native</title>
<path fill="none" stroke="black" d="M137.33,-509.26C139.56,-508.41 141.79,-507.64 144,-507 282.76,-466.86 330.1,-517.08 467,-471 540.11,-446.39 616,-459.14 616,-382 616,-382 616,-382 616,-305 616,-261.83 592.46,-216.53 575.11,-189.03"/>
<polygon fill="black" stroke="black" points="577.9,-186.89 569.51,-180.41 572.03,-190.7 577.9,-186.89"/>
</g>
<!-- space_above_RTL -->
<!-- FIRRTL&#45;&gt;space_above_RTL -->
<!-- HW -->
<g id="node15" class="node">
<title>HW</title>
<g id="a_node15"><a xlink:href="https://circt.llvm.org/docs/Dialects/HW/" xlink:title="HW">
<polygon fill="white" stroke="black" points="226,-324 172,-324 172,-288 226,-288 226,-324"/>
<text text-anchor="middle" x="199" y="-302.3" font-family="Times,serif" font-size="14.00">HW</text>
</a>
</g>
</g>
<!-- FIRRTL&#45;&gt;HW -->
<g id="edge8" class="edge">
<title>FIRRTL&#45;&gt;HW</title>
<path fill="none" stroke="black" d="M191.07,-434.8C192.13,-417.61 193.84,-390.21 195.39,-365.18"/>
<polygon fill="black" stroke="black" points="198.89,-365.2 196.02,-355 191.91,-364.76 198.89,-365.2"/>
</g>
<!-- StaticLogic&#45;&gt;Calyx -->
<g id="edge3" class="edge">
<title>StaticLogic&#45;&gt;Calyx</title>
<path fill="none" stroke="black" d="M124.06,-578.7C121.83,-570.9 119.15,-561.51 116.67,-552.83"/>
<polygon fill="black" stroke="black" points="120,-551.76 113.89,-543.1 113.27,-553.68 120,-551.76"/>
</g>
<!-- MSFT -->
<g id="node9" class="node">
<title>MSFT</title>
<g id="a_node9"><a xlink:href="https://circt.llvm.org/docs/Dialects/MSFT/" xlink:title="MSFT">
<polygon fill="white" stroke="black" points="459.5,-471 400.5,-471 400.5,-435 459.5,-435 459.5,-471"/>
<text text-anchor="middle" x="430" y="-449.3" font-family="Times,serif" font-size="14.00">MSFT</text>
</a>
</g>
</g>
<!-- MSFT&#45;&gt;space_above_RTL -->
<!-- MSFT&#45;&gt;HW -->
<g id="edge9" class="edge">
<title>MSFT&#45;&gt;HW</title>
<path fill="none" stroke="black" d="M411.59,-434.87C387.97,-414.01 344.79,-379.51 301,-363 276.08,-353.61 262.74,-366.42 242.27,-359.36"/>
<polygon fill="black" stroke="black" points="243.54,-356.09 233,-355 240.56,-362.43 243.54,-356.09"/>
</g>
<!-- TCL -->
<g id="node32" class="node">
<title>TCL</title>
<polygon fill="#7fc97f" stroke="black" points="460,-108 412,-108 412,-72 466,-72 466,-102 460,-108"/>
<polyline fill="none" stroke="black" points="460,-108 460,-102 "/>
<polyline fill="none" stroke="black" points="466,-102 460,-102 "/>
<text text-anchor="middle" x="439" y="-86.3" font-family="Times,serif" font-size="14.00">.tcl</text>
</g>
<!-- MSFT&#45;&gt;TCL -->
<g id="edge36" class="edge">
<title>MSFT&#45;&gt;TCL</title>
<path fill="none" stroke="black" d="M459.75,-448.51C490.44,-443.27 537.34,-430.36 563,-399 575.59,-383.62 569.22,-374.8 571,-355 573.67,-325.34 581.51,-315.86 571,-288 548.44,-228.19 509.83,-234.24 476,-180 463.8,-160.44 454.02,-136.17 447.58,-117.91"/>
<polygon fill="black" stroke="black" points="450.81,-116.54 444.27,-108.2 444.19,-118.79 450.81,-116.54"/>
</g>
<!-- ESI -->
<g id="node10" class="node">
<title>ESI</title>
<g id="a_node10"><a xlink:href="https://circt.llvm.org/docs/Dialects/ESI/" xlink:title="ESI">
<polygon fill="white" stroke="black" points="294,-471 240,-471 240,-435 294,-435 294,-471"/>
<text text-anchor="middle" x="267" y="-449.3" font-family="Times,serif" font-size="14.00">ESI</text>
</a>
</g>
</g>
<!-- ESI&#45;&gt;space_above_RTL -->
<!-- ESI&#45;&gt;HW -->
<g id="edge10" class="edge">
<title>ESI&#45;&gt;HW</title>
<path fill="none" stroke="black" d="M248.43,-434.98C238.91,-425.29 227.91,-412.44 221,-399 215.56,-388.42 211.44,-376.46 208.32,-364.74"/>
<polygon fill="black" stroke="black" points="211.71,-363.88 205.94,-355 204.92,-365.54 211.71,-363.88"/>
</g>
<!-- CapNProto -->
<g id="node31" class="node">
<title>CapNProto</title>
<polygon fill="#7fc97f" stroke="black" points="191.5,-108 96.5,-108 96.5,-72 197.5,-72 197.5,-102 191.5,-108"/>
<polyline fill="none" stroke="black" points="191.5,-108 191.5,-102 "/>
<polyline fill="none" stroke="black" points="197.5,-102 191.5,-102 "/>
<text text-anchor="middle" x="147" y="-86.3" font-family="Times,serif" font-size="14.00">Cap&#39;n Proto</text>
</g>
<!-- ESI&#45;&gt;CapNProto -->
<g id="edge35" class="edge">
<title>ESI&#45;&gt;CapNProto</title>
<path fill="none" stroke="black" d="M239.76,-436.99C202.44,-414.19 140,-367.07 140,-307 140,-307 140,-307 140,-233 140,-192.95 142.81,-146.62 144.87,-118.06"/>
<polygon fill="black" stroke="black" points="148.37,-118.27 145.62,-108.04 141.39,-117.75 148.37,-118.27"/>
</g>
<!-- FSM&#45;&gt;space_above_RTL -->
<!-- FSM&#45;&gt;HW -->
<g id="edge11" class="edge">
<title>FSM&#45;&gt;HW</title>
<path fill="none" stroke="black" d="M123.2,-434.8C133.58,-417.3 150.23,-389.23 165.29,-363.84"/>
<polygon fill="black" stroke="black" points="168.44,-365.38 170.53,-355 162.42,-361.81 168.44,-365.38"/>
</g>
<!-- HWArith -->
<g id="node12" class="node">
<title>HWArith</title>
<g id="a_node12"><a xlink:href="https://circt.llvm.org/docs/Dialects/HWArith/" xlink:title="HWArith">
<polygon fill="white" stroke="black" points="386,-471 308,-471 308,-435 386,-435 386,-471"/>
<text text-anchor="middle" x="347" y="-449.3" font-family="Times,serif" font-size="14.00">HWArith</text>
</a>
</g>
</g>
<!-- HWArith&#45;&gt;space_above_RTL -->
<!-- HWArith&#45;&gt;HW -->
<g id="edge12" class="edge">
<title>HWArith&#45;&gt;HW</title>
<path fill="none" stroke="black" d="M307.93,-437.54C279.36,-426.31 243.8,-410.71 233,-399 231.52,-397.4 225.79,-382.36 219.44,-364.89"/>
<polygon fill="black" stroke="black" points="222.56,-363.22 215.87,-355 215.97,-365.59 222.56,-363.22"/>
</g>
<!-- Seq -->
<g id="node14" class="node">
<title>Seq</title>
<g id="a_node14"><a xlink:href="https://circt.llvm.org/docs/Dialects/Seq/" xlink:title="Seq">
<polygon fill="white" stroke="black" points="294,-324 240,-324 240,-288 294,-288 294,-324"/>
<text text-anchor="middle" x="267" y="-302.3" font-family="Times,serif" font-size="14.00">Seq</text>
</a>
</g>
</g>
<!-- space_above_RTL&#45;&gt;Seq -->
<!-- space_above_RTL&#45;&gt;HW -->
<!-- Comb -->
<g id="node17" class="node">
<title>Comb</title>
<g id="a_node17"><a xlink:href="https://circt.llvm.org/docs/Dialects/Comb/" xlink:title="Comb">
<polygon fill="white" stroke="black" points="366,-324 308,-324 308,-288 366,-288 366,-324"/>
<text text-anchor="middle" x="337" y="-302.3" font-family="Times,serif" font-size="14.00">Comb</text>
</a>
</g>
</g>
<!-- space_above_RTL&#45;&gt;Comb -->
<!-- SV -->
<g id="node16" class="node">
<title>SV</title>
<g id="a_node16"><a xlink:href="https://circt.llvm.org/docs/Dialects/SV/" xlink:title="SV">
<polygon fill="white" stroke="black" points="366,-252 312,-252 312,-216 366,-216 366,-252"/>
<text text-anchor="middle" x="339" y="-230.3" font-family="Times,serif" font-size="14.00">SV</text>
</a>
</g>
</g>
<!-- Seq&#45;&gt;SV -->
<g id="edge13" class="edge">
<title>Seq&#45;&gt;SV</title>
<path fill="none" stroke="black" d="M284.8,-287.7C293.6,-279.14 304.38,-268.66 314,-259.3"/>
<polygon fill="black" stroke="black" points="316.68,-261.58 321.41,-252.1 311.8,-256.57 316.68,-261.58"/>
</g>
<!-- llhd_sim -->
<g id="node20" class="node">
<title>llhd_sim</title>
<polygon fill="#fdc086" stroke="black" points="309,-180 233,-180 233,-144 309,-144 309,-180"/>
<text text-anchor="middle" x="271" y="-158.3" font-family="Times,serif" font-size="14.00">llhd_sim</text>
</g>
<!-- Seq&#45;&gt;llhd_sim -->
<g id="edge30" class="edge">
<title>Seq&#45;&gt;llhd_sim</title>
<path fill="none" stroke="black" d="M246.18,-287.62C236.54,-278.2 226.11,-265.7 221,-252 214.16,-233.68 213.04,-225.86 221,-208 224.55,-200.03 230.29,-192.87 236.64,-186.74"/>
<polygon fill="black" stroke="black" points="239.08,-189.25 244.28,-180.02 234.46,-184 239.08,-189.25"/>
</g>
<!-- LLHD -->
<g id="node18" class="node">
<title>LLHD</title>
<g id="a_node18"><a xlink:href="https://circt.llvm.org/docs/Dialects/LLHD/" xlink:title="LLHD">
<polygon fill="white" stroke="black" points="298,-252 240,-252 240,-216 298,-216 298,-252"/>
<text text-anchor="middle" x="269" y="-230.3" font-family="Times,serif" font-size="14.00">LLHD</text>
</a>
</g>
</g>
<!-- HW&#45;&gt;LLHD -->
<g id="edge14" class="edge">
<title>HW&#45;&gt;LLHD</title>
<path fill="none" stroke="black" d="M216.3,-287.7C224.86,-279.14 235.34,-268.66 244.7,-259.3"/>
<polygon fill="black" stroke="black" points="247.3,-261.65 251.9,-252.1 242.35,-256.7 247.3,-261.65"/>
</g>
<!-- HW&#45;&gt;llhd_sim -->
<g id="edge31" class="edge">
<title>HW&#45;&gt;llhd_sim</title>
<path fill="none" stroke="black" d="M197.5,-287.97C196.52,-267.56 197.49,-232.98 212,-208 216.8,-199.74 223.77,-192.49 231.25,-186.35"/>
<polygon fill="black" stroke="black" points="233.61,-188.95 239.49,-180.14 229.4,-183.36 233.61,-188.95"/>
</g>
<!-- ExportVerilog -->
<g id="node21" class="node">
<title>ExportVerilog</title>
<g id="a_node21"><a xlink:href="https://circt.llvm.org/docs/VerilogGeneration/" xlink:title="ExportVerilog">
<polygon fill="#fdc086" stroke="black" points="439,-180 323,-180 323,-144 439,-144 439,-180"/>
<text text-anchor="middle" x="381" y="-158.3" font-family="Times,serif" font-size="14.00">ExportVerilog</text>
</a>
</g>
</g>
<!-- HW&#45;&gt;ExportVerilog -->
<g id="edge20" class="edge">
<title>HW&#45;&gt;ExportVerilog</title>
<path fill="none" stroke="black" d="M226.24,-290.76C228.5,-289.77 230.77,-288.83 233,-288 293.18,-265.51 331.4,-300.96 373,-252 380.68,-242.97 382.04,-213.01 381.89,-190.33"/>
<polygon fill="black" stroke="black" points="385.39,-190.15 381.72,-180.21 378.39,-190.26 385.39,-190.15"/>
</g>
<!-- Circilator -->
<g id="node27" class="node">
<title>Circilator</title>
<polygon fill="#ffff99" stroke="black" stroke-dasharray="5,2" points="330.19,-82.54 330.19,-97.46 295.52,-108 246.48,-108 211.81,-97.46 211.81,-82.54 246.48,-72 295.52,-72 330.19,-82.54"/>
<text text-anchor="middle" x="271" y="-86.3" font-family="Times,serif" font-size="14.00">Circilator</text>
</g>
<!-- HW&#45;&gt;Circilator -->
<g id="edge24" class="edge">
<title>HW&#45;&gt;Circilator</title>
<path fill="none" stroke="black" stroke-dasharray="5,2" d="M191.93,-287.67C188.16,-277.47 183.91,-264.22 182,-252 178.98,-232.68 177.94,-227.13 182,-208 189.27,-173.74 192.52,-163.66 214,-136 220.38,-127.79 228.57,-120.19 236.74,-113.67"/>
<polygon fill="black" stroke="black" points="238.98,-116.36 244.83,-107.53 234.75,-110.79 238.98,-116.36"/>
</g>
<!-- SV&#45;&gt;ExportVerilog -->
<g id="edge21" class="edge">
<title>SV&#45;&gt;ExportVerilog</title>
<path fill="none" stroke="black" d="M349.38,-215.7C354.26,-207.56 360.19,-197.69 365.58,-188.7"/>
<polygon fill="black" stroke="black" points="368.59,-190.48 370.74,-180.1 362.59,-186.88 368.59,-190.48"/>
</g>
<!-- Comb&#45;&gt;llhd_sim -->
<g id="edge32" class="edge">
<title>Comb&#45;&gt;llhd_sim</title>
<path fill="none" stroke="black" d="M307.75,-291.02C277.76,-276.55 235.18,-255.56 233,-252 222.78,-235.33 226.28,-226.37 233,-208 235.61,-200.87 239.9,-194.09 244.68,-188.06"/>
<polygon fill="black" stroke="black" points="247.47,-190.18 251.39,-180.33 242.19,-185.59 247.47,-190.18"/>
</g>
<!-- Comb&#45;&gt;ExportVerilog -->
<g id="edge15" class="edge">
<title>Comb&#45;&gt;ExportVerilog</title>
<path fill="none" stroke="black" d="M358.71,-287.79C368.76,-278.41 379.64,-265.9 385,-252 392.63,-232.22 390.94,-208.1 387.72,-189.96"/>
<polygon fill="black" stroke="black" points="391.13,-189.16 385.71,-180.05 384.27,-190.55 391.13,-189.16"/>
</g>
<!-- LLHD&#45;&gt;llhd_sim -->
<g id="edge33" class="edge">
<title>LLHD&#45;&gt;llhd_sim</title>
<path fill="none" stroke="black" d="M269.49,-215.7C269.71,-207.98 269.98,-198.71 270.23,-190.11"/>
<polygon fill="black" stroke="black" points="273.72,-190.2 270.51,-180.1 266.73,-190 273.72,-190.2"/>
</g>
<!-- LLHD&#45;&gt;Circilator -->
<g id="edge25" class="edge">
<title>LLHD&#45;&gt;Circilator</title>
<path fill="none" stroke="black" stroke-dasharray="5,2" d="M248.18,-215.62C238.54,-206.2 228.11,-193.7 223,-180 216.16,-161.68 215.23,-153.94 223,-136 226.43,-128.09 232,-120.93 238.17,-114.77"/>
<polygon fill="black" stroke="black" points="240.55,-117.34 245.58,-108.01 235.83,-112.17 240.55,-117.34"/>
</g>
<!-- FIRRTLParser -->
<g id="node19" class="node">
<title>FIRRTLParser</title>
<polygon fill="#fdc086" stroke="black" points="378.5,-543 261.5,-543 261.5,-507 378.5,-507 378.5,-543"/>
<text text-anchor="middle" x="320" y="-521.3" font-family="Times,serif" font-size="14.00">FIRRTLParser</text>
</g>
<!-- FIRRTLParser&#45;&gt;FIRRTL -->
<g id="edge19" class="edge">
<title>FIRRTLParser&#45;&gt;FIRRTL</title>
<path fill="none" stroke="black" d="M288.2,-506.88C270.89,-497.55 249.28,-485.92 230.74,-475.94"/>
<polygon fill="black" stroke="black" points="232.39,-472.85 221.92,-471.19 229.07,-479.01 232.39,-472.85"/>
</g>
<!-- llhd_sim&#45;&gt;Circilator -->
<!-- VCDTrace -->
<g id="node28" class="node">
<title>VCDTrace</title>
<polygon fill="#7fc97f" stroke="black" points="392,-108 344,-108 344,-72 398,-72 398,-102 392,-108"/>
<polyline fill="none" stroke="black" points="392,-108 392,-102 "/>
<polyline fill="none" stroke="black" points="398,-102 392,-102 "/>
<text text-anchor="middle" x="371" y="-86.3" font-family="Times,serif" font-size="14.00">.vcd</text>
</g>
<!-- llhd_sim&#45;&gt;VCDTrace -->
<g id="edge34" class="edge">
<title>llhd_sim&#45;&gt;VCDTrace</title>
<path fill="none" stroke="black" d="M295.46,-143.88C308.3,-134.89 324.2,-123.76 338.09,-114.03"/>
<polygon fill="black" stroke="black" points="340.26,-116.79 346.44,-108.19 336.24,-111.06 340.26,-116.79"/>
</g>
<!-- SVFile -->
<g id="node30" class="node">
<title>SVFile</title>
<polygon fill="#7fc97f" stroke="black" points="553,-108 505,-108 505,-72 559,-72 559,-102 553,-108"/>
<polyline fill="none" stroke="black" points="553,-108 553,-102 "/>
<polyline fill="none" stroke="black" points="559,-102 553,-102 "/>
<text text-anchor="middle" x="532" y="-86.3" font-family="Times,serif" font-size="14.00">.sv</text>
</g>
<!-- llhd_sim&#45;&gt;SVFile -->
<!-- llhd_sim&#45;&gt;CapNProto -->
<!-- llhd_sim&#45;&gt;TCL -->
<!-- ExportVerilog&#45;&gt;SVFile -->
<g id="edge27" class="edge">
<title>ExportVerilog&#45;&gt;SVFile</title>
<path fill="none" stroke="black" d="M417.94,-143.88C441.57,-132.92 472.1,-118.77 495.63,-107.86"/>
<polygon fill="black" stroke="black" points="497.31,-110.94 504.91,-103.56 494.37,-104.59 497.31,-110.94"/>
</g>
<!-- PyCDE -->
<g id="node22" class="node">
<title>PyCDE</title>
<g id="a_node22"><a xlink:href="https://circt.llvm.org/docs/PyCDE/" xlink:title="PyCDE">
<polygon fill="#fdc086" stroke="black" points="459.5,-543 392.5,-543 392.5,-507 459.5,-507 459.5,-543"/>
<text text-anchor="middle" x="426" y="-521.3" font-family="Times,serif" font-size="14.00">PyCDE</text>
</a>
</g>
</g>
<!-- PyCDE&#45;&gt;MSFT -->
<g id="edge39" class="edge">
<title>PyCDE&#45;&gt;MSFT</title>
<path fill="none" stroke="black" d="M426.99,-506.7C427.43,-498.98 427.96,-489.71 428.45,-481.11"/>
<polygon fill="black" stroke="black" points="431.95,-481.29 429.02,-471.1 424.96,-480.89 431.95,-481.29"/>
</g>
<!-- PyCDE&#45;&gt;ESI -->
<g id="edge38" class="edge">
<title>PyCDE&#45;&gt;ESI</title>
<path fill="none" stroke="black" stroke-dasharray="5,2" d="M392.39,-509.71C390.23,-508.79 388.08,-507.88 386,-507 351.04,-492.17 339.89,-488.67 303.33,-471.98"/>
<polygon fill="black" stroke="black" points="304.57,-468.7 294.02,-467.7 301.64,-475.06 304.57,-468.7"/>
</g>
<!-- PyCDE&#45;&gt;HWArith -->
<g id="edge40" class="edge">
<title>PyCDE&#45;&gt;HWArith</title>
<path fill="none" stroke="black" d="M406.47,-506.7C396.62,-497.97 384.51,-487.24 373.8,-477.75"/>
<polygon fill="black" stroke="black" points="376.11,-475.12 366.3,-471.1 371.47,-480.36 376.11,-475.12"/>
</g>
<!-- Scheduling&#45;&gt;StaticLogic -->
<g id="edge16" class="edge">
<title>Scheduling&#45;&gt;StaticLogic</title>
<path fill="none" stroke="black" d="M119.25,-640.67C120.42,-635.55 121.64,-630.21 122.8,-625.1"/>
<polygon fill="black" stroke="black" points="115.77,-640.17 116.96,-650.7 122.6,-641.73 115.77,-640.17"/>
<polygon fill="black" stroke="black" points="126.27,-625.63 125.09,-615.1 119.45,-624.07 126.27,-625.63"/>
</g>
<!-- Scheduling&#45;&gt;MSFT -->
<g id="edge41" class="edge">
<title>Scheduling&#45;&gt;MSFT</title>
<path fill="none" stroke="black" stroke-dasharray="5,2" d="M89.73,-643.18C83.37,-634.85 77.31,-625.09 74,-615 59.03,-569.39 42.02,-542.79 74,-507 119.63,-455.93 308.29,-487.37 390.68,-470.89"/>
<polygon fill="black" stroke="black" points="87.08,-645.46 96.11,-650.99 92.5,-641.03 87.08,-645.46"/>
<polygon fill="black" stroke="black" points="391.51,-474.3 400.42,-468.57 389.88,-467.49 391.51,-474.3"/>
</g>
<!-- Moore -->
<g id="node24" class="node">
<title>Moore</title>
<polygon fill="#ffff99" stroke="black" points="563.73,-298.54 563.73,-313.46 538.11,-324 501.89,-324 476.27,-313.46 476.27,-298.54 501.89,-288 538.11,-288 563.73,-298.54"/>
<text text-anchor="middle" x="520" y="-302.3" font-family="Times,serif" font-size="14.00">Moore</text>
</g>
<!-- Moore&#45;&gt;LLHD -->
<g id="edge23" class="edge">
<title>Moore&#45;&gt;LLHD</title>
<path fill="none" stroke="black" d="M478.87,-297.41C437.2,-289.16 370.92,-274.5 307.94,-252.8"/>
<polygon fill="black" stroke="black" points="308.86,-249.42 298.27,-249.4 306.54,-256.02 308.86,-249.42"/>
</g>
<!-- Chisel -->
<g id="node25" class="node">
<title>Chisel</title>
<polygon fill="#ffff99" stroke="black" points="545.83,-752.54 545.83,-767.46 520.74,-778 485.26,-778 460.17,-767.46 460.17,-752.54 485.26,-742 520.74,-742 545.83,-752.54"/>
<text text-anchor="middle" x="503" y="-756.3" font-family="Times,serif" font-size="14.00">Chisel</text>
</g>
<!-- FIRFile -->
<g id="node33" class="node">
<title>FIRFile</title>
<polygon fill="#7fc97f" stroke="black" points="524,-687 476,-687 476,-651 530,-651 530,-681 524,-687"/>
<polyline fill="none" stroke="black" points="524,-687 524,-681 "/>
<polyline fill="none" stroke="black" points="530,-681 524,-681 "/>
<text text-anchor="middle" x="503" y="-665.3" font-family="Times,serif" font-size="14.00">.fir</text>
</g>
<!-- Chisel&#45;&gt;FIRFile -->
<g id="edge17" class="edge">
<title>Chisel&#45;&gt;FIRFile</title>
<path fill="none" stroke="black" d="M503,-741.84C503,-729.28 503,-711.98 503,-697.5"/>
<polygon fill="black" stroke="black" points="506.5,-697.11 503,-687.11 499.5,-697.11 506.5,-697.11"/>
</g>
<!-- Calyx_native&#45;&gt;SVFile -->
<g id="edge28" class="edge">
<title>Calyx_native&#45;&gt;SVFile</title>
<path fill="none" stroke="black" d="M546.22,-143.7C542.81,-135.9 539.28,-126.51 536.46,-117.83"/>
<polygon fill="black" stroke="black" points="539.77,-116.67 533.52,-108.1 533.06,-118.69 539.77,-116.67"/>
</g>
<!-- Calyx_native&#45;&gt;SVFile -->
<!-- CPPFile -->
<g id="node29" class="node">
<title>CPPFile</title>
<polygon fill="#7fc97f" stroke="black" points="292,-36 244,-36 244,0 298,0 298,-30 292,-36"/>
<polyline fill="none" stroke="black" points="292,-36 292,-30 "/>
<polyline fill="none" stroke="black" points="298,-30 292,-30 "/>
<text text-anchor="middle" x="271" y="-14.3" font-family="Times,serif" font-size="14.00">.cpp</text>
</g>
<!-- Circilator&#45;&gt;CPPFile -->
<g id="edge29" class="edge">
<title>Circilator&#45;&gt;CPPFile</title>
<path fill="none" stroke="black" stroke-dasharray="5,2" d="M271,-71.7C271,-63.98 271,-54.71 271,-46.11"/>
<polygon fill="black" stroke="black" points="274.5,-46.1 271,-36.1 267.5,-46.1 274.5,-46.1"/>
</g>
<!-- FIRFile&#45;&gt;FIRRTLParser -->
<g id="edge18" class="edge">
<title>FIRFile&#45;&gt;FIRRTLParser</title>
<path fill="none" stroke="black" d="M480.93,-650.87C448.36,-625.6 387.34,-578.25 350.52,-549.68"/>
<polygon fill="black" stroke="black" points="352.2,-546.55 342.15,-543.19 347.91,-552.08 352.2,-546.55"/>
</g>
<!-- PyFile -->
<g id="node35" class="node">
<title>PyFile</title>
<polygon fill="#7fc97f" stroke="black" points="524,-615 476,-615 476,-579 530,-579 530,-609 524,-615"/>
<polyline fill="none" stroke="black" points="524,-615 524,-609 "/>
<polyline fill="none" stroke="black" points="530,-609 524,-609 "/>
<text text-anchor="middle" x="503" y="-593.3" font-family="Times,serif" font-size="14.00">.py</text>
</g>
<!-- FIRFile&#45;&gt;PyFile -->
<!-- SVVHDL -->
<g id="node34" class="node">
<title>SVVHDL</title>
<polygon fill="#7fc97f" stroke="black" points="550,-399 484,-399 484,-363 556,-363 556,-393 550,-399"/>
<polyline fill="none" stroke="black" points="550,-399 550,-393 "/>
<polyline fill="none" stroke="black" points="556,-393 550,-393 "/>
<text text-anchor="middle" x="520" y="-377.3" font-family="Times,serif" font-size="14.00">.sv/.vhd</text>
</g>
<!-- SVVHDL&#45;&gt;Moore -->
<g id="edge22" class="edge">
<title>SVVHDL&#45;&gt;Moore</title>
<path fill="none" stroke="black" d="M520,-362.7C520,-354.25 520,-343.87 520,-334.37"/>
<polygon fill="black" stroke="black" points="523.5,-334.18 520,-324.18 516.5,-334.18 523.5,-334.18"/>
</g>
<!-- PyFile&#45;&gt;PyCDE -->
<g id="edge37" class="edge">
<title>PyFile&#45;&gt;PyCDE</title>
<path fill="none" stroke="black" d="M483.97,-578.7C474.46,-570.05 462.79,-559.45 452.43,-550.03"/>
<polygon fill="black" stroke="black" points="454.57,-547.24 444.81,-543.1 449.86,-552.42 454.57,-547.24"/>
</g>
</g>
</svg>
