<?xml version="1.0" encoding="UTF-8" standalone="no"?>
<!DOCTYPE svg PUBLIC "-//W3C//DTD SVG 1.1//EN"
 "http://www.w3.org/Graphics/SVG/1.1/DTD/svg11.dtd">
<!-- Generated by graphviz version 2.43.0 (0)
 -->
<!-- Title: G Pages: 1 -->
<svg width="711pt" height="833pt"
 viewBox="0.00 0.00 710.50 833.00" xmlns="http://www.w3.org/2000/svg" xmlns:xlink="http://www.w3.org/1999/xlink">
<g id="graph0" class="graph" transform="scale(1 1) rotate(0) translate(4 829)">
<title>G</title>
<polygon fill="white" stroke="transparent" points="-4,4 -4,-829 706.5,-829 706.5,4 -4,4"/>
<g id="clust1" class="cluster">
<title>cluster_mlir</title>
<polygon fill="none" stroke="black" points="123.5,-726 123.5,-817 441.5,-817 441.5,-726 123.5,-726"/>
<text text-anchor="middle" x="282.5" y="-801.8" font-family="Times,serif" font-size="14.00">Upstream MLIR</text>
</g>
<g id="clust2" class="cluster">
<title>cluster_std_arith_dialect</title>
<polygon fill="none" stroke="black" points="265.5,-734 265.5,-786 433.5,-786 433.5,-734 265.5,-734"/>
</g>
<g id="clust3" class="cluster">
<title>cluster_circt</title>
<polygon fill="none" stroke="black" points="80.5,-136 80.5,-718 494.5,-718 494.5,-136 80.5,-136"/>
<text text-anchor="middle" x="287.5" y="-702.8" font-family="Times,serif" font-size="14.00">CIRCT</text>
</g>
<g id="clust4" class="cluster">
<title>cluster_RTL</title>
<polygon fill="none" stroke="black" points="172.5,-208 172.5,-355 382.5,-355 382.5,-208 172.5,-208"/>
<text text-anchor="middle" x="277.5" y="-339.8" font-family="Times,serif" font-size="14.00">RTL dialects</text>
</g>
<!-- SCF -->
<g id="node1" class="node">
<title>SCF</title>
<polygon fill="#beaed4" stroke="black" points="185.5,-778 131.5,-778 131.5,-742 185.5,-742 185.5,-778"/>
<text text-anchor="middle" x="158.5" y="-756.3" font-family="Times,serif" font-size="14.00">SCF</text>
</g>
<!-- Calyx -->
<g id="node6" class="node">
<title>Calyx</title>
<g id="a_node6"><a xlink:href="https://circt.llvm.org/docs/Dialects/Calyx/" xlink:title="Calyx">
<polygon fill="white" stroke="black" points="244.5,-543 188.5,-543 188.5,-507 244.5,-507 244.5,-543"/>
<text text-anchor="middle" x="216.5" y="-521.3" font-family="Times,serif" font-size="14.00">Calyx</text>
</a>
</g>
</g>
<!-- SCF&#45;&gt;Calyx -->
<g id="edge1" class="edge">
<title>SCF&#45;&gt;Calyx</title>
<path fill="none" stroke="black" d="M158.15,-741.76C158.03,-708.98 160.4,-635.86 181.5,-579 185.09,-569.33 190.72,-559.66 196.44,-551.27"/>
<polygon fill="black" stroke="black" points="199.35,-553.21 202.33,-543.04 193.66,-549.13 199.35,-553.21"/>
</g>
<!-- Affine -->
<g id="node2" class="node">
<title>Affine</title>
<polygon fill="#beaed4" stroke="black" points="257.5,-778 199.5,-778 199.5,-742 257.5,-742 257.5,-778"/>
<text text-anchor="middle" x="228.5" y="-756.3" font-family="Times,serif" font-size="14.00">Affine</text>
</g>
<!-- StaticLogic -->
<g id="node8" class="node">
<title>StaticLogic</title>
<g id="a_node8"><a xlink:href="https://circt.llvm.org/docs/Dialects/StaticLogic/" xlink:title="StaticLogic">
<polygon fill="white" stroke="black" points="285,-615 188,-615 188,-579 285,-579 285,-615"/>
<text text-anchor="middle" x="236.5" y="-593.3" font-family="Times,serif" font-size="14.00">StaticLogic</text>
</a>
</g>
</g>
<!-- Affine&#45;&gt;StaticLogic -->
<g id="edge2" class="edge">
<title>Affine&#45;&gt;StaticLogic</title>
<path fill="none" stroke="black" d="M243.6,-741.76C249.12,-736.18 255.7,-730.33 262.5,-726 270.92,-720.63 277.83,-726.22 283.5,-718 300.4,-693.48 294.07,-678.84 283.5,-651 279.53,-640.54 272.45,-630.83 264.97,-622.65"/>
<polygon fill="black" stroke="black" points="267.27,-619.99 257.77,-615.3 262.27,-624.89 267.27,-619.99"/>
</g>
<!-- Scheduling -->
<g id="node25" class="node">
<title>Scheduling</title>
<g id="a_node25"><a xlink:href="https://circt.llvm.org/docs/Scheduling/" xlink:title="Scheduling">
<polygon fill="#fdc086" stroke="black" points="276.5,-687 180.5,-687 180.5,-651 276.5,-651 276.5,-687"/>
<text text-anchor="middle" x="228.5" y="-665.3" font-family="Times,serif" font-size="14.00">Scheduling</text>
</a>
</g>
</g>
<!-- Affine&#45;&gt;Scheduling -->
<!-- Standard -->
<g id="node3" class="node">
<title>Standard</title>
<polygon fill="#beaed4" stroke="black" points="425,-778 342,-778 342,-742 425,-742 425,-778"/>
<text text-anchor="middle" x="383.5" y="-756.3" font-family="Times,serif" font-size="14.00">Standard</text>
</g>
<!-- Arith -->
<g id="node4" class="node">
<title>Arith</title>
<polygon fill="#beaed4" stroke="black" points="327.5,-778 273.5,-778 273.5,-742 327.5,-742 327.5,-778"/>
<text text-anchor="middle" x="300.5" y="-756.3" font-family="Times,serif" font-size="14.00">Arith</text>
</g>
<!-- Handshake -->
<g id="node5" class="node">
<title>Handshake</title>
<g id="a_node5"><a xlink:href="https://circt.llvm.org/docs/Dialects/Handshake/" xlink:title="Handshake">
<polygon fill="white" stroke="black" points="354.5,-543 258.5,-543 258.5,-507 354.5,-507 354.5,-543"/>
<text text-anchor="middle" x="306.5" y="-521.3" font-family="Times,serif" font-size="14.00">Handshake</text>
</a>
</g>
</g>
<!-- Arith&#45;&gt;Handshake -->
<g id="edge4" class="edge">
<title>Arith&#45;&gt;Handshake</title>
<path fill="none" stroke="black" d="M322.67,-734C326.62,-730.81 330.95,-727.98 335.5,-726 361.23,-714.82 438.07,-733.43 461.5,-718 489.39,-699.64 470.69,-673.35 495.5,-651 528.73,-621.05 564.15,-651.86 589.5,-615 598.57,-601.82 599.89,-591.17 589.5,-579 558.15,-542.28 427.7,-553.04 364.85,-543.03"/>
<polygon fill="black" stroke="black" points="365.13,-539.53 354.65,-541.08 363.81,-546.4 365.13,-539.53"/>
</g>
<!-- Arith&#45;&gt;Calyx -->
<g id="edge5" class="edge">
<title>Arith&#45;&gt;Calyx</title>
<path fill="none" stroke="black" d="M325.71,-734C328.92,-731.2 332.22,-728.46 335.5,-726 387.89,-686.6 403.13,-678.8 462.5,-651 505.66,-630.79 536.04,-653.95 563.5,-615 572.72,-601.92 574.15,-590.94 563.5,-579 519.06,-529.14 335.29,-559.62 255,-543.23"/>
<polygon fill="black" stroke="black" points="255.38,-539.72 244.84,-540.73 253.71,-546.52 255.38,-539.72"/>
</g>
<!-- FIRRTL -->
<g id="node7" class="node">
<title>FIRRTL</title>
<g id="a_node7"><a xlink:href="https://circt.llvm.org/docs/Dialects/FIRRTL/" xlink:title="FIRRTL">
<polygon fill="white" stroke="black" points="461,-471 390,-471 390,-435 461,-435 461,-471"/>
<text text-anchor="middle" x="425.5" y="-449.3" font-family="Times,serif" font-size="14.00">FIRRTL</text>
</a>
</g>
</g>
<!-- Handshake&#45;&gt;FIRRTL -->
<g id="edge6" class="edge">
<title>Handshake&#45;&gt;FIRRTL</title>
<path fill="none" stroke="black" d="M335.61,-506.88C351.17,-497.72 370.52,-486.34 387.28,-476.48"/>
<polygon fill="black" stroke="black" points="389.43,-479.28 396.28,-471.19 385.88,-473.24 389.43,-479.28"/>
</g>
<!-- FSM -->
<g id="node11" class="node">
<title>FSM</title>
<g id="a_node11"><a xlink:href="https://circt.llvm.org/docs/Dialects/FSM/" xlink:title="FSM">
<polygon fill="white" stroke="black" points="302.5,-471 248.5,-471 248.5,-435 302.5,-435 302.5,-471"/>
<text text-anchor="middle" x="275.5" y="-449.3" font-family="Times,serif" font-size="14.00">FSM</text>
</a>
</g>
</g>
<!-- Calyx&#45;&gt;FSM -->
<g id="edge7" class="edge">
<title>Calyx&#45;&gt;FSM</title>
<path fill="none" stroke="black" d="M231.08,-506.7C238.16,-498.3 246.78,-488.07 254.55,-478.86"/>
<polygon fill="black" stroke="black" points="257.31,-481.01 261.08,-471.1 251.96,-476.49 257.31,-481.01"/>
</g>
<!-- Calyx_native -->
<g id="node28" class="node">
<title>Calyx_native</title>
<polygon fill="#ffff99" stroke="black" points="650.23,-154.54 650.23,-169.46 607.04,-180 545.96,-180 502.77,-169.46 502.77,-154.54 545.96,-144 607.04,-144 650.23,-154.54"/>
<text text-anchor="middle" x="576.5" y="-158.3" font-family="Times,serif" font-size="14.00">Calyx native</text>
</g>
<!-- Calyx&#45;&gt;Calyx_native -->
<g id="edge30" class="edge">
<title>Calyx&#45;&gt;Calyx_native</title>
<path fill="none" stroke="black" d="M244.87,-509.39C247.09,-508.51 249.31,-507.7 251.5,-507 449.7,-443.89 702.5,-590 702.5,-382 702.5,-382 702.5,-382 702.5,-305 702.5,-252.21 653.18,-209.9 616.26,-185.61"/>
<polygon fill="black" stroke="black" points="617.96,-182.54 607.65,-180.12 614.2,-188.45 617.96,-182.54"/>
</g>
<!-- space_above_RTL -->
<!-- FIRRTL&#45;&gt;space_above_RTL -->
<!-- HW -->
<g id="node16" class="node">
<title>HW</title>
<g id="a_node16"><a xlink:href="https://circt.llvm.org/docs/Dialects/HW/" xlink:title="HW">
<polygon fill="white" stroke="black" points="234.5,-324 180.5,-324 180.5,-288 234.5,-288 234.5,-324"/>
<text text-anchor="middle" x="207.5" y="-302.3" font-family="Times,serif" font-size="14.00">HW</text>
</a>
</g>
</g>
<!-- FIRRTL&#45;&gt;HW -->
<g id="edge8" class="edge">
<title>FIRRTL&#45;&gt;HW</title>
<path fill="none" stroke="black" d="M409.29,-434.85C388.41,-413.96 349.95,-379.43 309.5,-363 284.83,-352.98 271.3,-366.26 250.78,-359.33"/>
<polygon fill="black" stroke="black" points="252.04,-356.06 241.5,-355 249.08,-362.4 252.04,-356.06"/>
</g>
<!-- StaticLogic&#45;&gt;Calyx -->
<g id="edge3" class="edge">
<title>StaticLogic&#45;&gt;Calyx</title>
<path fill="none" stroke="black" d="M231.56,-578.7C229.33,-570.9 226.65,-561.51 224.17,-552.83"/>
<polygon fill="black" stroke="black" points="227.5,-551.76 221.39,-543.1 220.77,-553.68 227.5,-551.76"/>
</g>
<!-- MSFT -->
<g id="node9" class="node">
<title>MSFT</title>
<g id="a_node9"><a xlink:href="https://circt.llvm.org/docs/Dialects/MSFT/" xlink:title="MSFT">
<polygon fill="white" stroke="black" points="376,-471 317,-471 317,-435 376,-435 376,-471"/>
<text text-anchor="middle" x="346.5" y="-449.3" font-family="Times,serif" font-size="14.00">MSFT</text>
</a>
</g>
</g>
<!-- MSFT&#45;&gt;space_above_RTL -->
<!-- MSFT&#45;&gt;HW -->
<g id="edge9" class="edge">
<title>MSFT&#45;&gt;HW</title>
<path fill="none" stroke="black" d="M316.92,-438.43C287.84,-424.88 247.02,-405.19 241.5,-399 238.67,-395.83 232.89,-381.16 226.88,-364.44"/>
<polygon fill="black" stroke="black" points="230.17,-363.26 223.53,-355 223.57,-365.59 230.17,-363.26"/>
</g>
<!-- TCL -->
<g id="node34" class="node">
<title>TCL</title>
<polygon fill="#7fc97f" stroke="black" points="461.5,-108 413.5,-108 413.5,-72 467.5,-72 467.5,-102 461.5,-108"/>
<polyline fill="none" stroke="black" points="461.5,-108 461.5,-102 "/>
<polyline fill="none" stroke="black" points="467.5,-102 461.5,-102 "/>
<text text-anchor="middle" x="440.5" y="-86.3" font-family="Times,serif" font-size="14.00">.tcl</text>
</g>
<!-- MSFT&#45;&gt;TCL -->
<g id="edge40" class="edge">
<title>MSFT&#45;&gt;TCL</title>
<path fill="none" stroke="black" d="M376.13,-437.59C378.59,-436.64 381.07,-435.76 383.5,-435 472.24,-407.37 508.15,-443.96 589.5,-399 637.7,-372.36 672.5,-362.07 672.5,-307 672.5,-307 672.5,-307 672.5,-233 672.5,-189.38 687.55,-167.62 657.5,-136 633.29,-110.52 533.09,-98.49 477.71,-93.69"/>
<polygon fill="black" stroke="black" points="477.85,-90.19 467.59,-92.85 477.27,-97.16 477.85,-90.19"/>
</g>
<!-- ESI -->
<g id="node10" class="node">
<title>ESI</title>
<g id="a_node10"><a xlink:href="https://circt.llvm.org/docs/Dialects/ESI/" xlink:title="ESI">
<polygon fill="white" stroke="black" points="142.5,-471 88.5,-471 88.5,-435 142.5,-435 142.5,-471"/>
<text text-anchor="middle" x="115.5" y="-449.3" font-family="Times,serif" font-size="14.00">ESI</text>
</a>
</g>
</g>
<!-- ESI&#45;&gt;space_above_RTL -->
<!-- ESI&#45;&gt;HW -->
<g id="edge10" class="edge">
<title>ESI&#45;&gt;HW</title>
<path fill="none" stroke="black" d="M126.41,-434.8C137.56,-417.22 155.48,-388.98 171.65,-363.51"/>
<polygon fill="black" stroke="black" points="174.64,-365.32 177.05,-355 168.73,-361.57 174.64,-365.32"/>
</g>
<!-- CapNProto -->
<g id="node33" class="node">
<title>CapNProto</title>
<polygon fill="#7fc97f" stroke="black" points="95,-108 0,-108 0,-72 101,-72 101,-102 95,-108"/>
<polyline fill="none" stroke="black" points="95,-108 95,-102 "/>
<polyline fill="none" stroke="black" points="101,-102 95,-102 "/>
<text text-anchor="middle" x="50.5" y="-86.3" font-family="Times,serif" font-size="14.00">Cap&#39;n Proto</text>
</g>
<!-- ESI&#45;&gt;CapNProto -->
<g id="edge39" class="edge">
<title>ESI&#45;&gt;CapNProto</title>
<path fill="none" stroke="black" d="M102.45,-434.75C83.99,-408.59 52.5,-356.68 52.5,-307 52.5,-307 52.5,-307 52.5,-233 52.5,-192.99 51.7,-146.65 51.11,-118.08"/>
<polygon fill="black" stroke="black" points="54.61,-117.97 50.9,-108.05 47.61,-118.12 54.61,-117.97"/>
</g>
<!-- FSM&#45;&gt;space_above_RTL -->
<!-- FSM&#45;&gt;HW -->
<g id="edge11" class="edge">
<title>FSM&#45;&gt;HW</title>
<path fill="none" stroke="black" d="M255.99,-434.61C246.36,-425.01 235.36,-412.34 228.5,-399 223.07,-388.43 219.03,-376.47 216.03,-364.75"/>
<polygon fill="black" stroke="black" points="219.43,-363.93 213.74,-355 212.61,-365.53 219.43,-363.93"/>
</g>
<!-- HWArith -->
<g id="node12" class="node">
<title>HWArith</title>
<g id="a_node12"><a xlink:href="https://circt.llvm.org/docs/Dialects/HWArith/" xlink:title="HWArith">
<polygon fill="white" stroke="black" points="234.5,-471 156.5,-471 156.5,-435 234.5,-435 234.5,-471"/>
<text text-anchor="middle" x="195.5" y="-449.3" font-family="Times,serif" font-size="14.00">HWArith</text>
</a>
</g>
</g>
<!-- HWArith&#45;&gt;space_above_RTL -->
<!-- HWArith&#45;&gt;HW -->
<g id="edge12" class="edge">
<title>HWArith&#45;&gt;HW</title>
<path fill="none" stroke="black" d="M196.92,-434.8C198.35,-417.61 200.61,-390.21 202.69,-365.18"/>
<polygon fill="black" stroke="black" points="206.19,-365.25 203.53,-355 199.21,-364.68 206.19,-365.25"/>
</g>
<!-- SystemC -->
<g id="node13" class="node">
<title>SystemC</title>
<g id="a_node13"><a xlink:href="https://circt.llvm.org/docs/Dialects/SystemC/" xlink:title="SystemC">
<polygon fill="white" stroke="black" points="470.5,-252 390.5,-252 390.5,-216 470.5,-216 470.5,-252"/>
<text text-anchor="middle" x="430.5" y="-230.3" font-family="Times,serif" font-size="14.00">SystemC</text>
</a>
</g>
</g>
<!-- ExportSystemC -->
<g id="node22" class="node">
<title>ExportSystemC</title>
<polygon fill="#fdc086" stroke="black" points="486,-180 357,-180 357,-144 486,-144 486,-180"/>
<text text-anchor="middle" x="421.5" y="-158.3" font-family="Times,serif" font-size="14.00">ExportSystemC</text>
</g>
<!-- SystemC&#45;&gt;ExportSystemC -->
<g id="edge21" class="edge">
<title>SystemC&#45;&gt;ExportSystemC</title>
<path fill="none" stroke="black" d="M428.28,-215.7C427.28,-207.98 426.09,-198.71 424.99,-190.11"/>
<polygon fill="black" stroke="black" points="428.45,-189.58 423.7,-180.1 421.5,-190.47 428.45,-189.58"/>
</g>
<!-- Seq -->
<g id="node15" class="node">
<title>Seq</title>
<g id="a_node15"><a xlink:href="https://circt.llvm.org/docs/Dialects/Seq/" xlink:title="Seq">
<polygon fill="white" stroke="black" points="302.5,-324 248.5,-324 248.5,-288 302.5,-288 302.5,-324"/>
<text text-anchor="middle" x="275.5" y="-302.3" font-family="Times,serif" font-size="14.00">Seq</text>
</a>
</g>
</g>
<!-- space_above_RTL&#45;&gt;Seq -->
<!-- space_above_RTL&#45;&gt;HW -->
<!-- Comb -->
<g id="node18" class="node">
<title>Comb</title>
<g id="a_node18"><a xlink:href="https://circt.llvm.org/docs/Dialects/Comb/" xlink:title="Comb">
<polygon fill="white" stroke="black" points="374.5,-324 316.5,-324 316.5,-288 374.5,-288 374.5,-324"/>
<text text-anchor="middle" x="345.5" y="-302.3" font-family="Times,serif" font-size="14.00">Comb</text>
</a>
</g>
</g>
<!-- space_above_RTL&#45;&gt;Comb -->
<!-- SV -->
<g id="node17" class="node">
<title>SV</title>
<g id="a_node17"><a xlink:href="https://circt.llvm.org/docs/Dialects/SV/" xlink:title="SV">
<polygon fill="white" stroke="black" points="312.5,-252 258.5,-252 258.5,-216 312.5,-216 312.5,-252"/>
<text text-anchor="middle" x="285.5" y="-230.3" font-family="Times,serif" font-size="14.00">SV</text>
</a>
</g>
</g>
<!-- Seq&#45;&gt;SV -->
<g id="edge13" class="edge">
<title>Seq&#45;&gt;SV</title>
<path fill="none" stroke="black" d="M277.97,-287.7C279.07,-279.98 280.4,-270.71 281.63,-262.11"/>
<polygon fill="black" stroke="black" points="285.11,-262.5 283.06,-252.1 278.18,-261.51 285.11,-262.5"/>
</g>
<!-- llhd_sim -->
<g id="node21" class="node">
<title>llhd_sim</title>
<polygon fill="#fdc086" stroke="black" points="212.5,-180 136.5,-180 136.5,-144 212.5,-144 212.5,-180"/>
<text text-anchor="middle" x="174.5" y="-158.3" font-family="Times,serif" font-size="14.00">llhd_sim</text>
</g>
<!-- Seq&#45;&gt;llhd_sim -->
<g id="edge34" class="edge">
<title>Seq&#45;&gt;llhd_sim</title>
<path fill="none" stroke="black" d="M248.42,-291.43C246.08,-290.26 243.75,-289.11 241.5,-288 208.7,-271.82 186.9,-283.01 167.5,-252 155.99,-233.6 159.17,-208.69 164.41,-189.9"/>
<polygon fill="black" stroke="black" points="167.81,-190.77 167.45,-180.18 161.13,-188.68 167.81,-190.77"/>
</g>
<!-- HW&#45;&gt;SystemC -->
<g id="edge16" class="edge">
<title>HW&#45;&gt;SystemC</title>
<path fill="none" stroke="black" d="M234.74,-290.74C237,-289.75 239.27,-288.82 241.5,-288 300.35,-266.23 320.56,-271.12 380.75,-253.36"/>
<polygon fill="black" stroke="black" points="381.8,-256.69 390.35,-250.43 379.76,-250 381.8,-256.69"/>
</g>
<!-- LLHD -->
<g id="node19" class="node">
<title>LLHD</title>
<g id="a_node19"><a xlink:href="https://circt.llvm.org/docs/Dialects/LLHD/" xlink:title="LLHD">
<polygon fill="white" stroke="black" points="244.5,-252 186.5,-252 186.5,-216 244.5,-216 244.5,-252"/>
<text text-anchor="middle" x="215.5" y="-230.3" font-family="Times,serif" font-size="14.00">LLHD</text>
</a>
</g>
</g>
<!-- HW&#45;&gt;LLHD -->
<g id="edge14" class="edge">
<title>HW&#45;&gt;LLHD</title>
<path fill="none" stroke="black" d="M209.48,-287.7C210.36,-279.98 211.42,-270.71 212.4,-262.11"/>
<polygon fill="black" stroke="black" points="215.89,-262.44 213.55,-252.1 208.93,-261.64 215.89,-262.44"/>
</g>
<!-- HW&#45;&gt;llhd_sim -->
<g id="edge35" class="edge">
<title>HW&#45;&gt;llhd_sim</title>
<path fill="none" stroke="black" d="M181.38,-287.82C169.92,-278.69 157.69,-266.39 151.5,-252 142.82,-231.84 150.11,-207.65 158.71,-189.59"/>
<polygon fill="black" stroke="black" points="162.05,-190.73 163.53,-180.24 155.83,-187.53 162.05,-190.73"/>
</g>
<!-- ExportVerilog -->
<g id="node23" class="node">
<title>ExportVerilog</title>
<g id="a_node23"><a xlink:href="https://circt.llvm.org/docs/VerilogGeneration/" xlink:title="ExportVerilog">
<polygon fill="#fdc086" stroke="black" points="342.5,-180 226.5,-180 226.5,-144 342.5,-144 342.5,-180"/>
<text text-anchor="middle" x="284.5" y="-158.3" font-family="Times,serif" font-size="14.00">ExportVerilog</text>
</a>
</g>
</g>
<!-- HW&#45;&gt;ExportVerilog -->
<g id="edge24" class="edge">
<title>HW&#45;&gt;ExportVerilog</title>
<path fill="none" stroke="black" d="M234.56,-291.38C236.9,-290.22 239.24,-289.09 241.5,-288 275.91,-271.46 298.92,-284.16 319.5,-252 330.04,-235.53 325.85,-226.5 319.5,-208 317.07,-200.92 313.02,-194.1 308.52,-187.99"/>
<polygon fill="black" stroke="black" points="311.22,-185.76 302.22,-180.17 305.77,-190.15 311.22,-185.76"/>
</g>
<!-- Circilator -->
<g id="node29" class="node">
<title>Circilator</title>
<polygon fill="#ffff99" stroke="black" stroke-dasharray="5,2" points="233.69,-82.54 233.69,-97.46 199.02,-108 149.98,-108 115.31,-97.46 115.31,-82.54 149.98,-72 199.02,-72 233.69,-82.54"/>
<text text-anchor="middle" x="174.5" y="-86.3" font-family="Times,serif" font-size="14.00">Circilator</text>
</g>
<!-- HW&#45;&gt;Circilator -->
<g id="edge28" class="edge">
<title>HW&#45;&gt;Circilator</title>
<path fill="none" stroke="black" stroke-dasharray="5,2" d="M180.07,-300.42C153.53,-294.38 114.73,-280.9 96.5,-252 68.59,-207.75 87.35,-179.44 116.5,-136 122.3,-127.35 130.32,-119.63 138.53,-113.14"/>
<polygon fill="black" stroke="black" points="140.79,-115.82 146.75,-107.06 136.63,-110.2 140.79,-115.82"/>
</g>
<!-- SV&#45;&gt;ExportVerilog -->
<g id="edge25" class="edge">
<title>SV&#45;&gt;ExportVerilog</title>
<path fill="none" stroke="black" d="M285.25,-215.7C285.14,-207.98 285.01,-198.71 284.89,-190.11"/>
<polygon fill="black" stroke="black" points="288.39,-190.05 284.74,-180.1 281.39,-190.15 288.39,-190.05"/>
</g>
<!-- Comb&#45;&gt;llhd_sim -->
<g id="edge36" class="edge">
<title>Comb&#45;&gt;llhd_sim</title>
<path fill="none" stroke="black" d="M316.21,-290.67C313.96,-289.72 311.7,-288.82 309.5,-288 253.3,-267.12 217.12,-298.68 179.5,-252 165.73,-234.92 165.68,-209.47 168.37,-190.15"/>
<polygon fill="black" stroke="black" points="171.85,-190.59 170.08,-180.14 164.95,-189.41 171.85,-190.59"/>
</g>
<!-- Comb&#45;&gt;ExportSystemC -->
<g id="edge22" class="edge">
<title>Comb&#45;&gt;ExportSystemC</title>
<path fill="none" stroke="black" d="M374.74,-302.51C406.15,-298.09 454.61,-285.86 477.5,-252 488.45,-235.8 485.95,-225.63 477.5,-208 473.59,-199.84 467.39,-192.68 460.52,-186.62"/>
<polygon fill="black" stroke="black" points="462.24,-183.52 452.24,-180.02 457.88,-188.99 462.24,-183.52"/>
</g>
<!-- Comb&#45;&gt;ExportVerilog -->
<g id="edge15" class="edge">
<title>Comb&#45;&gt;ExportVerilog</title>
<path fill="none" stroke="black" d="M346.31,-287.86C346.54,-267.65 344.66,-233.57 331.5,-208 327.65,-200.51 322.05,-193.57 316.06,-187.49"/>
<polygon fill="black" stroke="black" points="318.05,-184.56 308.36,-180.28 313.26,-189.67 318.05,-184.56"/>
</g>
<!-- LLHD&#45;&gt;llhd_sim -->
<g id="edge37" class="edge">
<title>LLHD&#45;&gt;llhd_sim</title>
<path fill="none" stroke="black" d="M205.37,-215.7C200.65,-207.64 194.94,-197.89 189.72,-188.98"/>
<polygon fill="black" stroke="black" points="192.59,-186.96 184.52,-180.1 186.55,-190.5 192.59,-186.96"/>
</g>
<!-- LLHD&#45;&gt;Circilator -->
<g id="edge29" class="edge">
<title>LLHD&#45;&gt;Circilator</title>
<path fill="none" stroke="black" stroke-dasharray="5,2" d="M186.21,-224.21C165.49,-216.27 139.21,-202.36 126.5,-180 116.84,-163 118.73,-153.94 126.5,-136 129.93,-128.09 135.5,-120.93 141.67,-114.77"/>
<polygon fill="black" stroke="black" points="144.05,-117.34 149.08,-108.01 139.33,-112.17 144.05,-117.34"/>
</g>
<!-- FIRRTLParser -->
<g id="node20" class="node">
<title>FIRRTLParser</title>
<polygon fill="#fdc086" stroke="black" points="486,-543 369,-543 369,-507 486,-507 486,-543"/>
<text text-anchor="middle" x="427.5" y="-521.3" font-family="Times,serif" font-size="14.00">FIRRTLParser</text>
</g>
<!-- FIRRTLParser&#45;&gt;FIRRTL -->
<g id="edge20" class="edge">
<title>FIRRTLParser&#45;&gt;FIRRTL</title>
<path fill="none" stroke="black" d="M427.01,-506.7C426.79,-498.98 426.52,-489.71 426.27,-481.11"/>
<polygon fill="black" stroke="black" points="429.77,-481 425.99,-471.1 422.78,-481.2 429.77,-481"/>
</g>
<!-- llhd_sim&#45;&gt;Circilator -->
<!-- VCDTrace -->
<g id="node30" class="node">
<title>VCDTrace</title>
<polygon fill="#7fc97f" stroke="black" points="295.5,-108 247.5,-108 247.5,-72 301.5,-72 301.5,-102 295.5,-108"/>
<polyline fill="none" stroke="black" points="295.5,-108 295.5,-102 "/>
<polyline fill="none" stroke="black" points="301.5,-102 295.5,-102 "/>
<text text-anchor="middle" x="274.5" y="-86.3" font-family="Times,serif" font-size="14.00">.vcd</text>
</g>
<!-- llhd_sim&#45;&gt;VCDTrace -->
<g id="edge38" class="edge">
<title>llhd_sim&#45;&gt;VCDTrace</title>
<path fill="none" stroke="black" d="M198.96,-143.88C211.8,-134.89 227.7,-123.76 241.59,-114.03"/>
<polygon fill="black" stroke="black" points="243.76,-116.79 249.94,-108.19 239.74,-111.06 243.76,-116.79"/>
</g>
<!-- SVFile -->
<g id="node32" class="node">
<title>SVFile</title>
<polygon fill="#7fc97f" stroke="black" points="393.5,-108 345.5,-108 345.5,-72 399.5,-72 399.5,-102 393.5,-108"/>
<polyline fill="none" stroke="black" points="393.5,-108 393.5,-102 "/>
<polyline fill="none" stroke="black" points="399.5,-102 393.5,-102 "/>
<text text-anchor="middle" x="372.5" y="-86.3" font-family="Times,serif" font-size="14.00">.sv</text>
</g>
<!-- llhd_sim&#45;&gt;SVFile -->
<!-- llhd_sim&#45;&gt;CapNProto -->
<!-- llhd_sim&#45;&gt;TCL -->
<!-- CPPFile -->
<g id="node31" class="node">
<title>CPPFile</title>
<polygon fill="#7fc97f" stroke="black" points="269.5,-36 221.5,-36 221.5,0 275.5,0 275.5,-30 269.5,-36"/>
<polyline fill="none" stroke="black" points="269.5,-36 269.5,-30 "/>
<polyline fill="none" stroke="black" points="275.5,-30 269.5,-30 "/>
<text text-anchor="middle" x="248.5" y="-14.3" font-family="Times,serif" font-size="14.00">.cpp</text>
</g>
<!-- ExportSystemC&#45;&gt;CPPFile -->
<g id="edge23" class="edge">
<title>ExportSystemC&#45;&gt;CPPFile</title>
<path fill="none" stroke="black" d="M389.95,-143.97C373.74,-134.47 354.15,-121.79 338.5,-108 322.87,-94.23 323.01,-86.94 308.5,-72 298.79,-62.01 287.49,-51.72 277.33,-42.9"/>
<polygon fill="black" stroke="black" points="279.35,-40.02 269.48,-36.17 274.8,-45.33 279.35,-40.02"/>
</g>
<!-- ExportVerilog&#45;&gt;SVFile -->
<g id="edge31" class="edge">
<title>ExportVerilog&#45;&gt;SVFile</title>
<path fill="none" stroke="black" d="M306.25,-143.7C317.34,-134.88 330.97,-124.03 342.99,-114.47"/>
<polygon fill="black" stroke="black" points="345.35,-117.07 351,-108.1 340.99,-111.59 345.35,-117.07"/>
</g>
<!-- PyCDE -->
<g id="node24" class="node">
<title>PyCDE</title>
<g id="a_node24"><a xlink:href="https://circt.llvm.org/docs/PyCDE/" xlink:title="PyCDE">
<polygon fill="#fdc086" stroke="black" points="158,-543 91,-543 91,-507 158,-507 158,-543"/>
<text text-anchor="middle" x="124.5" y="-521.3" font-family="Times,serif" font-size="14.00">PyCDE</text>
</a>
</g>
</g>
<!-- PyCDE&#45;&gt;MSFT -->
<g id="edge43" class="edge">
<title>PyCDE&#45;&gt;MSFT</title>
<path fill="none" stroke="black" d="M158.27,-510.79C162.04,-509.45 165.84,-508.16 169.5,-507 227.76,-488.56 247.08,-492.08 307.21,-471.56"/>
<polygon fill="black" stroke="black" points="308.52,-474.81 316.8,-468.2 306.21,-468.2 308.52,-474.81"/>
</g>
<!-- PyCDE&#45;&gt;ESI -->
<g id="edge42" class="edge">
<title>PyCDE&#45;&gt;ESI</title>
<path fill="none" stroke="black" stroke-dasharray="5,2" d="M122.28,-506.7C121.28,-498.98 120.09,-489.71 118.99,-481.11"/>
<polygon fill="black" stroke="black" points="122.45,-480.58 117.7,-471.1 115.5,-481.47 122.45,-480.58"/>
</g>
<!-- PyCDE&#45;&gt;FSM -->
<g id="edge45" class="edge">
<title>PyCDE&#45;&gt;FSM</title>
<path fill="none" stroke="black" d="M158.2,-509.15C179.55,-499.64 207.94,-486.84 239.14,-472.07"/>
<polygon fill="black" stroke="black" points="240.92,-475.1 248.45,-467.64 237.92,-468.78 240.92,-475.1"/>
</g>
<!-- PyCDE&#45;&gt;HWArith -->
<g id="edge44" class="edge">
<title>PyCDE&#45;&gt;HWArith</title>
<path fill="none" stroke="black" d="M142.05,-506.7C150.73,-498.14 161.36,-487.66 170.85,-478.3"/>
<polygon fill="black" stroke="black" points="173.49,-480.62 178.15,-471.1 168.57,-475.63 173.49,-480.62"/>
</g>
<!-- Scheduling&#45;&gt;StaticLogic -->
<g id="edge17" class="edge">
<title>Scheduling&#45;&gt;StaticLogic</title>
<path fill="none" stroke="black" d="M231.62,-640.67C232.21,-635.55 232.82,-630.21 233.4,-625.1"/>
<polygon fill="black" stroke="black" points="228.14,-640.36 230.48,-650.7 235.09,-641.16 228.14,-640.36"/>
<polygon fill="black" stroke="black" points="236.89,-625.44 234.55,-615.1 229.93,-624.64 236.89,-625.44"/>
</g>
<!-- Scheduling&#45;&gt;MSFT -->
<g id="edge46" class="edge">
<title>Scheduling&#45;&gt;MSFT</title>
<path fill="none" stroke="black" stroke-dasharray="5,2" d="M200.03,-643.35C192.55,-635.17 185.47,-625.46 181.5,-615 172.98,-592.56 167.01,-526.13 181.5,-507 215.3,-462.38 250.15,-488.29 307.07,-471.38"/>
<polygon fill="black" stroke="black" points="197.73,-646.01 207.23,-650.7 202.73,-641.11 197.73,-646.01"/>
<polygon fill="black" stroke="black" points="308.4,-474.63 316.78,-468.14 306.19,-467.99 308.4,-474.63"/>
</g>
<!-- Moore -->
<g id="node26" class="node">
<title>Moore</title>
<polygon fill="#ffff99" stroke="black" points="590.23,-298.54 590.23,-313.46 564.61,-324 528.39,-324 502.77,-313.46 502.77,-298.54 528.39,-288 564.61,-288 590.23,-298.54"/>
<text text-anchor="middle" x="546.5" y="-302.3" font-family="Times,serif" font-size="14.00">Moore</text>
</g>
<!-- Moore&#45;&gt;LLHD -->
<g id="edge27" class="edge">
<title>Moore&#45;&gt;LLHD</title>
<path fill="none" stroke="black" d="M502.64,-300.77C446.24,-294.54 345.43,-280.72 254.34,-252.6"/>
<polygon fill="black" stroke="black" points="255.3,-249.24 244.71,-249.57 253.2,-255.91 255.3,-249.24"/>
</g>
<!-- Chisel -->
<g id="node27" class="node">
<title>Chisel</title>
<polygon fill="#ffff99" stroke="black" points="572.33,-752.54 572.33,-767.46 547.24,-778 511.76,-778 486.67,-767.46 486.67,-752.54 511.76,-742 547.24,-742 572.33,-752.54"/>
<text text-anchor="middle" x="529.5" y="-756.3" font-family="Times,serif" font-size="14.00">Chisel</text>
</g>
<!-- FIRFile -->
<g id="node35" class="node">
<title>FIRFile</title>
<polygon fill="#7fc97f" stroke="black" points="550.5,-687 502.5,-687 502.5,-651 556.5,-651 556.5,-681 550.5,-687"/>
<polyline fill="none" stroke="black" points="550.5,-687 550.5,-681 "/>
<polyline fill="none" stroke="black" points="556.5,-681 550.5,-681 "/>
<text text-anchor="middle" x="529.5" y="-665.3" font-family="Times,serif" font-size="14.00">.fir</text>
</g>
<!-- Chisel&#45;&gt;FIRFile -->
<g id="edge18" class="edge">
<title>Chisel&#45;&gt;FIRFile</title>
<path fill="none" stroke="black" d="M529.5,-741.84C529.5,-729.28 529.5,-711.98 529.5,-697.5"/>
<polygon fill="black" stroke="black" points="533,-697.11 529.5,-687.11 526,-697.11 533,-697.11"/>
</g>
<!-- Calyx_native&#45;&gt;SVFile -->
<g id="edge32" class="edge">
<title>Calyx_native&#45;&gt;SVFile</title>
<path fill="none" stroke="black" d="M528.82,-147.96C516.29,-144.09 502.86,-139.86 490.5,-136 453.72,-124.52 441.04,-123.78 409.42,-111.86"/>
<polygon fill="black" stroke="black" points="410.55,-108.54 399.96,-108.18 408.01,-115.07 410.55,-108.54"/>
</g>
<!-- Calyx_native&#45;&gt;SVFile -->
<!-- Circilator&#45;&gt;CPPFile -->
<g id="edge33" class="edge">
<title>Circilator&#45;&gt;CPPFile</title>
<path fill="none" stroke="black" stroke-dasharray="5,2" d="M192.79,-71.7C201.93,-63.05 213.14,-52.45 223.1,-43.03"/>
<polygon fill="black" stroke="black" points="225.56,-45.52 230.42,-36.1 220.75,-40.43 225.56,-45.52"/>
</g>
<!-- FIRFile&#45;&gt;FIRRTLParser -->
<g id="edge19" class="edge">
<title>FIRFile&#45;&gt;FIRRTLParser</title>
<path fill="none" stroke="black" d="M556.93,-660.1C578.18,-652.37 606.18,-638.3 619.5,-615 627.44,-601.11 629.19,-591.73 619.5,-579 604.36,-559.12 545.11,-544.79 496.38,-536.08"/>
<polygon fill="black" stroke="black" points="496.93,-532.63 486.48,-534.36 495.74,-539.52 496.93,-532.63"/>
</g>
<!-- PyFile -->
<g id="node37" class="node">
<title>PyFile</title>
<polygon fill="#7fc97f" stroke="black" points="550.5,-615 502.5,-615 502.5,-579 556.5,-579 556.5,-609 550.5,-615"/>
<polyline fill="none" stroke="black" points="550.5,-615 550.5,-609 "/>
<polyline fill="none" stroke="black" points="556.5,-609 550.5,-609 "/>
<text text-anchor="middle" x="529.5" y="-593.3" font-family="Times,serif" font-size="14.00">.py</text>
</g>
<!-- FIRFile&#45;&gt;PyFile -->
<!-- SVVHDL -->
<g id="node36" class="node">
<title>SVVHDL</title>
<polygon fill="#7fc97f" stroke="black" points="576.5,-399 510.5,-399 510.5,-363 582.5,-363 582.5,-393 576.5,-399"/>
<polyline fill="none" stroke="black" points="576.5,-399 576.5,-393 "/>
<polyline fill="none" stroke="black" points="582.5,-393 576.5,-393 "/>
<text text-anchor="middle" x="546.5" y="-377.3" font-family="Times,serif" font-size="14.00">.sv/.vhd</text>
</g>
<!-- SVVHDL&#45;&gt;Moore -->
<g id="edge26" class="edge">
<title>SVVHDL&#45;&gt;Moore</title>
<path fill="none" stroke="black" d="M546.5,-362.7C546.5,-354.25 546.5,-343.87 546.5,-334.37"/>
<polygon fill="black" stroke="black" points="550,-334.18 546.5,-324.18 543,-334.18 550,-334.18"/>
</g>
<!-- PyFile&#45;&gt;PyCDE -->
<g id="edge41" class="edge">
<title>PyFile&#45;&gt;PyCDE</title>
<path fill="none" stroke="black" d="M502.21,-580.66C500.64,-580.05 499.06,-579.48 497.5,-579 362.5,-537.11 319.99,-571.31 181.5,-543 177.05,-542.09 172.46,-540.99 167.89,-539.8"/>
<polygon fill="black" stroke="black" points="168.58,-536.36 158.01,-537.06 166.71,-543.1 168.58,-536.36"/>
</g>
</g>
</svg>
