<?xml version="1.0" encoding="UTF-8" standalone="no"?>
<!DOCTYPE svg PUBLIC "-//W3C//DTD SVG 1.1//EN"
 "http://www.w3.org/Graphics/SVG/1.1/DTD/svg11.dtd">
<!-- Generated by graphviz version 2.43.0 (0)
 -->
<!-- Title: G Pages: 1 -->
<svg width="683pt" height="992pt"
 viewBox="0.00 0.00 682.87 992.00" xmlns="http://www.w3.org/2000/svg" xmlns:xlink="http://www.w3.org/1999/xlink">
<g id="graph0" class="graph" transform="scale(1 1) rotate(0) translate(4 988)">
<title>G</title>
<polygon fill="white" stroke="transparent" points="-4,4 -4,-988 678.87,-988 678.87,4 -4,4"/>
<g id="clust1" class="cluster">
<title>cluster_mlir_frontends</title>
<polygon fill="none" stroke="black" points="77.87,-901 77.87,-976 317.87,-976 317.87,-901 77.87,-901"/>
<text text-anchor="middle" x="197.87" y="-960.8" font-family="Times,serif" font-size="14.00">Upstream frontends (selection)</text>
</g>
<g id="clust2" class="cluster">
<title>cluster_mlir</title>
<polygon fill="none" stroke="black" points="27.87,-802 27.87,-893 315.87,-893 315.87,-802 27.87,-802"/>
<text text-anchor="middle" x="171.87" y="-877.8" font-family="Times,serif" font-size="14.00">Upstream MLIR</text>
</g>
<g id="clust3" class="cluster">
<title>cluster_std_arith_dialect</title>
<polygon fill="none" stroke="black" points="169.87,-810 169.87,-862 307.87,-862 307.87,-810 169.87,-810"/>
</g>
<g id="clust4" class="cluster">
<title>cluster_circt</title>
<polygon fill="none" stroke="black" points="155.87,-212 155.87,-794 656.87,-794 656.87,-212 155.87,-212"/>
<text text-anchor="middle" x="406.37" y="-778.8" font-family="Times,serif" font-size="14.00">CIRCT</text>
</g>
<g id="clust6" class="cluster">
<title>cluster_RTL</title>
<polygon fill="none" stroke="black" points="310.87,-356 310.87,-431 520.87,-431 520.87,-356 310.87,-356"/>
<text text-anchor="middle" x="415.87" y="-415.8" font-family="Times,serif" font-size="14.00">Core dialects</text>
</g>
<g id="clust9" class="cluster">
<title>cluster_input_langs</title>
<polygon fill="none" stroke="black" points="325.87,-901 325.87,-976 666.87,-976 666.87,-901 325.87,-901"/>
<text text-anchor="middle" x="496.37" y="-960.8" font-family="Times,serif" font-size="14.00">Input languages</text>
</g>
<!-- PyTorch -->
<g id="node1" class="node">
<title>PyTorch</title>
<polygon fill="white" stroke="black" points="309.87,-945 235.87,-945 235.87,-909 309.87,-909 309.87,-945"/>
<text text-anchor="middle" x="272.87" y="-923.3" font-family="Times,serif" font-size="14.00">PyTorch</text>
</g>
<!-- CF -->
<g id="node5" class="node">
<title>CF</title>
<polygon fill="#beaed4" stroke="black" points="299.87,-854 245.87,-854 245.87,-818 299.87,-818 299.87,-854"/>
<text text-anchor="middle" x="272.87" y="-832.3" font-family="Times,serif" font-size="14.00">CF</text>
</g>
<!-- PyTorch&#45;&gt;CF -->
<g id="edge1" class="edge">
<title>PyTorch&#45;&gt;CF</title>
<path fill="none" stroke="black" d="M268.62,-908.84C268.47,-907.06 268.34,-905.19 268.22,-903.24"/>
<polygon fill="black" stroke="black" points="271.7,-902.84 267.78,-893 264.71,-903.14 271.7,-902.84"/>
</g>
<!-- PyTorch&#45;&gt;CF -->
<!-- Polygeist -->
<g id="node2" class="node">
<title>Polygeist</title>
<polygon fill="white" stroke="black" points="221.87,-945 139.87,-945 139.87,-909 221.87,-909 221.87,-945"/>
<text text-anchor="middle" x="180.87" y="-923.3" font-family="Times,serif" font-size="14.00">Polygeist</text>
</g>
<!-- Affine -->
<g id="node4" class="node">
<title>Affine</title>
<polygon fill="#beaed4" stroke="black" points="161.87,-854 103.87,-854 103.87,-818 161.87,-818 161.87,-854"/>
<text text-anchor="middle" x="132.87" y="-832.3" font-family="Times,serif" font-size="14.00">Affine</text>
</g>
<!-- Polygeist&#45;&gt;Affine -->
<g id="edge2" class="edge">
<title>Polygeist&#45;&gt;Affine</title>
<path fill="none" stroke="black" d="M171.61,-908.84C170.49,-906.77 169.3,-904.56 168.07,-902.26"/>
<polygon fill="black" stroke="black" points="170.89,-900.14 163.07,-893 164.73,-903.46 170.89,-900.14"/>
</g>
<!-- Polygeist&#45;&gt;CF -->
<!-- SCF -->
<g id="node3" class="node">
<title>SCF</title>
<polygon fill="#beaed4" stroke="black" points="89.87,-854 35.87,-854 35.87,-818 89.87,-818 89.87,-854"/>
<text text-anchor="middle" x="62.87" y="-832.3" font-family="Times,serif" font-size="14.00">SCF</text>
</g>
<!-- Calyx -->
<g id="node11" class="node">
<title>Calyx</title>
<g id="a_node11"><a xlink:href="https://circt.llvm.org/docs/Dialects/Calyx/" xlink:title="Calyx">
<polygon fill="white" stroke="black" points="219.87,-619 163.87,-619 163.87,-583 219.87,-583 219.87,-619"/>
<text text-anchor="middle" x="191.87" y="-597.3" font-family="Times,serif" font-size="14.00">Calyx</text>
</a>
</g>
</g>
<!-- SCF&#45;&gt;Calyx -->
<g id="edge3" class="edge">
<title>SCF&#45;&gt;Calyx</title>
<path fill="none" stroke="black" d="M72.35,-817.87C94.72,-777.47 150.86,-676.07 177.46,-628.02"/>
<polygon fill="black" stroke="black" points="180.59,-629.6 182.37,-619.16 174.46,-626.21 180.59,-629.6"/>
</g>
<!-- Pipeline -->
<g id="node13" class="node">
<title>Pipeline</title>
<g id="a_node13"><a xlink:href="https://circt.llvm.org/docs/Dialects/Pipeline/" xlink:title="Pipeline">
<polygon fill="white" stroke="black" points="317.87,-691 243.87,-691 243.87,-655 317.87,-655 317.87,-691"/>
<text text-anchor="middle" x="280.87" y="-669.3" font-family="Times,serif" font-size="14.00">Pipeline</text>
</a>
</g>
</g>
<!-- Affine&#45;&gt;Pipeline -->
<g id="edge4" class="edge">
<title>Affine&#45;&gt;Pipeline</title>
<path fill="none" stroke="black" d="M148.71,-817.77C175.08,-789.08 228.07,-731.43 258.33,-698.52"/>
<polygon fill="black" stroke="black" points="260.95,-700.84 265.14,-691.11 255.8,-696.1 260.95,-700.84"/>
</g>
<!-- Arith -->
<g id="node6" class="node">
<title>Arith</title>
<polygon fill="#beaed4" stroke="black" points="231.87,-854 177.87,-854 177.87,-818 231.87,-818 231.87,-854"/>
<text text-anchor="middle" x="204.87" y="-832.3" font-family="Times,serif" font-size="14.00">Arith</text>
</g>
<!-- Handshake -->
<g id="node10" class="node">
<title>Handshake</title>
<g id="a_node10"><a xlink:href="https://circt.llvm.org/docs/Dialects/Handshake/" xlink:title="Handshake">
<polygon fill="white" stroke="black" points="329.87,-619 233.87,-619 233.87,-583 329.87,-583 329.87,-619"/>
<text text-anchor="middle" x="281.87" y="-597.3" font-family="Times,serif" font-size="14.00">Handshake</text>
</a>
</g>
</g>
<!-- Arith&#45;&gt;Handshake -->
<g id="edge6" class="edge">
<title>Arith&#45;&gt;Handshake</title>
<path fill="none" stroke="black" d="M208.57,-810C215.51,-763.89 230.35,-668.84 236.87,-655 241.62,-644.9 248.81,-635.19 256.05,-626.89"/>
<polygon fill="black" stroke="black" points="258.74,-629.14 262.94,-619.41 253.59,-624.4 258.74,-629.14"/>
</g>
<!-- Arith&#45;&gt;Calyx -->
<g id="edge7" class="edge">
<title>Arith&#45;&gt;Calyx</title>
<path fill="none" stroke="black" d="M203.47,-810C201.01,-765.95 195.93,-674.83 193.39,-629.23"/>
<polygon fill="black" stroke="black" points="196.88,-628.95 192.82,-619.16 189.89,-629.34 196.88,-628.95"/>
</g>
<!-- FIRRTLParser -->
<g id="node7" class="node">
<title>FIRRTLParser</title>
<polygon fill="#fdc086" stroke="black" points="477.37,-619 360.37,-619 360.37,-583 477.37,-583 477.37,-619"/>
<text text-anchor="middle" x="418.87" y="-597.3" font-family="Times,serif" font-size="14.00">FIRRTLParser</text>
</g>
<!-- FIRRTL -->
<g id="node12" class="node">
<title>FIRRTL</title>
<g id="a_node12"><a xlink:href="https://circt.llvm.org/docs/Dialects/FIRRTL/" xlink:title="FIRRTL">
<polygon fill="white" stroke="black" points="235.37,-547 164.37,-547 164.37,-511 235.37,-511 235.37,-547"/>
<text text-anchor="middle" x="199.87" y="-525.3" font-family="Times,serif" font-size="14.00">FIRRTL</text>
</a>
</g>
</g>
<!-- FIRRTLParser&#45;&gt;FIRRTL -->
<g id="edge26" class="edge">
<title>FIRRTLParser&#45;&gt;FIRRTL</title>
<path fill="none" stroke="black" d="M360.21,-583.67C328.21,-574.46 287.77,-562.32 245.15,-547.69"/>
<polygon fill="black" stroke="black" points="246.04,-544.3 235.45,-544.33 243.75,-550.91 246.04,-544.3"/>
</g>
<!-- PyCDE -->
<g id="node8" class="node">
<title>PyCDE</title>
<g id="a_node8"><a xlink:href="https://circt.llvm.org/docs/PyCDE/" xlink:title="PyCDE">
<polygon fill="#fdc086" stroke="black" points="558.37,-619 491.37,-619 491.37,-583 558.37,-583 558.37,-619"/>
<text text-anchor="middle" x="524.87" y="-597.3" font-family="Times,serif" font-size="14.00">PyCDE</text>
</a>
</g>
</g>
<!-- MSFT -->
<g id="node14" class="node">
<title>MSFT</title>
<g id="a_node14"><a xlink:href="https://circt.llvm.org/docs/Dialects/MSFT/" xlink:title="MSFT">
<polygon fill="white" stroke="black" points="445.37,-547 386.37,-547 386.37,-511 445.37,-511 445.37,-547"/>
<text text-anchor="middle" x="415.87" y="-525.3" font-family="Times,serif" font-size="14.00">MSFT</text>
</a>
</g>
</g>
<!-- PyCDE&#45;&gt;MSFT -->
<g id="edge41" class="edge">
<title>PyCDE&#45;&gt;MSFT</title>
<path fill="none" stroke="black" d="M498.2,-582.88C484.08,-573.81 466.56,-562.55 451.31,-552.76"/>
<polygon fill="black" stroke="black" points="452.94,-549.65 442.63,-547.19 449.16,-555.54 452.94,-549.65"/>
</g>
<!-- ESI -->
<g id="node15" class="node">
<title>ESI</title>
<g id="a_node15"><a xlink:href="https://circt.llvm.org/docs/Dialects/ESI/" xlink:title="ESI">
<polygon fill="white" stroke="black" points="303.87,-547 249.87,-547 249.87,-511 303.87,-511 303.87,-547"/>
<text text-anchor="middle" x="276.87" y="-525.3" font-family="Times,serif" font-size="14.00">ESI</text>
</a>
</g>
</g>
<!-- PyCDE&#45;&gt;ESI -->
<g id="edge42" class="edge">
<title>PyCDE&#45;&gt;ESI</title>
<path fill="none" stroke="black" d="M491,-585.07C488.94,-584.33 486.88,-583.63 484.87,-583 412.58,-560.41 387.53,-571.84 313.8,-547.66"/>
<polygon fill="black" stroke="black" points="314.66,-544.26 304.07,-544.36 312.41,-550.89 314.66,-544.26"/>
</g>
<!-- FSM -->
<g id="node16" class="node">
<title>FSM</title>
<g id="a_node16"><a xlink:href="https://circt.llvm.org/docs/Dialects/FSM/" xlink:title="FSM">
<polygon fill="white" stroke="black" points="371.87,-547 317.87,-547 317.87,-511 371.87,-511 371.87,-547"/>
<text text-anchor="middle" x="344.87" y="-525.3" font-family="Times,serif" font-size="14.00">FSM</text>
</a>
</g>
</g>
<!-- PyCDE&#45;&gt;FSM -->
<g id="edge43" class="edge">
<title>PyCDE&#45;&gt;FSM</title>
<path fill="none" stroke="black" d="M491.33,-585.54C489.15,-584.66 486.98,-583.81 484.87,-583 441.68,-566.44 427.27,-565.82 381.77,-547.58"/>
<polygon fill="black" stroke="black" points="382.82,-544.23 372.24,-543.68 380.17,-550.71 382.82,-544.23"/>
</g>
<!-- HWArith -->
<g id="node17" class="node">
<title>HWArith</title>
<g id="a_node17"><a xlink:href="https://circt.llvm.org/docs/Dialects/HWArith/" xlink:title="HWArith">
<polygon fill="white" stroke="black" points="537.87,-547 459.87,-547 459.87,-511 537.87,-511 537.87,-547"/>
<text text-anchor="middle" x="498.87" y="-525.3" font-family="Times,serif" font-size="14.00">HWArith</text>
</a>
</g>
</g>
<!-- PyCDE&#45;&gt;HWArith -->
<g id="edge44" class="edge">
<title>PyCDE&#45;&gt;HWArith</title>
<path fill="none" stroke="black" d="M518.44,-582.7C515.51,-574.81 511.98,-565.3 508.73,-556.55"/>
<polygon fill="black" stroke="black" points="511.98,-555.26 505.22,-547.1 505.42,-557.7 511.98,-555.26"/>
</g>
<!-- Scheduling -->
<g id="node9" class="node">
<title>Scheduling</title>
<g id="a_node9"><a xlink:href="https://circt.llvm.org/docs/Scheduling/" xlink:title="Scheduling">
<polygon fill="#fdc086" stroke="black" points="398.87,-763 302.87,-763 302.87,-727 398.87,-727 398.87,-763"/>
<text text-anchor="middle" x="350.87" y="-741.3" font-family="Times,serif" font-size="14.00">Scheduling</text>
</a>
</g>
</g>
<!-- Scheduling&#45;&gt;Pipeline -->
<g id="edge23" class="edge">
<title>Scheduling&#45;&gt;Pipeline</title>
<path fill="none" stroke="black" d="M326.34,-719.48C319.46,-712.6 311.99,-705.12 305.12,-698.26"/>
<polygon fill="black" stroke="black" points="324.02,-722.1 333.56,-726.7 328.97,-717.15 324.02,-722.1"/>
<polygon fill="black" stroke="black" points="307.52,-695.7 297.97,-691.1 302.57,-700.65 307.52,-695.7"/>
</g>
<!-- Scheduling&#45;&gt;MSFT -->
<g id="edge45" class="edge">
<title>Scheduling&#45;&gt;MSFT</title>
<path fill="none" stroke="black" stroke-dasharray="5,2" d="M344.94,-717.1C339,-683.84 333.41,-626.34 353.87,-583 359.3,-571.5 368.55,-561.54 378.28,-553.46"/>
<polygon fill="black" stroke="black" points="341.51,-717.83 346.84,-726.99 348.39,-716.51 341.51,-717.83"/>
<polygon fill="black" stroke="black" points="380.71,-556 386.49,-547.12 376.43,-550.46 380.71,-556"/>
</g>
<!-- Handshake&#45;&gt;FIRRTL -->
<g id="edge8" class="edge">
<title>Handshake&#45;&gt;FIRRTL</title>
<path fill="none" stroke="black" d="M261.6,-582.7C251.37,-573.97 238.81,-563.24 227.69,-553.75"/>
<polygon fill="black" stroke="black" points="229.78,-550.94 219.9,-547.1 225.24,-556.26 229.78,-550.94"/>
</g>
<!-- Calyx&#45;&gt;FSM -->
<g id="edge9" class="edge">
<title>Calyx&#45;&gt;FSM</title>
<path fill="none" stroke="black" d="M220.08,-586.15C222.37,-585.07 224.65,-584.01 226.87,-583 261.07,-567.37 272.36,-564.47 308.61,-547.94"/>
<polygon fill="black" stroke="black" points="310.22,-551.06 317.84,-543.69 307.29,-544.7 310.22,-551.06"/>
</g>
<!-- Calyx_native -->
<g id="node31" class="node">
<title>Calyx_native</title>
<polygon fill="#ffff99" stroke="black" points="147.6,-521.54 147.6,-536.46 104.41,-547 43.33,-547 0.13,-536.46 0.13,-521.54 43.33,-511 104.41,-511 147.6,-521.54"/>
<text text-anchor="middle" x="73.87" y="-525.3" font-family="Times,serif" font-size="14.00">Calyx native</text>
</g>
<!-- Calyx&#45;&gt;Calyx_native -->
<g id="edge34" class="edge">
<title>Calyx&#45;&gt;Calyx_native</title>
<path fill="none" stroke="black" d="M163.6,-583.23C148.07,-574.02 128.59,-562.47 111.76,-552.48"/>
<polygon fill="black" stroke="black" points="113.11,-549.21 102.72,-547.12 109.53,-555.23 113.11,-549.21"/>
</g>
<!-- lower_to_sv_and_core -->
<g id="node19" class="node">
<title>lower_to_sv_and_core</title>
<ellipse fill="black" stroke="black" cx="323.87" cy="-457" rx="1.8" ry="1.8"/>
</g>
<!-- FIRRTL&#45;&gt;lower_to_sv_and_core -->
<g id="edge12" class="edge">
<title>FIRRTL&#45;&gt;lower_to_sv_and_core</title>
<path fill="none" stroke="black" d="M230.2,-510.88C264.04,-491.77 315.09,-462.95 322.86,-458.57"/>
</g>
<!-- space_above_RTL -->
<!-- FIRRTL&#45;&gt;space_above_RTL -->
<!-- Pipeline&#45;&gt;Calyx -->
<g id="edge5" class="edge">
<title>Pipeline&#45;&gt;Calyx</title>
<path fill="none" stroke="black" d="M258.87,-654.7C247.66,-645.88 233.86,-635.03 221.71,-625.47"/>
<polygon fill="black" stroke="black" points="223.64,-622.54 213.61,-619.1 219.31,-628.04 223.64,-622.54"/>
</g>
<!-- MSFT&#45;&gt;lower_to_sv_and_core -->
<g id="edge13" class="edge">
<title>MSFT&#45;&gt;lower_to_sv_and_core</title>
<path fill="none" stroke="black" d="M393.13,-510.7C368.44,-491.91 331.61,-463.9 324.93,-458.81"/>
</g>
<!-- MSFT&#45;&gt;space_above_RTL -->
<!-- TCL -->
<g id="node41" class="node">
<title>TCL</title>
<polygon fill="#7fc97f" stroke="black" points="575.87,-111 449.87,-111 449.87,-75 581.87,-75 581.87,-105 575.87,-111"/>
<polyline fill="none" stroke="black" points="575.87,-111 575.87,-105 "/>
<polyline fill="none" stroke="black" points="581.87,-105 575.87,-105 "/>
<text text-anchor="middle" x="515.87" y="-89.3" font-family="Times,serif" font-size="14.00">Placements (tcl)</text>
</g>
<!-- MSFT&#45;&gt;TCL -->
<g id="edge39" class="edge">
<title>MSFT&#45;&gt;TCL</title>
<path fill="none" stroke="black" d="M445.65,-511.17C503.81,-477.83 626.87,-404.72 626.87,-383 626.87,-383 626.87,-383 626.87,-237 626.87,-196.89 634.93,-180.82 611.87,-148 602.3,-134.4 588.16,-123.8 573.66,-115.75"/>
<polygon fill="black" stroke="black" points="575.1,-112.55 564.61,-111.05 571.88,-118.77 575.1,-112.55"/>
</g>
<!-- ESI&#45;&gt;lower_to_sv_and_core -->
<g id="edge14" class="edge">
<title>ESI&#45;&gt;lower_to_sv_and_core</title>
<path fill="none" stroke="black" d="M288.48,-510.7C301.1,-491.91 319.91,-463.9 323.32,-458.81"/>
</g>
<!-- ESI&#45;&gt;space_above_RTL -->
<!-- ServiceDesc -->
<g id="node39" class="node">
<title>ServiceDesc</title>
<polygon fill="#7fc97f" stroke="black" points="429.87,-112 253.87,-112 253.87,-74 435.87,-74 435.87,-106 429.87,-112"/>
<polyline fill="none" stroke="black" points="429.87,-112 429.87,-106 "/>
<polyline fill="none" stroke="black" points="435.87,-106 429.87,-106 "/>
<text text-anchor="middle" x="344.87" y="-96.8" font-family="Times,serif" font-size="14.00">ESI system description</text>
<text text-anchor="middle" x="344.87" y="-81.8" font-family="Times,serif" font-size="14.00">(JSON/Capnp)</text>
</g>
<!-- ESI&#45;&gt;ServiceDesc -->
<g id="edge38" class="edge">
<title>ESI&#45;&gt;ServiceDesc</title>
<path fill="none" stroke="black" d="M263.19,-510.85C243.86,-484.82 210.87,-433.06 210.87,-383 210.87,-383 210.87,-383 210.87,-237 210.87,-196.89 201.4,-179.79 225.87,-148 236.33,-134.4 251.01,-124.12 266.49,-116.39"/>
<polygon fill="black" stroke="black" points="268.07,-119.51 275.67,-112.12 265.12,-113.16 268.07,-119.51"/>
</g>
<!-- FSM&#45;&gt;lower_to_sv_and_core -->
<g id="edge15" class="edge">
<title>FSM&#45;&gt;lower_to_sv_and_core</title>
<path fill="none" stroke="black" d="M339.68,-510.7C334.04,-491.91 325.64,-463.9 324.11,-458.81"/>
</g>
<!-- FSM&#45;&gt;space_above_RTL -->
<!-- HWArith&#45;&gt;space_above_RTL -->
<!-- HW -->
<g id="node22" class="node">
<title>HW</title>
<g id="a_node22"><a xlink:href="https://circt.llvm.org/docs/Dialects/HW/" xlink:title="HW">
<polygon fill="white" stroke="black" points="512.87,-400 458.87,-400 458.87,-364 512.87,-364 512.87,-400"/>
<text text-anchor="middle" x="485.87" y="-378.3" font-family="Times,serif" font-size="14.00">HW</text>
</a>
</g>
</g>
<!-- HWArith&#45;&gt;HW -->
<g id="edge10" class="edge">
<title>HWArith&#45;&gt;HW</title>
<path fill="none" stroke="black" d="M497.32,-510.8C495.78,-493.61 493.33,-466.21 491.08,-441.18"/>
<polygon fill="black" stroke="black" points="494.55,-440.65 490.17,-431 487.58,-441.27 494.55,-440.65"/>
</g>
<!-- MooreMIR -->
<g id="node18" class="node">
<title>MooreMIR</title>
<g id="a_node18"><a xlink:href="https://circt.llvm.org/docs/Dialects/Moore/" xlink:title="Moore MIR">
<polygon fill="white" stroke="black" points="649.37,-547 552.37,-547 552.37,-511 649.37,-511 649.37,-547"/>
<text text-anchor="middle" x="600.87" y="-525.3" font-family="Times,serif" font-size="14.00">Moore MIR</text>
</a>
</g>
</g>
<!-- MooreMIR&#45;&gt;space_above_RTL -->
<!-- MooreMIR&#45;&gt;HW -->
<g id="edge11" class="edge">
<title>MooreMIR&#45;&gt;HW</title>
<path fill="none" stroke="black" d="M584.61,-510.75C568.74,-493.59 544,-466.04 523.19,-439.27"/>
<polygon fill="black" stroke="black" points="525.72,-436.82 516.87,-431 520.16,-441.07 525.72,-436.82"/>
</g>
<!-- LLHD -->
<g id="node24" class="node">
<title>LLHD</title>
<g id="a_node24"><a xlink:href="https://circt.llvm.org/docs/Dialects/LLHD/" xlink:title="LLHD">
<polygon fill="white" stroke="black" points="580.87,-328 522.87,-328 522.87,-292 580.87,-292 580.87,-328"/>
<text text-anchor="middle" x="551.87" y="-306.3" font-family="Times,serif" font-size="14.00">LLHD</text>
</a>
</g>
</g>
<!-- MooreMIR&#45;&gt;LLHD -->
<g id="edge19" class="edge">
<title>MooreMIR&#45;&gt;LLHD</title>
<path fill="none" stroke="black" d="M597.02,-510.97C588.56,-473.51 568.28,-383.68 558.02,-338.26"/>
<polygon fill="black" stroke="black" points="561.38,-337.23 555.76,-328.25 554.55,-338.77 561.38,-337.23"/>
</g>
<!-- Seq -->
<g id="node21" class="node">
<title>Seq</title>
<g id="a_node21"><a xlink:href="https://circt.llvm.org/docs/Dialects/Seq/" xlink:title="Seq">
<polygon fill="white" stroke="black" points="372.87,-400 318.87,-400 318.87,-364 372.87,-364 372.87,-400"/>
<text text-anchor="middle" x="345.87" y="-378.3" font-family="Times,serif" font-size="14.00">Seq</text>
</a>
</g>
</g>
<!-- lower_to_sv_and_core&#45;&gt;Seq -->
<g id="edge17" class="edge">
<title>lower_to_sv_and_core&#45;&gt;Seq</title>
<path fill="none" stroke="black" d="M324.11,-455.18C324.71,-453.19 326.36,-447.74 328.48,-440.68"/>
<polygon fill="black" stroke="black" points="331.87,-441.58 331.4,-431 325.16,-439.56 331.87,-441.58"/>
</g>
<!-- SV -->
<g id="node25" class="node">
<title>SV</title>
<g id="a_node25"><a xlink:href="https://circt.llvm.org/docs/Dialects/SV/" xlink:title="SV">
<polygon fill="white" stroke="black" points="328.87,-328 274.87,-328 274.87,-292 328.87,-292 328.87,-328"/>
<text text-anchor="middle" x="301.87" y="-306.3" font-family="Times,serif" font-size="14.00">SV</text>
</a>
</g>
</g>
<!-- lower_to_sv_and_core&#45;&gt;SV -->
<g id="edge16" class="edge">
<title>lower_to_sv_and_core&#45;&gt;SV</title>
<path fill="none" stroke="black" d="M323.07,-455.14C320.32,-452.11 311.26,-441.6 307.87,-431 298.07,-400.37 297.89,-363.1 299.31,-338.31"/>
<polygon fill="black" stroke="black" points="302.81,-338.4 300.01,-328.18 295.83,-337.92 302.81,-338.4"/>
</g>
<!-- space_above_RTL&#45;&gt;Seq -->
<!-- space_above_RTL&#45;&gt;HW -->
<!-- Comb -->
<g id="node23" class="node">
<title>Comb</title>
<g id="a_node23"><a xlink:href="https://circt.llvm.org/docs/Dialects/Comb/" xlink:title="Comb">
<polygon fill="white" stroke="black" points="444.87,-400 386.87,-400 386.87,-364 444.87,-364 444.87,-400"/>
<text text-anchor="middle" x="415.87" y="-378.3" font-family="Times,serif" font-size="14.00">Comb</text>
</a>
</g>
</g>
<!-- space_above_RTL&#45;&gt;Comb -->
<!-- Seq&#45;&gt;SV -->
<g id="edge18" class="edge">
<title>Seq&#45;&gt;SV</title>
<path fill="none" stroke="black" d="M334.99,-363.7C329.88,-355.56 323.67,-345.69 318.02,-336.7"/>
<polygon fill="black" stroke="black" points="320.9,-334.71 312.62,-328.1 314.98,-338.43 320.9,-334.71"/>
</g>
<!-- ExportVerilog -->
<g id="node29" class="node">
<title>ExportVerilog</title>
<g id="a_node29"><a xlink:href="https://circt.llvm.org/docs/VerilogGeneration/" xlink:title="ExportVerilog">
<polygon fill="#fdc086" stroke="black" points="351.87,-256 235.87,-256 235.87,-220 351.87,-220 351.87,-256"/>
<text text-anchor="middle" x="293.87" y="-234.3" font-family="Times,serif" font-size="14.00">ExportVerilog</text>
</a>
</g>
</g>
<!-- Seq&#45;&gt;ExportVerilog -->
<g id="edge30" class="edge">
<title>Seq&#45;&gt;ExportVerilog</title>
<path fill="none" stroke="black" d="M346.69,-356C346.44,-337.64 344.29,-312.44 335.87,-292 331.66,-281.8 324.89,-271.95 317.99,-263.56"/>
<polygon fill="black" stroke="black" points="320.63,-261.26 311.43,-256.01 315.34,-265.85 320.63,-261.26"/>
</g>
<!-- HW&#45;&gt;LLHD -->
<g id="edge20" class="edge">
<title>HW&#45;&gt;LLHD</title>
<path fill="none" stroke="black" d="M502.18,-363.7C510.17,-355.22 519.94,-344.86 528.69,-335.58"/>
<polygon fill="black" stroke="black" points="531.43,-337.78 535.74,-328.1 526.33,-332.98 531.43,-337.78"/>
</g>
<!-- llhd_sim -->
<g id="node27" class="node">
<title>llhd_sim</title>
<polygon fill="#fdc086" stroke="black" points="588.87,-256 514.87,-256 514.87,-220 588.87,-220 588.87,-256"/>
<text text-anchor="middle" x="551.87" y="-234.3" font-family="Times,serif" font-size="14.00">llhd&#45;sim</text>
</g>
<!-- HW&#45;&gt;llhd_sim -->
<g id="edge31" class="edge">
<title>HW&#45;&gt;llhd_sim</title>
<path fill="none" stroke="black" d="M492.32,-356C497.5,-337.76 505.59,-312.7 515.87,-292 520.49,-282.68 526.54,-273.1 532.36,-264.69"/>
<polygon fill="black" stroke="black" points="535.31,-266.58 538.27,-256.41 529.61,-262.52 535.31,-266.58"/>
</g>
<!-- SystemC -->
<g id="node26" class="node">
<title>SystemC</title>
<g id="a_node26"><a xlink:href="https://circt.llvm.org/docs/Dialects/SystemC/" xlink:title="SystemC">
<polygon fill="white" stroke="black" points="462.87,-328 382.87,-328 382.87,-292 462.87,-292 462.87,-328"/>
<text text-anchor="middle" x="422.87" y="-306.3" font-family="Times,serif" font-size="14.00">SystemC</text>
</a>
</g>
</g>
<!-- Comb&#45;&gt;SystemC -->
<g id="edge21" class="edge">
<title>Comb&#45;&gt;SystemC</title>
<path fill="none" stroke="black" d="M418.37,-356C418.95,-350.2 419.57,-344 420.16,-338.11"/>
<polygon fill="black" stroke="black" points="423.64,-338.4 421.16,-328.1 416.68,-337.71 423.64,-338.4"/>
</g>
<!-- LLHD&#45;&gt;llhd_sim -->
<g id="edge36" class="edge">
<title>LLHD&#45;&gt;llhd_sim</title>
<path fill="none" stroke="black" d="M551.87,-291.7C551.87,-283.98 551.87,-274.71 551.87,-266.11"/>
<polygon fill="black" stroke="black" points="555.37,-266.1 551.87,-256.1 548.37,-266.1 555.37,-266.1"/>
</g>
<!-- SV&#45;&gt;ExportVerilog -->
<g id="edge29" class="edge">
<title>SV&#45;&gt;ExportVerilog</title>
<path fill="none" stroke="black" d="M299.89,-291.7C299.01,-283.98 297.95,-274.71 296.97,-266.11"/>
<polygon fill="black" stroke="black" points="300.43,-265.64 295.82,-256.1 293.48,-266.44 300.43,-265.64"/>
</g>
<!-- ExportSystemC -->
<g id="node28" class="node">
<title>ExportSystemC</title>
<polygon fill="#fdc086" stroke="black" points="495.37,-256 366.37,-256 366.37,-220 495.37,-220 495.37,-256"/>
<text text-anchor="middle" x="430.87" y="-234.3" font-family="Times,serif" font-size="14.00">ExportSystemC</text>
</g>
<!-- SystemC&#45;&gt;ExportSystemC -->
<g id="edge27" class="edge">
<title>SystemC&#45;&gt;ExportSystemC</title>
<path fill="none" stroke="black" d="M424.84,-291.7C425.73,-283.98 426.79,-274.71 427.77,-266.11"/>
<polygon fill="black" stroke="black" points="431.25,-266.44 428.91,-256.1 424.3,-265.64 431.25,-266.44"/>
</g>
<!-- VCDTrace -->
<g id="node36" class="node">
<title>VCDTrace</title>
<polygon fill="#7fc97f" stroke="black" points="598.87,-184 508.87,-184 508.87,-148 604.87,-148 604.87,-178 598.87,-184"/>
<polyline fill="none" stroke="black" points="598.87,-184 598.87,-178 "/>
<polyline fill="none" stroke="black" points="604.87,-178 598.87,-178 "/>
<text text-anchor="middle" x="556.87" y="-162.3" font-family="Times,serif" font-size="14.00">Trace (vcd)</text>
</g>
<!-- llhd_sim&#45;&gt;VCDTrace -->
<g id="edge37" class="edge">
<title>llhd_sim&#45;&gt;VCDTrace</title>
<path fill="none" stroke="black" d="M553.1,-219.7C553.65,-211.98 554.32,-202.71 554.93,-194.11"/>
<polygon fill="black" stroke="black" points="558.42,-194.33 555.64,-184.1 551.44,-193.83 558.42,-194.33"/>
</g>
<!-- SystemCFile -->
<g id="node37" class="node">
<title>SystemCFile</title>
<polygon fill="#7fc97f" stroke="black" points="488.37,-184 367.37,-184 367.37,-148 494.37,-148 494.37,-178 488.37,-184"/>
<polyline fill="none" stroke="black" points="488.37,-184 488.37,-178 "/>
<polyline fill="none" stroke="black" points="494.37,-178 488.37,-178 "/>
<text text-anchor="middle" x="430.87" y="-162.3" font-family="Times,serif" font-size="14.00">SystemC (c++)</text>
</g>
<!-- ExportSystemC&#45;&gt;SystemCFile -->
<g id="edge28" class="edge">
<title>ExportSystemC&#45;&gt;SystemCFile</title>
<path fill="none" stroke="black" d="M430.87,-219.7C430.87,-211.98 430.87,-202.71 430.87,-194.11"/>
<polygon fill="black" stroke="black" points="434.37,-194.1 430.87,-184.1 427.37,-194.1 434.37,-194.1"/>
</g>
<!-- SVFile -->
<g id="node38" class="node">
<title>SVFile</title>
<polygon fill="#7fc97f" stroke="black" points="346.87,-184 232.87,-184 232.87,-148 352.87,-148 352.87,-178 346.87,-184"/>
<polyline fill="none" stroke="black" points="346.87,-184 346.87,-178 "/>
<polyline fill="none" stroke="black" points="352.87,-178 346.87,-178 "/>
<text text-anchor="middle" x="292.87" y="-162.3" font-family="Times,serif" font-size="14.00">SystemVerilog</text>
</g>
<!-- ExportVerilog&#45;&gt;SVFile -->
<g id="edge22" class="edge">
<title>ExportVerilog&#45;&gt;SVFile</title>
<path fill="none" stroke="black" d="M293.62,-219.7C293.51,-211.98 293.38,-202.71 293.25,-194.11"/>
<polygon fill="black" stroke="black" points="296.75,-194.05 293.11,-184.1 289.75,-194.15 296.75,-194.05"/>
</g>
<!-- Moore -->
<g id="node30" class="node">
<title>Moore</title>
<polygon fill="#ffff99" stroke="black" points="644.6,-828.54 644.6,-843.46 618.98,-854 582.75,-854 557.13,-843.46 557.13,-828.54 582.75,-818 618.98,-818 644.6,-828.54"/>
<text text-anchor="middle" x="600.87" y="-832.3" font-family="Times,serif" font-size="14.00">Moore</text>
</g>
<!-- Moore&#45;&gt;MooreMIR -->
<g id="edge33" class="edge">
<title>Moore&#45;&gt;MooreMIR</title>
<path fill="none" stroke="black" d="M600.87,-817.73C600.87,-767.09 600.87,-618.68 600.87,-557.18"/>
<polygon fill="black" stroke="black" points="604.37,-557.08 600.87,-547.08 597.37,-557.08 604.37,-557.08"/>
</g>
<!-- Calyx_native&#45;&gt;Seq -->
<g id="edge35" class="edge">
<title>Calyx_native&#45;&gt;Seq</title>
<path fill="none" stroke="black" d="M84.57,-510.97C98.08,-490.85 123.18,-457.76 152.87,-439 201.57,-408.22 267.74,-393.85 308.58,-387.52"/>
<polygon fill="black" stroke="black" points="301.79,-392.51 310.87,-387.05 300.36,-385.66 301.79,-392.51"/>
</g>
<!-- FIRFile -->
<g id="node32" class="node">
<title>FIRFile</title>
<polygon fill="#7fc97f" stroke="black" points="371.87,-854 323.87,-854 323.87,-818 377.87,-818 377.87,-848 371.87,-854"/>
<polyline fill="none" stroke="black" points="371.87,-854 371.87,-848 "/>
<polyline fill="none" stroke="black" points="377.87,-848 371.87,-848 "/>
<text text-anchor="middle" x="350.87" y="-832.3" font-family="Times,serif" font-size="14.00">.fir</text>
</g>
<!-- FIRFile&#45;&gt;FIRRTLParser -->
<g id="edge25" class="edge">
<title>FIRFile&#45;&gt;FIRRTLParser</title>
<path fill="none" stroke="black" d="M378.01,-821.43C388.56,-814.69 399.6,-805.5 405.87,-794 434.51,-741.44 429.43,-668.41 423.8,-629.31"/>
<polygon fill="black" stroke="black" points="427.22,-628.56 422.22,-619.22 420.31,-629.64 427.22,-628.56"/>
</g>
<!-- FIRFile&#45;&gt;Scheduling -->
<!-- Chisel -->
<g id="node33" class="node">
<title>Chisel</title>
<polygon fill="#ffff99" stroke="black" points="419.69,-919.54 419.69,-934.46 394.61,-945 359.13,-945 334.04,-934.46 334.04,-919.54 359.13,-909 394.61,-909 419.69,-919.54"/>
<text text-anchor="middle" x="376.87" y="-923.3" font-family="Times,serif" font-size="14.00">Chisel</text>
</g>
<!-- Chisel&#45;&gt;CF -->
<!-- Chisel&#45;&gt;FIRFile -->
<g id="edge24" class="edge">
<title>Chisel&#45;&gt;FIRFile</title>
<path fill="none" stroke="black" d="M371.85,-908.84C368.15,-896.16 363.03,-878.64 358.78,-864.08"/>
<polygon fill="black" stroke="black" points="362.03,-862.72 355.86,-854.11 355.31,-864.69 362.03,-862.72"/>
</g>
<!-- SVVHDL -->
<g id="node34" class="node">
<title>SVVHDL</title>
<polygon fill="#ffff99" stroke="black" points="659.15,-919.54 659.15,-934.46 625.01,-945 576.73,-945 542.59,-934.46 542.59,-919.54 576.73,-909 625.01,-909 659.15,-919.54"/>
<text text-anchor="middle" x="600.87" y="-923.3" font-family="Times,serif" font-size="14.00">SV/VHDL</text>
</g>
<!-- SVVHDL&#45;&gt;Moore -->
<g id="edge32" class="edge">
<title>SVVHDL&#45;&gt;Moore</title>
<path fill="none" stroke="black" d="M600.87,-908.84C600.87,-896.28 600.87,-878.98 600.87,-864.5"/>
<polygon fill="black" stroke="black" points="604.37,-864.11 600.87,-854.11 597.37,-864.11 604.37,-864.11"/>
</g>
<!-- PyFile -->
<g id="node35" class="node">
<title>PyFile</title>
<polygon fill="#ffff99" stroke="black" points="528.14,-919.54 528.14,-934.46 500.45,-945 461.29,-945 433.6,-934.46 433.6,-919.54 461.29,-909 500.45,-909 528.14,-919.54"/>
<text text-anchor="middle" x="480.87" y="-923.3" font-family="Times,serif" font-size="14.00">Python</text>
</g>
<!-- PyFile&#45;&gt;PyCDE -->
<g id="edge40" class="edge">
<title>PyFile&#45;&gt;PyCDE</title>
<path fill="none" stroke="black" d="M483.23,-908.58C490.47,-855.28 512.36,-694.07 521.15,-629.34"/>
<polygon fill="black" stroke="black" points="524.67,-629.49 522.54,-619.11 517.73,-628.55 524.67,-629.49"/>
</g>
<!-- SystemCFile&#45;&gt;ServiceDesc -->
<!-- SystemCFile&#45;&gt;TCL -->
<!-- SoftwareAPI -->
<g id="node40" class="node">
<title>SoftwareAPI</title>
<polygon fill="none" stroke="black" stroke-dasharray="5,2" points="406.37,-38 277.37,-38 277.37,0 412.37,0 412.37,-32 406.37,-38"/>
<polyline fill="none" stroke="black" stroke-dasharray="5,2" points="406.37,-38 406.37,-32 "/>
<polyline fill="none" stroke="black" stroke-dasharray="5,2" points="412.37,-32 406.37,-32 "/>
<text text-anchor="middle" x="344.87" y="-22.8" font-family="Times,serif" font-size="14.00">Software API</text>
<text text-anchor="middle" x="344.87" y="-7.8" font-family="Times,serif" font-size="14.00">(e.g. py/c++/c#)</text>
</g>
<!-- ServiceDesc&#45;&gt;SoftwareAPI -->
<g id="edge46" class="edge">
<title>ServiceDesc&#45;&gt;SoftwareAPI</title>
<path fill="none" stroke="black" stroke-dasharray="5,2" d="M344.87,-73.83C344.87,-66.13 344.87,-56.97 344.87,-48.42"/>
<polygon fill="black" stroke="black" points="348.37,-48.41 344.87,-38.41 341.37,-48.41 348.37,-48.41"/>
</g>
</g>
</svg>
