<?xml version="1.0" encoding="UTF-8" standalone="no"?>
<!DOCTYPE svg PUBLIC "-//W3C//DTD SVG 1.1//EN"
 "http://www.w3.org/Graphics/SVG/1.1/DTD/svg11.dtd">
<!-- Generated by graphviz version 2.43.0 (0)
 -->
<!-- Title: G Pages: 1 -->
<svg width="779pt" height="992pt"
 viewBox="0.00 0.00 778.87 992.00" xmlns="http://www.w3.org/2000/svg" xmlns:xlink="http://www.w3.org/1999/xlink">
<g id="graph0" class="graph" transform="scale(1 1) rotate(0) translate(4 988)">
<title>G</title>
<polygon fill="white" stroke="transparent" points="-4,4 -4,-988 774.87,-988 774.87,4 -4,4"/>
<g id="clust1" class="cluster">
<title>cluster_mlir_frontends</title>
<polygon fill="none" stroke="black" points="173.87,-901 173.87,-976 413.87,-976 413.87,-901 173.87,-901"/>
<text text-anchor="middle" x="293.87" y="-960.8" font-family="Times,serif" font-size="14.00">Upstream frontends (selection)</text>
</g>
<g id="clust2" class="cluster">
<title>cluster_mlir</title>
<polygon fill="none" stroke="black" points="123.87,-802 123.87,-893 411.87,-893 411.87,-802 123.87,-802"/>
<text text-anchor="middle" x="267.87" y="-877.8" font-family="Times,serif" font-size="14.00">Upstream MLIR</text>
</g>
<g id="clust3" class="cluster">
<title>cluster_std_arith_dialect</title>
<polygon fill="none" stroke="black" points="265.87,-810 265.87,-862 403.87,-862 403.87,-810 265.87,-810"/>
</g>
<g id="clust4" class="cluster">
<title>cluster_circt</title>
<polygon fill="none" stroke="black" points="155.87,-212 155.87,-794 655.87,-794 655.87,-212 155.87,-212"/>
<text text-anchor="middle" x="405.87" y="-778.8" font-family="Times,serif" font-size="14.00">CIRCT</text>
</g>
<g id="clust6" class="cluster">
<title>cluster_RTL</title>
<polygon fill="none" stroke="black" points="281.87,-356 281.87,-431 491.87,-431 491.87,-356 281.87,-356"/>
<text text-anchor="middle" x="386.87" y="-415.8" font-family="Times,serif" font-size="14.00">Core dialects</text>
</g>
<g id="clust9" class="cluster">
<title>cluster_input_langs</title>
<polygon fill="none" stroke="black" points="421.87,-901 421.87,-976 762.87,-976 762.87,-901 421.87,-901"/>
<text text-anchor="middle" x="592.37" y="-960.8" font-family="Times,serif" font-size="14.00">Input languages</text>
</g>
<!-- PyTorch -->
<g id="node1" class="node">
<title>PyTorch</title>
<polygon fill="white" stroke="black" points="405.87,-945 331.87,-945 331.87,-909 405.87,-909 405.87,-945"/>
<text text-anchor="middle" x="368.87" y="-923.3" font-family="Times,serif" font-size="14.00">PyTorch</text>
</g>
<!-- CF -->
<g id="node5" class="node">
<title>CF</title>
<polygon fill="#beaed4" stroke="black" points="395.87,-854 341.87,-854 341.87,-818 395.87,-818 395.87,-854"/>
<text text-anchor="middle" x="368.87" y="-832.3" font-family="Times,serif" font-size="14.00">CF</text>
</g>
<!-- PyTorch&#45;&gt;CF -->
<g id="edge1" class="edge">
<title>PyTorch&#45;&gt;CF</title>
<path fill="none" stroke="black" d="M364.62,-908.84C364.47,-907.06 364.34,-905.19 364.22,-903.24"/>
<polygon fill="black" stroke="black" points="367.7,-902.84 363.78,-893 360.71,-903.14 367.7,-902.84"/>
</g>
<!-- PyTorch&#45;&gt;CF -->
<!-- Polygeist -->
<g id="node2" class="node">
<title>Polygeist</title>
<polygon fill="white" stroke="black" points="317.87,-945 235.87,-945 235.87,-909 317.87,-909 317.87,-945"/>
<text text-anchor="middle" x="276.87" y="-923.3" font-family="Times,serif" font-size="14.00">Polygeist</text>
</g>
<!-- Affine -->
<g id="node4" class="node">
<title>Affine</title>
<polygon fill="#beaed4" stroke="black" points="257.87,-854 199.87,-854 199.87,-818 257.87,-818 257.87,-854"/>
<text text-anchor="middle" x="228.87" y="-832.3" font-family="Times,serif" font-size="14.00">Affine</text>
</g>
<!-- Polygeist&#45;&gt;Affine -->
<g id="edge2" class="edge">
<title>Polygeist&#45;&gt;Affine</title>
<path fill="none" stroke="black" d="M267.61,-908.84C266.49,-906.77 265.3,-904.56 264.07,-902.26"/>
<polygon fill="black" stroke="black" points="266.89,-900.14 259.07,-893 260.73,-903.46 266.89,-900.14"/>
</g>
<!-- Polygeist&#45;&gt;CF -->
<!-- SCF -->
<g id="node3" class="node">
<title>SCF</title>
<polygon fill="#beaed4" stroke="black" points="185.87,-854 131.87,-854 131.87,-818 185.87,-818 185.87,-854"/>
<text text-anchor="middle" x="158.87" y="-832.3" font-family="Times,serif" font-size="14.00">SCF</text>
</g>
<!-- Calyx -->
<g id="node11" class="node">
<title>Calyx</title>
<g id="a_node11"><a xlink:href="https://circt.llvm.org/docs/Dialects/Calyx/" xlink:title="Calyx">
<polygon fill="white" stroke="black" points="219.87,-619 163.87,-619 163.87,-583 219.87,-583 219.87,-619"/>
<text text-anchor="middle" x="191.87" y="-597.3" font-family="Times,serif" font-size="14.00">Calyx</text>
</a>
</g>
</g>
<!-- SCF&#45;&gt;Calyx -->
<g id="edge3" class="edge">
<title>SCF&#45;&gt;Calyx</title>
<path fill="none" stroke="black" d="M161.29,-817.87C166.97,-777.81 181.14,-677.75 188.01,-629.23"/>
<polygon fill="black" stroke="black" points="191.5,-629.55 189.44,-619.16 184.57,-628.57 191.5,-629.55"/>
</g>
<!-- Pipeline -->
<g id="node13" class="node">
<title>Pipeline</title>
<g id="a_node13"><a xlink:href="https://circt.llvm.org/docs/Dialects/Pipeline/" xlink:title="Pipeline">
<polygon fill="white" stroke="black" points="377.87,-691 303.87,-691 303.87,-655 377.87,-655 377.87,-691"/>
<text text-anchor="middle" x="340.87" y="-669.3" font-family="Times,serif" font-size="14.00">Pipeline</text>
</a>
</g>
</g>
<!-- Affine&#45;&gt;Pipeline -->
<g id="edge4" class="edge">
<title>Affine&#45;&gt;Pipeline</title>
<path fill="none" stroke="black" d="M240.85,-817.77C260.64,-789.32 300.24,-732.4 323.23,-699.36"/>
<polygon fill="black" stroke="black" points="326.13,-701.31 328.97,-691.11 320.38,-697.32 326.13,-701.31"/>
</g>
<!-- Arith -->
<g id="node6" class="node">
<title>Arith</title>
<polygon fill="#beaed4" stroke="black" points="327.87,-854 273.87,-854 273.87,-818 327.87,-818 327.87,-854"/>
<text text-anchor="middle" x="300.87" y="-832.3" font-family="Times,serif" font-size="14.00">Arith</text>
</g>
<!-- Handshake -->
<g id="node10" class="node">
<title>Handshake</title>
<g id="a_node10"><a xlink:href="https://circt.llvm.org/docs/Dialects/Handshake/" xlink:title="Handshake">
<polygon fill="white" stroke="black" points="329.87,-619 233.87,-619 233.87,-583 329.87,-583 329.87,-619"/>
<text text-anchor="middle" x="281.87" y="-597.3" font-family="Times,serif" font-size="14.00">Handshake</text>
</a>
</g>
</g>
<!-- Arith&#45;&gt;Handshake -->
<g id="edge6" class="edge">
<title>Arith&#45;&gt;Handshake</title>
<path fill="none" stroke="black" d="M298.83,-810C295.24,-765.95 287.81,-674.83 284.09,-629.23"/>
<polygon fill="black" stroke="black" points="287.57,-628.84 283.27,-619.16 280.59,-629.41 287.57,-628.84"/>
</g>
<!-- Arith&#45;&gt;Calyx -->
<g id="edge7" class="edge">
<title>Arith&#45;&gt;Calyx</title>
<path fill="none" stroke="black" d="M289.17,-810C268.42,-765.65 225.36,-673.61 204.18,-628.32"/>
<polygon fill="black" stroke="black" points="207.3,-626.73 199.89,-619.16 200.96,-629.7 207.3,-626.73"/>
</g>
<!-- FIRRTLParser -->
<g id="node7" class="node">
<title>FIRRTLParser</title>
<polygon fill="#fdc086" stroke="black" points="461.37,-619 344.37,-619 344.37,-583 461.37,-583 461.37,-619"/>
<text text-anchor="middle" x="402.87" y="-597.3" font-family="Times,serif" font-size="14.00">FIRRTLParser</text>
</g>
<!-- FIRRTL -->
<g id="node12" class="node">
<title>FIRRTL</title>
<g id="a_node12"><a xlink:href="https://circt.llvm.org/docs/Dialects/FIRRTL/" xlink:title="FIRRTL">
<polygon fill="white" stroke="black" points="303.37,-547 232.37,-547 232.37,-511 303.37,-511 303.37,-547"/>
<text text-anchor="middle" x="267.87" y="-525.3" font-family="Times,serif" font-size="14.00">FIRRTL</text>
</a>
</g>
</g>
<!-- FIRRTLParser&#45;&gt;FIRRTL -->
<g id="edge24" class="edge">
<title>FIRRTLParser&#45;&gt;FIRRTL</title>
<path fill="none" stroke="black" d="M369.84,-582.88C351.78,-573.51 329.22,-561.81 309.92,-551.8"/>
<polygon fill="black" stroke="black" points="311.51,-548.69 301.02,-547.19 308.28,-554.9 311.51,-548.69"/>
</g>
<!-- PyCDE -->
<g id="node8" class="node">
<title>PyCDE</title>
<g id="a_node8"><a xlink:href="https://circt.llvm.org/docs/PyCDE/" xlink:title="PyCDE">
<polygon fill="#fdc086" stroke="black" points="542.37,-619 475.37,-619 475.37,-583 542.37,-583 542.37,-619"/>
<text text-anchor="middle" x="508.87" y="-597.3" font-family="Times,serif" font-size="14.00">PyCDE</text>
</a>
</g>
</g>
<!-- MSFT -->
<g id="node14" class="node">
<title>MSFT</title>
<g id="a_node14"><a xlink:href="https://circt.llvm.org/docs/Dialects/MSFT/" xlink:title="MSFT">
<polygon fill="white" stroke="black" points="537.37,-547 478.37,-547 478.37,-511 537.37,-511 537.37,-547"/>
<text text-anchor="middle" x="507.87" y="-525.3" font-family="Times,serif" font-size="14.00">MSFT</text>
</a>
</g>
</g>
<!-- PyCDE&#45;&gt;MSFT -->
<g id="edge40" class="edge">
<title>PyCDE&#45;&gt;MSFT</title>
<path fill="none" stroke="black" d="M508.62,-582.7C508.51,-574.98 508.38,-565.71 508.25,-557.11"/>
<polygon fill="black" stroke="black" points="511.75,-557.05 508.11,-547.1 504.75,-557.15 511.75,-557.05"/>
</g>
<!-- ESI -->
<g id="node15" class="node">
<title>ESI</title>
<g id="a_node15"><a xlink:href="https://circt.llvm.org/docs/Dialects/ESI/" xlink:title="ESI">
<polygon fill="white" stroke="black" points="371.87,-547 317.87,-547 317.87,-511 371.87,-511 371.87,-547"/>
<text text-anchor="middle" x="344.87" y="-525.3" font-family="Times,serif" font-size="14.00">ESI</text>
</a>
</g>
</g>
<!-- PyCDE&#45;&gt;ESI -->
<g id="edge39" class="edge">
<title>PyCDE&#45;&gt;ESI</title>
<path fill="none" stroke="black" d="M475.28,-585.66C473.11,-584.76 470.96,-583.86 468.87,-583 431.84,-567.73 419.84,-564.99 381.43,-548.03"/>
<polygon fill="black" stroke="black" points="382.8,-544.81 372.24,-543.93 379.94,-551.2 382.8,-544.81"/>
</g>
<!-- FSM -->
<g id="node16" class="node">
<title>FSM</title>
<g id="a_node16"><a xlink:href="https://circt.llvm.org/docs/Dialects/FSM/" xlink:title="FSM">
<polygon fill="white" stroke="black" points="217.87,-547 163.87,-547 163.87,-511 217.87,-511 217.87,-547"/>
<text text-anchor="middle" x="190.87" y="-525.3" font-family="Times,serif" font-size="14.00">FSM</text>
</a>
</g>
</g>
<!-- PyCDE&#45;&gt;FSM -->
<g id="edge42" class="edge">
<title>PyCDE&#45;&gt;FSM</title>
<path fill="none" stroke="black" d="M475.04,-584.93C472.97,-584.22 470.9,-583.57 468.87,-583 366.85,-554.28 332.21,-577.76 227.71,-547.11"/>
<polygon fill="black" stroke="black" points="228.64,-543.73 218.06,-544.18 226.61,-550.43 228.64,-543.73"/>
</g>
<!-- HWArith -->
<g id="node17" class="node">
<title>HWArith</title>
<g id="a_node17"><a xlink:href="https://circt.llvm.org/docs/Dialects/HWArith/" xlink:title="HWArith">
<polygon fill="white" stroke="black" points="463.87,-547 385.87,-547 385.87,-511 463.87,-511 463.87,-547"/>
<text text-anchor="middle" x="424.87" y="-525.3" font-family="Times,serif" font-size="14.00">HWArith</text>
</a>
</g>
</g>
<!-- PyCDE&#45;&gt;HWArith -->
<g id="edge41" class="edge">
<title>PyCDE&#45;&gt;HWArith</title>
<path fill="none" stroke="black" d="M488.1,-582.7C477.63,-573.97 464.76,-563.24 453.37,-553.75"/>
<polygon fill="black" stroke="black" points="455.31,-550.82 445.39,-547.1 450.83,-556.19 455.31,-550.82"/>
</g>
<!-- Scheduling -->
<g id="node9" class="node">
<title>Scheduling</title>
<g id="a_node9"><a xlink:href="https://circt.llvm.org/docs/Scheduling/" xlink:title="Scheduling">
<polygon fill="#fdc086" stroke="black" points="522.87,-763 426.87,-763 426.87,-727 522.87,-727 522.87,-763"/>
<text text-anchor="middle" x="474.87" y="-741.3" font-family="Times,serif" font-size="14.00">Scheduling</text>
</a>
</g>
</g>
<!-- Scheduling&#45;&gt;Pipeline -->
<g id="edge21" class="edge">
<title>Scheduling&#45;&gt;Pipeline</title>
<path fill="none" stroke="black" d="M433,-722.13C417.05,-713.79 398.86,-704.3 382.89,-695.95"/>
<polygon fill="black" stroke="black" points="431.6,-725.35 442.09,-726.88 434.84,-719.14 431.6,-725.35"/>
<polygon fill="black" stroke="black" points="384.26,-692.72 373.77,-691.19 381.02,-698.92 384.26,-692.72"/>
</g>
<!-- Scheduling&#45;&gt;MSFT -->
<g id="edge43" class="edge">
<title>Scheduling&#45;&gt;MSFT</title>
<path fill="none" stroke="black" stroke-dasharray="5,2" d="M495.8,-718.62C514.12,-694.64 539.4,-656.8 549.87,-619 554.14,-603.58 555.13,-598.11 549.87,-583 546.33,-572.86 539.96,-563.19 533.23,-554.96"/>
<polygon fill="black" stroke="black" points="492.8,-716.77 489.4,-726.8 498.32,-721.08 492.8,-716.77"/>
<polygon fill="black" stroke="black" points="535.69,-552.46 526.47,-547.24 530.43,-557.07 535.69,-552.46"/>
</g>
<!-- Handshake&#45;&gt;FIRRTL -->
<g id="edge8" class="edge">
<title>Handshake&#45;&gt;FIRRTL</title>
<path fill="none" stroke="black" d="M278.41,-582.7C276.86,-574.98 275.01,-565.71 273.29,-557.11"/>
<polygon fill="black" stroke="black" points="276.68,-556.22 271.29,-547.1 269.82,-557.6 276.68,-556.22"/>
</g>
<!-- Calyx&#45;&gt;FSM -->
<g id="edge9" class="edge">
<title>Calyx&#45;&gt;FSM</title>
<path fill="none" stroke="black" d="M191.62,-582.7C191.51,-574.98 191.38,-565.71 191.25,-557.11"/>
<polygon fill="black" stroke="black" points="194.75,-557.05 191.11,-547.1 187.75,-557.15 194.75,-557.05"/>
</g>
<!-- Calyx_native -->
<g id="node30" class="node">
<title>Calyx_native</title>
<polygon fill="#ffff99" stroke="black" points="147.6,-521.54 147.6,-536.46 104.41,-547 43.33,-547 0.13,-536.46 0.13,-521.54 43.33,-511 104.41,-511 147.6,-521.54"/>
<text text-anchor="middle" x="73.87" y="-525.3" font-family="Times,serif" font-size="14.00">Calyx native</text>
</g>
<!-- Calyx&#45;&gt;Calyx_native -->
<g id="edge32" class="edge">
<title>Calyx&#45;&gt;Calyx_native</title>
<path fill="none" stroke="black" d="M163.6,-583.23C148.07,-574.02 128.59,-562.47 111.76,-552.48"/>
<polygon fill="black" stroke="black" points="113.11,-549.21 102.72,-547.12 109.53,-555.23 113.11,-549.21"/>
</g>
<!-- space_above_RTL -->
<!-- FIRRTL&#45;&gt;space_above_RTL -->
<!-- HW -->
<g id="node21" class="node">
<title>HW</title>
<g id="a_node21"><a xlink:href="https://circt.llvm.org/docs/Dialects/HW/" xlink:title="HW">
<polygon fill="white" stroke="black" points="411.87,-400 357.87,-400 357.87,-364 411.87,-364 411.87,-400"/>
<text text-anchor="middle" x="384.87" y="-378.3" font-family="Times,serif" font-size="14.00">HW</text>
</a>
</g>
</g>
<!-- FIRRTL&#45;&gt;HW -->
<g id="edge10" class="edge">
<title>FIRRTL&#45;&gt;HW</title>
<path fill="none" stroke="black" d="M280.34,-510.7C294.15,-492.08 317.55,-462.03 340.87,-439 341.63,-438.25 342.31,-437.65 342.96,-437.13"/>
<polygon fill="black" stroke="black" points="345.11,-439.89 350.87,-431 340.82,-434.36 345.11,-439.89"/>
</g>
<!-- Pipeline&#45;&gt;Calyx -->
<g id="edge5" class="edge">
<title>Pipeline&#45;&gt;Calyx</title>
<path fill="none" stroke="black" d="M303.83,-654.97C283.67,-645.66 258.09,-633.78 229.5,-620.23"/>
<polygon fill="black" stroke="black" points="230.65,-616.9 220.12,-615.77 227.65,-623.22 230.65,-616.9"/>
</g>
<!-- MSFT&#45;&gt;space_above_RTL -->
<!-- MSFT&#45;&gt;HW -->
<g id="edge11" class="edge">
<title>MSFT&#45;&gt;HW</title>
<path fill="none" stroke="black" d="M491.89,-510.7C472.21,-489.37 439.63,-454.04 425.53,-438.48"/>
<polygon fill="black" stroke="black" points="428.13,-436.14 418.87,-431 422.9,-440.8 428.13,-436.14"/>
</g>
<!-- TCL -->
<g id="node40" class="node">
<title>TCL</title>
<polygon fill="#7fc97f" stroke="black" points="623.87,-111 497.87,-111 497.87,-75 629.87,-75 629.87,-105 623.87,-111"/>
<polyline fill="none" stroke="black" points="623.87,-111 623.87,-105 "/>
<polyline fill="none" stroke="black" points="629.87,-105 623.87,-105 "/>
<text text-anchor="middle" x="563.87" y="-89.3" font-family="Times,serif" font-size="14.00">Placements (tcl)</text>
</g>
<!-- MSFT&#45;&gt;TCL -->
<g id="edge37" class="edge">
<title>MSFT&#45;&gt;TCL</title>
<path fill="none" stroke="black" d="M529.84,-510.93C559,-486.16 606.87,-437.26 606.87,-383 606.87,-383 606.87,-383 606.87,-237 606.87,-196.89 604.59,-186.04 591.87,-148 588.72,-138.59 584.11,-128.8 579.53,-120.19"/>
<polygon fill="black" stroke="black" points="582.56,-118.44 574.65,-111.39 576.44,-121.83 582.56,-118.44"/>
</g>
<!-- ESI&#45;&gt;space_above_RTL -->
<!-- ESI&#45;&gt;HW -->
<g id="edge12" class="edge">
<title>ESI&#45;&gt;HW</title>
<path fill="none" stroke="black" d="M343.65,-510.83C342.98,-494.42 343.19,-468.94 350.91,-440.68"/>
<polygon fill="black" stroke="black" points="354.29,-441.58 353.82,-431 347.59,-439.56 354.29,-441.58"/>
</g>
<!-- ServiceDesc -->
<g id="node38" class="node">
<title>ServiceDesc</title>
<polygon fill="#7fc97f" stroke="black" points="477.87,-112 301.87,-112 301.87,-74 483.87,-74 483.87,-106 477.87,-112"/>
<polyline fill="none" stroke="black" points="477.87,-112 477.87,-106 "/>
<polyline fill="none" stroke="black" points="483.87,-106 477.87,-106 "/>
<text text-anchor="middle" x="392.87" y="-96.8" font-family="Times,serif" font-size="14.00">ESI system description</text>
<text text-anchor="middle" x="392.87" y="-81.8" font-family="Times,serif" font-size="14.00">(JSON/Capnp)</text>
</g>
<!-- ESI&#45;&gt;ServiceDesc -->
<g id="edge36" class="edge">
<title>ESI&#45;&gt;ServiceDesc</title>
<path fill="none" stroke="black" d="M319.09,-510.77C275.25,-480.53 190.87,-417.79 190.87,-383 190.87,-383 190.87,-383 190.87,-237 190.87,-196.89 179.17,-177.94 205.87,-148 227.78,-123.43 260.1,-109.74 291.72,-102.21"/>
<polygon fill="black" stroke="black" points="292.49,-105.63 301.51,-100.06 290.99,-98.79 292.49,-105.63"/>
</g>
<!-- FSM&#45;&gt;space_above_RTL -->
<!-- FSM&#45;&gt;HW -->
<g id="edge13" class="edge">
<title>FSM&#45;&gt;HW</title>
<path fill="none" stroke="black" d="M207.43,-510.87C228.35,-490.33 266.4,-456.5 305.87,-439 320.81,-432.38 329.73,-438.28 341.59,-435.17"/>
<polygon fill="black" stroke="black" points="343.18,-438.29 350.87,-431 340.31,-431.9 343.18,-438.29"/>
</g>
<!-- HWArith&#45;&gt;space_above_RTL -->
<!-- HWArith&#45;&gt;HW -->
<g id="edge14" class="edge">
<title>HWArith&#45;&gt;HW</title>
<path fill="none" stroke="black" d="M426.08,-510.83C426.76,-494.42 426.54,-468.94 418.83,-440.68"/>
<polygon fill="black" stroke="black" points="422.14,-439.56 415.91,-431 415.44,-441.58 422.14,-439.56"/>
</g>
<!-- MooreMIR -->
<g id="node18" class="node">
<title>MooreMIR</title>
<g id="a_node18"><a xlink:href="https://circt.llvm.org/docs/Dialects/Moore/" xlink:title="Moore MIR">
<polygon fill="white" stroke="black" points="648.37,-547 551.37,-547 551.37,-511 648.37,-511 648.37,-547"/>
<text text-anchor="middle" x="599.87" y="-525.3" font-family="Times,serif" font-size="14.00">Moore MIR</text>
</a>
</g>
</g>
<!-- MooreMIR&#45;&gt;space_above_RTL -->
<!-- MooreMIR&#45;&gt;HW -->
<g id="edge15" class="edge">
<title>MooreMIR&#45;&gt;HW</title>
<path fill="none" stroke="black" d="M574.68,-510.94C544.96,-491.42 493.53,-459.49 445.87,-439 438.32,-435.76 433.43,-436.46 428.09,-435.27"/>
<polygon fill="black" stroke="black" points="429.41,-432.03 418.87,-431 426.47,-438.38 429.41,-432.03"/>
</g>
<!-- LLHD -->
<g id="node23" class="node">
<title>LLHD</title>
<g id="a_node23"><a xlink:href="https://circt.llvm.org/docs/Dialects/LLHD/" xlink:title="LLHD">
<polygon fill="white" stroke="black" points="457.87,-328 399.87,-328 399.87,-292 457.87,-292 457.87,-328"/>
<text text-anchor="middle" x="428.87" y="-306.3" font-family="Times,serif" font-size="14.00">LLHD</text>
</a>
</g>
</g>
<!-- MooreMIR&#45;&gt;LLHD -->
<g id="edge17" class="edge">
<title>MooreMIR&#45;&gt;LLHD</title>
<path fill="none" stroke="black" d="M592.37,-510.77C577.45,-477.84 541.4,-404.93 494.87,-356 486.66,-347.37 476.54,-339.47 466.7,-332.78"/>
<polygon fill="black" stroke="black" points="468.48,-329.76 458.19,-327.22 464.65,-335.62 468.48,-329.76"/>
</g>
<!-- Seq -->
<g id="node20" class="node">
<title>Seq</title>
<g id="a_node20"><a xlink:href="https://circt.llvm.org/docs/Dialects/Seq/" xlink:title="Seq">
<polygon fill="white" stroke="black" points="343.87,-400 289.87,-400 289.87,-364 343.87,-364 343.87,-400"/>
<text text-anchor="middle" x="316.87" y="-378.3" font-family="Times,serif" font-size="14.00">Seq</text>
</a>
</g>
</g>
<!-- space_above_RTL&#45;&gt;Seq -->
<!-- space_above_RTL&#45;&gt;HW -->
<!-- Comb -->
<g id="node22" class="node">
<title>Comb</title>
<g id="a_node22"><a xlink:href="https://circt.llvm.org/docs/Dialects/Comb/" xlink:title="Comb">
<polygon fill="white" stroke="black" points="483.87,-400 425.87,-400 425.87,-364 483.87,-364 483.87,-400"/>
<text text-anchor="middle" x="454.87" y="-378.3" font-family="Times,serif" font-size="14.00">Comb</text>
</a>
</g>
</g>
<!-- space_above_RTL&#45;&gt;Comb -->
<!-- SV -->
<g id="node24" class="node">
<title>SV</title>
<g id="a_node24"><a xlink:href="https://circt.llvm.org/docs/Dialects/SV/" xlink:title="SV">
<polygon fill="white" stroke="black" points="343.87,-328 289.87,-328 289.87,-292 343.87,-292 343.87,-328"/>
<text text-anchor="middle" x="316.87" y="-306.3" font-family="Times,serif" font-size="14.00">SV</text>
</a>
</g>
</g>
<!-- Seq&#45;&gt;SV -->
<g id="edge16" class="edge">
<title>Seq&#45;&gt;SV</title>
<path fill="none" stroke="black" d="M316.87,-363.7C316.87,-355.98 316.87,-346.71 316.87,-338.11"/>
<polygon fill="black" stroke="black" points="320.37,-338.1 316.87,-328.1 313.37,-338.1 320.37,-338.1"/>
</g>
<!-- ExportVerilog -->
<g id="node28" class="node">
<title>ExportVerilog</title>
<g id="a_node28"><a xlink:href="https://circt.llvm.org/docs/VerilogGeneration/" xlink:title="ExportVerilog">
<polygon fill="#fdc086" stroke="black" points="332.87,-256 216.87,-256 216.87,-220 332.87,-220 332.87,-256"/>
<text text-anchor="middle" x="274.87" y="-234.3" font-family="Times,serif" font-size="14.00">ExportVerilog</text>
</a>
</g>
</g>
<!-- Seq&#45;&gt;ExportVerilog -->
<g id="edge28" class="edge">
<title>Seq&#45;&gt;ExportVerilog</title>
<path fill="none" stroke="black" d="M297.34,-356C291.72,-347.55 286.21,-337.77 282.87,-328 276.05,-308.1 274.21,-284.3 273.99,-266.33"/>
<polygon fill="black" stroke="black" points="277.49,-266.24 274.02,-256.23 270.49,-266.22 277.49,-266.24"/>
</g>
<!-- HW&#45;&gt;LLHD -->
<g id="edge18" class="edge">
<title>HW&#45;&gt;LLHD</title>
<path fill="none" stroke="black" d="M395.74,-363.7C400.86,-355.56 407.06,-345.69 412.71,-336.7"/>
<polygon fill="black" stroke="black" points="415.76,-338.43 418.12,-328.1 409.83,-334.71 415.76,-338.43"/>
</g>
<!-- llhd_sim -->
<g id="node26" class="node">
<title>llhd_sim</title>
<polygon fill="#fdc086" stroke="black" points="431.87,-256 357.87,-256 357.87,-220 431.87,-220 431.87,-256"/>
<text text-anchor="middle" x="394.87" y="-234.3" font-family="Times,serif" font-size="14.00">llhd&#45;sim</text>
</g>
<!-- HW&#45;&gt;llhd_sim -->
<g id="edge29" class="edge">
<title>HW&#45;&gt;llhd_sim</title>
<path fill="none" stroke="black" d="M386.63,-356C388.4,-330.89 391.11,-292.32 392.94,-266.39"/>
<polygon fill="black" stroke="black" points="396.44,-266.41 393.66,-256.19 389.46,-265.92 396.44,-266.41"/>
</g>
<!-- SystemC -->
<g id="node25" class="node">
<title>SystemC</title>
<g id="a_node25"><a xlink:href="https://circt.llvm.org/docs/Dialects/SystemC/" xlink:title="SystemC">
<polygon fill="white" stroke="black" points="553.87,-328 473.87,-328 473.87,-292 553.87,-292 553.87,-328"/>
<text text-anchor="middle" x="513.87" y="-306.3" font-family="Times,serif" font-size="14.00">SystemC</text>
</a>
</g>
</g>
<!-- Comb&#45;&gt;SystemC -->
<g id="edge19" class="edge">
<title>Comb&#45;&gt;SystemC</title>
<path fill="none" stroke="black" d="M475.94,-356C481.45,-349.46 487.4,-342.4 492.91,-335.86"/>
<polygon fill="black" stroke="black" points="495.68,-338.01 499.45,-328.1 490.33,-333.49 495.68,-338.01"/>
</g>
<!-- LLHD&#45;&gt;llhd_sim -->
<g id="edge34" class="edge">
<title>LLHD&#45;&gt;llhd_sim</title>
<path fill="none" stroke="black" d="M420.46,-291.7C416.59,-283.73 411.92,-274.1 407.62,-265.26"/>
<polygon fill="black" stroke="black" points="410.69,-263.57 403.17,-256.1 404.4,-266.63 410.69,-263.57"/>
</g>
<!-- SV&#45;&gt;ExportVerilog -->
<g id="edge27" class="edge">
<title>SV&#45;&gt;ExportVerilog</title>
<path fill="none" stroke="black" d="M306.48,-291.7C301.6,-283.56 295.68,-273.69 290.29,-264.7"/>
<polygon fill="black" stroke="black" points="293.28,-262.88 285.13,-256.1 287.27,-266.48 293.28,-262.88"/>
</g>
<!-- ExportSystemC -->
<g id="node27" class="node">
<title>ExportSystemC</title>
<polygon fill="#fdc086" stroke="black" points="583.37,-256 454.37,-256 454.37,-220 583.37,-220 583.37,-256"/>
<text text-anchor="middle" x="518.87" y="-234.3" font-family="Times,serif" font-size="14.00">ExportSystemC</text>
</g>
<!-- SystemC&#45;&gt;ExportSystemC -->
<g id="edge25" class="edge">
<title>SystemC&#45;&gt;ExportSystemC</title>
<path fill="none" stroke="black" d="M515.1,-291.7C515.65,-283.98 516.32,-274.71 516.93,-266.11"/>
<polygon fill="black" stroke="black" points="520.42,-266.33 517.64,-256.1 513.44,-265.83 520.42,-266.33"/>
</g>
<!-- VCDTrace -->
<g id="node35" class="node">
<title>VCDTrace</title>
<polygon fill="#7fc97f" stroke="black" points="436.87,-184 346.87,-184 346.87,-148 442.87,-148 442.87,-178 436.87,-184"/>
<polyline fill="none" stroke="black" points="436.87,-184 436.87,-178 "/>
<polyline fill="none" stroke="black" points="442.87,-178 436.87,-178 "/>
<text text-anchor="middle" x="394.87" y="-162.3" font-family="Times,serif" font-size="14.00">Trace (vcd)</text>
</g>
<!-- llhd_sim&#45;&gt;VCDTrace -->
<g id="edge35" class="edge">
<title>llhd_sim&#45;&gt;VCDTrace</title>
<path fill="none" stroke="black" d="M394.87,-219.7C394.87,-211.98 394.87,-202.71 394.87,-194.11"/>
<polygon fill="black" stroke="black" points="398.37,-194.1 394.87,-184.1 391.37,-194.1 398.37,-194.1"/>
</g>
<!-- SystemCFile -->
<g id="node36" class="node">
<title>SystemCFile</title>
<polygon fill="#7fc97f" stroke="black" points="578.37,-184 457.37,-184 457.37,-148 584.37,-148 584.37,-178 578.37,-184"/>
<polyline fill="none" stroke="black" points="578.37,-184 578.37,-178 "/>
<polyline fill="none" stroke="black" points="584.37,-178 578.37,-178 "/>
<text text-anchor="middle" x="520.87" y="-162.3" font-family="Times,serif" font-size="14.00">SystemC (c++)</text>
</g>
<!-- ExportSystemC&#45;&gt;SystemCFile -->
<g id="edge26" class="edge">
<title>ExportSystemC&#45;&gt;SystemCFile</title>
<path fill="none" stroke="black" d="M519.36,-219.7C519.58,-211.98 519.85,-202.71 520.09,-194.11"/>
<polygon fill="black" stroke="black" points="523.59,-194.2 520.38,-184.1 516.59,-194 523.59,-194.2"/>
</g>
<!-- SVFile -->
<g id="node37" class="node">
<title>SVFile</title>
<polygon fill="#7fc97f" stroke="black" points="326.87,-184 212.87,-184 212.87,-148 332.87,-148 332.87,-178 326.87,-184"/>
<polyline fill="none" stroke="black" points="326.87,-184 326.87,-178 "/>
<polyline fill="none" stroke="black" points="332.87,-178 326.87,-178 "/>
<text text-anchor="middle" x="272.87" y="-162.3" font-family="Times,serif" font-size="14.00">SystemVerilog</text>
</g>
<!-- ExportVerilog&#45;&gt;SVFile -->
<g id="edge20" class="edge">
<title>ExportVerilog&#45;&gt;SVFile</title>
<path fill="none" stroke="black" d="M274.37,-219.7C274.15,-211.98 273.89,-202.71 273.64,-194.11"/>
<polygon fill="black" stroke="black" points="277.14,-194 273.36,-184.1 270.14,-194.2 277.14,-194"/>
</g>
<!-- Moore -->
<g id="node29" class="node">
<title>Moore</title>
<polygon fill="#ffff99" stroke="black" points="740.6,-828.54 740.6,-843.46 714.98,-854 678.75,-854 653.13,-843.46 653.13,-828.54 678.75,-818 714.98,-818 740.6,-828.54"/>
<text text-anchor="middle" x="696.87" y="-832.3" font-family="Times,serif" font-size="14.00">Moore</text>
</g>
<!-- Moore&#45;&gt;MooreMIR -->
<g id="edge31" class="edge">
<title>Moore&#45;&gt;MooreMIR</title>
<path fill="none" stroke="black" d="M691.37,-817.73C675.23,-766.98 627.87,-618.06 608.39,-556.8"/>
<polygon fill="black" stroke="black" points="611.67,-555.55 605.3,-547.08 604.99,-557.67 611.67,-555.55"/>
</g>
<!-- Calyx_native&#45;&gt;HW -->
<g id="edge33" class="edge">
<title>Calyx_native&#45;&gt;HW</title>
<path fill="none" stroke="black" d="M83.21,-510.83C95.85,-489.57 120.57,-454.31 152.87,-439 189.86,-421.47 295.76,-447.78 341.56,-434.68"/>
<polygon fill="black" stroke="black" points="342.86,-437.94 350.87,-431 340.28,-431.43 342.86,-437.94"/>
</g>
<!-- FIRFile -->
<g id="node31" class="node">
<title>FIRFile</title>
<polygon fill="#7fc97f" stroke="black" points="495.87,-854 447.87,-854 447.87,-818 501.87,-818 501.87,-848 495.87,-854"/>
<polyline fill="none" stroke="black" points="495.87,-854 495.87,-848 "/>
<polyline fill="none" stroke="black" points="501.87,-848 495.87,-848 "/>
<text text-anchor="middle" x="474.87" y="-832.3" font-family="Times,serif" font-size="14.00">.fir</text>
</g>
<!-- FIRFile&#45;&gt;FIRRTLParser -->
<g id="edge23" class="edge">
<title>FIRFile&#45;&gt;FIRRTLParser</title>
<path fill="none" stroke="black" d="M502.11,-821.81C512.81,-815.09 523.94,-805.82 529.87,-794 543.22,-767.39 541.37,-754.47 529.87,-727 511.51,-683.18 469.48,-646.95 438.78,-624.98"/>
<polygon fill="black" stroke="black" points="440.65,-622.02 430.45,-619.16 436.65,-627.76 440.65,-622.02"/>
</g>
<!-- FIRFile&#45;&gt;Scheduling -->
<!-- Chisel -->
<g id="node32" class="node">
<title>Chisel</title>
<polygon fill="#ffff99" stroke="black" points="515.69,-919.54 515.69,-934.46 490.61,-945 455.13,-945 430.04,-934.46 430.04,-919.54 455.13,-909 490.61,-909 515.69,-919.54"/>
<text text-anchor="middle" x="472.87" y="-923.3" font-family="Times,serif" font-size="14.00">Chisel</text>
</g>
<!-- Chisel&#45;&gt;CF -->
<!-- Chisel&#45;&gt;FIRFile -->
<g id="edge22" class="edge">
<title>Chisel&#45;&gt;FIRFile</title>
<path fill="none" stroke="black" d="M473.25,-908.84C473.53,-896.28 473.92,-878.98 474.25,-864.5"/>
<polygon fill="black" stroke="black" points="477.76,-864.18 474.48,-854.11 470.76,-864.03 477.76,-864.18"/>
</g>
<!-- SVVHDL -->
<g id="node33" class="node">
<title>SVVHDL</title>
<polygon fill="#ffff99" stroke="black" points="755.15,-919.54 755.15,-934.46 721.01,-945 672.73,-945 638.59,-934.46 638.59,-919.54 672.73,-909 721.01,-909 755.15,-919.54"/>
<text text-anchor="middle" x="696.87" y="-923.3" font-family="Times,serif" font-size="14.00">SV/VHDL</text>
</g>
<!-- SVVHDL&#45;&gt;Moore -->
<g id="edge30" class="edge">
<title>SVVHDL&#45;&gt;Moore</title>
<path fill="none" stroke="black" d="M696.87,-908.84C696.87,-896.28 696.87,-878.98 696.87,-864.5"/>
<polygon fill="black" stroke="black" points="700.37,-864.11 696.87,-854.11 693.37,-864.11 700.37,-864.11"/>
</g>
<!-- PyFile -->
<g id="node34" class="node">
<title>PyFile</title>
<polygon fill="#ffff99" stroke="black" points="624.14,-919.54 624.14,-934.46 596.45,-945 557.29,-945 529.6,-934.46 529.6,-919.54 557.29,-909 596.45,-909 624.14,-919.54"/>
<text text-anchor="middle" x="576.87" y="-923.3" font-family="Times,serif" font-size="14.00">Python</text>
</g>
<!-- PyFile&#45;&gt;PyCDE -->
<g id="edge38" class="edge">
<title>PyFile&#45;&gt;PyCDE</title>
<path fill="none" stroke="black" d="M574.82,-908.83C570.53,-874.2 559.75,-793.59 544.87,-727 537.2,-692.71 525.56,-653.94 517.6,-628.79"/>
<polygon fill="black" stroke="black" points="520.92,-627.68 514.54,-619.22 514.25,-629.81 520.92,-627.68"/>
</g>
<!-- SystemCFile&#45;&gt;ServiceDesc -->
<!-- SystemCFile&#45;&gt;TCL -->
<!-- SoftwareAPI -->
<g id="node39" class="node">
<title>SoftwareAPI</title>
<polygon fill="none" stroke="black" stroke-dasharray="5,2" points="454.37,-38 325.37,-38 325.37,0 460.37,0 460.37,-32 454.37,-38"/>
<polyline fill="none" stroke="black" stroke-dasharray="5,2" points="454.37,-38 454.37,-32 "/>
<polyline fill="none" stroke="black" stroke-dasharray="5,2" points="460.37,-32 454.37,-32 "/>
<text text-anchor="middle" x="392.87" y="-22.8" font-family="Times,serif" font-size="14.00">Software API</text>
<text text-anchor="middle" x="392.87" y="-7.8" font-family="Times,serif" font-size="14.00">(e.g. py/c++/c#)</text>
</g>
<!-- ServiceDesc&#45;&gt;SoftwareAPI -->
<g id="edge44" class="edge">
<title>ServiceDesc&#45;&gt;SoftwareAPI</title>
<path fill="none" stroke="black" stroke-dasharray="5,2" d="M392.87,-73.83C392.87,-66.13 392.87,-56.97 392.87,-48.42"/>
<polygon fill="black" stroke="black" points="396.37,-48.41 392.87,-38.41 389.37,-48.41 396.37,-48.41"/>
</g>
</g>
</svg>
