<?xml version="1.0" encoding="UTF-8" standalone="no"?>
<!DOCTYPE svg PUBLIC "-//W3C//DTD SVG 1.1//EN"
 "http://www.w3.org/Graphics/SVG/1.1/DTD/svg11.dtd">
<!-- Generated by graphviz version 2.43.0 (0)
 -->
<!-- Title: G Pages: 1 -->
<svg width="644pt" height="742pt"
 viewBox="0.00 0.00 643.98 742.00" xmlns="http://www.w3.org/2000/svg" xmlns:xlink="http://www.w3.org/1999/xlink">
<g id="graph0" class="graph" transform="scale(1 1) rotate(0) translate(4 738)">
<title>G</title>
<polygon fill="white" stroke="transparent" points="-4,4 -4,-738 639.98,-738 639.98,4 -4,4"/>
<g id="clust1" class="cluster">
<title>cluster_mlir</title>
<polygon fill="none" stroke="black" points="26.98,-651 26.98,-726 334.98,-726 334.98,-651 26.98,-651"/>
<text text-anchor="middle" x="180.98" y="-710.8" font-family="Times,serif" font-size="14.00">Upstream MLIR</text>
</g>
<g id="clust2" class="cluster">
<title>cluster_circt</title>
<polygon fill="none" stroke="black" points="159.98,-136 159.98,-643 573.98,-643 573.98,-136 159.98,-136"/>
<text text-anchor="middle" x="366.98" y="-627.8" font-family="Times,serif" font-size="14.00">CIRCT</text>
</g>
<!-- SCF -->
<g id="node1" class="node">
<title>SCF</title>
<polygon fill="lightblue" stroke="black" points="326.98,-695 272.98,-695 272.98,-659 326.98,-659 326.98,-695"/>
<text text-anchor="middle" x="299.98" y="-673.3" font-family="Times,serif" font-size="14.00">SCF</text>
</g>
<!-- Calyx -->
<g id="node5" class="node">
<title>Calyx</title>
<g id="a_node5"><a xlink:href="https://circt.llvm.org/docs/Dialects/Calyx/" xlink:title="Calyx">
<polygon fill="white" stroke="black" points="223.98,-468 167.98,-468 167.98,-432 223.98,-432 223.98,-468"/>
<text text-anchor="middle" x="195.98" y="-446.3" font-family="Times,serif" font-size="14.00">Calyx</text>
</a>
</g>
</g>
<!-- SCF&#45;&gt;Calyx -->
<g id="edge1" class="edge">
<title>SCF&#45;&gt;Calyx</title>
<path fill="none" stroke="black" d="M304.01,-658.78C310.7,-625.87 320.53,-552.98 289.98,-504 286.44,-498.34 257.72,-482.56 232.94,-469.68"/>
<polygon fill="black" stroke="black" points="234.54,-466.56 224.05,-465.09 231.33,-472.78 234.54,-466.56"/>
</g>
<!-- Standard -->
<g id="node2" class="node">
<title>Standard</title>
<polygon fill="lightblue" stroke="black" points="258.48,-695 175.48,-695 175.48,-659 258.48,-659 258.48,-695"/>
<text text-anchor="middle" x="216.98" y="-673.3" font-family="Times,serif" font-size="14.00">Standard</text>
</g>
<!-- Standard&#45;&gt;Calyx -->
<g id="edge4" class="edge">
<title>Standard&#45;&gt;Calyx</title>
<path fill="none" stroke="black" d="M251.49,-658.89C260.95,-653.45 269.34,-647.65 271.98,-643 302.42,-589.24 300.56,-558.77 271.98,-504 267.45,-495.32 250.03,-482.9 233.01,-472.27"/>
<polygon fill="black" stroke="black" points="234.58,-469.13 224.22,-466.9 230.93,-475.1 234.58,-469.13"/>
</g>
<!-- Handshake -->
<g id="node6" class="node">
<title>Handshake</title>
<g id="a_node6"><a xlink:href="https://circt.llvm.org/docs/Dialects/Handshake/" xlink:title="Handshake">
<polygon fill="white" stroke="black" points="334.98,-468 238.98,-468 238.98,-432 334.98,-432 334.98,-468"/>
<text text-anchor="middle" x="286.98" y="-446.3" font-family="Times,serif" font-size="14.00">Handshake</text>
</a>
</g>
</g>
<!-- Standard&#45;&gt;Handshake -->
<g id="edge6" class="edge">
<title>Standard&#45;&gt;Handshake</title>
<path fill="none" stroke="black" d="M248.19,-658.94C254.01,-656.09 260.11,-653.31 265.98,-651 278.02,-646.26 286.18,-653.33 293.98,-643 330.55,-594.52 311.56,-517.88 297.54,-477.66"/>
<polygon fill="black" stroke="black" points="300.83,-476.46 294.12,-468.26 294.25,-478.85 300.83,-476.46"/>
</g>
<!-- Scheduling -->
<g id="node19" class="node">
<title>Scheduling</title>
<polygon fill="darksalmon" stroke="black" points="264.98,-612 168.98,-612 168.98,-576 264.98,-576 264.98,-612"/>
<text text-anchor="middle" x="216.98" y="-590.3" font-family="Times,serif" font-size="14.00">Scheduling</text>
</g>
<!-- Standard&#45;&gt;Scheduling -->
<!-- Arith -->
<g id="node3" class="node">
<title>Arith</title>
<polygon fill="lightblue" stroke="black" points="160.98,-695 106.98,-695 106.98,-659 160.98,-659 160.98,-695"/>
<text text-anchor="middle" x="133.98" y="-673.3" font-family="Times,serif" font-size="14.00">Arith</text>
</g>
<!-- Arith&#45;&gt;Calyx -->
<g id="edge5" class="edge">
<title>Arith&#45;&gt;Calyx</title>
<path fill="none" stroke="black" d="M134.28,-658.78C135.35,-627.08 140.12,-557.83 160.98,-504 164.7,-494.38 170.38,-484.72 176.08,-476.33"/>
<polygon fill="black" stroke="black" points="178.99,-478.27 181.95,-468.1 173.29,-474.21 178.99,-478.27"/>
</g>
<!-- Arith&#45;&gt;Handshake -->
<g id="edge7" class="edge">
<title>Arith&#45;&gt;Handshake</title>
<path fill="none" stroke="black" d="M154.02,-658.92C158.67,-655.77 163.78,-652.89 168.98,-651 190.55,-643.15 255.74,-659.23 271.98,-643 294.41,-620.58 291.83,-525.94 288.99,-478.44"/>
<polygon fill="black" stroke="black" points="292.47,-478 288.34,-468.25 285.49,-478.45 292.47,-478"/>
</g>
<!-- Affine -->
<g id="node4" class="node">
<title>Affine</title>
<polygon fill="lightblue" stroke="black" points="92.98,-695 34.98,-695 34.98,-659 92.98,-659 92.98,-695"/>
<text text-anchor="middle" x="63.98" y="-673.3" font-family="Times,serif" font-size="14.00">Affine</text>
</g>
<!-- StaticLogic -->
<g id="node13" class="node">
<title>StaticLogic</title>
<g id="a_node13"><a xlink:href="https://circt.llvm.org/docs/Dialects/StaticLogic/" xlink:title="StaticLogic">
<polygon fill="white" stroke="black" points="264.48,-540 167.48,-540 167.48,-504 264.48,-504 264.48,-540"/>
<text text-anchor="middle" x="215.98" y="-518.3" font-family="Times,serif" font-size="14.00">StaticLogic</text>
</a>
</g>
</g>
<!-- Affine&#45;&gt;StaticLogic -->
<g id="edge2" class="edge">
<title>Affine&#45;&gt;StaticLogic</title>
<path fill="none" stroke="black" stroke-dasharray="5,2" d="M80.52,-658.91C99.93,-638.93 133.11,-604.89 161.98,-576 171.41,-566.56 181.85,-556.27 191.03,-547.29"/>
<polygon fill="black" stroke="black" points="193.68,-549.59 198.38,-540.1 188.78,-544.59 193.68,-549.59"/>
</g>
<!-- FSM -->
<g id="node16" class="node">
<title>FSM</title>
<g id="a_node16"><a xlink:href="https://circt.llvm.org/docs/Dialects/FSM/" xlink:title="FSM">
<polygon fill="white" stroke="black" points="237.98,-396 183.98,-396 183.98,-360 237.98,-360 237.98,-396"/>
<text text-anchor="middle" x="210.98" y="-374.3" font-family="Times,serif" font-size="14.00">FSM</text>
</a>
</g>
</g>
<!-- Calyx&#45;&gt;FSM -->
<g id="edge9" class="edge">
<title>Calyx&#45;&gt;FSM</title>
<path fill="none" stroke="black" stroke-dasharray="5,2" d="M199.69,-431.7C201.34,-423.98 203.32,-414.71 205.17,-406.11"/>
<polygon fill="black" stroke="black" points="208.64,-406.62 207.31,-396.1 201.79,-405.15 208.64,-406.62"/>
</g>
<!-- Calyx_native -->
<g id="node24" class="node">
<title>Calyx_native</title>
<polygon fill="gold" stroke="black" points="151.93,-370.54 151.93,-385.46 107.44,-396 44.52,-396 0.02,-385.46 0.02,-370.54 44.52,-360 107.44,-360 151.93,-370.54"/>
<text text-anchor="middle" x="75.98" y="-374.3" font-family="Times,serif" font-size="14.00">Calyx Native</text>
</g>
<!-- Calyx&#45;&gt;Calyx_native -->
<g id="edge27" class="edge">
<title>Calyx&#45;&gt;Calyx_native</title>
<path fill="none" stroke="black" d="M167.68,-435C150.23,-425.4 127.82,-412.46 109.49,-401.43"/>
<polygon fill="black" stroke="black" points="111.23,-398.39 100.86,-396.19 107.59,-404.37 111.23,-398.39"/>
</g>
<!-- Calyx&#45;&gt;Calyx_native -->
<!-- FIRRTL -->
<g id="node7" class="node">
<title>FIRRTL</title>
<g id="a_node7"><a xlink:href="https://circt.llvm.org/docs/Dialects/FIRRTL/" xlink:title="FIRRTL">
<polygon fill="white" stroke="black" points="323.48,-396 252.48,-396 252.48,-360 323.48,-360 323.48,-396"/>
<text text-anchor="middle" x="287.98" y="-374.3" font-family="Times,serif" font-size="14.00">FIRRTL</text>
</a>
</g>
</g>
<!-- Handshake&#45;&gt;FIRRTL -->
<g id="edge8" class="edge">
<title>Handshake&#45;&gt;FIRRTL</title>
<path fill="none" stroke="black" d="M287.22,-431.7C287.33,-423.98 287.47,-414.71 287.59,-406.11"/>
<polygon fill="black" stroke="black" points="291.09,-406.15 287.73,-396.1 284.09,-406.05 291.09,-406.15"/>
</g>
<!-- HW -->
<g id="node9" class="node">
<title>HW</title>
<g id="a_node9"><a xlink:href="https://circt.llvm.org/docs/Dialects/HW/" xlink:title="HW">
<polygon fill="white" stroke="black" points="267.98,-324 213.98,-324 213.98,-288 267.98,-288 267.98,-324"/>
<text text-anchor="middle" x="240.98" y="-302.3" font-family="Times,serif" font-size="14.00">HW</text>
</a>
</g>
</g>
<!-- FIRRTL&#45;&gt;HW -->
<g id="edge11" class="edge">
<title>FIRRTL&#45;&gt;HW</title>
<path fill="none" stroke="black" d="M276.36,-359.7C270.84,-351.47 264.13,-341.48 258.05,-332.42"/>
<polygon fill="black" stroke="black" points="260.94,-330.46 252.46,-324.1 255.13,-334.36 260.94,-330.46"/>
</g>
<!-- Comb -->
<g id="node11" class="node">
<title>Comb</title>
<g id="a_node11"><a xlink:href="https://circt.llvm.org/docs/Dialects/Comb/" xlink:title="Comb">
<polygon fill="white" stroke="black" points="339.98,-324 281.98,-324 281.98,-288 339.98,-288 339.98,-324"/>
<text text-anchor="middle" x="310.98" y="-302.3" font-family="Times,serif" font-size="14.00">Comb</text>
</a>
</g>
</g>
<!-- FIRRTL&#45;&gt;Comb -->
<g id="edge16" class="edge">
<title>FIRRTL&#45;&gt;Comb</title>
<path fill="none" stroke="black" d="M293.66,-359.7C296.23,-351.9 299.31,-342.51 302.16,-333.83"/>
<polygon fill="black" stroke="black" points="305.56,-334.7 305.36,-324.1 298.91,-332.51 305.56,-334.7"/>
</g>
<!-- LLHD -->
<g id="node8" class="node">
<title>LLHD</title>
<g id="a_node8"><a xlink:href="https://circt.llvm.org/docs/Dialects/LLHD/" xlink:title="LLHD">
<polygon fill="white" stroke="black" points="225.98,-252 167.98,-252 167.98,-216 225.98,-216 225.98,-252"/>
<text text-anchor="middle" x="196.98" y="-230.3" font-family="Times,serif" font-size="14.00">LLHD</text>
</a>
</g>
</g>
<!-- llhd_sim -->
<g id="node20" class="node">
<title>llhd_sim</title>
<polygon fill="darksalmon" stroke="black" points="331.98,-180 241.98,-180 241.98,-144 331.98,-144 331.98,-180"/>
<text text-anchor="middle" x="286.98" y="-158.3" font-family="Times,serif" font-size="14.00">LLHD Sim</text>
</g>
<!-- LLHD&#45;&gt;llhd_sim -->
<g id="edge30" class="edge">
<title>LLHD&#45;&gt;llhd_sim</title>
<path fill="none" stroke="black" d="M219.22,-215.7C230.56,-206.88 244.51,-196.03 256.8,-186.47"/>
<polygon fill="black" stroke="black" points="259.24,-189.01 264.99,-180.1 254.94,-183.48 259.24,-189.01"/>
</g>
<!-- Circilator -->
<g id="node23" class="node">
<title>Circilator</title>
<polygon fill="gold" stroke="black" stroke-dasharray="5,2" points="178.16,-82.54 178.16,-97.46 143.49,-108 94.46,-108 59.79,-97.46 59.79,-82.54 94.46,-72 143.49,-72 178.16,-82.54"/>
<text text-anchor="middle" x="118.98" y="-86.3" font-family="Times,serif" font-size="14.00">Circilator</text>
</g>
<!-- LLHD&#45;&gt;Circilator -->
<g id="edge25" class="edge">
<title>LLHD&#45;&gt;Circilator</title>
<path fill="none" stroke="black" stroke-dasharray="5,2" d="M187.57,-215.87C174.1,-191.35 149.21,-146.03 133.4,-117.26"/>
<polygon fill="black" stroke="black" points="136.3,-115.27 128.42,-108.19 130.17,-118.64 136.3,-115.27"/>
</g>
<!-- HW&#45;&gt;LLHD -->
<g id="edge15" class="edge">
<title>HW&#45;&gt;LLHD</title>
<path fill="none" stroke="black" d="M230.1,-287.7C224.99,-279.56 218.78,-269.69 213.13,-260.7"/>
<polygon fill="black" stroke="black" points="216.01,-258.71 207.73,-252.1 210.09,-262.43 216.01,-258.71"/>
</g>
<!-- ExportVerilog -->
<g id="node17" class="node">
<title>ExportVerilog</title>
<polygon fill="darksalmon" stroke="black" points="371.98,-252 255.98,-252 255.98,-216 371.98,-216 371.98,-252"/>
<text text-anchor="middle" x="313.98" y="-230.3" font-family="Times,serif" font-size="14.00">ExportVerilog</text>
</g>
<!-- HW&#45;&gt;ExportVerilog -->
<g id="edge21" class="edge">
<title>HW&#45;&gt;ExportVerilog</title>
<path fill="none" stroke="black" d="M259.02,-287.7C268.04,-279.05 279.1,-268.45 288.92,-259.03"/>
<polygon fill="black" stroke="black" points="291.34,-261.55 296.14,-252.1 286.5,-256.5 291.34,-261.55"/>
</g>
<!-- HW&#45;&gt;llhd_sim -->
<g id="edge32" class="edge">
<title>HW&#45;&gt;llhd_sim</title>
<path fill="none" stroke="black" d="M239.89,-287.68C239.33,-269.3 240.17,-239.7 248.98,-216 252.61,-206.23 258.54,-196.64 264.65,-188.36"/>
<polygon fill="black" stroke="black" points="267.59,-190.28 270.99,-180.25 262.07,-185.97 267.59,-190.28"/>
</g>
<!-- HW&#45;&gt;Circilator -->
<g id="edge26" class="edge">
<title>HW&#45;&gt;Circilator</title>
<path fill="none" stroke="black" stroke-dasharray="5,2" d="M213.89,-293.26C196.36,-284.35 174.39,-270.47 160.98,-252 131.71,-211.72 122.82,-152.71 120.13,-118.44"/>
<polygon fill="black" stroke="black" points="123.6,-117.98 119.45,-108.23 116.62,-118.44 123.6,-117.98"/>
</g>
<!-- SV -->
<g id="node10" class="node">
<title>SV</title>
<g id="a_node10"><a xlink:href="https://circt.llvm.org/docs/Dialects/SV/" xlink:title="SV">
<polygon fill="white" stroke="black" points="407.98,-324 353.98,-324 353.98,-288 407.98,-288 407.98,-324"/>
<text text-anchor="middle" x="380.98" y="-302.3" font-family="Times,serif" font-size="14.00">SV</text>
</a>
</g>
</g>
<!-- SV&#45;&gt;ExportVerilog -->
<g id="edge22" class="edge">
<title>SV&#45;&gt;ExportVerilog</title>
<path fill="none" stroke="black" d="M364.42,-287.7C356.3,-279.22 346.39,-268.86 337.51,-259.58"/>
<polygon fill="black" stroke="black" points="339.79,-256.91 330.35,-252.1 334.73,-261.75 339.79,-256.91"/>
</g>
<!-- Comb&#45;&gt;ExportVerilog -->
<g id="edge17" class="edge">
<title>Comb&#45;&gt;ExportVerilog</title>
<path fill="none" stroke="black" d="M311.72,-287.7C312.05,-279.98 312.45,-270.71 312.82,-262.11"/>
<polygon fill="black" stroke="black" points="316.31,-262.25 313.24,-252.1 309.32,-261.95 316.31,-262.25"/>
</g>
<!-- Comb&#45;&gt;llhd_sim -->
<g id="edge31" class="edge">
<title>Comb&#45;&gt;llhd_sim</title>
<path fill="none" stroke="black" d="M340.07,-290.56C354.62,-281.63 370.83,-268.68 378.98,-252 386,-237.62 386.98,-229.85 378.98,-216 370.5,-201.33 356.25,-190.36 341.46,-182.33"/>
<polygon fill="black" stroke="black" points="342.74,-179.05 332.23,-177.7 339.6,-185.31 342.74,-179.05"/>
</g>
<!-- Seq -->
<g id="node12" class="node">
<title>Seq</title>
<g id="a_node12"><a xlink:href="https://circt.llvm.org/docs/Dialects/Seq/" xlink:title="Seq">
<polygon fill="white" stroke="black" points="565.98,-396 511.98,-396 511.98,-360 565.98,-360 565.98,-396"/>
<text text-anchor="middle" x="538.98" y="-374.3" font-family="Times,serif" font-size="14.00">Seq</text>
</a>
</g>
</g>
<!-- Seq&#45;&gt;SV -->
<g id="edge10" class="edge">
<title>Seq&#45;&gt;SV</title>
<path fill="none" stroke="black" d="M511.96,-363.29C509.61,-362.16 507.26,-361.05 504.98,-360 467.31,-342.72 457,-340.46 418.98,-324 418.55,-323.81 418.11,-323.63 417.68,-323.44"/>
<polygon fill="black" stroke="black" points="418.9,-320.15 408.34,-319.34 416.09,-326.56 418.9,-320.15"/>
</g>
<!-- Seq&#45;&gt;llhd_sim -->
<g id="edge33" class="edge">
<title>Seq&#45;&gt;llhd_sim</title>
<path fill="none" stroke="black" d="M525.59,-359.8C500.53,-328.38 443.71,-260.81 384.98,-216 369.41,-204.12 350.82,-193.35 334.04,-184.66"/>
<polygon fill="black" stroke="black" points="335.44,-181.45 324.94,-180.06 332.29,-187.7 335.44,-181.45"/>
</g>
<!-- StaticLogic&#45;&gt;Calyx -->
<g id="edge3" class="edge">
<title>StaticLogic&#45;&gt;Calyx</title>
<path fill="none" stroke="black" stroke-dasharray="5,2" d="M211.03,-503.7C208.81,-495.9 206.12,-486.51 203.64,-477.83"/>
<polygon fill="black" stroke="black" points="206.98,-476.76 200.86,-468.1 200.25,-478.68 206.98,-476.76"/>
</g>
<!-- MSFT -->
<g id="node14" class="node">
<title>MSFT</title>
<g id="a_node14"><a xlink:href="https://circt.llvm.org/docs/Dialects/MSFT/" xlink:title="MSFT">
<polygon fill="white" stroke="black" points="497.48,-396 438.48,-396 438.48,-360 497.48,-360 497.48,-396"/>
<text text-anchor="middle" x="467.98" y="-374.3" font-family="Times,serif" font-size="14.00">MSFT</text>
</a>
</g>
</g>
<!-- MSFT&#45;&gt;HW -->
<g id="edge14" class="edge">
<title>MSFT&#45;&gt;HW</title>
<path fill="none" stroke="black" d="M438.3,-362.73C435.85,-361.75 433.39,-360.82 430.98,-360 366.66,-338.06 343.98,-347.16 277.83,-324.69"/>
<polygon fill="black" stroke="black" points="278.79,-321.32 268.2,-321.3 276.47,-327.92 278.79,-321.32"/>
</g>
<!-- TCL -->
<g id="node29" class="node">
<title>TCL</title>
<polygon fill="yellowgreen" stroke="black" points="491.98,-108 443.98,-108 443.98,-72 497.98,-72 497.98,-102 491.98,-108"/>
<polyline fill="none" stroke="black" points="491.98,-108 491.98,-102 "/>
<polyline fill="none" stroke="black" points="497.98,-102 491.98,-102 "/>
<text text-anchor="middle" x="470.98" y="-86.3" font-family="Times,serif" font-size="14.00">.tcl</text>
</g>
<!-- MSFT&#45;&gt;TCL -->
<g id="edge37" class="edge">
<title>MSFT&#45;&gt;TCL</title>
<path fill="none" stroke="black" d="M468.16,-359.97C468.66,-312.29 470.07,-177.18 470.69,-118.63"/>
<polygon fill="black" stroke="black" points="474.19,-118.34 470.8,-108.31 467.19,-118.27 474.19,-118.34"/>
</g>
<!-- ESI -->
<g id="node15" class="node">
<title>ESI</title>
<g id="a_node15"><a xlink:href="https://circt.llvm.org/docs/Dialects/ESI/" xlink:title="ESI">
<polygon fill="white" stroke="black" points="423.98,-396 369.98,-396 369.98,-360 423.98,-360 423.98,-396"/>
<text text-anchor="middle" x="396.98" y="-374.3" font-family="Times,serif" font-size="14.00">ESI</text>
</a>
</g>
</g>
<!-- ESI&#45;&gt;HW -->
<g id="edge13" class="edge">
<title>ESI&#45;&gt;HW</title>
<path fill="none" stroke="black" d="M369.65,-365.63C346.75,-355.98 313,-341.53 277.16,-324.94"/>
<polygon fill="black" stroke="black" points="278.55,-321.73 268.01,-320.68 275.6,-328.07 278.55,-321.73"/>
</g>
<!-- CapNProto -->
<g id="node28" class="node">
<title>CapNProto</title>
<polygon fill="yellowgreen" stroke="black" points="423.48,-108 328.48,-108 328.48,-72 429.48,-72 429.48,-102 423.48,-108"/>
<polyline fill="none" stroke="black" points="423.48,-108 423.48,-102 "/>
<polyline fill="none" stroke="black" points="429.48,-102 423.48,-102 "/>
<text text-anchor="middle" x="378.98" y="-86.3" font-family="Times,serif" font-size="14.00">Cap&#39;n Proto</text>
</g>
<!-- ESI&#45;&gt;CapNProto -->
<g id="edge36" class="edge">
<title>ESI&#45;&gt;CapNProto</title>
<path fill="none" stroke="black" d="M404.46,-359.7C408.45,-349.52 412.95,-336.27 414.98,-324 427.3,-249.41 403.1,-161.17 388.67,-117.8"/>
<polygon fill="black" stroke="black" points="391.95,-116.6 385.41,-108.27 385.33,-118.86 391.95,-116.6"/>
</g>
<!-- FSM&#45;&gt;HW -->
<g id="edge12" class="edge">
<title>FSM&#45;&gt;HW</title>
<path fill="none" stroke="black" d="M218.39,-359.7C221.77,-351.81 225.85,-342.3 229.6,-333.55"/>
<polygon fill="black" stroke="black" points="232.92,-334.67 233.65,-324.1 226.49,-331.92 232.92,-334.67"/>
</g>
<!-- SVFile -->
<g id="node27" class="node">
<title>SVFile</title>
<polygon fill="yellowgreen" stroke="black" points="239.98,-108 191.98,-108 191.98,-72 245.98,-72 245.98,-102 239.98,-108"/>
<polyline fill="none" stroke="black" points="239.98,-108 239.98,-102 "/>
<polyline fill="none" stroke="black" points="245.98,-102 239.98,-102 "/>
<text text-anchor="middle" x="218.98" y="-86.3" font-family="Times,serif" font-size="14.00">.sv</text>
</g>
<!-- ExportVerilog&#45;&gt;SVFile -->
<g id="edge28" class="edge">
<title>ExportVerilog&#45;&gt;SVFile</title>
<path fill="none" stroke="black" d="M275.9,-215.79C260.9,-207.13 244.92,-195.21 234.98,-180 223.06,-161.76 219.36,-137.15 218.47,-118.43"/>
<polygon fill="black" stroke="black" points="221.97,-118.09 218.23,-108.18 214.97,-118.26 221.97,-118.09"/>
</g>
<!-- FIRRTLParser -->
<g id="node18" class="node">
<title>FIRRTLParser</title>
<polygon fill="darksalmon" stroke="black" points="470.98,-468 348.98,-468 348.98,-432 470.98,-432 470.98,-468"/>
<text text-anchor="middle" x="409.98" y="-446.3" font-family="Times,serif" font-size="14.00">FIRRTL Parser</text>
</g>
<!-- FIRRTLParser&#45;&gt;FIRRTL -->
<g id="edge20" class="edge">
<title>FIRRTLParser&#45;&gt;FIRRTL</title>
<path fill="none" stroke="black" d="M380.13,-431.88C364.03,-422.64 343.98,-411.13 326.69,-401.21"/>
<polygon fill="black" stroke="black" points="328.35,-398.13 317.94,-396.19 324.87,-404.2 328.35,-398.13"/>
</g>
<!-- Scheduling&#45;&gt;StaticLogic -->
<g id="edge18" class="edge">
<title>Scheduling&#45;&gt;StaticLogic</title>
<path fill="none" stroke="black" d="M216.59,-565.67C216.51,-560.55 216.44,-555.21 216.36,-550.1"/>
<polygon fill="black" stroke="black" points="213.09,-565.75 216.73,-575.7 220.09,-565.65 213.09,-565.75"/>
<polygon fill="black" stroke="black" points="219.86,-550.05 216.22,-540.1 212.86,-550.15 219.86,-550.05"/>
</g>
<!-- llhd_sim&#45;&gt;Circilator -->
<!-- VCDTrace -->
<g id="node25" class="node">
<title>VCDTrace</title>
<polygon fill="yellowgreen" stroke="black" points="307.98,-108 259.98,-108 259.98,-72 313.98,-72 313.98,-102 307.98,-108"/>
<polyline fill="none" stroke="black" points="307.98,-108 307.98,-102 "/>
<polyline fill="none" stroke="black" points="313.98,-102 307.98,-102 "/>
<text text-anchor="middle" x="286.98" y="-86.3" font-family="Times,serif" font-size="14.00">.vcd</text>
</g>
<!-- llhd_sim&#45;&gt;VCDTrace -->
<g id="edge34" class="edge">
<title>llhd_sim&#45;&gt;VCDTrace</title>
<path fill="none" stroke="black" d="M286.98,-143.7C286.98,-135.98 286.98,-126.71 286.98,-118.11"/>
<polygon fill="black" stroke="black" points="290.48,-118.1 286.98,-108.1 283.48,-118.1 290.48,-118.1"/>
</g>
<!-- llhd_sim&#45;&gt;SVFile -->
<!-- llhd_sim&#45;&gt;CapNProto -->
<!-- llhd_sim&#45;&gt;TCL -->
<!-- PyCDE -->
<g id="node21" class="node">
<title>PyCDE</title>
<polygon fill="darksalmon" stroke="black" points="552.48,-468 485.48,-468 485.48,-432 552.48,-432 552.48,-468"/>
<text text-anchor="middle" x="518.98" y="-446.3" font-family="Times,serif" font-size="14.00">PyCDE</text>
</g>
<!-- PyCDE&#45;&gt;LLHD -->
<g id="edge42" class="edge">
<title>PyCDE&#45;&gt;LLHD</title>
<path fill="none" stroke="black" d="M485.22,-434.16C482.79,-433.36 480.36,-432.62 477.98,-432 412.81,-414.94 221.69,-446.38 176.98,-396 143.99,-358.84 165.97,-296.44 182.82,-261.23"/>
<polygon fill="black" stroke="black" points="186.06,-262.58 187.38,-252.07 179.79,-259.46 186.06,-262.58"/>
</g>
<!-- PyCDE&#45;&gt;HW -->
<g id="edge39" class="edge">
<title>PyCDE&#45;&gt;HW</title>
<path fill="none" stroke="black" d="M485.1,-434.55C482.7,-433.65 480.31,-432.79 477.98,-432 419.59,-412.15 389.38,-437.73 343.98,-396 331.45,-384.49 341.84,-373.09 330.98,-360 326.94,-355.13 300.58,-339.84 277.43,-326.92"/>
<polygon fill="black" stroke="black" points="278.88,-323.72 268.44,-321.93 275.48,-329.84 278.88,-323.72"/>
</g>
<!-- PyCDE&#45;&gt;Comb -->
<g id="edge40" class="edge">
<title>PyCDE&#45;&gt;Comb</title>
<path fill="none" stroke="black" d="M485.06,-434.66C482.67,-433.74 480.3,-432.84 477.98,-432 427.63,-413.73 404.5,-429.82 362.98,-396 348.79,-384.44 352.15,-375.84 342.98,-360 337.78,-351.03 331.95,-341.29 326.71,-332.64"/>
<polygon fill="black" stroke="black" points="329.7,-330.82 321.51,-324.09 323.72,-334.45 329.7,-330.82"/>
</g>
<!-- PyCDE&#45;&gt;Seq -->
<g id="edge41" class="edge">
<title>PyCDE&#45;&gt;Seq</title>
<path fill="none" stroke="black" d="M523.92,-431.7C526.15,-423.9 528.83,-414.51 531.31,-405.83"/>
<polygon fill="black" stroke="black" points="534.71,-406.68 534.09,-396.1 527.98,-404.76 534.71,-406.68"/>
</g>
<!-- PyCDE&#45;&gt;ESI -->
<g id="edge43" class="edge">
<title>PyCDE&#45;&gt;ESI</title>
<path fill="none" stroke="black" stroke-dasharray="5,2" d="M489.13,-431.88C472.19,-422.16 450.87,-409.92 433,-399.67"/>
<polygon fill="black" stroke="black" points="434.43,-396.46 424.02,-394.51 430.95,-402.53 434.43,-396.46"/>
</g>
<!-- Moore -->
<g id="node22" class="node">
<title>Moore</title>
<polygon fill="gold" stroke="black" points="119.71,-226.54 119.71,-241.46 94.09,-252 57.86,-252 32.24,-241.46 32.24,-226.54 57.86,-216 94.09,-216 119.71,-226.54"/>
<text text-anchor="middle" x="75.98" y="-230.3" font-family="Times,serif" font-size="14.00">Moore</text>
</g>
<!-- Moore&#45;&gt;LLHD -->
<g id="edge24" class="edge">
<title>Moore&#45;&gt;LLHD</title>
<path fill="none" stroke="black" d="M119.93,-234C132.52,-234 145.11,-234 157.69,-234"/>
<polygon fill="black" stroke="black" points="157.79,-237.5 167.79,-234 157.79,-230.5 157.79,-237.5"/>
</g>
<!-- CPPFile -->
<g id="node26" class="node">
<title>CPPFile</title>
<polygon fill="yellowgreen" stroke="black" points="139.98,-36 91.98,-36 91.98,0 145.98,0 145.98,-30 139.98,-36"/>
<polyline fill="none" stroke="black" points="139.98,-36 139.98,-30 "/>
<polyline fill="none" stroke="black" points="145.98,-30 139.98,-30 "/>
<text text-anchor="middle" x="118.98" y="-14.3" font-family="Times,serif" font-size="14.00">.cpp</text>
</g>
<!-- Circilator&#45;&gt;CPPFile -->
<g id="edge29" class="edge">
<title>Circilator&#45;&gt;CPPFile</title>
<path fill="none" stroke="black" stroke-dasharray="5,2" d="M118.98,-71.7C118.98,-63.98 118.98,-54.71 118.98,-46.11"/>
<polygon fill="black" stroke="black" points="122.48,-46.1 118.98,-36.1 115.48,-46.1 122.48,-46.1"/>
</g>
<!-- Calyx_native&#45;&gt;SVFile -->
<g id="edge35" class="edge">
<title>Calyx_native&#45;&gt;SVFile</title>
<path fill="none" stroke="black" d="M57.55,-359.6C48.58,-350 38.55,-337.34 32.98,-324 14.41,-279.6 1.94,-258.26 24.98,-216 33.75,-199.91 129.03,-143 182.72,-111.81"/>
<polygon fill="black" stroke="black" points="184.69,-114.71 191.59,-106.67 181.19,-108.65 184.69,-114.71"/>
</g>
<!-- SVVHDL -->
<g id="node31" class="node">
<title>SVVHDL</title>
<polygon fill="yellowgreen" stroke="black" points="105.98,-324 39.98,-324 39.98,-288 111.98,-288 111.98,-318 105.98,-324"/>
<polyline fill="none" stroke="black" points="105.98,-324 105.98,-318 "/>
<polyline fill="none" stroke="black" points="111.98,-318 105.98,-318 "/>
<text text-anchor="middle" x="75.98" y="-302.3" font-family="Times,serif" font-size="14.00">.sv/.vhd</text>
</g>
<!-- Calyx_native&#45;&gt;SVVHDL -->
<!-- FIRFile -->
<g id="node30" class="node">
<title>FIRFile</title>
<polygon fill="yellowgreen" stroke="black" points="629.98,-612 581.98,-612 581.98,-576 635.98,-576 635.98,-606 629.98,-612"/>
<polyline fill="none" stroke="black" points="629.98,-612 629.98,-606 "/>
<polyline fill="none" stroke="black" points="635.98,-606 629.98,-606 "/>
<text text-anchor="middle" x="608.98" y="-590.3" font-family="Times,serif" font-size="14.00">.fir</text>
</g>
<!-- FIRFile&#45;&gt;FIRRTLParser -->
<g id="edge19" class="edge">
<title>FIRFile&#45;&gt;FIRRTLParser</title>
<path fill="none" stroke="black" d="M584.97,-575.87C549.34,-550.44 482.37,-502.65 442.4,-474.14"/>
<polygon fill="black" stroke="black" points="444.24,-471.15 434.07,-468.19 440.17,-476.85 444.24,-471.15"/>
</g>
<!-- PyFile -->
<g id="node32" class="node">
<title>PyFile</title>
<polygon fill="yellowgreen" stroke="black" points="629.98,-540 581.98,-540 581.98,-504 635.98,-504 635.98,-534 629.98,-540"/>
<polyline fill="none" stroke="black" points="629.98,-540 629.98,-534 "/>
<polyline fill="none" stroke="black" points="635.98,-534 629.98,-534 "/>
<text text-anchor="middle" x="608.98" y="-518.3" font-family="Times,serif" font-size="14.00">.py</text>
</g>
<!-- FIRFile&#45;&gt;PyFile -->
<!-- SVVHDL&#45;&gt;Moore -->
<g id="edge23" class="edge">
<title>SVVHDL&#45;&gt;Moore</title>
<path fill="none" stroke="black" d="M75.98,-287.7C75.98,-279.98 75.98,-270.71 75.98,-262.11"/>
<polygon fill="black" stroke="black" points="79.48,-262.1 75.98,-252.1 72.48,-262.1 79.48,-262.1"/>
</g>
<!-- PyFile&#45;&gt;PyCDE -->
<g id="edge38" class="edge">
<title>PyFile&#45;&gt;PyCDE</title>
<path fill="none" stroke="black" d="M586.73,-503.7C575.4,-494.88 561.45,-484.03 549.16,-474.47"/>
<polygon fill="black" stroke="black" points="551.01,-471.48 540.97,-468.1 546.71,-477.01 551.01,-471.48"/>
</g>
</g>
</svg>
