<?xml version="1.0" encoding="UTF-8" standalone="no"?>
<!DOCTYPE svg PUBLIC "-//W3C//DTD SVG 1.1//EN"
 "http://www.w3.org/Graphics/SVG/1.1/DTD/svg11.dtd">
<!-- Generated by graphviz version 2.43.0 (0)
 -->
<!-- Title: G Pages: 1 -->
<svg width="765pt" height="992pt"
 viewBox="0.00 0.00 764.87 992.00" xmlns="http://www.w3.org/2000/svg" xmlns:xlink="http://www.w3.org/1999/xlink">
<g id="graph0" class="graph" transform="scale(1 1) rotate(0) translate(4 988)">
<title>G</title>
<polygon fill="white" stroke="transparent" points="-4,4 -4,-988 760.87,-988 760.87,4 -4,4"/>
<g id="clust1" class="cluster">
<title>cluster_mlir_frontends</title>
<polygon fill="none" stroke="black" points="159.87,-901 159.87,-976 399.87,-976 399.87,-901 159.87,-901"/>
<text text-anchor="middle" x="279.87" y="-960.8" font-family="Times,serif" font-size="14.00">Upstream frontends (selection)</text>
</g>
<g id="clust2" class="cluster">
<title>cluster_mlir</title>
<polygon fill="none" stroke="black" points="109.87,-802 109.87,-893 397.87,-893 397.87,-802 109.87,-802"/>
<text text-anchor="middle" x="253.87" y="-877.8" font-family="Times,serif" font-size="14.00">Upstream MLIR</text>
</g>
<g id="clust3" class="cluster">
<title>cluster_std_arith_dialect</title>
<polygon fill="none" stroke="black" points="251.87,-810 251.87,-862 389.87,-862 389.87,-810 251.87,-810"/>
</g>
<g id="clust4" class="cluster">
<title>cluster_circt</title>
<polygon fill="none" stroke="black" points="155.87,-212 155.87,-794 655.87,-794 655.87,-212 155.87,-212"/>
<text text-anchor="middle" x="405.87" y="-778.8" font-family="Times,serif" font-size="14.00">CIRCT</text>
</g>
<g id="clust6" class="cluster">
<title>cluster_RTL</title>
<polygon fill="none" stroke="black" points="178.87,-356 178.87,-431 472.87,-431 472.87,-356 178.87,-356"/>
<text text-anchor="middle" x="325.87" y="-415.8" font-family="Times,serif" font-size="14.00">Core dialects</text>
</g>
<g id="clust9" class="cluster">
<title>cluster_input_langs</title>
<polygon fill="none" stroke="black" points="407.87,-901 407.87,-976 748.87,-976 748.87,-901 407.87,-901"/>
<text text-anchor="middle" x="578.37" y="-960.8" font-family="Times,serif" font-size="14.00">Input languages</text>
</g>
<!-- PyTorch -->
<g id="node1" class="node">
<title>PyTorch</title>
<polygon fill="white" stroke="black" points="391.87,-945 317.87,-945 317.87,-909 391.87,-909 391.87,-945"/>
<text text-anchor="middle" x="354.87" y="-923.3" font-family="Times,serif" font-size="14.00">PyTorch</text>
</g>
<!-- CF -->
<g id="node5" class="node">
<title>CF</title>
<polygon fill="#beaed4" stroke="black" points="381.87,-854 327.87,-854 327.87,-818 381.87,-818 381.87,-854"/>
<text text-anchor="middle" x="354.87" y="-832.3" font-family="Times,serif" font-size="14.00">CF</text>
</g>
<!-- PyTorch&#45;&gt;CF -->
<g id="edge1" class="edge">
<title>PyTorch&#45;&gt;CF</title>
<path fill="none" stroke="black" d="M350.62,-908.84C350.47,-907.06 350.34,-905.19 350.22,-903.24"/>
<polygon fill="black" stroke="black" points="353.7,-902.84 349.78,-893 346.71,-903.14 353.7,-902.84"/>
</g>
<!-- PyTorch&#45;&gt;CF -->
<!-- Polygeist -->
<g id="node2" class="node">
<title>Polygeist</title>
<polygon fill="white" stroke="black" points="303.87,-945 221.87,-945 221.87,-909 303.87,-909 303.87,-945"/>
<text text-anchor="middle" x="262.87" y="-923.3" font-family="Times,serif" font-size="14.00">Polygeist</text>
</g>
<!-- Affine -->
<g id="node4" class="node">
<title>Affine</title>
<polygon fill="#beaed4" stroke="black" points="243.87,-854 185.87,-854 185.87,-818 243.87,-818 243.87,-854"/>
<text text-anchor="middle" x="214.87" y="-832.3" font-family="Times,serif" font-size="14.00">Affine</text>
</g>
<!-- Polygeist&#45;&gt;Affine -->
<g id="edge2" class="edge">
<title>Polygeist&#45;&gt;Affine</title>
<path fill="none" stroke="black" d="M253.61,-908.84C252.49,-906.77 251.3,-904.56 250.07,-902.26"/>
<polygon fill="black" stroke="black" points="252.89,-900.14 245.07,-893 246.73,-903.46 252.89,-900.14"/>
</g>
<!-- Polygeist&#45;&gt;CF -->
<!-- SCF -->
<g id="node3" class="node">
<title>SCF</title>
<polygon fill="#beaed4" stroke="black" points="171.87,-854 117.87,-854 117.87,-818 171.87,-818 171.87,-854"/>
<text text-anchor="middle" x="144.87" y="-832.3" font-family="Times,serif" font-size="14.00">SCF</text>
</g>
<!-- Calyx -->
<g id="node11" class="node">
<title>Calyx</title>
<g id="a_node11"><a xlink:href="https://circt.llvm.org/docs/Dialects/Calyx/" xlink:title="Calyx">
<polygon fill="white" stroke="black" points="219.87,-619 163.87,-619 163.87,-583 219.87,-583 219.87,-619"/>
<text text-anchor="middle" x="191.87" y="-597.3" font-family="Times,serif" font-size="14.00">Calyx</text>
</a>
</g>
</g>
<!-- SCF&#45;&gt;Calyx -->
<g id="edge3" class="edge">
<title>SCF&#45;&gt;Calyx</title>
<path fill="none" stroke="black" d="M148.32,-817.87C156.4,-777.81 176.59,-677.75 186.37,-629.23"/>
<polygon fill="black" stroke="black" points="189.86,-629.65 188.41,-619.16 183,-628.27 189.86,-629.65"/>
</g>
<!-- Pipeline -->
<g id="node13" class="node">
<title>Pipeline</title>
<g id="a_node13"><a xlink:href="https://circt.llvm.org/docs/Dialects/Pipeline/" xlink:title="Pipeline">
<polygon fill="white" stroke="black" points="377.87,-691 303.87,-691 303.87,-655 377.87,-655 377.87,-691"/>
<text text-anchor="middle" x="340.87" y="-669.3" font-family="Times,serif" font-size="14.00">Pipeline</text>
</a>
</g>
</g>
<!-- Affine&#45;&gt;Pipeline -->
<g id="edge4" class="edge">
<title>Affine&#45;&gt;Pipeline</title>
<path fill="none" stroke="black" d="M228.35,-817.77C250.61,-789.32 295.16,-732.4 321.02,-699.36"/>
<polygon fill="black" stroke="black" points="324.07,-701.14 327.48,-691.11 318.56,-696.82 324.07,-701.14"/>
</g>
<!-- Arith -->
<g id="node6" class="node">
<title>Arith</title>
<polygon fill="#beaed4" stroke="black" points="313.87,-854 259.87,-854 259.87,-818 313.87,-818 313.87,-854"/>
<text text-anchor="middle" x="286.87" y="-832.3" font-family="Times,serif" font-size="14.00">Arith</text>
</g>
<!-- Handshake -->
<g id="node10" class="node">
<title>Handshake</title>
<g id="a_node10"><a xlink:href="https://circt.llvm.org/docs/Dialects/Handshake/" xlink:title="Handshake">
<polygon fill="white" stroke="black" points="329.87,-619 233.87,-619 233.87,-583 329.87,-583 329.87,-619"/>
<text text-anchor="middle" x="281.87" y="-597.3" font-family="Times,serif" font-size="14.00">Handshake</text>
</a>
</g>
</g>
<!-- Arith&#45;&gt;Handshake -->
<g id="edge6" class="edge">
<title>Arith&#45;&gt;Handshake</title>
<path fill="none" stroke="black" d="M286.33,-810C285.38,-765.95 283.43,-674.83 282.45,-629.23"/>
<polygon fill="black" stroke="black" points="285.95,-629.08 282.23,-619.16 278.95,-629.23 285.95,-629.08"/>
</g>
<!-- Arith&#45;&gt;Calyx -->
<g id="edge7" class="edge">
<title>Arith&#45;&gt;Calyx</title>
<path fill="none" stroke="black" d="M276.67,-810C258.63,-765.75 221.23,-674.01 202.72,-628.62"/>
<polygon fill="black" stroke="black" points="205.88,-627.1 198.86,-619.16 199.4,-629.74 205.88,-627.1"/>
</g>
<!-- FIRRTLParser -->
<g id="node7" class="node">
<title>FIRRTLParser</title>
<polygon fill="#fdc086" stroke="black" points="461.37,-619 344.37,-619 344.37,-583 461.37,-583 461.37,-619"/>
<text text-anchor="middle" x="402.87" y="-597.3" font-family="Times,serif" font-size="14.00">FIRRTLParser</text>
</g>
<!-- FIRRTL -->
<g id="node12" class="node">
<title>FIRRTL</title>
<g id="a_node12"><a xlink:href="https://circt.llvm.org/docs/Dialects/FIRRTL/" xlink:title="FIRRTL">
<polygon fill="white" stroke="black" points="303.37,-547 232.37,-547 232.37,-511 303.37,-511 303.37,-547"/>
<text text-anchor="middle" x="267.87" y="-525.3" font-family="Times,serif" font-size="14.00">FIRRTL</text>
</a>
</g>
</g>
<!-- FIRRTLParser&#45;&gt;FIRRTL -->
<g id="edge26" class="edge">
<title>FIRRTLParser&#45;&gt;FIRRTL</title>
<path fill="none" stroke="black" d="M369.84,-582.88C351.78,-573.51 329.22,-561.81 309.92,-551.8"/>
<polygon fill="black" stroke="black" points="311.51,-548.69 301.02,-547.19 308.28,-554.9 311.51,-548.69"/>
</g>
<!-- PyCDE -->
<g id="node8" class="node">
<title>PyCDE</title>
<g id="a_node8"><a xlink:href="https://circt.llvm.org/docs/PyCDE/" xlink:title="PyCDE">
<polygon fill="#fdc086" stroke="black" points="542.37,-619 475.37,-619 475.37,-583 542.37,-583 542.37,-619"/>
<text text-anchor="middle" x="508.87" y="-597.3" font-family="Times,serif" font-size="14.00">PyCDE</text>
</a>
</g>
</g>
<!-- MSFT -->
<g id="node15" class="node">
<title>MSFT</title>
<g id="a_node15"><a xlink:href="https://circt.llvm.org/docs/Dialects/MSFT/" xlink:title="MSFT">
<polygon fill="white" stroke="black" points="537.37,-547 478.37,-547 478.37,-511 537.37,-511 537.37,-547"/>
<text text-anchor="middle" x="507.87" y="-525.3" font-family="Times,serif" font-size="14.00">MSFT</text>
</a>
</g>
</g>
<!-- PyCDE&#45;&gt;MSFT -->
<g id="edge41" class="edge">
<title>PyCDE&#45;&gt;MSFT</title>
<path fill="none" stroke="black" d="M508.62,-582.7C508.51,-574.98 508.38,-565.71 508.25,-557.11"/>
<polygon fill="black" stroke="black" points="511.75,-557.05 508.11,-547.1 504.75,-557.15 511.75,-557.05"/>
</g>
<!-- ESI -->
<g id="node16" class="node">
<title>ESI</title>
<g id="a_node16"><a xlink:href="https://circt.llvm.org/docs/Dialects/ESI/" xlink:title="ESI">
<polygon fill="white" stroke="black" points="371.87,-547 317.87,-547 317.87,-511 371.87,-511 371.87,-547"/>
<text text-anchor="middle" x="344.87" y="-525.3" font-family="Times,serif" font-size="14.00">ESI</text>
</a>
</g>
</g>
<!-- PyCDE&#45;&gt;ESI -->
<g id="edge42" class="edge">
<title>PyCDE&#45;&gt;ESI</title>
<path fill="none" stroke="black" d="M475.28,-585.66C473.11,-584.76 470.96,-583.86 468.87,-583 431.84,-567.73 419.84,-564.99 381.43,-548.03"/>
<polygon fill="black" stroke="black" points="382.8,-544.81 372.24,-543.93 379.94,-551.2 382.8,-544.81"/>
</g>
<!-- FSM -->
<g id="node17" class="node">
<title>FSM</title>
<g id="a_node17"><a xlink:href="https://circt.llvm.org/docs/Dialects/FSM/" xlink:title="FSM">
<polygon fill="white" stroke="black" points="217.87,-547 163.87,-547 163.87,-511 217.87,-511 217.87,-547"/>
<text text-anchor="middle" x="190.87" y="-525.3" font-family="Times,serif" font-size="14.00">FSM</text>
</a>
</g>
</g>
<!-- PyCDE&#45;&gt;FSM -->
<g id="edge43" class="edge">
<title>PyCDE&#45;&gt;FSM</title>
<path fill="none" stroke="black" d="M475.04,-584.93C472.97,-584.22 470.9,-583.57 468.87,-583 366.85,-554.28 332.21,-577.76 227.71,-547.11"/>
<polygon fill="black" stroke="black" points="228.64,-543.73 218.06,-544.18 226.61,-550.43 228.64,-543.73"/>
</g>
<!-- HWArith -->
<g id="node18" class="node">
<title>HWArith</title>
<g id="a_node18"><a xlink:href="https://circt.llvm.org/docs/Dialects/HWArith/" xlink:title="HWArith">
<polygon fill="white" stroke="black" points="463.87,-547 385.87,-547 385.87,-511 463.87,-511 463.87,-547"/>
<text text-anchor="middle" x="424.87" y="-525.3" font-family="Times,serif" font-size="14.00">HWArith</text>
</a>
</g>
</g>
<!-- PyCDE&#45;&gt;HWArith -->
<g id="edge44" class="edge">
<title>PyCDE&#45;&gt;HWArith</title>
<path fill="none" stroke="black" d="M488.1,-582.7C477.63,-573.97 464.76,-563.24 453.37,-553.75"/>
<polygon fill="black" stroke="black" points="455.31,-550.82 445.39,-547.1 450.83,-556.19 455.31,-550.82"/>
</g>
<!-- Scheduling -->
<g id="node9" class="node">
<title>Scheduling</title>
<g id="a_node9"><a xlink:href="https://circt.llvm.org/docs/Scheduling/" xlink:title="Scheduling">
<polygon fill="#fdc086" stroke="black" points="508.87,-763 412.87,-763 412.87,-727 508.87,-727 508.87,-763"/>
<text text-anchor="middle" x="460.87" y="-741.3" font-family="Times,serif" font-size="14.00">Scheduling</text>
</a>
</g>
</g>
<!-- Scheduling&#45;&gt;Pipeline -->
<g id="edge23" class="edge">
<title>Scheduling&#45;&gt;Pipeline</title>
<path fill="none" stroke="black" d="M422.44,-721.59C408.59,-713.51 392.97,-704.39 379.13,-696.32"/>
<polygon fill="black" stroke="black" points="421.11,-724.86 431.51,-726.88 424.64,-718.81 421.11,-724.86"/>
<polygon fill="black" stroke="black" points="380.74,-693.21 370.33,-691.19 377.21,-699.25 380.74,-693.21"/>
</g>
<!-- SSP -->
<g id="node14" class="node">
<title>SSP</title>
<g id="a_node14"><a xlink:href="https://circt.llvm.org/docs/Dialects/SSP/" xlink:title="SSP">
<polygon fill="white" stroke="black" points="487.87,-691 433.87,-691 433.87,-655 487.87,-655 487.87,-691"/>
<text text-anchor="middle" x="460.87" y="-669.3" font-family="Times,serif" font-size="14.00">SSP</text>
</a>
</g>
</g>
<!-- Scheduling&#45;&gt;SSP -->
<g id="edge45" class="edge">
<title>Scheduling&#45;&gt;SSP</title>
<path fill="none" stroke="black" d="M460.87,-716.67C460.87,-711.69 460.87,-706.49 460.87,-701.51"/>
<polygon fill="black" stroke="black" points="457.37,-716.7 460.87,-726.7 464.37,-716.7 457.37,-716.7"/>
<polygon fill="black" stroke="black" points="464.37,-701.1 460.87,-691.1 457.37,-701.1 464.37,-701.1"/>
</g>
<!-- Scheduling&#45;&gt;MSFT -->
<g id="edge46" class="edge">
<title>Scheduling&#45;&gt;MSFT</title>
<path fill="none" stroke="black" stroke-dasharray="5,2" d="M485.44,-719.54C507.15,-696.07 537.26,-658.44 549.87,-619 554.74,-603.76 555.13,-598.11 549.87,-583 546.33,-572.86 539.96,-563.19 533.23,-554.96"/>
<polygon fill="black" stroke="black" points="482.77,-717.28 478.44,-726.94 487.86,-722.09 482.77,-717.28"/>
<polygon fill="black" stroke="black" points="535.69,-552.46 526.47,-547.24 530.43,-557.07 535.69,-552.46"/>
</g>
<!-- Handshake&#45;&gt;FIRRTL -->
<g id="edge8" class="edge">
<title>Handshake&#45;&gt;FIRRTL</title>
<path fill="none" stroke="black" d="M278.41,-582.7C276.86,-574.98 275.01,-565.71 273.29,-557.11"/>
<polygon fill="black" stroke="black" points="276.68,-556.22 271.29,-547.1 269.82,-557.6 276.68,-556.22"/>
</g>
<!-- Calyx&#45;&gt;FSM -->
<g id="edge9" class="edge">
<title>Calyx&#45;&gt;FSM</title>
<path fill="none" stroke="black" d="M191.62,-582.7C191.51,-574.98 191.38,-565.71 191.25,-557.11"/>
<polygon fill="black" stroke="black" points="194.75,-557.05 191.11,-547.1 187.75,-557.15 194.75,-557.05"/>
</g>
<!-- Calyx_native -->
<g id="node33" class="node">
<title>Calyx_native</title>
<polygon fill="#ffff99" stroke="black" points="147.6,-521.54 147.6,-536.46 104.41,-547 43.33,-547 0.13,-536.46 0.13,-521.54 43.33,-511 104.41,-511 147.6,-521.54"/>
<text text-anchor="middle" x="73.87" y="-525.3" font-family="Times,serif" font-size="14.00">Calyx native</text>
</g>
<!-- Calyx&#45;&gt;Calyx_native -->
<g id="edge34" class="edge">
<title>Calyx&#45;&gt;Calyx_native</title>
<path fill="none" stroke="black" d="M163.6,-583.23C148.07,-574.02 128.59,-562.47 111.76,-552.48"/>
<polygon fill="black" stroke="black" points="113.11,-549.21 102.72,-547.12 109.53,-555.23 113.11,-549.21"/>
</g>
<!-- lower_to_sv_and_core -->
<g id="node20" class="node">
<title>lower_to_sv_and_core</title>
<ellipse fill="black" stroke="black" cx="229.87" cy="-457" rx="1.8" ry="1.8"/>
</g>
<!-- FIRRTL&#45;&gt;lower_to_sv_and_core -->
<g id="edge13" class="edge">
<title>FIRRTL&#45;&gt;lower_to_sv_and_core</title>
<path fill="none" stroke="black" d="M258.47,-510.7C248.28,-491.91 233.07,-463.9 230.3,-458.81"/>
</g>
<!-- space_above_RTL -->
<!-- FIRRTL&#45;&gt;space_above_RTL -->
<!-- Pipeline&#45;&gt;Calyx -->
<g id="edge5" class="edge">
<title>Pipeline&#45;&gt;Calyx</title>
<path fill="none" stroke="black" d="M303.83,-654.97C283.67,-645.66 258.09,-633.78 229.5,-620.23"/>
<polygon fill="black" stroke="black" points="230.65,-616.9 220.12,-615.77 227.65,-623.22 230.65,-616.9"/>
</g>
<!-- MSFT&#45;&gt;space_above_RTL -->
<!-- HW -->
<g id="node23" class="node">
<title>HW</title>
<g id="a_node23"><a xlink:href="https://circt.llvm.org/docs/Dialects/HW/" xlink:title="HW">
<polygon fill="white" stroke="black" points="464.87,-400 410.87,-400 410.87,-364 464.87,-364 464.87,-400"/>
<text text-anchor="middle" x="437.87" y="-378.3" font-family="Times,serif" font-size="14.00">HW</text>
</a>
</g>
</g>
<!-- MSFT&#45;&gt;HW -->
<g id="edge10" class="edge">
<title>MSFT&#45;&gt;HW</title>
<path fill="none" stroke="black" d="M499.56,-510.8C491.15,-493.38 477.68,-465.47 465.47,-440.18"/>
<polygon fill="black" stroke="black" points="468.54,-438.48 461.04,-431 462.23,-441.53 468.54,-438.48"/>
</g>
<!-- TCL -->
<g id="node43" class="node">
<title>TCL</title>
<polygon fill="#7fc97f" stroke="black" points="585.87,-111 459.87,-111 459.87,-75 591.87,-75 591.87,-105 585.87,-111"/>
<polyline fill="none" stroke="black" points="585.87,-111 585.87,-105 "/>
<polyline fill="none" stroke="black" points="591.87,-105 585.87,-105 "/>
<text text-anchor="middle" x="525.87" y="-89.3" font-family="Times,serif" font-size="14.00">Placements (tcl)</text>
</g>
<!-- MSFT&#45;&gt;TCL -->
<g id="edge39" class="edge">
<title>MSFT&#45;&gt;TCL</title>
<path fill="none" stroke="black" d="M523.35,-510.66C544.78,-484.81 580.87,-433.73 580.87,-383 580.87,-383 580.87,-383 580.87,-237 580.87,-193.74 558.67,-147.74 542.48,-119.93"/>
<polygon fill="black" stroke="black" points="545.41,-118.01 537.26,-111.23 539.41,-121.61 545.41,-118.01"/>
</g>
<!-- ESI&#45;&gt;lower_to_sv_and_core -->
<g id="edge14" class="edge">
<title>ESI&#45;&gt;lower_to_sv_and_core</title>
<path fill="none" stroke="black" d="M317.61,-511.41C286.26,-492.33 238.14,-463.04 230.82,-458.58"/>
</g>
<!-- ESI&#45;&gt;space_above_RTL -->
<!-- ServiceDesc -->
<g id="node41" class="node">
<title>ServiceDesc</title>
<polygon fill="#7fc97f" stroke="black" points="439.87,-112 263.87,-112 263.87,-74 445.87,-74 445.87,-106 439.87,-112"/>
<polyline fill="none" stroke="black" points="439.87,-112 439.87,-106 "/>
<polyline fill="none" stroke="black" points="445.87,-106 439.87,-106 "/>
<text text-anchor="middle" x="354.87" y="-96.8" font-family="Times,serif" font-size="14.00">ESI system description</text>
<text text-anchor="middle" x="354.87" y="-81.8" font-family="Times,serif" font-size="14.00">(JSON/Capnp)</text>
</g>
<!-- ESI&#45;&gt;ServiceDesc -->
<g id="edge38" class="edge">
<title>ESI&#45;&gt;ServiceDesc</title>
<path fill="none" stroke="black" d="M372.22,-512.13C428.26,-479.17 550.87,-404.59 550.87,-383 550.87,-383 550.87,-383 550.87,-237 550.87,-196.89 562.43,-178.05 535.87,-148 524.3,-134.92 491.04,-123.38 456.13,-114.36"/>
<polygon fill="black" stroke="black" points="456.81,-110.92 446.26,-111.88 455.11,-117.71 456.81,-110.92"/>
</g>
<!-- FSM&#45;&gt;lower_to_sv_and_core -->
<g id="edge15" class="edge">
<title>FSM&#45;&gt;lower_to_sv_and_core</title>
<path fill="none" stroke="black" d="M200.51,-510.7C210.97,-491.91 226.58,-463.9 229.42,-458.81"/>
</g>
<!-- FSM&#45;&gt;space_above_RTL -->
<!-- HWArith&#45;&gt;space_above_RTL -->
<!-- HWArith&#45;&gt;HW -->
<g id="edge11" class="edge">
<title>HWArith&#45;&gt;HW</title>
<path fill="none" stroke="black" d="M426.41,-510.8C427.95,-493.61 430.41,-466.21 432.65,-441.18"/>
<polygon fill="black" stroke="black" points="436.16,-441.27 433.56,-431 429.18,-440.65 436.16,-441.27"/>
</g>
<!-- MooreMIR -->
<g id="node19" class="node">
<title>MooreMIR</title>
<g id="a_node19"><a xlink:href="https://circt.llvm.org/docs/Dialects/Moore/" xlink:title="Moore MIR">
<polygon fill="white" stroke="black" points="648.37,-547 551.37,-547 551.37,-511 648.37,-511 648.37,-547"/>
<text text-anchor="middle" x="599.87" y="-525.3" font-family="Times,serif" font-size="14.00">Moore MIR</text>
</a>
</g>
</g>
<!-- MooreMIR&#45;&gt;space_above_RTL -->
<!-- MooreMIR&#45;&gt;HW -->
<g id="edge12" class="edge">
<title>MooreMIR&#45;&gt;HW</title>
<path fill="none" stroke="black" d="M556.84,-510.87C538.22,-502.05 517.03,-489.97 500.87,-475 486.93,-462.1 490.19,-453.44 477.87,-439 477.43,-438.49 477.02,-438.05 476.63,-437.65"/>
<polygon fill="black" stroke="black" points="478.74,-434.85 468.87,-431 474.18,-440.17 478.74,-434.85"/>
</g>
<!-- LLHD -->
<g id="node26" class="node">
<title>LLHD</title>
<g id="a_node26"><a xlink:href="https://circt.llvm.org/docs/Dialects/LLHD/" xlink:title="LLHD">
<polygon fill="white" stroke="black" points="510.87,-328 452.87,-328 452.87,-292 510.87,-292 510.87,-328"/>
<text text-anchor="middle" x="481.87" y="-306.3" font-family="Times,serif" font-size="14.00">LLHD</text>
</a>
</g>
</g>
<!-- MooreMIR&#45;&gt;LLHD -->
<g id="edge19" class="edge">
<title>MooreMIR&#45;&gt;LLHD</title>
<path fill="none" stroke="black" d="M590.61,-510.97C570.06,-473.19 520.56,-382.16 496.07,-337.12"/>
<polygon fill="black" stroke="black" points="499.1,-335.36 491.25,-328.25 492.95,-338.71 499.1,-335.36"/>
</g>
<!-- Seq -->
<g id="node22" class="node">
<title>Seq</title>
<g id="a_node22"><a xlink:href="https://circt.llvm.org/docs/Dialects/Seq/" xlink:title="Seq">
<polygon fill="white" stroke="black" points="324.87,-400 270.87,-400 270.87,-364 324.87,-364 324.87,-400"/>
<text text-anchor="middle" x="297.87" y="-378.3" font-family="Times,serif" font-size="14.00">Seq</text>
</a>
</g>
</g>
<!-- lower_to_sv_and_core&#45;&gt;Seq -->
<g id="edge17" class="edge">
<title>lower_to_sv_and_core&#45;&gt;Seq</title>
<path fill="none" stroke="black" d="M231.02,-455.34C234.65,-453.23 246.18,-446.33 256.43,-437.79"/>
<polygon fill="black" stroke="black" points="258.84,-440.33 263.87,-431 254.12,-435.16 258.84,-440.33"/>
</g>
<!-- SV -->
<g id="node27" class="node">
<title>SV</title>
<g id="a_node27"><a xlink:href="https://circt.llvm.org/docs/Dialects/SV/" xlink:title="SV">
<polygon fill="white" stroke="black" points="251.87,-328 197.87,-328 197.87,-292 251.87,-292 251.87,-328"/>
<text text-anchor="middle" x="224.87" y="-306.3" font-family="Times,serif" font-size="14.00">SV</text>
</a>
</g>
</g>
<!-- lower_to_sv_and_core&#45;&gt;SV -->
<g id="edge16" class="edge">
<title>lower_to_sv_and_core&#45;&gt;SV</title>
<path fill="none" stroke="black" d="M228.13,-455.84C220.33,-455.02 188.33,-450.5 175.87,-431 157.92,-402.91 162.46,-386.52 175.87,-356 179.34,-348.1 184.96,-340.97 191.18,-334.84"/>
<polygon fill="black" stroke="black" points="193.57,-337.41 198.67,-328.12 188.89,-332.2 193.57,-337.41"/>
</g>
<!-- space_above_RTL&#45;&gt;Seq -->
<!-- space_above_RTL&#45;&gt;HW -->
<!-- Comb -->
<g id="node24" class="node">
<title>Comb</title>
<g id="a_node24"><a xlink:href="https://circt.llvm.org/docs/Dialects/Comb/" xlink:title="Comb">
<polygon fill="white" stroke="black" points="396.87,-400 338.87,-400 338.87,-364 396.87,-364 396.87,-400"/>
<text text-anchor="middle" x="367.87" y="-378.3" font-family="Times,serif" font-size="14.00">Comb</text>
</a>
</g>
</g>
<!-- space_above_RTL&#45;&gt;Comb -->
<!-- Seq&#45;&gt;SV -->
<g id="edge18" class="edge">
<title>Seq&#45;&gt;SV</title>
<path fill="none" stroke="black" d="M279.82,-363.7C270.8,-355.05 259.75,-344.45 249.92,-335.03"/>
<polygon fill="black" stroke="black" points="252.34,-332.5 242.7,-328.1 247.5,-337.55 252.34,-332.5"/>
</g>
<!-- ExportVerilog -->
<g id="node31" class="node">
<title>ExportVerilog</title>
<g id="a_node31"><a xlink:href="https://circt.llvm.org/docs/VerilogGeneration/" xlink:title="ExportVerilog">
<polygon fill="#fdc086" stroke="black" points="282.87,-256 166.87,-256 166.87,-220 282.87,-220 282.87,-256"/>
<text text-anchor="middle" x="224.87" y="-234.3" font-family="Times,serif" font-size="14.00">ExportVerilog</text>
</a>
</g>
</g>
<!-- Seq&#45;&gt;ExportVerilog -->
<g id="edge30" class="edge">
<title>Seq&#45;&gt;ExportVerilog</title>
<path fill="none" stroke="black" d="M288.15,-356C280.81,-337.88 270.11,-312.99 258.87,-292 253.96,-282.84 248.02,-273.19 242.48,-264.66"/>
<polygon fill="black" stroke="black" points="245.35,-262.66 236.91,-256.25 239.51,-266.52 245.35,-262.66"/>
</g>
<!-- HW&#45;&gt;LLHD -->
<g id="edge20" class="edge">
<title>HW&#45;&gt;LLHD</title>
<path fill="none" stroke="black" d="M448.74,-363.7C453.86,-355.56 460.06,-345.69 465.71,-336.7"/>
<polygon fill="black" stroke="black" points="468.76,-338.43 471.12,-328.1 462.83,-334.71 468.76,-338.43"/>
</g>
<!-- llhd_sim -->
<g id="node29" class="node">
<title>llhd_sim</title>
<polygon fill="#fdc086" stroke="black" points="517.87,-256 443.87,-256 443.87,-220 517.87,-220 517.87,-256"/>
<text text-anchor="middle" x="480.87" y="-234.3" font-family="Times,serif" font-size="14.00">llhd&#45;sim</text>
</g>
<!-- HW&#45;&gt;llhd_sim -->
<g id="edge31" class="edge">
<title>HW&#45;&gt;llhd_sim</title>
<path fill="none" stroke="black" d="M436.88,-356C436.93,-337.77 438.61,-312.74 445.87,-292 449.22,-282.42 454.68,-272.88 460.31,-264.59"/>
<polygon fill="black" stroke="black" points="463.16,-266.61 466.15,-256.45 457.48,-262.53 463.16,-266.61"/>
</g>
<!-- SystemC -->
<g id="node28" class="node">
<title>SystemC</title>
<g id="a_node28"><a xlink:href="https://circt.llvm.org/docs/Dialects/SystemC/" xlink:title="SystemC">
<polygon fill="white" stroke="black" points="405.87,-328 325.87,-328 325.87,-292 405.87,-292 405.87,-328"/>
<text text-anchor="middle" x="365.87" y="-306.3" font-family="Times,serif" font-size="14.00">SystemC</text>
</a>
</g>
</g>
<!-- Comb&#45;&gt;SystemC -->
<g id="edge21" class="edge">
<title>Comb&#45;&gt;SystemC</title>
<path fill="none" stroke="black" d="M367.15,-356C366.99,-350.2 366.81,-344 366.64,-338.11"/>
<polygon fill="black" stroke="black" points="370.14,-338 366.36,-328.1 363.14,-338.2 370.14,-338"/>
</g>
<!-- Interop -->
<g id="node25" class="node">
<title>Interop</title>
<g id="a_node25"><a xlink:href="https://circt.llvm.org/docs/Dialects/Interop/" xlink:title="Interop">
<polygon fill="white" stroke="black" points="256.37,-400 187.37,-400 187.37,-364 256.37,-364 256.37,-400"/>
<text text-anchor="middle" x="221.87" y="-378.3" font-family="Times,serif" font-size="14.00">Interop</text>
</a>
</g>
</g>
<!-- LLHD&#45;&gt;llhd_sim -->
<g id="edge36" class="edge">
<title>LLHD&#45;&gt;llhd_sim</title>
<path fill="none" stroke="black" d="M481.62,-291.7C481.51,-283.98 481.38,-274.71 481.25,-266.11"/>
<polygon fill="black" stroke="black" points="484.75,-266.05 481.11,-256.1 477.75,-266.15 484.75,-266.05"/>
</g>
<!-- SV&#45;&gt;ExportVerilog -->
<g id="edge29" class="edge">
<title>SV&#45;&gt;ExportVerilog</title>
<path fill="none" stroke="black" d="M224.87,-291.7C224.87,-283.98 224.87,-274.71 224.87,-266.11"/>
<polygon fill="black" stroke="black" points="228.37,-266.1 224.87,-256.1 221.37,-266.1 228.37,-266.1"/>
</g>
<!-- ExportSystemC -->
<g id="node30" class="node">
<title>ExportSystemC</title>
<polygon fill="#fdc086" stroke="black" points="428.37,-256 299.37,-256 299.37,-220 428.37,-220 428.37,-256"/>
<text text-anchor="middle" x="363.87" y="-234.3" font-family="Times,serif" font-size="14.00">ExportSystemC</text>
</g>
<!-- SystemC&#45;&gt;ExportSystemC -->
<g id="edge27" class="edge">
<title>SystemC&#45;&gt;ExportSystemC</title>
<path fill="none" stroke="black" d="M365.37,-291.7C365.15,-283.98 364.89,-274.71 364.64,-266.11"/>
<polygon fill="black" stroke="black" points="368.14,-266 364.36,-256.1 361.14,-266.2 368.14,-266"/>
</g>
<!-- VCDTrace -->
<g id="node38" class="node">
<title>VCDTrace</title>
<polygon fill="#7fc97f" stroke="black" points="522.87,-184 432.87,-184 432.87,-148 528.87,-148 528.87,-178 522.87,-184"/>
<polyline fill="none" stroke="black" points="522.87,-184 522.87,-178 "/>
<polyline fill="none" stroke="black" points="528.87,-178 522.87,-178 "/>
<text text-anchor="middle" x="480.87" y="-162.3" font-family="Times,serif" font-size="14.00">Trace (vcd)</text>
</g>
<!-- llhd_sim&#45;&gt;VCDTrace -->
<g id="edge37" class="edge">
<title>llhd_sim&#45;&gt;VCDTrace</title>
<path fill="none" stroke="black" d="M480.87,-219.7C480.87,-211.98 480.87,-202.71 480.87,-194.11"/>
<polygon fill="black" stroke="black" points="484.37,-194.1 480.87,-184.1 477.37,-194.1 484.37,-194.1"/>
</g>
<!-- SystemCFile -->
<g id="node39" class="node">
<title>SystemCFile</title>
<polygon fill="#7fc97f" stroke="black" points="412.37,-184 291.37,-184 291.37,-148 418.37,-148 418.37,-178 412.37,-184"/>
<polyline fill="none" stroke="black" points="412.37,-184 412.37,-178 "/>
<polyline fill="none" stroke="black" points="418.37,-178 412.37,-178 "/>
<text text-anchor="middle" x="354.87" y="-162.3" font-family="Times,serif" font-size="14.00">SystemC (c++)</text>
</g>
<!-- ExportSystemC&#45;&gt;SystemCFile -->
<g id="edge28" class="edge">
<title>ExportSystemC&#45;&gt;SystemCFile</title>
<path fill="none" stroke="black" d="M361.64,-219.7C360.65,-211.98 359.46,-202.71 358.35,-194.11"/>
<polygon fill="black" stroke="black" points="361.81,-193.58 357.07,-184.1 354.87,-194.47 361.81,-193.58"/>
</g>
<!-- SVFile -->
<g id="node40" class="node">
<title>SVFile</title>
<polygon fill="#7fc97f" stroke="black" points="270.87,-184 156.87,-184 156.87,-148 276.87,-148 276.87,-178 270.87,-184"/>
<polyline fill="none" stroke="black" points="270.87,-184 270.87,-178 "/>
<polyline fill="none" stroke="black" points="276.87,-178 270.87,-178 "/>
<text text-anchor="middle" x="216.87" y="-162.3" font-family="Times,serif" font-size="14.00">SystemVerilog</text>
</g>
<!-- ExportVerilog&#45;&gt;SVFile -->
<g id="edge22" class="edge">
<title>ExportVerilog&#45;&gt;SVFile</title>
<path fill="none" stroke="black" d="M222.89,-219.7C222.01,-211.98 220.95,-202.71 219.97,-194.11"/>
<polygon fill="black" stroke="black" points="223.43,-193.64 218.82,-184.1 216.48,-194.44 223.43,-193.64"/>
</g>
<!-- Moore -->
<g id="node32" class="node">
<title>Moore</title>
<polygon fill="#ffff99" stroke="black" points="726.6,-828.54 726.6,-843.46 700.98,-854 664.75,-854 639.13,-843.46 639.13,-828.54 664.75,-818 700.98,-818 726.6,-828.54"/>
<text text-anchor="middle" x="682.87" y="-832.3" font-family="Times,serif" font-size="14.00">Moore</text>
</g>
<!-- Moore&#45;&gt;MooreMIR -->
<g id="edge33" class="edge">
<title>Moore&#45;&gt;MooreMIR</title>
<path fill="none" stroke="black" d="M678.17,-817.73C664.36,-766.98 623.83,-618.06 607.16,-556.8"/>
<polygon fill="black" stroke="black" points="610.52,-555.81 604.52,-547.08 603.76,-557.65 610.52,-555.81"/>
</g>
<!-- Calyx_native&#45;&gt;lower_to_sv_and_core -->
<g id="edge35" class="edge">
<title>Calyx_native&#45;&gt;lower_to_sv_and_core</title>
<path fill="none" stroke="black" d="M109.27,-512.12C152.06,-492.92 219.52,-462.64 228.8,-458.48"/>
</g>
<!-- FIRFile -->
<g id="node34" class="node">
<title>FIRFile</title>
<polygon fill="#7fc97f" stroke="black" points="481.87,-854 433.87,-854 433.87,-818 487.87,-818 487.87,-848 481.87,-854"/>
<polyline fill="none" stroke="black" points="481.87,-854 481.87,-848 "/>
<polyline fill="none" stroke="black" points="487.87,-848 481.87,-848 "/>
<text text-anchor="middle" x="460.87" y="-832.3" font-family="Times,serif" font-size="14.00">.fir</text>
</g>
<!-- FIRFile&#45;&gt;FIRRTLParser -->
<g id="edge25" class="edge">
<title>FIRFile&#45;&gt;FIRRTLParser</title>
<path fill="none" stroke="black" d="M488.11,-821.81C498.81,-815.09 509.94,-805.82 515.87,-794 529.22,-767.39 520.08,-756.48 515.87,-727 511.15,-694 515.46,-681.21 494.87,-655 484.87,-642.28 470.91,-632.05 456.89,-624.1"/>
<polygon fill="black" stroke="black" points="458.17,-620.82 447.7,-619.2 454.88,-627 458.17,-620.82"/>
</g>
<!-- FIRFile&#45;&gt;Scheduling -->
<!-- Chisel -->
<g id="node35" class="node">
<title>Chisel</title>
<polygon fill="#ffff99" stroke="black" points="501.69,-919.54 501.69,-934.46 476.61,-945 441.13,-945 416.04,-934.46 416.04,-919.54 441.13,-909 476.61,-909 501.69,-919.54"/>
<text text-anchor="middle" x="458.87" y="-923.3" font-family="Times,serif" font-size="14.00">Chisel</text>
</g>
<!-- Chisel&#45;&gt;CF -->
<!-- Chisel&#45;&gt;FIRFile -->
<g id="edge24" class="edge">
<title>Chisel&#45;&gt;FIRFile</title>
<path fill="none" stroke="black" d="M459.25,-908.84C459.53,-896.28 459.92,-878.98 460.25,-864.5"/>
<polygon fill="black" stroke="black" points="463.76,-864.18 460.48,-854.11 456.76,-864.03 463.76,-864.18"/>
</g>
<!-- SVVHDL -->
<g id="node36" class="node">
<title>SVVHDL</title>
<polygon fill="#ffff99" stroke="black" points="741.15,-919.54 741.15,-934.46 707.01,-945 658.73,-945 624.59,-934.46 624.59,-919.54 658.73,-909 707.01,-909 741.15,-919.54"/>
<text text-anchor="middle" x="682.87" y="-923.3" font-family="Times,serif" font-size="14.00">SV/VHDL</text>
</g>
<!-- SVVHDL&#45;&gt;Moore -->
<g id="edge32" class="edge">
<title>SVVHDL&#45;&gt;Moore</title>
<path fill="none" stroke="black" d="M682.87,-908.84C682.87,-896.28 682.87,-878.98 682.87,-864.5"/>
<polygon fill="black" stroke="black" points="686.37,-864.11 682.87,-854.11 679.37,-864.11 686.37,-864.11"/>
</g>
<!-- PyFile -->
<g id="node37" class="node">
<title>PyFile</title>
<polygon fill="#ffff99" stroke="black" points="610.14,-919.54 610.14,-934.46 582.45,-945 543.29,-945 515.6,-934.46 515.6,-919.54 543.29,-909 582.45,-909 610.14,-919.54"/>
<text text-anchor="middle" x="562.87" y="-923.3" font-family="Times,serif" font-size="14.00">Python</text>
</g>
<!-- PyFile&#45;&gt;PyCDE -->
<g id="edge40" class="edge">
<title>PyFile&#45;&gt;PyCDE</title>
<path fill="none" stroke="black" d="M560.05,-908.96C554.37,-874.56 541.11,-794.36 529.87,-727 524.26,-693.38 517.75,-654.69 513.48,-629.37"/>
<polygon fill="black" stroke="black" points="516.91,-628.67 511.8,-619.39 510.01,-629.83 516.91,-628.67"/>
</g>
<!-- SystemCFile&#45;&gt;ServiceDesc -->
<!-- SystemCFile&#45;&gt;TCL -->
<!-- SoftwareAPI -->
<g id="node42" class="node">
<title>SoftwareAPI</title>
<polygon fill="none" stroke="black" stroke-dasharray="5,2" points="416.37,-38 287.37,-38 287.37,0 422.37,0 422.37,-32 416.37,-38"/>
<polyline fill="none" stroke="black" stroke-dasharray="5,2" points="416.37,-38 416.37,-32 "/>
<polyline fill="none" stroke="black" stroke-dasharray="5,2" points="422.37,-32 416.37,-32 "/>
<text text-anchor="middle" x="354.87" y="-22.8" font-family="Times,serif" font-size="14.00">Software API</text>
<text text-anchor="middle" x="354.87" y="-7.8" font-family="Times,serif" font-size="14.00">(e.g. py/c++/c#)</text>
</g>
<!-- ServiceDesc&#45;&gt;SoftwareAPI -->
<g id="edge47" class="edge">
<title>ServiceDesc&#45;&gt;SoftwareAPI</title>
<path fill="none" stroke="black" stroke-dasharray="5,2" d="M354.87,-73.83C354.87,-66.13 354.87,-56.97 354.87,-48.42"/>
<polygon fill="black" stroke="black" points="358.37,-48.41 354.87,-38.41 351.37,-48.41 358.37,-48.41"/>
</g>
</g>
</svg>
