<?xml version="1.0" encoding="UTF-8" standalone="no"?>
<!DOCTYPE svg PUBLIC "-//W3C//DTD SVG 1.1//EN"
 "http://www.w3.org/Graphics/SVG/1.1/DTD/svg11.dtd">
<!-- Generated by graphviz version 2.43.0 (0)
 -->
<!-- Title: G Pages: 1 -->
<svg width="697pt" height="833pt"
 viewBox="0.00 0.00 697.34 833.00" xmlns="http://www.w3.org/2000/svg" xmlns:xlink="http://www.w3.org/1999/xlink">
<g id="graph0" class="graph" transform="scale(1 1) rotate(0) translate(4 829)">
<title>G</title>
<polygon fill="white" stroke="transparent" points="-4,4 -4,-829 693.34,-829 693.34,4 -4,4"/>
<g id="clust1" class="cluster">
<title>cluster_mlir</title>
<polygon fill="none" stroke="black" points="51.72,-726 51.72,-817 369.72,-817 369.72,-726 51.72,-726"/>
<text text-anchor="middle" x="210.72" y="-801.8" font-family="Times,serif" font-size="14.00">Upstream MLIR</text>
</g>
<g id="clust2" class="cluster">
<title>cluster_std_arith_dialect</title>
<polygon fill="none" stroke="black" points="59.72,-734 59.72,-786 227.72,-786 227.72,-734 59.72,-734"/>
</g>
<g id="clust3" class="cluster">
<title>cluster_circt</title>
<polygon fill="none" stroke="black" points="181.72,-136 181.72,-718 593.72,-718 593.72,-136 181.72,-136"/>
<text text-anchor="middle" x="387.72" y="-702.8" font-family="Times,serif" font-size="14.00">CIRCT</text>
</g>
<g id="clust4" class="cluster">
<title>cluster_RTL</title>
<polygon fill="none" stroke="black" points="265.72,-208 265.72,-355 475.72,-355 475.72,-208 265.72,-208"/>
<text text-anchor="middle" x="370.72" y="-339.8" font-family="Times,serif" font-size="14.00">RTL dialects</text>
</g>
<!-- SCF -->
<g id="node1" class="node">
<title>SCF</title>
<polygon fill="#beaed4" stroke="black" points="361.72,-778 307.72,-778 307.72,-742 361.72,-742 361.72,-778"/>
<text text-anchor="middle" x="334.72" y="-756.3" font-family="Times,serif" font-size="14.00">SCF</text>
</g>
<!-- Calyx -->
<g id="node6" class="node">
<title>Calyx</title>
<g id="a_node6"><a xlink:href="https://circt.llvm.org/docs/Dialects/Calyx/" xlink:title="Calyx">
<polygon fill="white" stroke="black" points="261.72,-543 205.72,-543 205.72,-507 261.72,-507 261.72,-543"/>
<text text-anchor="middle" x="233.72" y="-521.3" font-family="Times,serif" font-size="14.00">Calyx</text>
</a>
</g>
</g>
<!-- SCF&#45;&gt;Calyx -->
<g id="edge1" class="edge">
<title>SCF&#45;&gt;Calyx</title>
<path fill="none" stroke="black" d="M333.88,-741.84C332.48,-720.26 328.84,-682.26 319.72,-651 309.86,-617.21 306.82,-607.9 286.72,-579 279.6,-568.75 270.37,-558.75 261.62,-550.24"/>
<polygon fill="black" stroke="black" points="263.8,-547.48 254.12,-543.18 259,-552.58 263.8,-547.48"/>
</g>
<!-- Affine -->
<g id="node2" class="node">
<title>Affine</title>
<polygon fill="#beaed4" stroke="black" points="293.72,-778 235.72,-778 235.72,-742 293.72,-742 293.72,-778"/>
<text text-anchor="middle" x="264.72" y="-756.3" font-family="Times,serif" font-size="14.00">Affine</text>
</g>
<!-- Pipeline -->
<g id="node8" class="node">
<title>Pipeline</title>
<g id="a_node8"><a xlink:href="https://circt.llvm.org/docs/Dialects/Pipeline/" xlink:title="Pipeline">
<polygon fill="white" stroke="black" points="279.72,-615 205.72,-615 205.72,-579 279.72,-579 279.72,-615"/>
<text text-anchor="middle" x="242.72" y="-593.3" font-family="Times,serif" font-size="14.00">Pipeline</text>
</a>
</g>
</g>
<!-- Affine&#45;&gt;Pipeline -->
<g id="edge2" class="edge">
<title>Affine&#45;&gt;Pipeline</title>
<path fill="none" stroke="black" d="M249.63,-741.76C244.1,-736.18 237.52,-730.33 230.72,-726 222.3,-720.63 215.39,-726.22 209.72,-718 192.83,-693.48 201.54,-679.63 209.72,-651 212.44,-641.51 217.4,-632.06 222.66,-623.83"/>
<polygon fill="black" stroke="black" points="225.65,-625.67 228.4,-615.43 219.87,-621.72 225.65,-625.67"/>
</g>
<!-- Scheduling -->
<g id="node26" class="node">
<title>Scheduling</title>
<g id="a_node26"><a xlink:href="https://circt.llvm.org/docs/Scheduling/" xlink:title="Scheduling">
<polygon fill="#fdc086" stroke="black" points="312.72,-687 216.72,-687 216.72,-651 312.72,-651 312.72,-687"/>
<text text-anchor="middle" x="264.72" y="-665.3" font-family="Times,serif" font-size="14.00">Scheduling</text>
</a>
</g>
</g>
<!-- Affine&#45;&gt;Scheduling -->
<!-- Standard -->
<g id="node3" class="node">
<title>Standard</title>
<polygon fill="#beaed4" stroke="black" points="219.22,-778 136.22,-778 136.22,-742 219.22,-742 219.22,-778"/>
<text text-anchor="middle" x="177.72" y="-756.3" font-family="Times,serif" font-size="14.00">Standard</text>
</g>
<!-- Arith -->
<g id="node4" class="node">
<title>Arith</title>
<polygon fill="#beaed4" stroke="black" points="121.72,-778 67.72,-778 67.72,-742 121.72,-742 121.72,-778"/>
<text text-anchor="middle" x="94.72" y="-756.3" font-family="Times,serif" font-size="14.00">Arith</text>
</g>
<!-- Handshake -->
<g id="node5" class="node">
<title>Handshake</title>
<g id="a_node5"><a xlink:href="https://circt.llvm.org/docs/Dialects/Handshake/" xlink:title="Handshake">
<polygon fill="white" stroke="black" points="453.72,-543 357.72,-543 357.72,-507 453.72,-507 453.72,-543"/>
<text text-anchor="middle" x="405.72" y="-521.3" font-family="Times,serif" font-size="14.00">Handshake</text>
</a>
</g>
</g>
<!-- Arith&#45;&gt;Handshake -->
<g id="edge4" class="edge">
<title>Arith&#45;&gt;Handshake</title>
<path fill="none" stroke="black" d="M106.11,-734C126.83,-689.57 171.08,-599.57 198.72,-579 251.81,-539.5 280.94,-559.18 347.4,-543.67"/>
<polygon fill="black" stroke="black" points="348.65,-546.96 357.49,-541.11 346.93,-540.17 348.65,-546.96"/>
</g>
<!-- Arith&#45;&gt;Calyx -->
<g id="edge5" class="edge">
<title>Arith&#45;&gt;Calyx</title>
<path fill="none" stroke="black" d="M93.81,-734C93.71,-696.54 98.64,-625.3 133.72,-579 149.16,-558.63 174.73,-545.28 196.15,-537.07"/>
<polygon fill="black" stroke="black" points="197.42,-540.33 205.64,-533.65 195.05,-533.74 197.42,-540.33"/>
</g>
<!-- FIRRTL -->
<g id="node7" class="node">
<title>FIRRTL</title>
<g id="a_node7"><a xlink:href="https://circt.llvm.org/docs/Dialects/FIRRTL/" xlink:title="FIRRTL">
<polygon fill="white" stroke="black" points="563.22,-471 492.22,-471 492.22,-435 563.22,-435 563.22,-471"/>
<text text-anchor="middle" x="527.72" y="-449.3" font-family="Times,serif" font-size="14.00">FIRRTL</text>
</a>
</g>
</g>
<!-- Handshake&#45;&gt;FIRRTL -->
<g id="edge6" class="edge">
<title>Handshake&#45;&gt;FIRRTL</title>
<path fill="none" stroke="black" d="M435.57,-506.88C451.67,-497.64 471.72,-486.13 489.01,-476.21"/>
<polygon fill="black" stroke="black" points="490.83,-479.2 497.77,-471.19 487.35,-473.13 490.83,-479.2"/>
</g>
<!-- FSM -->
<g id="node11" class="node">
<title>FSM</title>
<g id="a_node11"><a xlink:href="https://circt.llvm.org/docs/Dialects/FSM/" xlink:title="FSM">
<polygon fill="white" stroke="black" points="477.72,-471 423.72,-471 423.72,-435 477.72,-435 477.72,-471"/>
<text text-anchor="middle" x="450.72" y="-449.3" font-family="Times,serif" font-size="14.00">FSM</text>
</a>
</g>
</g>
<!-- Calyx&#45;&gt;FSM -->
<g id="edge7" class="edge">
<title>Calyx&#45;&gt;FSM</title>
<path fill="none" stroke="black" d="M261.8,-510.09C264.45,-508.97 267.12,-507.92 269.72,-507 330.15,-485.58 351.57,-493.35 413.98,-471.69"/>
<polygon fill="black" stroke="black" points="415.26,-474.95 423.49,-468.27 412.9,-468.36 415.26,-474.95"/>
</g>
<!-- Calyx_native -->
<g id="node29" class="node">
<title>Calyx_native</title>
<polygon fill="#ffff99" stroke="black" points="173.46,-154.54 173.46,-169.46 130.27,-180 69.18,-180 25.99,-169.46 25.99,-154.54 69.18,-144 130.27,-144 173.46,-154.54"/>
<text text-anchor="middle" x="99.72" y="-158.3" font-family="Times,serif" font-size="14.00">Calyx native</text>
</g>
<!-- Calyx&#45;&gt;Calyx_native -->
<g id="edge31" class="edge">
<title>Calyx&#45;&gt;Calyx_native</title>
<path fill="none" stroke="black" d="M210.55,-506.87C180.73,-482.66 132.72,-435.4 132.72,-382 132.72,-382 132.72,-382 132.72,-305 132.72,-263.97 119.49,-217.97 109.79,-189.74"/>
<polygon fill="black" stroke="black" points="113.04,-188.45 106.4,-180.19 106.44,-190.78 113.04,-188.45"/>
</g>
<!-- space_above_RTL -->
<!-- FIRRTL&#45;&gt;space_above_RTL -->
<!-- HW -->
<g id="node17" class="node">
<title>HW</title>
<g id="a_node17"><a xlink:href="https://circt.llvm.org/docs/Dialects/HW/" xlink:title="HW">
<polygon fill="white" stroke="black" points="467.72,-324 413.72,-324 413.72,-288 467.72,-288 467.72,-324"/>
<text text-anchor="middle" x="440.72" y="-302.3" font-family="Times,serif" font-size="14.00">HW</text>
</a>
</g>
</g>
<!-- FIRRTL&#45;&gt;HW -->
<g id="edge8" class="edge">
<title>FIRRTL&#45;&gt;HW</title>
<path fill="none" stroke="black" d="M509.21,-434.61C499.53,-424.81 488.01,-411.97 479.72,-399 472.89,-388.3 466.78,-376.21 461.53,-364.39"/>
<polygon fill="black" stroke="black" points="464.67,-362.81 457.52,-355 458.23,-365.57 464.67,-362.81"/>
</g>
<!-- Pipeline&#45;&gt;Calyx -->
<g id="edge3" class="edge">
<title>Pipeline&#45;&gt;Calyx</title>
<path fill="none" stroke="black" d="M240.5,-578.7C239.51,-570.98 238.32,-561.71 237.21,-553.11"/>
<polygon fill="black" stroke="black" points="240.67,-552.58 235.92,-543.1 233.73,-553.47 240.67,-552.58"/>
</g>
<!-- MSFT -->
<g id="node9" class="node">
<title>MSFT</title>
<g id="a_node9"><a xlink:href="https://circt.llvm.org/docs/Dialects/MSFT/" xlink:title="MSFT">
<polygon fill="white" stroke="black" points="249.22,-471 190.22,-471 190.22,-435 249.22,-435 249.22,-471"/>
<text text-anchor="middle" x="219.72" y="-449.3" font-family="Times,serif" font-size="14.00">MSFT</text>
</a>
</g>
</g>
<!-- MSFT&#45;&gt;space_above_RTL -->
<!-- MSFT&#45;&gt;HW -->
<g id="edge9" class="edge">
<title>MSFT&#45;&gt;HW</title>
<path fill="none" stroke="black" d="M236.09,-434.83C257.18,-413.92 295.99,-379.37 336.72,-363 362.26,-352.74 376.16,-366.65 397.45,-359.35"/>
<polygon fill="black" stroke="black" points="399.16,-362.41 406.72,-355 396.18,-356.08 399.16,-362.41"/>
</g>
<!-- TCL -->
<g id="node35" class="node">
<title>TCL</title>
<polygon fill="#7fc97f" stroke="black" points="246.72,-108 198.72,-108 198.72,-72 252.72,-72 252.72,-102 246.72,-108"/>
<polyline fill="none" stroke="black" points="246.72,-108 246.72,-102 "/>
<polyline fill="none" stroke="black" points="252.72,-102 246.72,-102 "/>
<text text-anchor="middle" x="225.72" y="-86.3" font-family="Times,serif" font-size="14.00">.tcl</text>
</g>
<!-- MSFT&#45;&gt;TCL -->
<g id="edge41" class="edge">
<title>MSFT&#45;&gt;TCL</title>
<path fill="none" stroke="black" d="M190.14,-446.53C130.99,-433.69 3.72,-395.75 3.72,-307 3.72,-307 3.72,-307 3.72,-233 3.72,-189.38 -11.17,-167.77 18.72,-136 41.53,-111.77 135.5,-99.31 188.65,-94.09"/>
<polygon fill="black" stroke="black" points="189.08,-97.56 198.7,-93.14 188.42,-90.59 189.08,-97.56"/>
</g>
<!-- ESI -->
<g id="node10" class="node">
<title>ESI</title>
<g id="a_node10"><a xlink:href="https://circt.llvm.org/docs/Dialects/ESI/" xlink:title="ESI">
<polygon fill="white" stroke="black" points="317.72,-471 263.72,-471 263.72,-435 317.72,-435 317.72,-471"/>
<text text-anchor="middle" x="290.72" y="-449.3" font-family="Times,serif" font-size="14.00">ESI</text>
</a>
</g>
</g>
<!-- ESI&#45;&gt;space_above_RTL -->
<!-- ESI&#45;&gt;HW -->
<g id="edge10" class="edge">
<title>ESI&#45;&gt;HW</title>
<path fill="none" stroke="black" d="M317.77,-438.35C320.12,-437.21 322.46,-436.08 324.72,-435 359.95,-418.28 377.85,-427.25 404.72,-399 407.68,-395.9 413.8,-381.22 420.18,-364.46"/>
<polygon fill="black" stroke="black" points="423.49,-365.59 423.73,-355 416.94,-363.13 423.49,-365.59"/>
</g>
<!-- CapNProto -->
<g id="node34" class="node">
<title>CapNProto</title>
<polygon fill="#7fc97f" stroke="black" points="430.22,-108 335.22,-108 335.22,-72 436.22,-72 436.22,-102 430.22,-108"/>
<polyline fill="none" stroke="black" points="430.22,-108 430.22,-102 "/>
<polyline fill="none" stroke="black" points="436.22,-102 430.22,-102 "/>
<text text-anchor="middle" x="385.72" y="-86.3" font-family="Times,serif" font-size="14.00">Cap&#39;n Proto</text>
</g>
<!-- ESI&#45;&gt;CapNProto -->
<g id="edge40" class="edge">
<title>ESI&#45;&gt;CapNProto</title>
<path fill="none" stroke="black" d="M269.64,-434.74C241.65,-409.75 195.72,-360.57 195.72,-307 195.72,-307 195.72,-307 195.72,-233 195.72,-189.38 181.16,-168.08 210.72,-136 244.91,-98.91 272.73,-119.11 325.39,-108.29"/>
<polygon fill="black" stroke="black" points="326.23,-111.69 335.15,-105.98 324.62,-104.88 326.23,-111.69"/>
</g>
<!-- FSM&#45;&gt;space_above_RTL -->
<!-- FSM&#45;&gt;HW -->
<g id="edge11" class="edge">
<title>FSM&#45;&gt;HW</title>
<path fill="none" stroke="black" d="M449.54,-434.8C448.35,-417.61 446.46,-390.21 444.74,-365.18"/>
<polygon fill="black" stroke="black" points="448.21,-364.73 444.03,-355 441.23,-365.22 448.21,-364.73"/>
</g>
<!-- HWArith -->
<g id="node12" class="node">
<title>HWArith</title>
<g id="a_node12"><a xlink:href="https://circt.llvm.org/docs/Dialects/HWArith/" xlink:title="HWArith">
<polygon fill="white" stroke="black" points="409.72,-471 331.72,-471 331.72,-435 409.72,-435 409.72,-471"/>
<text text-anchor="middle" x="370.72" y="-449.3" font-family="Times,serif" font-size="14.00">HWArith</text>
</a>
</g>
</g>
<!-- HWArith&#45;&gt;space_above_RTL -->
<!-- HWArith&#45;&gt;HW -->
<g id="edge12" class="edge">
<title>HWArith&#45;&gt;HW</title>
<path fill="none" stroke="black" d="M391.08,-434.75C401.13,-425.19 412.59,-412.52 419.72,-399 425.28,-388.47 429.37,-376.5 432.39,-364.76"/>
<polygon fill="black" stroke="black" points="435.8,-365.53 434.67,-355 428.98,-363.93 435.8,-365.53"/>
</g>
<!-- SystemC -->
<g id="node13" class="node">
<title>SystemC</title>
<g id="a_node13"><a xlink:href="https://circt.llvm.org/docs/Dialects/SystemC/" xlink:title="SystemC">
<polygon fill="white" stroke="black" points="563.72,-252 483.72,-252 483.72,-216 563.72,-216 563.72,-252"/>
<text text-anchor="middle" x="523.72" y="-230.3" font-family="Times,serif" font-size="14.00">SystemC</text>
</a>
</g>
</g>
<!-- ExportSystemC -->
<g id="node23" class="node">
<title>ExportSystemC</title>
<polygon fill="#fdc086" stroke="black" points="567.22,-180 438.22,-180 438.22,-144 567.22,-144 567.22,-180"/>
<text text-anchor="middle" x="502.72" y="-158.3" font-family="Times,serif" font-size="14.00">ExportSystemC</text>
</g>
<!-- SystemC&#45;&gt;ExportSystemC -->
<g id="edge22" class="edge">
<title>SystemC&#45;&gt;ExportSystemC</title>
<path fill="none" stroke="black" d="M518.53,-215.7C516.19,-207.9 513.38,-198.51 510.77,-189.83"/>
<polygon fill="black" stroke="black" points="514.08,-188.68 507.86,-180.1 507.38,-190.69 514.08,-188.68"/>
</g>
<!-- MooreMIR -->
<g id="node14" class="node">
<title>MooreMIR</title>
<g id="a_node14"><a xlink:href="https://circt.llvm.org/docs/Dialects/Moore/" xlink:title="Moore MIR">
<polygon fill="white" stroke="black" points="583.22,-399 486.22,-399 486.22,-363 583.22,-363 583.22,-399"/>
<text text-anchor="middle" x="534.72" y="-377.3" font-family="Times,serif" font-size="14.00">Moore MIR</text>
</a>
</g>
</g>
<!-- MooreMIR&#45;&gt;HW -->
<g id="edge13" class="edge">
<title>MooreMIR&#45;&gt;HW</title>
<path fill="none" stroke="black" d="M512.45,-362.7C503.8,-355.98 493.59,-348.05 483.63,-340.32"/>
<polygon fill="black" stroke="black" points="485.77,-337.55 475.72,-334.18 481.47,-343.08 485.77,-337.55"/>
</g>
<!-- Seq -->
<g id="node16" class="node">
<title>Seq</title>
<g id="a_node16"><a xlink:href="https://circt.llvm.org/docs/Dialects/Seq/" xlink:title="Seq">
<polygon fill="white" stroke="black" points="327.72,-324 273.72,-324 273.72,-288 327.72,-288 327.72,-324"/>
<text text-anchor="middle" x="300.72" y="-302.3" font-family="Times,serif" font-size="14.00">Seq</text>
</a>
</g>
</g>
<!-- space_above_RTL&#45;&gt;Seq -->
<!-- space_above_RTL&#45;&gt;HW -->
<!-- Comb -->
<g id="node19" class="node">
<title>Comb</title>
<g id="a_node19"><a xlink:href="https://circt.llvm.org/docs/Dialects/Comb/" xlink:title="Comb">
<polygon fill="white" stroke="black" points="399.72,-324 341.72,-324 341.72,-288 399.72,-288 399.72,-324"/>
<text text-anchor="middle" x="370.72" y="-302.3" font-family="Times,serif" font-size="14.00">Comb</text>
</a>
</g>
</g>
<!-- space_above_RTL&#45;&gt;Comb -->
<!-- SV -->
<g id="node18" class="node">
<title>SV</title>
<g id="a_node18"><a xlink:href="https://circt.llvm.org/docs/Dialects/SV/" xlink:title="SV">
<polygon fill="white" stroke="black" points="327.72,-252 273.72,-252 273.72,-216 327.72,-216 327.72,-252"/>
<text text-anchor="middle" x="300.72" y="-230.3" font-family="Times,serif" font-size="14.00">SV</text>
</a>
</g>
</g>
<!-- Seq&#45;&gt;SV -->
<g id="edge14" class="edge">
<title>Seq&#45;&gt;SV</title>
<path fill="none" stroke="black" d="M300.72,-287.7C300.72,-279.98 300.72,-270.71 300.72,-262.11"/>
<polygon fill="black" stroke="black" points="304.22,-262.1 300.72,-252.1 297.22,-262.1 304.22,-262.1"/>
</g>
<!-- llhd_sim -->
<g id="node22" class="node">
<title>llhd_sim</title>
<polygon fill="#fdc086" stroke="black" points="423.72,-180 347.72,-180 347.72,-144 423.72,-144 423.72,-180"/>
<text text-anchor="middle" x="385.72" y="-158.3" font-family="Times,serif" font-size="14.00">llhd_sim</text>
</g>
<!-- Seq&#45;&gt;llhd_sim -->
<g id="edge35" class="edge">
<title>Seq&#45;&gt;llhd_sim</title>
<path fill="none" stroke="black" d="M327.75,-291.49C359.15,-275.79 406.72,-252 406.72,-252 418.51,-232.94 410.91,-207.84 401.72,-189.16"/>
<polygon fill="black" stroke="black" points="404.8,-187.49 397.02,-180.3 398.62,-190.77 404.8,-187.49"/>
</g>
<!-- HW&#45;&gt;SystemC -->
<g id="edge17" class="edge">
<title>HW&#45;&gt;SystemC</title>
<path fill="none" stroke="black" d="M461.24,-287.7C471.59,-278.97 484.31,-268.24 495.56,-258.75"/>
<polygon fill="black" stroke="black" points="498.06,-261.23 503.44,-252.1 493.54,-255.88 498.06,-261.23"/>
</g>
<!-- LLHD -->
<g id="node20" class="node">
<title>LLHD</title>
<g id="a_node20"><a xlink:href="https://circt.llvm.org/docs/Dialects/LLHD/" xlink:title="LLHD">
<polygon fill="white" stroke="black" points="399.72,-252 341.72,-252 341.72,-216 399.72,-216 399.72,-252"/>
<text text-anchor="middle" x="370.72" y="-230.3" font-family="Times,serif" font-size="14.00">LLHD</text>
</a>
</g>
</g>
<!-- HW&#45;&gt;LLHD -->
<g id="edge15" class="edge">
<title>HW&#45;&gt;LLHD</title>
<path fill="none" stroke="black" d="M423.42,-287.7C414.86,-279.14 404.38,-268.66 395.03,-259.3"/>
<polygon fill="black" stroke="black" points="397.37,-256.7 387.83,-252.1 392.42,-261.65 397.37,-256.7"/>
</g>
<!-- HW&#45;&gt;llhd_sim -->
<g id="edge36" class="edge">
<title>HW&#45;&gt;llhd_sim</title>
<path fill="none" stroke="black" d="M440.67,-287.7C439.99,-267.62 436.91,-233.96 424.72,-208 421.4,-200.92 416.64,-194.1 411.58,-188"/>
<polygon fill="black" stroke="black" points="413.86,-185.3 404.6,-180.17 408.64,-189.96 413.86,-185.3"/>
</g>
<!-- ExportVerilog -->
<g id="node24" class="node">
<title>ExportVerilog</title>
<g id="a_node24"><a xlink:href="https://circt.llvm.org/docs/VerilogGeneration/" xlink:title="ExportVerilog">
<polygon fill="#fdc086" stroke="black" points="333.72,-180 217.72,-180 217.72,-144 333.72,-144 333.72,-180"/>
<text text-anchor="middle" x="275.72" y="-158.3" font-family="Times,serif" font-size="14.00">ExportVerilog</text>
</a>
</g>
</g>
<!-- HW&#45;&gt;ExportVerilog -->
<g id="edge25" class="edge">
<title>HW&#45;&gt;ExportVerilog</title>
<path fill="none" stroke="black" d="M413.48,-290.76C411.22,-289.77 408.95,-288.83 406.72,-288 346.54,-265.51 306.09,-302.77 266.72,-252 253.11,-234.44 257.52,-208.71 264.07,-189.43"/>
<polygon fill="black" stroke="black" points="267.36,-190.6 267.6,-180.01 260.81,-188.15 267.36,-190.6"/>
</g>
<!-- Circilator -->
<g id="node30" class="node">
<title>Circilator</title>
<polygon fill="#ffff99" stroke="black" stroke-dasharray="5,2" points="666.91,-82.54 666.91,-97.46 632.24,-108 583.21,-108 548.54,-97.46 548.54,-82.54 583.21,-72 632.24,-72 666.91,-82.54"/>
<text text-anchor="middle" x="607.72" y="-86.3" font-family="Times,serif" font-size="14.00">Circilator</text>
</g>
<!-- HW&#45;&gt;Circilator -->
<g id="edge29" class="edge">
<title>HW&#45;&gt;Circilator</title>
<path fill="none" stroke="black" stroke-dasharray="5,2" d="M467.91,-304.4C503.8,-301.99 566.03,-291.9 596.72,-252 626.45,-213.36 620.85,-152.87 614.21,-118.08"/>
<polygon fill="black" stroke="black" points="617.61,-117.24 612.16,-108.16 610.76,-118.66 617.61,-117.24"/>
</g>
<!-- SV&#45;&gt;ExportVerilog -->
<g id="edge26" class="edge">
<title>SV&#45;&gt;ExportVerilog</title>
<path fill="none" stroke="black" d="M294.54,-215.7C291.73,-207.81 288.33,-198.3 285.21,-189.55"/>
<polygon fill="black" stroke="black" points="288.49,-188.34 281.83,-180.1 281.9,-190.7 288.49,-188.34"/>
</g>
<!-- Comb&#45;&gt;llhd_sim -->
<g id="edge37" class="edge">
<title>Comb&#45;&gt;llhd_sim</title>
<path fill="none" stroke="black" d="M392.43,-287.79C402.48,-278.41 413.37,-265.9 418.72,-252 425.76,-233.75 424.81,-226.59 418.72,-208 416.5,-201.2 412.8,-194.57 408.68,-188.59"/>
<polygon fill="black" stroke="black" points="411.27,-186.2 402.45,-180.33 405.68,-190.42 411.27,-186.2"/>
</g>
<!-- Comb&#45;&gt;ExportSystemC -->
<g id="edge23" class="edge">
<title>Comb&#45;&gt;ExportSystemC</title>
<path fill="none" stroke="black" d="M389.06,-287.67C399.68,-277.47 413.18,-264.22 424.72,-252 444.67,-230.89 466.37,-205.96 481.81,-187.86"/>
<polygon fill="black" stroke="black" points="484.62,-189.95 488.43,-180.07 479.29,-185.42 484.62,-189.95"/>
</g>
<!-- Comb&#45;&gt;ExportVerilog -->
<g id="edge16" class="edge">
<title>Comb&#45;&gt;ExportVerilog</title>
<path fill="none" stroke="black" d="M341.67,-291.22C339.32,-290.13 336.98,-289.04 334.72,-288 299.32,-271.67 275.89,-284.74 254.72,-252 242.48,-233.07 250.28,-207.75 259.66,-188.96"/>
<polygon fill="black" stroke="black" points="262.79,-190.52 264.46,-180.06 256.63,-187.2 262.79,-190.52"/>
</g>
<!-- LLHD&#45;&gt;llhd_sim -->
<g id="edge38" class="edge">
<title>LLHD&#45;&gt;llhd_sim</title>
<path fill="none" stroke="black" d="M374.43,-215.7C376.09,-207.98 378.07,-198.71 379.91,-190.11"/>
<polygon fill="black" stroke="black" points="383.39,-190.62 382.06,-180.1 376.54,-189.15 383.39,-190.62"/>
</g>
<!-- LLHD&#45;&gt;Circilator -->
<g id="edge30" class="edge">
<title>LLHD&#45;&gt;Circilator</title>
<path fill="none" stroke="black" stroke-dasharray="5,2" d="M389.99,-215.97C394.27,-212.9 398.97,-210.03 403.72,-208 475.75,-177.21 517.95,-230.62 577.72,-180 595.66,-164.82 602.91,-138.53 605.82,-118.44"/>
<polygon fill="black" stroke="black" points="609.32,-118.66 607,-108.32 602.36,-117.84 609.32,-118.66"/>
</g>
<!-- FIRRTLParser -->
<g id="node21" class="node">
<title>FIRRTLParser</title>
<polygon fill="#fdc086" stroke="black" points="585.22,-543 468.22,-543 468.22,-507 585.22,-507 585.22,-543"/>
<text text-anchor="middle" x="526.72" y="-521.3" font-family="Times,serif" font-size="14.00">FIRRTLParser</text>
</g>
<!-- FIRRTLParser&#45;&gt;FIRRTL -->
<g id="edge21" class="edge">
<title>FIRRTLParser&#45;&gt;FIRRTL</title>
<path fill="none" stroke="black" d="M526.97,-506.7C527.08,-498.98 527.21,-489.71 527.34,-481.11"/>
<polygon fill="black" stroke="black" points="530.84,-481.15 527.48,-471.1 523.84,-481.05 530.84,-481.15"/>
</g>
<!-- llhd_sim&#45;&gt;Circilator -->
<!-- VCDTrace -->
<g id="node31" class="node">
<title>VCDTrace</title>
<polygon fill="#7fc97f" stroke="black" points="498.72,-108 450.72,-108 450.72,-72 504.72,-72 504.72,-102 498.72,-108"/>
<polyline fill="none" stroke="black" points="498.72,-108 498.72,-102 "/>
<polyline fill="none" stroke="black" points="504.72,-102 498.72,-102 "/>
<text text-anchor="middle" x="477.72" y="-86.3" font-family="Times,serif" font-size="14.00">.vcd</text>
</g>
<!-- llhd_sim&#45;&gt;VCDTrace -->
<g id="edge39" class="edge">
<title>llhd_sim&#45;&gt;VCDTrace</title>
<path fill="none" stroke="black" d="M408.47,-143.7C420.16,-134.8 434.59,-123.82 447.23,-114.2"/>
<polygon fill="black" stroke="black" points="449.41,-116.94 455.24,-108.1 445.17,-111.37 449.41,-116.94"/>
</g>
<!-- SVFile -->
<g id="node33" class="node">
<title>SVFile</title>
<polygon fill="#7fc97f" stroke="black" points="314.72,-108 266.72,-108 266.72,-72 320.72,-72 320.72,-102 314.72,-108"/>
<polyline fill="none" stroke="black" points="314.72,-108 314.72,-102 "/>
<polyline fill="none" stroke="black" points="320.72,-102 314.72,-102 "/>
<text text-anchor="middle" x="293.72" y="-86.3" font-family="Times,serif" font-size="14.00">.sv</text>
</g>
<!-- llhd_sim&#45;&gt;SVFile -->
<!-- llhd_sim&#45;&gt;CapNProto -->
<!-- llhd_sim&#45;&gt;TCL -->
<!-- CPPFile -->
<g id="node32" class="node">
<title>CPPFile</title>
<polygon fill="#7fc97f" stroke="black" points="587.72,-36 539.72,-36 539.72,0 593.72,0 593.72,-30 587.72,-36"/>
<polyline fill="none" stroke="black" points="587.72,-36 587.72,-30 "/>
<polyline fill="none" stroke="black" points="593.72,-30 587.72,-30 "/>
<text text-anchor="middle" x="566.72" y="-14.3" font-family="Times,serif" font-size="14.00">.cpp</text>
</g>
<!-- ExportSystemC&#45;&gt;CPPFile -->
<g id="edge24" class="edge">
<title>ExportSystemC&#45;&gt;CPPFile</title>
<path fill="none" stroke="black" d="M510.06,-143.88C517.8,-125.91 530.41,-96.88 541.72,-72 545.7,-63.25 550.15,-53.75 554.18,-45.23"/>
<polygon fill="black" stroke="black" points="557.37,-46.66 558.5,-36.13 551.05,-43.66 557.37,-46.66"/>
</g>
<!-- ExportVerilog&#45;&gt;SVFile -->
<g id="edge32" class="edge">
<title>ExportVerilog&#45;&gt;SVFile</title>
<path fill="none" stroke="black" d="M280.17,-143.7C282.18,-135.9 284.59,-126.51 286.83,-117.83"/>
<polygon fill="black" stroke="black" points="290.23,-118.66 289.33,-108.1 283.45,-116.92 290.23,-118.66"/>
</g>
<!-- PyCDE -->
<g id="node25" class="node">
<title>PyCDE</title>
<g id="a_node25"><a xlink:href="https://circt.llvm.org/docs/PyCDE/" xlink:title="PyCDE">
<polygon fill="#fdc086" stroke="black" points="343.22,-543 276.22,-543 276.22,-507 343.22,-507 343.22,-543"/>
<text text-anchor="middle" x="309.72" y="-521.3" font-family="Times,serif" font-size="14.00">PyCDE</text>
</a>
</g>
</g>
<!-- PyCDE&#45;&gt;MSFT -->
<g id="edge44" class="edge">
<title>PyCDE&#45;&gt;MSFT</title>
<path fill="none" stroke="black" d="M287.48,-506.7C276.14,-497.88 262.19,-487.03 249.91,-477.47"/>
<polygon fill="black" stroke="black" points="251.76,-474.48 241.72,-471.1 247.46,-480.01 251.76,-474.48"/>
</g>
<!-- PyCDE&#45;&gt;ESI -->
<g id="edge43" class="edge">
<title>PyCDE&#45;&gt;ESI</title>
<path fill="none" stroke="black" stroke-dasharray="5,2" d="M305.03,-506.7C302.91,-498.9 300.36,-489.51 298.01,-480.83"/>
<polygon fill="black" stroke="black" points="301.36,-479.84 295.37,-471.1 294.61,-481.67 301.36,-479.84"/>
</g>
<!-- PyCDE&#45;&gt;FSM -->
<g id="edge46" class="edge">
<title>PyCDE&#45;&gt;FSM</title>
<path fill="none" stroke="black" d="M343.47,-507.32C362.49,-497.92 386.88,-485.84 414.54,-472.08"/>
<polygon fill="black" stroke="black" points="416.24,-475.15 423.63,-467.56 413.12,-468.88 416.24,-475.15"/>
</g>
<!-- PyCDE&#45;&gt;HWArith -->
<g id="edge45" class="edge">
<title>PyCDE&#45;&gt;HWArith</title>
<path fill="none" stroke="black" d="M324.8,-506.7C332.12,-498.3 341.03,-488.07 349.06,-478.86"/>
<polygon fill="black" stroke="black" points="351.89,-480.94 355.82,-471.1 346.61,-476.34 351.89,-480.94"/>
</g>
<!-- Scheduling&#45;&gt;Pipeline -->
<g id="edge18" class="edge">
<title>Scheduling&#45;&gt;Pipeline</title>
<path fill="none" stroke="black" d="M256.22,-640.95C254.56,-635.65 252.81,-630.1 251.15,-624.81"/>
<polygon fill="black" stroke="black" points="252.95,-642.21 259.29,-650.7 259.63,-640.11 252.95,-642.21"/>
<polygon fill="black" stroke="black" points="254.44,-623.59 248.1,-615.1 247.76,-625.69 254.44,-623.59"/>
</g>
<!-- Scheduling&#45;&gt;MSFT -->
<g id="edge47" class="edge">
<title>Scheduling&#45;&gt;MSFT</title>
<path fill="none" stroke="black" stroke-dasharray="5,2" d="M224.38,-644.86C214.11,-636.83 204.39,-626.82 198.72,-615 177.85,-571.46 194.31,-514.11 207.49,-480.92"/>
<polygon fill="black" stroke="black" points="222.52,-647.84 232.67,-650.88 226.63,-642.17 222.52,-647.84"/>
<polygon fill="black" stroke="black" points="210.82,-482.02 211.43,-471.44 204.36,-479.33 210.82,-482.02"/>
</g>
<!-- Moore -->
<g id="node27" class="node">
<title>Moore</title>
<polygon fill="#ffff99" stroke="black" points="689.46,-445.54 689.46,-460.46 663.84,-471 627.61,-471 601.99,-460.46 601.99,-445.54 627.61,-435 663.84,-435 689.46,-445.54"/>
<text text-anchor="middle" x="645.72" y="-449.3" font-family="Times,serif" font-size="14.00">Moore</text>
</g>
<!-- Moore&#45;&gt;MooreMIR -->
<g id="edge28" class="edge">
<title>Moore&#45;&gt;MooreMIR</title>
<path fill="none" stroke="black" d="M622.18,-437.15C607.12,-427.65 587.29,-415.15 570.32,-404.45"/>
<polygon fill="black" stroke="black" points="572.07,-401.41 561.74,-399.04 568.34,-407.33 572.07,-401.41"/>
</g>
<!-- Chisel -->
<g id="node28" class="node">
<title>Chisel</title>
<polygon fill="#ffff99" stroke="black" points="671.55,-752.54 671.55,-767.46 646.46,-778 610.99,-778 585.9,-767.46 585.9,-752.54 610.99,-742 646.46,-742 671.55,-752.54"/>
<text text-anchor="middle" x="628.72" y="-756.3" font-family="Times,serif" font-size="14.00">Chisel</text>
</g>
<!-- FIRFile -->
<g id="node36" class="node">
<title>FIRFile</title>
<polygon fill="#7fc97f" stroke="black" points="649.72,-687 601.72,-687 601.72,-651 655.72,-651 655.72,-681 649.72,-687"/>
<polyline fill="none" stroke="black" points="649.72,-687 649.72,-681 "/>
<polyline fill="none" stroke="black" points="655.72,-681 649.72,-681 "/>
<text text-anchor="middle" x="628.72" y="-665.3" font-family="Times,serif" font-size="14.00">.fir</text>
</g>
<!-- Chisel&#45;&gt;FIRFile -->
<g id="edge19" class="edge">
<title>Chisel&#45;&gt;FIRFile</title>
<path fill="none" stroke="black" d="M628.72,-741.84C628.72,-729.28 628.72,-711.98 628.72,-697.5"/>
<polygon fill="black" stroke="black" points="632.22,-697.11 628.72,-687.11 625.22,-697.11 632.22,-697.11"/>
</g>
<!-- Calyx_native&#45;&gt;SVFile -->
<g id="edge33" class="edge">
<title>Calyx_native&#45;&gt;SVFile</title>
<path fill="none" stroke="black" d="M140.66,-146.44C178.58,-133.92 231.97,-116.58 252.72,-108 254.28,-107.36 255.85,-106.68 257.45,-105.97"/>
<polygon fill="black" stroke="black" points="259.01,-109.1 266.62,-101.73 256.07,-102.75 259.01,-109.1"/>
</g>
<!-- Calyx_native&#45;&gt;SVFile -->
<!-- Circilator&#45;&gt;CPPFile -->
<g id="edge34" class="edge">
<title>Circilator&#45;&gt;CPPFile</title>
<path fill="none" stroke="black" stroke-dasharray="5,2" d="M597.59,-71.7C592.87,-63.64 587.16,-53.89 581.94,-44.98"/>
<polygon fill="black" stroke="black" points="584.82,-42.96 576.74,-36.1 578.78,-46.5 584.82,-42.96"/>
</g>
<!-- FIRFile&#45;&gt;FIRRTLParser -->
<g id="edge20" class="edge">
<title>FIRFile&#45;&gt;FIRRTLParser</title>
<path fill="none" stroke="black" d="M644.4,-650.8C659.55,-631.99 678.13,-601.53 662.72,-579 654.24,-566.59 624.4,-554.3 594.83,-544.68"/>
<polygon fill="black" stroke="black" points="595.85,-541.33 585.26,-541.65 593.74,-548.01 595.85,-541.33"/>
</g>
<!-- PyFile -->
<g id="node38" class="node">
<title>PyFile</title>
<polygon fill="#7fc97f" stroke="black" points="649.72,-615 601.72,-615 601.72,-579 655.72,-579 655.72,-609 649.72,-615"/>
<polyline fill="none" stroke="black" points="649.72,-615 649.72,-609 "/>
<polyline fill="none" stroke="black" points="655.72,-609 649.72,-609 "/>
<text text-anchor="middle" x="628.72" y="-593.3" font-family="Times,serif" font-size="14.00">.py</text>
</g>
<!-- FIRFile&#45;&gt;PyFile -->
<!-- SVVHDL -->
<g id="node37" class="node">
<title>SVVHDL</title>
<polygon fill="#7fc97f" stroke="black" points="675.72,-543 609.72,-543 609.72,-507 681.72,-507 681.72,-537 675.72,-543"/>
<polyline fill="none" stroke="black" points="675.72,-543 675.72,-537 "/>
<polyline fill="none" stroke="black" points="681.72,-537 675.72,-537 "/>
<text text-anchor="middle" x="645.72" y="-521.3" font-family="Times,serif" font-size="14.00">.sv/.vhd</text>
</g>
<!-- SVVHDL&#45;&gt;Moore -->
<g id="edge27" class="edge">
<title>SVVHDL&#45;&gt;Moore</title>
<path fill="none" stroke="black" d="M645.72,-506.7C645.72,-498.98 645.72,-489.71 645.72,-481.11"/>
<polygon fill="black" stroke="black" points="649.22,-481.1 645.72,-471.1 642.22,-481.1 649.22,-481.1"/>
</g>
<!-- PyFile&#45;&gt;PyCDE -->
<g id="edge42" class="edge">
<title>PyFile&#45;&gt;PyCDE</title>
<path fill="none" stroke="black" d="M601.41,-580.72C599.85,-580.09 598.28,-579.51 596.72,-579 494.8,-545.58 459.32,-570.81 353.3,-543.39"/>
<polygon fill="black" stroke="black" points="354.07,-539.98 343.5,-540.76 352.25,-546.74 354.07,-539.98"/>
</g>
</g>
</svg>
