<?xml version="1.0" encoding="UTF-8" standalone="no"?>
<!DOCTYPE svg PUBLIC "-//W3C//DTD SVG 1.1//EN"
 "http://www.w3.org/Graphics/SVG/1.1/DTD/svg11.dtd">
<!-- Generated by graphviz version 2.43.0 (0)
 -->
<!-- Title: G Pages: 1 -->
<svg width="795pt" height="992pt"
 viewBox="0.00 0.00 794.87 992.00" xmlns="http://www.w3.org/2000/svg" xmlns:xlink="http://www.w3.org/1999/xlink">
<g id="graph0" class="graph" transform="scale(1 1) rotate(0) translate(4 988)">
<title>G</title>
<polygon fill="white" stroke="transparent" points="-4,4 -4,-988 790.87,-988 790.87,4 -4,4"/>
<g id="clust1" class="cluster">
<title>cluster_mlir_frontends</title>
<polygon fill="none" stroke="black" points="189.87,-901 189.87,-976 429.87,-976 429.87,-901 189.87,-901"/>
<text text-anchor="middle" x="309.87" y="-960.8" font-family="Times,serif" font-size="14.00">Upstream frontends (selection)</text>
</g>
<g id="clust2" class="cluster">
<title>cluster_mlir</title>
<polygon fill="none" stroke="black" points="139.87,-802 139.87,-893 427.87,-893 427.87,-802 139.87,-802"/>
<text text-anchor="middle" x="283.87" y="-877.8" font-family="Times,serif" font-size="14.00">Upstream MLIR</text>
</g>
<g id="clust3" class="cluster">
<title>cluster_std_arith_dialect</title>
<polygon fill="none" stroke="black" points="281.87,-810 281.87,-862 419.87,-862 419.87,-810 281.87,-810"/>
</g>
<g id="clust4" class="cluster">
<title>cluster_circt</title>
<polygon fill="none" stroke="black" points="155.87,-212 155.87,-794 655.87,-794 655.87,-212 155.87,-212"/>
<text text-anchor="middle" x="405.87" y="-778.8" font-family="Times,serif" font-size="14.00">CIRCT</text>
</g>
<g id="clust6" class="cluster">
<title>cluster_RTL</title>
<polygon fill="none" stroke="black" points="235.87,-356 235.87,-431 529.87,-431 529.87,-356 235.87,-356"/>
<text text-anchor="middle" x="382.87" y="-415.8" font-family="Times,serif" font-size="14.00">Core dialects</text>
</g>
<g id="clust9" class="cluster">
<title>cluster_input_langs</title>
<polygon fill="none" stroke="black" points="437.87,-901 437.87,-976 778.87,-976 778.87,-901 437.87,-901"/>
<text text-anchor="middle" x="608.37" y="-960.8" font-family="Times,serif" font-size="14.00">Input languages</text>
</g>
<!-- PyTorch -->
<g id="node1" class="node">
<title>PyTorch</title>
<polygon fill="white" stroke="black" points="421.87,-945 347.87,-945 347.87,-909 421.87,-909 421.87,-945"/>
<text text-anchor="middle" x="384.87" y="-923.3" font-family="Times,serif" font-size="14.00">PyTorch</text>
</g>
<!-- CF -->
<g id="node5" class="node">
<title>CF</title>
<polygon fill="#beaed4" stroke="black" points="411.87,-854 357.87,-854 357.87,-818 411.87,-818 411.87,-854"/>
<text text-anchor="middle" x="384.87" y="-832.3" font-family="Times,serif" font-size="14.00">CF</text>
</g>
<!-- PyTorch&#45;&gt;CF -->
<g id="edge1" class="edge">
<title>PyTorch&#45;&gt;CF</title>
<path fill="none" stroke="black" d="M380.62,-908.84C380.47,-907.06 380.34,-905.19 380.22,-903.24"/>
<polygon fill="black" stroke="black" points="383.7,-902.84 379.78,-893 376.71,-903.14 383.7,-902.84"/>
</g>
<!-- PyTorch&#45;&gt;CF -->
<!-- Polygeist -->
<g id="node2" class="node">
<title>Polygeist</title>
<polygon fill="white" stroke="black" points="333.87,-945 251.87,-945 251.87,-909 333.87,-909 333.87,-945"/>
<text text-anchor="middle" x="292.87" y="-923.3" font-family="Times,serif" font-size="14.00">Polygeist</text>
</g>
<!-- Affine -->
<g id="node4" class="node">
<title>Affine</title>
<polygon fill="#beaed4" stroke="black" points="273.87,-854 215.87,-854 215.87,-818 273.87,-818 273.87,-854"/>
<text text-anchor="middle" x="244.87" y="-832.3" font-family="Times,serif" font-size="14.00">Affine</text>
</g>
<!-- Polygeist&#45;&gt;Affine -->
<g id="edge2" class="edge">
<title>Polygeist&#45;&gt;Affine</title>
<path fill="none" stroke="black" d="M283.61,-908.84C282.49,-906.77 281.3,-904.56 280.07,-902.26"/>
<polygon fill="black" stroke="black" points="282.89,-900.14 275.07,-893 276.73,-903.46 282.89,-900.14"/>
</g>
<!-- Polygeist&#45;&gt;CF -->
<!-- SCF -->
<g id="node3" class="node">
<title>SCF</title>
<polygon fill="#beaed4" stroke="black" points="201.87,-854 147.87,-854 147.87,-818 201.87,-818 201.87,-854"/>
<text text-anchor="middle" x="174.87" y="-832.3" font-family="Times,serif" font-size="14.00">SCF</text>
</g>
<!-- Calyx -->
<g id="node11" class="node">
<title>Calyx</title>
<g id="a_node11"><a xlink:href="https://circt.llvm.org/docs/Dialects/Calyx/" xlink:title="Calyx">
<polygon fill="white" stroke="black" points="329.87,-619 273.87,-619 273.87,-583 329.87,-583 329.87,-619"/>
<text text-anchor="middle" x="301.87" y="-597.3" font-family="Times,serif" font-size="14.00">Calyx</text>
</a>
</g>
</g>
<!-- SCF&#45;&gt;Calyx -->
<g id="edge3" class="edge">
<title>SCF&#45;&gt;Calyx</title>
<path fill="none" stroke="black" d="M184.21,-817.87C206.22,-777.47 261.5,-676.07 287.68,-628.02"/>
<polygon fill="black" stroke="black" points="290.8,-629.61 292.51,-619.16 284.66,-626.26 290.8,-629.61"/>
</g>
<!-- Pipeline -->
<g id="node13" class="node">
<title>Pipeline</title>
<g id="a_node13"><a xlink:href="https://circt.llvm.org/docs/Dialects/Pipeline/" xlink:title="Pipeline">
<polygon fill="white" stroke="black" points="397.87,-691 323.87,-691 323.87,-655 397.87,-655 397.87,-691"/>
<text text-anchor="middle" x="360.87" y="-669.3" font-family="Times,serif" font-size="14.00">Pipeline</text>
</a>
</g>
</g>
<!-- Affine&#45;&gt;Pipeline -->
<g id="edge4" class="edge">
<title>Affine&#45;&gt;Pipeline</title>
<path fill="none" stroke="black" d="M257.28,-817.77C277.78,-789.32 318.79,-732.4 342.6,-699.36"/>
<polygon fill="black" stroke="black" points="345.54,-701.27 348.54,-691.11 339.86,-697.17 345.54,-701.27"/>
</g>
<!-- Arith -->
<g id="node6" class="node">
<title>Arith</title>
<polygon fill="#beaed4" stroke="black" points="343.87,-854 289.87,-854 289.87,-818 343.87,-818 343.87,-854"/>
<text text-anchor="middle" x="316.87" y="-832.3" font-family="Times,serif" font-size="14.00">Arith</text>
</g>
<!-- Handshake -->
<g id="node10" class="node">
<title>Handshake</title>
<g id="a_node10"><a xlink:href="https://circt.llvm.org/docs/Dialects/Handshake/" xlink:title="Handshake">
<polygon fill="white" stroke="black" points="259.87,-619 163.87,-619 163.87,-583 259.87,-583 259.87,-619"/>
<text text-anchor="middle" x="211.87" y="-597.3" font-family="Times,serif" font-size="14.00">Handshake</text>
</a>
</g>
</g>
<!-- Arith&#45;&gt;Handshake -->
<g id="edge6" class="edge">
<title>Arith&#45;&gt;Handshake</title>
<path fill="none" stroke="black" d="M305.6,-810C285.61,-765.65 244.14,-673.61 223.73,-628.32"/>
<polygon fill="black" stroke="black" points="226.9,-626.84 219.6,-619.16 220.52,-629.71 226.9,-626.84"/>
</g>
<!-- Arith&#45;&gt;Calyx -->
<g id="edge7" class="edge">
<title>Arith&#45;&gt;Calyx</title>
<path fill="none" stroke="black" d="M315.26,-810C312.42,-765.95 306.56,-674.83 303.62,-629.23"/>
<polygon fill="black" stroke="black" points="307.11,-628.91 302.97,-619.16 300.12,-629.36 307.11,-628.91"/>
</g>
<!-- FIRRTLParser -->
<g id="node7" class="node">
<title>FIRRTLParser</title>
<polygon fill="#fdc086" stroke="black" points="461.37,-619 344.37,-619 344.37,-583 461.37,-583 461.37,-619"/>
<text text-anchor="middle" x="402.87" y="-597.3" font-family="Times,serif" font-size="14.00">FIRRTLParser</text>
</g>
<!-- FIRRTL -->
<g id="node12" class="node">
<title>FIRRTL</title>
<g id="a_node12"><a xlink:href="https://circt.llvm.org/docs/Dialects/FIRRTL/" xlink:title="FIRRTL">
<polygon fill="white" stroke="black" points="235.37,-547 164.37,-547 164.37,-511 235.37,-511 235.37,-547"/>
<text text-anchor="middle" x="199.87" y="-525.3" font-family="Times,serif" font-size="14.00">FIRRTL</text>
</a>
</g>
</g>
<!-- FIRRTLParser&#45;&gt;FIRRTL -->
<g id="edge29" class="edge">
<title>FIRRTLParser&#45;&gt;FIRRTL</title>
<path fill="none" stroke="black" d="M348.91,-582.97C320.07,-573.67 283.8,-561.67 244.88,-547.66"/>
<polygon fill="black" stroke="black" points="246.07,-544.37 235.47,-544.26 243.68,-550.95 246.07,-544.37"/>
</g>
<!-- PyCDE -->
<g id="node8" class="node">
<title>PyCDE</title>
<g id="a_node8"><a xlink:href="https://circt.llvm.org/docs/PyCDE/" xlink:title="PyCDE">
<polygon fill="#fdc086" stroke="black" points="542.37,-619 475.37,-619 475.37,-583 542.37,-583 542.37,-619"/>
<text text-anchor="middle" x="508.87" y="-597.3" font-family="Times,serif" font-size="14.00">PyCDE</text>
</a>
</g>
</g>
<!-- MSFT -->
<g id="node15" class="node">
<title>MSFT</title>
<g id="a_node15"><a xlink:href="https://circt.llvm.org/docs/Dialects/MSFT/" xlink:title="MSFT">
<polygon fill="white" stroke="black" points="537.37,-547 478.37,-547 478.37,-511 537.37,-511 537.37,-547"/>
<text text-anchor="middle" x="507.87" y="-525.3" font-family="Times,serif" font-size="14.00">MSFT</text>
</a>
</g>
</g>
<!-- PyCDE&#45;&gt;MSFT -->
<g id="edge44" class="edge">
<title>PyCDE&#45;&gt;MSFT</title>
<path fill="none" stroke="black" d="M508.62,-582.7C508.51,-574.98 508.38,-565.71 508.25,-557.11"/>
<polygon fill="black" stroke="black" points="511.75,-557.05 508.11,-547.1 504.75,-557.15 511.75,-557.05"/>
</g>
<!-- ESI -->
<g id="node16" class="node">
<title>ESI</title>
<g id="a_node16"><a xlink:href="https://circt.llvm.org/docs/Dialects/ESI/" xlink:title="ESI">
<polygon fill="white" stroke="black" points="371.87,-547 317.87,-547 317.87,-511 371.87,-511 371.87,-547"/>
<text text-anchor="middle" x="344.87" y="-525.3" font-family="Times,serif" font-size="14.00">ESI</text>
</a>
</g>
</g>
<!-- PyCDE&#45;&gt;ESI -->
<g id="edge45" class="edge">
<title>PyCDE&#45;&gt;ESI</title>
<path fill="none" stroke="black" d="M475.28,-585.66C473.11,-584.76 470.96,-583.86 468.87,-583 431.84,-567.73 419.84,-564.99 381.43,-548.03"/>
<polygon fill="black" stroke="black" points="382.8,-544.81 372.24,-543.93 379.94,-551.2 382.8,-544.81"/>
</g>
<!-- FSM -->
<g id="node17" class="node">
<title>FSM</title>
<g id="a_node17"><a xlink:href="https://circt.llvm.org/docs/Dialects/FSM/" xlink:title="FSM">
<polygon fill="white" stroke="black" points="303.87,-547 249.87,-547 249.87,-511 303.87,-511 303.87,-547"/>
<text text-anchor="middle" x="276.87" y="-525.3" font-family="Times,serif" font-size="14.00">FSM</text>
</a>
</g>
</g>
<!-- PyCDE&#45;&gt;FSM -->
<g id="edge46" class="edge">
<title>PyCDE&#45;&gt;FSM</title>
<path fill="none" stroke="black" d="M474.98,-585.11C472.93,-584.36 470.88,-583.65 468.87,-583 403.42,-561.82 380.71,-570.41 313.82,-547.73"/>
<polygon fill="black" stroke="black" points="314.68,-544.32 304.08,-544.31 312.36,-550.92 314.68,-544.32"/>
</g>
<!-- HWArith -->
<g id="node18" class="node">
<title>HWArith</title>
<g id="a_node18"><a xlink:href="https://circt.llvm.org/docs/Dialects/HWArith/" xlink:title="HWArith">
<polygon fill="white" stroke="black" points="463.87,-547 385.87,-547 385.87,-511 463.87,-511 463.87,-547"/>
<text text-anchor="middle" x="424.87" y="-525.3" font-family="Times,serif" font-size="14.00">HWArith</text>
</a>
</g>
</g>
<!-- PyCDE&#45;&gt;HWArith -->
<g id="edge47" class="edge">
<title>PyCDE&#45;&gt;HWArith</title>
<path fill="none" stroke="black" d="M488.1,-582.7C477.63,-573.97 464.76,-563.24 453.37,-553.75"/>
<polygon fill="black" stroke="black" points="455.31,-550.82 445.39,-547.1 450.83,-556.19 455.31,-550.82"/>
</g>
<!-- Scheduling -->
<g id="node9" class="node">
<title>Scheduling</title>
<g id="a_node9"><a xlink:href="https://circt.llvm.org/docs/Scheduling/" xlink:title="Scheduling">
<polygon fill="#fdc086" stroke="black" points="536.87,-763 440.87,-763 440.87,-727 536.87,-727 536.87,-763"/>
<text text-anchor="middle" x="488.87" y="-741.3" font-family="Times,serif" font-size="14.00">Scheduling</text>
</a>
</g>
</g>
<!-- Scheduling&#45;&gt;Pipeline -->
<g id="edge26" class="edge">
<title>Scheduling&#45;&gt;Pipeline</title>
<path fill="none" stroke="black" d="M448.38,-721.86C433.37,-713.65 416.36,-704.35 401.35,-696.14"/>
<polygon fill="black" stroke="black" points="447.1,-725.15 457.55,-726.88 450.46,-719.01 447.1,-725.15"/>
<polygon fill="black" stroke="black" points="402.75,-692.92 392.3,-691.19 399.39,-699.06 402.75,-692.92"/>
</g>
<!-- SSP -->
<g id="node14" class="node">
<title>SSP</title>
<g id="a_node14"><a xlink:href="https://circt.llvm.org/docs/Dialects/SSP/" xlink:title="SSP">
<polygon fill="white" stroke="black" points="549.87,-691 495.87,-691 495.87,-655 549.87,-655 549.87,-691"/>
<text text-anchor="middle" x="522.87" y="-669.3" font-family="Times,serif" font-size="14.00">SSP</text>
</a>
</g>
</g>
<!-- Scheduling&#45;&gt;SSP -->
<g id="edge48" class="edge">
<title>Scheduling&#45;&gt;SSP</title>
<path fill="none" stroke="black" d="M501.73,-717.51C504.48,-711.85 507.39,-705.86 510.14,-700.2"/>
<polygon fill="black" stroke="black" points="498.49,-716.17 497.27,-726.7 504.79,-719.23 498.49,-716.17"/>
<polygon fill="black" stroke="black" points="513.34,-701.63 514.56,-691.1 507.04,-698.57 513.34,-701.63"/>
</g>
<!-- Scheduling&#45;&gt;MSFT -->
<g id="edge49" class="edge">
<title>Scheduling&#45;&gt;MSFT</title>
<path fill="none" stroke="black" stroke-dasharray="5,2" d="M482.22,-717.08C479.14,-698.43 478.19,-673.71 488.87,-655 504.48,-627.66 534.26,-646.34 549.87,-619 561.84,-598.03 547.79,-573.08 532.8,-554.94"/>
<polygon fill="black" stroke="black" points="478.8,-717.85 484.15,-726.99 485.68,-716.51 478.8,-717.85"/>
<polygon fill="black" stroke="black" points="535.16,-552.33 525.94,-547.13 529.9,-556.95 535.16,-552.33"/>
</g>
<!-- Handshake&#45;&gt;FIRRTL -->
<g id="edge8" class="edge">
<title>Handshake&#45;&gt;FIRRTL</title>
<path fill="none" stroke="black" d="M208.9,-582.7C207.58,-574.98 205.99,-565.71 204.51,-557.11"/>
<polygon fill="black" stroke="black" points="207.94,-556.37 202.8,-547.1 201.04,-557.55 207.94,-556.37"/>
</g>
<!-- Calyx&#45;&gt;FSM -->
<g id="edge9" class="edge">
<title>Calyx&#45;&gt;FSM</title>
<path fill="none" stroke="black" d="M295.69,-582.7C292.87,-574.81 289.48,-565.3 286.35,-556.55"/>
<polygon fill="black" stroke="black" points="289.63,-555.34 282.98,-547.1 283.04,-557.7 289.63,-555.34"/>
</g>
<!-- Calyx_native -->
<g id="node35" class="node">
<title>Calyx_native</title>
<polygon fill="#ffff99" stroke="black" points="147.6,-521.54 147.6,-536.46 104.41,-547 43.33,-547 0.13,-536.46 0.13,-521.54 43.33,-511 104.41,-511 147.6,-521.54"/>
<text text-anchor="middle" x="73.87" y="-525.3" font-family="Times,serif" font-size="14.00">Calyx native</text>
</g>
<!-- Calyx&#45;&gt;Calyx_native -->
<g id="edge37" class="edge">
<title>Calyx&#45;&gt;Calyx_native</title>
<path fill="none" stroke="black" d="M273.79,-585.81C271.47,-584.81 269.14,-583.86 266.87,-583 224.33,-566.98 174.87,-553.5 136.67,-544.14"/>
<polygon fill="black" stroke="black" points="137.26,-540.68 126.71,-541.73 135.61,-547.48 137.26,-540.68"/>
</g>
<!-- lower_to_sv_and_core -->
<g id="node20" class="node">
<title>lower_to_sv_and_core</title>
<ellipse fill="black" stroke="black" cx="248.87" cy="-457" rx="1.8" ry="1.8"/>
</g>
<!-- FIRRTL&#45;&gt;lower_to_sv_and_core -->
<g id="edge13" class="edge">
<title>FIRRTL&#45;&gt;lower_to_sv_and_core</title>
<path fill="none" stroke="black" d="M211.98,-510.7C225.13,-491.91 244.74,-463.9 248.3,-458.81"/>
</g>
<!-- space_above_RTL -->
<!-- FIRRTL&#45;&gt;space_above_RTL -->
<!-- Pipeline&#45;&gt;Calyx -->
<g id="edge5" class="edge">
<title>Pipeline&#45;&gt;Calyx</title>
<path fill="none" stroke="black" d="M346.28,-654.7C339.21,-646.3 330.58,-636.07 322.82,-626.86"/>
<polygon fill="black" stroke="black" points="325.4,-624.49 316.28,-619.1 320.05,-629.01 325.4,-624.49"/>
</g>
<!-- MSFT&#45;&gt;space_above_RTL -->
<!-- HW -->
<g id="node23" class="node">
<title>HW</title>
<g id="a_node23"><a xlink:href="https://circt.llvm.org/docs/Dialects/HW/" xlink:title="HW">
<polygon fill="white" stroke="black" points="521.87,-400 467.87,-400 467.87,-364 521.87,-364 521.87,-400"/>
<text text-anchor="middle" x="494.87" y="-378.3" font-family="Times,serif" font-size="14.00">HW</text>
</a>
</g>
</g>
<!-- MSFT&#45;&gt;HW -->
<g id="edge10" class="edge">
<title>MSFT&#45;&gt;HW</title>
<path fill="none" stroke="black" d="M506.32,-510.8C504.78,-493.61 502.33,-466.21 500.08,-441.18"/>
<polygon fill="black" stroke="black" points="503.55,-440.65 499.17,-431 496.58,-441.27 503.55,-440.65"/>
</g>
<!-- TCL -->
<g id="node45" class="node">
<title>TCL</title>
<polygon fill="#7fc97f" stroke="black" points="679.87,-111 553.87,-111 553.87,-75 685.87,-75 685.87,-105 679.87,-111"/>
<polyline fill="none" stroke="black" points="679.87,-111 679.87,-105 "/>
<polyline fill="none" stroke="black" points="685.87,-105 679.87,-105 "/>
<text text-anchor="middle" x="619.87" y="-89.3" font-family="Times,serif" font-size="14.00">Placements (tcl)</text>
</g>
<!-- MSFT&#45;&gt;TCL -->
<g id="edge42" class="edge">
<title>MSFT&#45;&gt;TCL</title>
<path fill="none" stroke="black" d="M537.39,-513.18C561.7,-500.77 594.03,-483.72 605.87,-475 647.02,-444.68 674.87,-434.11 674.87,-383 674.87,-383 674.87,-383 674.87,-237 674.87,-193.74 652.67,-147.74 636.48,-119.93"/>
<polygon fill="black" stroke="black" points="639.41,-118.01 631.26,-111.23 633.41,-121.61 639.41,-118.01"/>
</g>
<!-- ESI&#45;&gt;lower_to_sv_and_core -->
<g id="edge14" class="edge">
<title>ESI&#45;&gt;lower_to_sv_and_core</title>
<path fill="none" stroke="black" d="M321.14,-510.7C295.37,-491.91 256.95,-463.9 249.97,-458.81"/>
</g>
<!-- ESI&#45;&gt;space_above_RTL -->
<!-- ServiceDesc -->
<g id="node43" class="node">
<title>ServiceDesc</title>
<polygon fill="#7fc97f" stroke="black" points="533.87,-112 357.87,-112 357.87,-74 539.87,-74 539.87,-106 533.87,-112"/>
<polyline fill="none" stroke="black" points="533.87,-112 533.87,-106 "/>
<polyline fill="none" stroke="black" points="539.87,-106 533.87,-106 "/>
<text text-anchor="middle" x="448.87" y="-96.8" font-family="Times,serif" font-size="14.00">ESI system description</text>
<text text-anchor="middle" x="448.87" y="-81.8" font-family="Times,serif" font-size="14.00">(JSON/Capnp)</text>
</g>
<!-- ESI&#45;&gt;ServiceDesc -->
<g id="edge41" class="edge">
<title>ESI&#45;&gt;ServiceDesc</title>
<path fill="none" stroke="black" d="M371.91,-514.35C374.26,-513.21 376.6,-512.08 378.87,-511 497.39,-454.73 644.87,-514.2 644.87,-383 644.87,-383 644.87,-383 644.87,-237 644.87,-196.89 656.43,-178.05 629.87,-148 618.3,-134.92 585.04,-123.38 550.13,-114.36"/>
<polygon fill="black" stroke="black" points="550.81,-110.92 540.26,-111.88 549.11,-117.71 550.81,-110.92"/>
</g>
<!-- FSM&#45;&gt;lower_to_sv_and_core -->
<g id="edge15" class="edge">
<title>FSM&#45;&gt;lower_to_sv_and_core</title>
<path fill="none" stroke="black" d="M269.95,-510.7C262.43,-491.91 251.22,-463.9 249.19,-458.81"/>
</g>
<!-- FSM&#45;&gt;space_above_RTL -->
<!-- HWArith&#45;&gt;space_above_RTL -->
<!-- HWArith&#45;&gt;HW -->
<g id="edge11" class="edge">
<title>HWArith&#45;&gt;HW</title>
<path fill="none" stroke="black" d="M437.1,-510.85C444.01,-500.71 452.51,-487.46 458.87,-475 464.42,-464.12 469.66,-452.18 474.35,-440.6"/>
<polygon fill="black" stroke="black" points="477.72,-441.58 478.14,-431 471.21,-439.01 477.72,-441.58"/>
</g>
<!-- MooreMIR -->
<g id="node19" class="node">
<title>MooreMIR</title>
<g id="a_node19"><a xlink:href="https://circt.llvm.org/docs/Dialects/Moore/" xlink:title="Moore MIR">
<polygon fill="white" stroke="black" points="648.37,-547 551.37,-547 551.37,-511 648.37,-511 648.37,-547"/>
<text text-anchor="middle" x="599.87" y="-525.3" font-family="Times,serif" font-size="14.00">Moore MIR</text>
</a>
</g>
</g>
<!-- MooreMIR&#45;&gt;space_above_RTL -->
<!-- MooreMIR&#45;&gt;HW -->
<g id="edge12" class="edge">
<title>MooreMIR&#45;&gt;HW</title>
<path fill="none" stroke="black" d="M586.08,-510.78C572.38,-493.5 550.74,-465.73 531.88,-439.46"/>
<polygon fill="black" stroke="black" points="534.51,-437.12 525.87,-431 528.81,-441.18 534.51,-437.12"/>
</g>
<!-- LLHD -->
<g id="node26" class="node">
<title>LLHD</title>
<g id="a_node26"><a xlink:href="https://circt.llvm.org/docs/Dialects/LLHD/" xlink:title="LLHD">
<polygon fill="white" stroke="black" points="601.87,-328 543.87,-328 543.87,-292 601.87,-292 601.87,-328"/>
<text text-anchor="middle" x="572.87" y="-306.3" font-family="Times,serif" font-size="14.00">LLHD</text>
</a>
</g>
</g>
<!-- MooreMIR&#45;&gt;LLHD -->
<g id="edge19" class="edge">
<title>MooreMIR&#45;&gt;LLHD</title>
<path fill="none" stroke="black" d="M597.75,-510.97C593.09,-473.51 581.91,-383.68 576.26,-338.26"/>
<polygon fill="black" stroke="black" points="579.72,-337.74 575.01,-328.25 572.77,-338.6 579.72,-337.74"/>
</g>
<!-- Seq -->
<g id="node22" class="node">
<title>Seq</title>
<g id="a_node22"><a xlink:href="https://circt.llvm.org/docs/Dialects/Seq/" xlink:title="Seq">
<polygon fill="white" stroke="black" points="297.87,-400 243.87,-400 243.87,-364 297.87,-364 297.87,-400"/>
<text text-anchor="middle" x="270.87" y="-378.3" font-family="Times,serif" font-size="14.00">Seq</text>
</a>
</g>
</g>
<!-- lower_to_sv_and_core&#45;&gt;Seq -->
<g id="edge17" class="edge">
<title>lower_to_sv_and_core&#45;&gt;Seq</title>
<path fill="none" stroke="black" d="M249.11,-455.18C249.71,-453.19 251.36,-447.74 253.48,-440.68"/>
<polygon fill="black" stroke="black" points="256.87,-441.58 256.4,-431 250.16,-439.56 256.87,-441.58"/>
</g>
<!-- SV -->
<g id="node28" class="node">
<title>SV</title>
<g id="a_node28"><a xlink:href="https://circt.llvm.org/docs/Dialects/SV/" xlink:title="SV">
<polygon fill="white" stroke="black" points="253.87,-328 199.87,-328 199.87,-292 253.87,-292 253.87,-328"/>
<text text-anchor="middle" x="226.87" y="-306.3" font-family="Times,serif" font-size="14.00">SV</text>
</a>
</g>
</g>
<!-- lower_to_sv_and_core&#45;&gt;SV -->
<g id="edge16" class="edge">
<title>lower_to_sv_and_core&#45;&gt;SV</title>
<path fill="none" stroke="black" d="M248.07,-455.14C245.32,-452.11 236.26,-441.6 232.87,-431 223.07,-400.37 222.89,-363.1 224.31,-338.31"/>
<polygon fill="black" stroke="black" points="227.81,-338.4 225.01,-328.18 220.83,-337.92 227.81,-338.4"/>
</g>
<!-- space_above_RTL&#45;&gt;Seq -->
<!-- space_above_RTL&#45;&gt;HW -->
<!-- Comb -->
<g id="node24" class="node">
<title>Comb</title>
<g id="a_node24"><a xlink:href="https://circt.llvm.org/docs/Dialects/Comb/" xlink:title="Comb">
<polygon fill="white" stroke="black" points="453.87,-400 395.87,-400 395.87,-364 453.87,-364 453.87,-400"/>
<text text-anchor="middle" x="424.87" y="-378.3" font-family="Times,serif" font-size="14.00">Comb</text>
</a>
</g>
</g>
<!-- space_above_RTL&#45;&gt;Comb -->
<!-- Seq&#45;&gt;SV -->
<g id="edge18" class="edge">
<title>Seq&#45;&gt;SV</title>
<path fill="none" stroke="black" d="M259.99,-363.7C254.88,-355.56 248.67,-345.69 243.02,-336.7"/>
<polygon fill="black" stroke="black" points="245.9,-334.71 237.62,-328.1 239.98,-338.43 245.9,-334.71"/>
</g>
<!-- ExportVerilog -->
<g id="node33" class="node">
<title>ExportVerilog</title>
<g id="a_node33"><a xlink:href="https://circt.llvm.org/docs/VerilogGeneration/" xlink:title="ExportVerilog">
<polygon fill="#fdc086" stroke="black" points="279.87,-256 163.87,-256 163.87,-220 279.87,-220 279.87,-256"/>
<text text-anchor="middle" x="221.87" y="-234.3" font-family="Times,serif" font-size="14.00">ExportVerilog</text>
</a>
</g>
</g>
<!-- Seq&#45;&gt;ExportVerilog -->
<g id="edge33" class="edge">
<title>Seq&#45;&gt;ExportVerilog</title>
<path fill="none" stroke="black" d="M271.47,-356C271.11,-337.69 268.92,-312.56 260.87,-292 256.99,-282.11 250.79,-272.41 244.45,-264.07"/>
<polygon fill="black" stroke="black" points="247.15,-261.83 238.16,-256.22 241.69,-266.21 247.15,-261.83"/>
</g>
<!-- HW&#45;&gt;LLHD -->
<g id="edge20" class="edge">
<title>HW&#45;&gt;LLHD</title>
<path fill="none" stroke="black" d="M514.15,-363.7C523.78,-355.05 535.6,-344.45 546.09,-335.03"/>
<polygon fill="black" stroke="black" points="548.7,-337.39 553.81,-328.1 544.03,-332.18 548.7,-337.39"/>
</g>
<!-- llhd_sim -->
<g id="node31" class="node">
<title>llhd_sim</title>
<polygon fill="#fdc086" stroke="black" points="609.87,-256 535.87,-256 535.87,-220 609.87,-220 609.87,-256"/>
<text text-anchor="middle" x="572.87" y="-234.3" font-family="Times,serif" font-size="14.00">llhd&#45;sim</text>
</g>
<!-- HW&#45;&gt;llhd_sim -->
<g id="edge34" class="edge">
<title>HW&#45;&gt;llhd_sim</title>
<path fill="none" stroke="black" d="M505.41,-356C513.36,-337.87 524.9,-312.95 536.87,-292 542.11,-282.82 548.41,-273.16 554.28,-264.63"/>
<polygon fill="black" stroke="black" points="557.29,-266.43 560.16,-256.23 551.56,-262.41 557.29,-266.43"/>
</g>
<!-- SystemC -->
<g id="node29" class="node">
<title>SystemC</title>
<g id="a_node29"><a xlink:href="https://circt.llvm.org/docs/Dialects/SystemC/" xlink:title="SystemC">
<polygon fill="white" stroke="black" points="479.87,-328 399.87,-328 399.87,-292 479.87,-292 479.87,-328"/>
<text text-anchor="middle" x="439.87" y="-306.3" font-family="Times,serif" font-size="14.00">SystemC</text>
</a>
</g>
</g>
<!-- Comb&#45;&gt;SystemC -->
<g id="edge22" class="edge">
<title>Comb&#45;&gt;SystemC</title>
<path fill="none" stroke="black" d="M430.22,-356C431.47,-350.2 432.8,-344 434.06,-338.11"/>
<polygon fill="black" stroke="black" points="437.53,-338.62 436.2,-328.1 430.68,-337.15 437.53,-338.62"/>
</g>
<!-- Interop -->
<g id="node25" class="node">
<title>Interop</title>
<g id="a_node25"><a xlink:href="https://circt.llvm.org/docs/Dialects/Interop/" xlink:title="Interop">
<polygon fill="white" stroke="black" points="381.37,-400 312.37,-400 312.37,-364 381.37,-364 381.37,-400"/>
<text text-anchor="middle" x="346.87" y="-378.3" font-family="Times,serif" font-size="14.00">Interop</text>
</a>
</g>
</g>
<!-- Arc -->
<g id="node27" class="node">
<title>Arc</title>
<g id="a_node27"><a xlink:href="https://circt.llvm.org/docs/Dialects/Arc/" xlink:title="Arc">
<polygon fill="white" stroke="black" points="367.87,-328 313.87,-328 313.87,-292 367.87,-292 367.87,-328"/>
<text text-anchor="middle" x="340.87" y="-306.3" font-family="Times,serif" font-size="14.00">Arc</text>
</a>
</g>
</g>
<!-- Interop&#45;&gt;Arc -->
<g id="edge21" class="edge">
<title>Interop&#45;&gt;Arc</title>
<path fill="none" stroke="black" d="M344.72,-356C344.23,-350.2 343.7,-344 343.19,-338.11"/>
<polygon fill="black" stroke="black" points="346.67,-337.77 342.33,-328.1 339.7,-338.37 346.67,-337.77"/>
</g>
<!-- LLHD&#45;&gt;llhd_sim -->
<g id="edge39" class="edge">
<title>LLHD&#45;&gt;llhd_sim</title>
<path fill="none" stroke="black" d="M572.87,-291.7C572.87,-283.98 572.87,-274.71 572.87,-266.11"/>
<polygon fill="black" stroke="black" points="576.37,-266.1 572.87,-256.1 569.37,-266.1 576.37,-266.1"/>
</g>
<!-- Arcilator -->
<g id="node30" class="node">
<title>Arcilator</title>
<polygon fill="#fdc086" stroke="black" points="373.37,-256 294.37,-256 294.37,-220 373.37,-220 373.37,-256"/>
<text text-anchor="middle" x="333.87" y="-234.3" font-family="Times,serif" font-size="14.00">Arcilator</text>
</g>
<!-- Arc&#45;&gt;Arcilator -->
<g id="edge24" class="edge">
<title>Arc&#45;&gt;Arcilator</title>
<path fill="none" stroke="black" d="M339.14,-291.7C338.36,-283.98 337.44,-274.71 336.58,-266.11"/>
<polygon fill="black" stroke="black" points="340.05,-265.71 335.58,-256.1 333.09,-266.4 340.05,-265.71"/>
</g>
<!-- SV&#45;&gt;ExportVerilog -->
<g id="edge32" class="edge">
<title>SV&#45;&gt;ExportVerilog</title>
<path fill="none" stroke="black" d="M225.63,-291.7C225.08,-283.98 224.42,-274.71 223.8,-266.11"/>
<polygon fill="black" stroke="black" points="227.29,-265.83 223.09,-256.1 220.31,-266.33 227.29,-265.83"/>
</g>
<!-- ExportSystemC -->
<g id="node32" class="node">
<title>ExportSystemC</title>
<polygon fill="#fdc086" stroke="black" points="516.37,-256 387.37,-256 387.37,-220 516.37,-220 516.37,-256"/>
<text text-anchor="middle" x="451.87" y="-234.3" font-family="Times,serif" font-size="14.00">ExportSystemC</text>
</g>
<!-- SystemC&#45;&gt;ExportSystemC -->
<g id="edge30" class="edge">
<title>SystemC&#45;&gt;ExportSystemC</title>
<path fill="none" stroke="black" d="M442.83,-291.7C444.16,-283.98 445.74,-274.71 447.22,-266.11"/>
<polygon fill="black" stroke="black" points="450.69,-266.55 448.93,-256.1 443.8,-265.37 450.69,-266.55"/>
</g>
<!-- SimBinary -->
<g id="node46" class="node">
<title>SimBinary</title>
<polygon fill="#7fc97f" stroke="black" points="364.87,-184 188.87,-184 188.87,-148 370.87,-148 370.87,-178 364.87,-184"/>
<polyline fill="none" stroke="black" points="364.87,-184 364.87,-178 "/>
<polyline fill="none" stroke="black" points="370.87,-178 364.87,-178 "/>
<text text-anchor="middle" x="279.87" y="-162.3" font-family="Times,serif" font-size="14.00">Simulation Binary (obj)</text>
</g>
<!-- Arcilator&#45;&gt;SimBinary -->
<g id="edge25" class="edge">
<title>Arcilator&#45;&gt;SimBinary</title>
<path fill="none" stroke="black" d="M320.52,-219.7C314.11,-211.39 306.31,-201.28 299.26,-192.14"/>
<polygon fill="black" stroke="black" points="301.94,-189.88 293.06,-184.1 296.4,-194.16 301.94,-189.88"/>
</g>
<!-- VCDTrace -->
<g id="node40" class="node">
<title>VCDTrace</title>
<polygon fill="#7fc97f" stroke="black" points="616.87,-184 526.87,-184 526.87,-148 622.87,-148 622.87,-178 616.87,-184"/>
<polyline fill="none" stroke="black" points="616.87,-184 616.87,-178 "/>
<polyline fill="none" stroke="black" points="622.87,-178 616.87,-178 "/>
<text text-anchor="middle" x="574.87" y="-162.3" font-family="Times,serif" font-size="14.00">Trace (vcd)</text>
</g>
<!-- llhd_sim&#45;&gt;VCDTrace -->
<g id="edge40" class="edge">
<title>llhd_sim&#45;&gt;VCDTrace</title>
<path fill="none" stroke="black" d="M573.36,-219.7C573.58,-211.98 573.85,-202.71 574.09,-194.11"/>
<polygon fill="black" stroke="black" points="577.59,-194.2 574.38,-184.1 570.59,-194 577.59,-194.2"/>
</g>
<!-- SystemCFile -->
<g id="node41" class="node">
<title>SystemCFile</title>
<polygon fill="#7fc97f" stroke="black" points="506.37,-184 385.37,-184 385.37,-148 512.37,-148 512.37,-178 506.37,-184"/>
<polyline fill="none" stroke="black" points="506.37,-184 506.37,-178 "/>
<polyline fill="none" stroke="black" points="512.37,-178 506.37,-178 "/>
<text text-anchor="middle" x="448.87" y="-162.3" font-family="Times,serif" font-size="14.00">SystemC (c++)</text>
</g>
<!-- ExportSystemC&#45;&gt;SystemCFile -->
<g id="edge31" class="edge">
<title>ExportSystemC&#45;&gt;SystemCFile</title>
<path fill="none" stroke="black" d="M451.13,-219.7C450.79,-211.98 450.4,-202.71 450.03,-194.11"/>
<polygon fill="black" stroke="black" points="453.52,-193.95 449.6,-184.1 446.53,-194.25 453.52,-193.95"/>
</g>
<!-- SVFile -->
<g id="node42" class="node">
<title>SVFile</title>
<polygon fill="#7fc97f" stroke="black" points="168.87,-184 54.87,-184 54.87,-148 174.87,-148 174.87,-178 168.87,-184"/>
<polyline fill="none" stroke="black" points="168.87,-184 168.87,-178 "/>
<polyline fill="none" stroke="black" points="174.87,-178 168.87,-178 "/>
<text text-anchor="middle" x="114.87" y="-162.3" font-family="Times,serif" font-size="14.00">SystemVerilog</text>
</g>
<!-- ExportVerilog&#45;&gt;SVFile -->
<g id="edge23" class="edge">
<title>ExportVerilog&#45;&gt;SVFile</title>
<path fill="none" stroke="black" d="M195.69,-219.88C181.83,-210.81 164.63,-199.55 149.66,-189.76"/>
<polygon fill="black" stroke="black" points="151.43,-186.74 141.14,-184.19 147.59,-192.59 151.43,-186.74"/>
</g>
<!-- Moore -->
<g id="node34" class="node">
<title>Moore</title>
<polygon fill="#ffff99" stroke="black" points="756.6,-828.54 756.6,-843.46 730.98,-854 694.75,-854 669.13,-843.46 669.13,-828.54 694.75,-818 730.98,-818 756.6,-828.54"/>
<text text-anchor="middle" x="712.87" y="-832.3" font-family="Times,serif" font-size="14.00">Moore</text>
</g>
<!-- Moore&#45;&gt;MooreMIR -->
<g id="edge36" class="edge">
<title>Moore&#45;&gt;MooreMIR</title>
<path fill="none" stroke="black" d="M706.47,-817.73C687.67,-766.98 632.49,-618.06 609.8,-556.8"/>
<polygon fill="black" stroke="black" points="612.95,-555.24 606.2,-547.08 606.39,-557.68 612.95,-555.24"/>
</g>
<!-- Calyx_native&#45;&gt;lower_to_sv_and_core -->
<g id="edge38" class="edge">
<title>Calyx_native&#45;&gt;lower_to_sv_and_core</title>
<path fill="none" stroke="black" d="M111.84,-512.81C159.69,-493.67 237,-462.75 247.64,-458.49"/>
</g>
<!-- FIRFile -->
<g id="node36" class="node">
<title>FIRFile</title>
<polygon fill="#7fc97f" stroke="black" points="509.87,-854 461.87,-854 461.87,-818 515.87,-818 515.87,-848 509.87,-854"/>
<polyline fill="none" stroke="black" points="509.87,-854 509.87,-848 "/>
<polyline fill="none" stroke="black" points="515.87,-848 509.87,-848 "/>
<text text-anchor="middle" x="488.87" y="-832.3" font-family="Times,serif" font-size="14.00">.fir</text>
</g>
<!-- FIRFile&#45;&gt;FIRRTLParser -->
<g id="edge28" class="edge">
<title>FIRFile&#45;&gt;FIRRTLParser</title>
<path fill="none" stroke="black" d="M515.98,-821.06C526.39,-814.31 537.33,-805.21 543.87,-794 575.12,-740.4 592.9,-705.51 556.87,-655 551.4,-647.33 509.92,-633.3 471.39,-621.59"/>
<polygon fill="black" stroke="black" points="472.27,-618.2 461.68,-618.67 470.25,-624.9 472.27,-618.2"/>
</g>
<!-- FIRFile&#45;&gt;Scheduling -->
<!-- Chisel -->
<g id="node37" class="node">
<title>Chisel</title>
<polygon fill="#ffff99" stroke="black" points="531.69,-919.54 531.69,-934.46 506.61,-945 471.13,-945 446.04,-934.46 446.04,-919.54 471.13,-909 506.61,-909 531.69,-919.54"/>
<text text-anchor="middle" x="488.87" y="-923.3" font-family="Times,serif" font-size="14.00">Chisel</text>
</g>
<!-- Chisel&#45;&gt;CF -->
<!-- Chisel&#45;&gt;FIRFile -->
<g id="edge27" class="edge">
<title>Chisel&#45;&gt;FIRFile</title>
<path fill="none" stroke="black" d="M488.87,-908.84C488.87,-896.28 488.87,-878.98 488.87,-864.5"/>
<polygon fill="black" stroke="black" points="492.37,-864.11 488.87,-854.11 485.37,-864.11 492.37,-864.11"/>
</g>
<!-- SVVHDL -->
<g id="node38" class="node">
<title>SVVHDL</title>
<polygon fill="#ffff99" stroke="black" points="771.15,-919.54 771.15,-934.46 737.01,-945 688.73,-945 654.59,-934.46 654.59,-919.54 688.73,-909 737.01,-909 771.15,-919.54"/>
<text text-anchor="middle" x="712.87" y="-923.3" font-family="Times,serif" font-size="14.00">SV/VHDL</text>
</g>
<!-- SVVHDL&#45;&gt;Moore -->
<g id="edge35" class="edge">
<title>SVVHDL&#45;&gt;Moore</title>
<path fill="none" stroke="black" d="M712.87,-908.84C712.87,-896.28 712.87,-878.98 712.87,-864.5"/>
<polygon fill="black" stroke="black" points="716.37,-864.11 712.87,-854.11 709.37,-864.11 716.37,-864.11"/>
</g>
<!-- PyFile -->
<g id="node39" class="node">
<title>PyFile</title>
<polygon fill="#ffff99" stroke="black" points="640.14,-919.54 640.14,-934.46 612.45,-945 573.29,-945 545.6,-934.46 545.6,-919.54 573.29,-909 612.45,-909 640.14,-919.54"/>
<text text-anchor="middle" x="592.87" y="-923.3" font-family="Times,serif" font-size="14.00">Python</text>
</g>
<!-- PyFile&#45;&gt;PyCDE -->
<g id="edge43" class="edge">
<title>PyFile&#45;&gt;PyCDE</title>
<path fill="none" stroke="black" d="M596.33,-908.87C604.46,-864.09 620.89,-741.04 575.87,-655 569.68,-643.18 559.57,-633.12 549.06,-625.05"/>
<polygon fill="black" stroke="black" points="550.77,-621.97 540.61,-619 546.7,-627.67 550.77,-621.97"/>
</g>
<!-- SystemCFile&#45;&gt;ServiceDesc -->
<!-- SystemCFile&#45;&gt;TCL -->
<!-- SoftwareAPI -->
<g id="node44" class="node">
<title>SoftwareAPI</title>
<polygon fill="none" stroke="black" stroke-dasharray="5,2" points="510.37,-38 381.37,-38 381.37,0 516.37,0 516.37,-32 510.37,-38"/>
<polyline fill="none" stroke="black" stroke-dasharray="5,2" points="510.37,-38 510.37,-32 "/>
<polyline fill="none" stroke="black" stroke-dasharray="5,2" points="516.37,-32 510.37,-32 "/>
<text text-anchor="middle" x="448.87" y="-22.8" font-family="Times,serif" font-size="14.00">Software API</text>
<text text-anchor="middle" x="448.87" y="-7.8" font-family="Times,serif" font-size="14.00">(e.g. py/c++/c#)</text>
</g>
<!-- ServiceDesc&#45;&gt;SoftwareAPI -->
<g id="edge50" class="edge">
<title>ServiceDesc&#45;&gt;SoftwareAPI</title>
<path fill="none" stroke="black" stroke-dasharray="5,2" d="M448.87,-73.83C448.87,-66.13 448.87,-56.97 448.87,-48.42"/>
<polygon fill="black" stroke="black" points="452.37,-48.41 448.87,-38.41 445.37,-48.41 452.37,-48.41"/>
</g>
</g>
</svg>
