<?xml version="1.0" encoding="UTF-8" standalone="no"?>
<!DOCTYPE svg PUBLIC "-//W3C//DTD SVG 1.1//EN"
 "http://www.w3.org/Graphics/SVG/1.1/DTD/svg11.dtd">
<!-- Generated by graphviz version 3.0.0 (20220226.1711)
 -->
<!-- Title: G Pages: 1 -->
<svg width="590pt" height="833pt"
 viewBox="0.00 0.00 589.50 833.00" xmlns="http://www.w3.org/2000/svg" xmlns:xlink="http://www.w3.org/1999/xlink">
<g id="graph0" class="graph" transform="scale(1 1) rotate(0) translate(4 829)">
<title>G</title>
<polygon fill="white" stroke="transparent" points="-4,4 -4,-829 585.5,-829 585.5,4 -4,4"/>
<g id="clust1" class="cluster">
<title>cluster_mlir</title>
<polygon fill="none" stroke="black" points="8,-726 8,-817 304,-817 304,-726 8,-726"/>
<text text-anchor="middle" x="156" y="-801.8" font-family="Times,serif" font-size="14.00">Upstream MLIR</text>
</g>
<g id="clust2" class="cluster">
<title>cluster_std_arith_dialect</title>
<polygon fill="none" stroke="black" points="146,-734 146,-786 296,-786 296,-734 146,-734"/>
</g>
<g id="clust3" class="cluster">
<title>cluster_circt</title>
<polygon fill="none" stroke="black" points="64,-136 64,-718 424,-718 424,-136 64,-136"/>
<text text-anchor="middle" x="244" y="-702.8" font-family="Times,serif" font-size="14.00">CIRCT</text>
</g>
<g id="clust4" class="cluster">
<title>cluster_RTL</title>
<polygon fill="none" stroke="black" points="200,-208 200,-355 406,-355 406,-208 200,-208"/>
<text text-anchor="middle" x="303" y="-339.8" font-family="Times,serif" font-size="14.00">RTL dialects</text>
</g>
<!-- SCF -->
<g id="node1" class="node">
<title>SCF</title>
<polygon fill="#beaed4" stroke="black" points="70,-778 16,-778 16,-742 70,-742 70,-778"/>
<text text-anchor="middle" x="43" y="-756.3" font-family="Times,serif" font-size="14.00">SCF</text>
</g>
<!-- Calyx -->
<g id="node6" class="node">
<title>Calyx</title>
<g id="a_node6"><a xlink:href="https://circt.llvm.org/docs/Dialects/Calyx/" xlink:title="Calyx">
<polygon fill="white" stroke="black" points="142,-543 88,-543 88,-507 142,-507 142,-543"/>
<text text-anchor="middle" x="115" y="-521.3" font-family="Times,serif" font-size="14.00">Calyx</text>
</a>
</g>
</g>
<!-- SCF&#45;&gt;Calyx -->
<g id="edge1" class="edge">
<title>SCF&#45;&gt;Calyx</title>
<path fill="none" stroke="black" d="M44.71,-741.79C48.4,-709.05 58.72,-635.98 82,-579 85.79,-569.72 91.15,-560.22 96.46,-551.88"/>
<polygon fill="black" stroke="black" points="99.51,-553.61 102.11,-543.34 93.67,-549.75 99.51,-553.61"/>
</g>
<!-- Affine -->
<g id="node2" class="node">
<title>Affine</title>
<polygon fill="#beaed4" stroke="black" points="138,-778 84,-778 84,-742 138,-742 138,-778"/>
<text text-anchor="middle" x="111" y="-756.3" font-family="Times,serif" font-size="14.00">Affine</text>
</g>
<!-- StaticLogic -->
<g id="node8" class="node">
<title>StaticLogic</title>
<g id="a_node8"><a xlink:href="https://circt.llvm.org/docs/Dialects/StaticLogic/" xlink:title="StaticLogic">
<polygon fill="white" stroke="black" points="167.5,-615 88.5,-615 88.5,-579 167.5,-579 167.5,-615"/>
<text text-anchor="middle" x="128" y="-593.3" font-family="Times,serif" font-size="14.00">StaticLogic</text>
</a>
</g>
</g>
<!-- Affine&#45;&gt;StaticLogic -->
<g id="edge2" class="edge">
<title>Affine&#45;&gt;StaticLogic</title>
<path fill="none" stroke="black" d="M125.78,-741.95C130.93,-736.51 136.95,-730.7 143,-726 148.66,-721.61 153.4,-724.2 157,-718 174.15,-688.45 158.69,-649.16 144.59,-623.73"/>
<polygon fill="black" stroke="black" points="147.58,-621.91 139.52,-615.03 141.53,-625.43 147.58,-621.91"/>
</g>
<!-- Scheduling -->
<g id="node22" class="node">
<title>Scheduling</title>
<g id="a_node22"><a xlink:href="https://circt.llvm.org/docs/Scheduling/" xlink:title="Scheduling">
<polygon fill="#fdc086" stroke="black" points="149.5,-687 72.5,-687 72.5,-651 149.5,-651 149.5,-687"/>
<text text-anchor="middle" x="111" y="-665.3" font-family="Times,serif" font-size="14.00">Scheduling</text>
</a>
</g>
</g>
<!-- Affine&#45;&gt;Scheduling -->
<!-- Standard -->
<g id="node3" class="node">
<title>Standard</title>
<polygon fill="#beaed4" stroke="black" points="287.5,-778 222.5,-778 222.5,-742 287.5,-742 287.5,-778"/>
<text text-anchor="middle" x="255" y="-756.3" font-family="Times,serif" font-size="14.00">Standard</text>
</g>
<!-- Arith -->
<g id="node4" class="node">
<title>Arith</title>
<polygon fill="#beaed4" stroke="black" points="208,-778 154,-778 154,-742 208,-742 208,-778"/>
<text text-anchor="middle" x="181" y="-756.3" font-family="Times,serif" font-size="14.00">Arith</text>
</g>
<!-- Handshake -->
<g id="node5" class="node">
<title>Handshake</title>
<g id="a_node5"><a xlink:href="https://circt.llvm.org/docs/Dialects/Handshake/" xlink:title="Handshake">
<polygon fill="white" stroke="black" points="233.5,-543 156.5,-543 156.5,-507 233.5,-507 233.5,-543"/>
<text text-anchor="middle" x="195" y="-521.3" font-family="Times,serif" font-size="14.00">Handshake</text>
</a>
</g>
</g>
<!-- Arith&#45;&gt;Handshake -->
<g id="edge4" class="edge">
<title>Arith&#45;&gt;Handshake</title>
<path fill="none" stroke="black" d="M204.57,-734C208.03,-729.03 211.07,-723.6 213,-718 233.1,-659.58 223.07,-639.95 213,-579 211.56,-570.28 208.87,-561.06 206,-552.8"/>
<polygon fill="black" stroke="black" points="209.23,-551.46 202.48,-543.3 202.67,-553.89 209.23,-551.46"/>
</g>
<!-- Arith&#45;&gt;Calyx -->
<g id="edge5" class="edge">
<title>Arith&#45;&gt;Calyx</title>
<path fill="none" stroke="black" d="M186.12,-734C192.24,-697.86 198.92,-629.78 175,-579 169.44,-567.19 159.88,-556.92 150.01,-548.64"/>
<polygon fill="black" stroke="black" points="152.13,-545.85 142.1,-542.44 147.81,-551.36 152.13,-545.85"/>
</g>
<!-- FIRRTL -->
<g id="node7" class="node">
<title>FIRRTL</title>
<g id="a_node7"><a xlink:href="https://circt.llvm.org/docs/Dialects/FIRRTL/" xlink:title="FIRRTL">
<polygon fill="white" stroke="black" points="263,-471 201,-471 201,-435 263,-435 263,-471"/>
<text text-anchor="middle" x="232" y="-449.3" font-family="Times,serif" font-size="14.00">FIRRTL</text>
</a>
</g>
</g>
<!-- Handshake&#45;&gt;FIRRTL -->
<g id="edge6" class="edge">
<title>Handshake&#45;&gt;FIRRTL</title>
<path fill="none" stroke="black" d="M204.15,-506.7C208.4,-498.64 213.56,-488.89 218.27,-479.98"/>
<polygon fill="black" stroke="black" points="221.38,-481.58 222.96,-471.1 215.19,-478.31 221.38,-481.58"/>
</g>
<!-- FSM -->
<g id="node11" class="node">
<title>FSM</title>
<g id="a_node11"><a xlink:href="https://circt.llvm.org/docs/Dialects/FSM/" xlink:title="FSM">
<polygon fill="white" stroke="black" points="187,-471 133,-471 133,-435 187,-435 187,-471"/>
<text text-anchor="middle" x="160" y="-449.3" font-family="Times,serif" font-size="14.00">FSM</text>
</a>
</g>
</g>
<!-- Calyx&#45;&gt;FSM -->
<g id="edge7" class="edge">
<title>Calyx&#45;&gt;FSM</title>
<path fill="none" stroke="black" stroke-dasharray="5,2" d="M126.12,-506.7C131.36,-498.56 137.7,-488.69 143.48,-479.7"/>
<polygon fill="black" stroke="black" points="146.54,-481.41 149,-471.1 140.65,-477.62 146.54,-481.41"/>
</g>
<!-- Calyx_native -->
<g id="node25" class="node">
<title>Calyx_native</title>
<polygon fill="#ffff99" stroke="black" points="581.5,-154.54 581.5,-169.46 546.06,-180 495.94,-180 460.5,-169.46 460.5,-154.54 495.94,-144 546.06,-144 581.5,-154.54"/>
<text text-anchor="middle" x="521" y="-158.3" font-family="Times,serif" font-size="14.00">Calyx native</text>
</g>
<!-- Calyx&#45;&gt;Calyx_native -->
<g id="edge25" class="edge">
<title>Calyx&#45;&gt;Calyx_native</title>
<path fill="none" stroke="black" d="M142.18,-509.8C144.78,-508.74 147.42,-507.79 150,-507 331.41,-451.69 558,-571.65 558,-382 558,-382 558,-382 558,-305 558,-263.71 543.17,-217.77 532.28,-189.63"/>
<polygon fill="black" stroke="black" points="535.44,-188.11 528.49,-180.11 528.94,-190.7 535.44,-188.11"/>
</g>
<!-- space_above_RTL -->
<!-- FIRRTL&#45;&gt;space_above_RTL -->
<!-- HW -->
<g id="node14" class="node">
<title>HW</title>
<g id="a_node14"><a xlink:href="https://circt.llvm.org/docs/Dialects/HW/" xlink:title="HW">
<polygon fill="white" stroke="black" points="262,-324 208,-324 208,-288 262,-288 262,-324"/>
<text text-anchor="middle" x="235" y="-302.3" font-family="Times,serif" font-size="14.00">HW</text>
</a>
</g>
</g>
<!-- FIRRTL&#45;&gt;HW -->
<g id="edge8" class="edge">
<title>FIRRTL&#45;&gt;HW</title>
<path fill="none" stroke="black" d="M232.36,-434.8C232.71,-417.61 233.28,-390.21 233.8,-365.18"/>
<polygon fill="black" stroke="black" points="237.3,-365.07 234.01,-355 230.3,-364.92 237.3,-365.07"/>
</g>
<!-- StaticLogic&#45;&gt;Calyx -->
<g id="edge3" class="edge">
<title>StaticLogic&#45;&gt;Calyx</title>
<path fill="none" stroke="black" d="M124.79,-578.7C123.35,-570.98 121.63,-561.71 120.04,-553.11"/>
<polygon fill="black" stroke="black" points="123.44,-552.3 118.18,-543.1 116.56,-553.58 123.44,-552.3"/>
</g>
<!-- MSFT -->
<g id="node9" class="node">
<title>MSFT</title>
<g id="a_node9"><a xlink:href="https://circt.llvm.org/docs/Dialects/MSFT/" xlink:title="MSFT">
<polygon fill="white" stroke="black" points="399,-471 345,-471 345,-435 399,-435 399,-471"/>
<text text-anchor="middle" x="372" y="-449.3" font-family="Times,serif" font-size="14.00">MSFT</text>
</a>
</g>
</g>
<!-- MSFT&#45;&gt;space_above_RTL -->
<!-- MSFT&#45;&gt;HW -->
<g id="edge9" class="edge">
<title>MSFT&#45;&gt;HW</title>
<path fill="none" stroke="black" d="M370.42,-434.81C367.55,-414.22 359.49,-380.33 337,-363 315.91,-346.75 299.7,-364.71 278.45,-359.04"/>
<polygon fill="black" stroke="black" points="279.57,-355.72 269,-355 276.82,-362.15 279.57,-355.72"/>
</g>
<!-- TCL -->
<g id="node31" class="node">
<title>TCL</title>
<polygon fill="#7fc97f" stroke="black" points="454,-108 406,-108 406,-72 460,-72 460,-102 454,-108"/>
<polyline fill="none" stroke="black" points="454,-108 454,-102 "/>
<polyline fill="none" stroke="black" points="460,-102 454,-102 "/>
<text text-anchor="middle" x="433" y="-86.3" font-family="Times,serif" font-size="14.00">.tcl</text>
</g>
<!-- MSFT&#45;&gt;TCL -->
<g id="edge35" class="edge">
<title>MSFT&#45;&gt;TCL</title>
<path fill="none" stroke="black" d="M399.02,-449.18C429.92,-444.44 479.63,-431.88 506,-399 536.93,-360.44 525.4,-335.85 513,-288 499.23,-234.85 472.55,-231.31 453,-180 445.35,-159.93 440.19,-136.15 437.03,-118.22"/>
<polygon fill="black" stroke="black" points="440.45,-117.44 435.36,-108.15 433.55,-118.59 440.45,-117.44"/>
</g>
<!-- ESI -->
<g id="node10" class="node">
<title>ESI</title>
<g id="a_node10"><a xlink:href="https://circt.llvm.org/docs/Dialects/ESI/" xlink:title="ESI">
<polygon fill="white" stroke="black" points="331,-471 277,-471 277,-435 331,-435 331,-471"/>
<text text-anchor="middle" x="304" y="-449.3" font-family="Times,serif" font-size="14.00">ESI</text>
</a>
</g>
</g>
<!-- ESI&#45;&gt;space_above_RTL -->
<!-- ESI&#45;&gt;HW -->
<g id="edge10" class="edge">
<title>ESI&#45;&gt;HW</title>
<path fill="none" stroke="black" d="M291.28,-434.94C284.13,-424.84 275.38,-411.59 269,-399 263.51,-388.16 258.44,-376.21 253.98,-364.62"/>
<polygon fill="black" stroke="black" points="257.16,-363.14 250.38,-355 250.6,-365.59 257.16,-363.14"/>
</g>
<!-- CapNProto -->
<g id="node30" class="node">
<title>CapNProto</title>
<polygon fill="#7fc97f" stroke="black" points="208,-108 134,-108 134,-72 214,-72 214,-102 208,-108"/>
<polyline fill="none" stroke="black" points="208,-108 208,-102 "/>
<polyline fill="none" stroke="black" points="214,-102 208,-102 "/>
<text text-anchor="middle" x="174" y="-86.3" font-family="Times,serif" font-size="14.00">Cap&#39;n Proto</text>
</g>
<!-- ESI&#45;&gt;CapNProto -->
<g id="edge34" class="edge">
<title>ESI&#45;&gt;CapNProto</title>
<path fill="none" stroke="black" d="M280.71,-434.99C240.19,-404.53 161,-340.68 161,-307 161,-307 161,-307 161,-233 161,-192.83 166.22,-146.53 170.05,-118.01"/>
<polygon fill="black" stroke="black" points="173.53,-118.39 171.43,-108 166.6,-117.43 173.53,-118.39"/>
</g>
<!-- FSM&#45;&gt;space_above_RTL -->
<!-- FSM&#45;&gt;HW -->
<g id="edge11" class="edge">
<title>FSM&#45;&gt;HW</title>
<path fill="none" stroke="black" d="M168.9,-434.8C177.91,-417.38 192.34,-389.47 205.43,-364.17"/>
<polygon fill="black" stroke="black" points="208.69,-365.49 210.17,-355 202.47,-362.27 208.69,-365.49"/>
</g>
<!-- Seq -->
<g id="node13" class="node">
<title>Seq</title>
<g id="a_node13"><a xlink:href="https://circt.llvm.org/docs/Dialects/Seq/" xlink:title="Seq">
<polygon fill="white" stroke="black" points="330,-324 276,-324 276,-288 330,-288 330,-324"/>
<text text-anchor="middle" x="303" y="-302.3" font-family="Times,serif" font-size="14.00">Seq</text>
</a>
</g>
</g>
<!-- space_above_RTL&#45;&gt;Seq -->
<!-- space_above_RTL&#45;&gt;HW -->
<!-- Comb -->
<g id="node16" class="node">
<title>Comb</title>
<g id="a_node16"><a xlink:href="https://circt.llvm.org/docs/Dialects/Comb/" xlink:title="Comb">
<polygon fill="white" stroke="black" points="398,-324 344,-324 344,-288 398,-288 398,-324"/>
<text text-anchor="middle" x="371" y="-302.3" font-family="Times,serif" font-size="14.00">Comb</text>
</a>
</g>
</g>
<!-- space_above_RTL&#45;&gt;Comb -->
<!-- SV -->
<g id="node15" class="node">
<title>SV</title>
<g id="a_node15"><a xlink:href="https://circt.llvm.org/docs/Dialects/SV/" xlink:title="SV">
<polygon fill="white" stroke="black" points="384,-252 330,-252 330,-216 384,-216 384,-252"/>
<text text-anchor="middle" x="357" y="-230.3" font-family="Times,serif" font-size="14.00">SV</text>
</a>
</g>
</g>
<!-- Seq&#45;&gt;SV -->
<g id="edge12" class="edge">
<title>Seq&#45;&gt;SV</title>
<path fill="none" stroke="black" d="M316.35,-287.7C322.76,-279.39 330.56,-269.28 337.61,-260.14"/>
<polygon fill="black" stroke="black" points="340.47,-262.16 343.81,-252.1 334.93,-257.88 340.47,-262.16"/>
</g>
<!-- llhd_sim -->
<g id="node19" class="node">
<title>llhd_sim</title>
<polygon fill="#fdc086" stroke="black" points="308.5,-180 243.5,-180 243.5,-144 308.5,-144 308.5,-180"/>
<text text-anchor="middle" x="276" y="-158.3" font-family="Times,serif" font-size="14.00">llhd_sim</text>
</g>
<!-- Seq&#45;&gt;llhd_sim -->
<g id="edge29" class="edge">
<title>Seq&#45;&gt;llhd_sim</title>
<path fill="none" stroke="black" d="M276,-288.89C263.47,-279.8 249.86,-267.2 243,-252 234.96,-234.17 236.92,-226.59 243,-208 245.23,-201.2 248.92,-194.57 253.04,-188.59"/>
<polygon fill="black" stroke="black" points="256.04,-190.42 259.28,-180.33 250.46,-186.2 256.04,-190.42"/>
</g>
<!-- LLHD -->
<g id="node17" class="node">
<title>LLHD</title>
<g id="a_node17"><a xlink:href="https://circt.llvm.org/docs/Dialects/LLHD/" xlink:title="LLHD">
<polygon fill="white" stroke="black" points="316,-252 262,-252 262,-216 316,-216 316,-252"/>
<text text-anchor="middle" x="289" y="-230.3" font-family="Times,serif" font-size="14.00">LLHD</text>
</a>
</g>
</g>
<!-- HW&#45;&gt;LLHD -->
<g id="edge13" class="edge">
<title>HW&#45;&gt;LLHD</title>
<path fill="none" stroke="black" d="M248.35,-287.7C254.76,-279.39 262.56,-269.28 269.61,-260.14"/>
<polygon fill="black" stroke="black" points="272.47,-262.16 275.81,-252.1 266.93,-257.88 272.47,-262.16"/>
</g>
<!-- HW&#45;&gt;llhd_sim -->
<g id="edge30" class="edge">
<title>HW&#45;&gt;llhd_sim</title>
<path fill="none" stroke="black" d="M231.05,-287.83C227.3,-267.87 223.62,-234.32 234,-208 236.86,-200.75 241.49,-193.99 246.66,-188.01"/>
<polygon fill="black" stroke="black" points="249.56,-190.04 253.92,-180.39 244.49,-185.22 249.56,-190.04"/>
</g>
<!-- ExportVerilog -->
<g id="node20" class="node">
<title>ExportVerilog</title>
<g id="a_node20"><a xlink:href="https://circt.llvm.org/docs/VerilogGeneration/" xlink:title="ExportVerilog">
<polygon fill="#fdc086" stroke="black" points="415.5,-180 322.5,-180 322.5,-144 415.5,-144 415.5,-180"/>
<text text-anchor="middle" x="369" y="-158.3" font-family="Times,serif" font-size="14.00">ExportVerilog</text>
</a>
</g>
</g>
<!-- HW&#45;&gt;ExportVerilog -->
<g id="edge19" class="edge">
<title>HW&#45;&gt;ExportVerilog</title>
<path fill="none" stroke="black" d="M262.27,-290.84C264.53,-289.83 266.79,-288.87 269,-288 321.6,-267.28 357.15,-297.28 391,-252 404.68,-233.7 396.1,-207.95 385.93,-188.85"/>
<polygon fill="black" stroke="black" points="388.91,-187.01 380.9,-180.07 382.84,-190.49 388.91,-187.01"/>
</g>
<!-- Circilator -->
<g id="node26" class="node">
<title>Circilator</title>
<polygon fill="#ffff99" stroke="black" stroke-dasharray="5,2" points="323.68,-82.54 323.68,-97.46 295.75,-108 256.25,-108 228.32,-97.46 228.32,-82.54 256.25,-72 295.75,-72 323.68,-82.54"/>
<text text-anchor="middle" x="276" y="-86.3" font-family="Times,serif" font-size="14.00">Circilator</text>
</g>
<!-- HW&#45;&gt;Circilator -->
<g id="edge23" class="edge">
<title>HW&#45;&gt;Circilator</title>
<path fill="none" stroke="black" stroke-dasharray="5,2" d="M221.44,-287.97C214.44,-278.09 206.63,-265.05 203,-252 197.75,-233.16 200.23,-227.36 203,-208 207.71,-175 205.99,-164.05 224,-136 229.4,-127.59 236.83,-119.87 244.38,-113.28"/>
<polygon fill="black" stroke="black" points="247.02,-115.65 252.54,-106.6 242.58,-110.23 247.02,-115.65"/>
</g>
<!-- SV&#45;&gt;ExportVerilog -->
<g id="edge20" class="edge">
<title>SV&#45;&gt;ExportVerilog</title>
<path fill="none" stroke="black" d="M359.97,-215.7C361.29,-207.98 362.88,-198.71 364.35,-190.11"/>
<polygon fill="black" stroke="black" points="367.83,-190.55 366.07,-180.1 360.93,-189.37 367.83,-190.55"/>
</g>
<!-- Comb&#45;&gt;llhd_sim -->
<g id="edge31" class="edge">
<title>Comb&#45;&gt;llhd_sim</title>
<path fill="none" stroke="black" d="M343.96,-291.33C341.62,-290.19 339.27,-289.07 337,-288 300.97,-271.09 276.76,-285.32 255,-252 242.67,-233.12 250.48,-207.8 259.88,-189"/>
<polygon fill="black" stroke="black" points="263.02,-190.55 264.7,-180.08 256.86,-187.22 263.02,-190.55"/>
</g>
<!-- Comb&#45;&gt;ExportVerilog -->
<g id="edge14" class="edge">
<title>Comb&#45;&gt;ExportVerilog</title>
<path fill="none" stroke="black" d="M384.56,-287.97C391.56,-278.09 399.37,-265.05 403,-252 408.25,-233.16 409.22,-226.54 403,-208 400.7,-201.14 396.89,-194.49 392.64,-188.5"/>
<polygon fill="black" stroke="black" points="395.13,-185.99 386.22,-180.25 389.6,-190.29 395.13,-185.99"/>
</g>
<!-- LLHD&#45;&gt;llhd_sim -->
<g id="edge32" class="edge">
<title>LLHD&#45;&gt;llhd_sim</title>
<path fill="none" stroke="black" d="M285.79,-215.7C284.35,-207.98 282.63,-198.71 281.04,-190.11"/>
<polygon fill="black" stroke="black" points="284.44,-189.3 279.18,-180.1 277.56,-190.58 284.44,-189.3"/>
</g>
<!-- LLHD&#45;&gt;Circilator -->
<g id="edge24" class="edge">
<title>LLHD&#45;&gt;Circilator</title>
<path fill="none" stroke="black" stroke-dasharray="5,2" d="M262.88,-215.82C251.42,-206.69 239.19,-194.39 233,-180 225.27,-162.04 225.72,-154.15 233,-136 236.11,-128.24 241.27,-121.07 246.95,-114.83"/>
<polygon fill="black" stroke="black" points="249.72,-117 254.31,-107.45 244.77,-112.05 249.72,-117"/>
</g>
<!-- FIRRTLParser -->
<g id="node18" class="node">
<title>FIRRTLParser</title>
<polygon fill="#fdc086" stroke="black" points="344,-543 248,-543 248,-507 344,-507 344,-543"/>
<text text-anchor="middle" x="296" y="-521.3" font-family="Times,serif" font-size="14.00">FIRRTLParser</text>
</g>
<!-- FIRRTLParser&#45;&gt;FIRRTL -->
<g id="edge18" class="edge">
<title>FIRRTLParser&#45;&gt;FIRRTL</title>
<path fill="none" stroke="black" d="M280.18,-506.7C272.43,-498.22 262.96,-487.86 254.48,-478.58"/>
<polygon fill="black" stroke="black" points="256.97,-476.12 247.64,-471.1 251.8,-480.85 256.97,-476.12"/>
</g>
<!-- llhd_sim&#45;&gt;Circilator -->
<!-- VCDTrace -->
<g id="node27" class="node">
<title>VCDTrace</title>
<polygon fill="#7fc97f" stroke="black" points="386,-108 338,-108 338,-72 392,-72 392,-102 386,-108"/>
<polyline fill="none" stroke="black" points="386,-108 386,-102 "/>
<polyline fill="none" stroke="black" points="392,-102 386,-102 "/>
<text text-anchor="middle" x="365" y="-86.3" font-family="Times,serif" font-size="14.00">.vcd</text>
</g>
<!-- llhd_sim&#45;&gt;VCDTrace -->
<g id="edge33" class="edge">
<title>llhd_sim&#45;&gt;VCDTrace</title>
<path fill="none" stroke="black" d="M298,-143.7C309.21,-134.88 323,-124.03 335.15,-114.47"/>
<polygon fill="black" stroke="black" points="337.56,-117.04 343.25,-108.1 333.23,-111.54 337.56,-117.04"/>
</g>
<!-- SVFile -->
<g id="node29" class="node">
<title>SVFile</title>
<polygon fill="#7fc97f" stroke="black" points="532,-108 484,-108 484,-72 538,-72 538,-102 532,-108"/>
<polyline fill="none" stroke="black" points="532,-108 532,-102 "/>
<polyline fill="none" stroke="black" points="538,-102 532,-102 "/>
<text text-anchor="middle" x="511" y="-86.3" font-family="Times,serif" font-size="14.00">.sv</text>
</g>
<!-- llhd_sim&#45;&gt;SVFile -->
<!-- llhd_sim&#45;&gt;CapNProto -->
<!-- llhd_sim&#45;&gt;TCL -->
<!-- ExportVerilog&#45;&gt;SVFile -->
<g id="edge26" class="edge">
<title>ExportVerilog&#45;&gt;SVFile</title>
<path fill="none" stroke="black" d="M403.74,-143.88C425.19,-133.3 452.69,-119.74 474.47,-109.01"/>
<polygon fill="black" stroke="black" points="476.31,-112 483.73,-104.44 473.21,-105.73 476.31,-112"/>
</g>
<!-- PyCDE -->
<g id="node21" class="node">
<title>PyCDE</title>
<g id="a_node21"><a xlink:href="https://circt.llvm.org/docs/PyCDE/" xlink:title="PyCDE">
<polygon fill="#fdc086" stroke="black" points="416,-543 358,-543 358,-507 416,-507 416,-543"/>
<text text-anchor="middle" x="387" y="-521.3" font-family="Times,serif" font-size="14.00">PyCDE</text>
</a>
</g>
</g>
<!-- PyCDE&#45;&gt;MSFT -->
<g id="edge38" class="edge">
<title>PyCDE&#45;&gt;MSFT</title>
<path fill="none" stroke="black" d="M383.29,-506.7C381.64,-498.98 379.65,-489.71 377.81,-481.11"/>
<polygon fill="black" stroke="black" points="381.18,-480.15 375.67,-471.1 374.34,-481.62 381.18,-480.15"/>
</g>
<!-- PyCDE&#45;&gt;ESI -->
<g id="edge37" class="edge">
<title>PyCDE&#45;&gt;ESI</title>
<path fill="none" stroke="black" stroke-dasharray="5,2" d="M366.48,-506.7C356.13,-497.97 343.41,-487.24 332.16,-477.75"/>
<polygon fill="black" stroke="black" points="334.18,-474.88 324.28,-471.1 329.67,-480.23 334.18,-474.88"/>
</g>
<!-- Scheduling&#45;&gt;StaticLogic -->
<g id="edge15" class="edge">
<title>Scheduling&#45;&gt;StaticLogic</title>
<path fill="none" stroke="black" d="M117.57,-640.95C118.82,-635.79 120.14,-630.38 121.39,-625.22"/>
<polygon fill="black" stroke="black" points="114.16,-640.15 115.2,-650.7 120.96,-641.81 114.16,-640.15"/>
<polygon fill="black" stroke="black" points="124.89,-625.65 123.85,-615.1 118.08,-624 124.89,-625.65"/>
</g>
<!-- Scheduling&#45;&gt;MSFT -->
<g id="edge39" class="edge">
<title>Scheduling&#45;&gt;MSFT</title>
<path fill="none" stroke="black" stroke-dasharray="5,2" d="M94.51,-641.87C74.73,-606.87 48.11,-544.81 81,-507 117,-465.61 267.21,-485.88 335.08,-471.09"/>
<polygon fill="black" stroke="black" points="91.52,-643.7 99.6,-650.57 97.57,-640.17 91.52,-643.7"/>
<polygon fill="black" stroke="black" points="336.07,-474.45 344.85,-468.52 334.29,-467.68 336.07,-474.45"/>
</g>
<!-- Moore -->
<g id="node23" class="node">
<title>Moore</title>
<polygon fill="#ffff99" stroke="black" points="506.07,-298.54 506.07,-313.46 484.36,-324 453.64,-324 431.93,-313.46 431.93,-298.54 453.64,-288 484.36,-288 506.07,-298.54"/>
<text text-anchor="middle" x="469" y="-302.3" font-family="Times,serif" font-size="14.00">Moore</text>
</g>
<!-- Moore&#45;&gt;LLHD -->
<g id="edge22" class="edge">
<title>Moore&#45;&gt;LLHD</title>
<path fill="none" stroke="black" d="M438.69,-295.14C410.92,-285.85 368.56,-271.08 325.76,-253.03"/>
<polygon fill="black" stroke="black" points="326.91,-249.72 316.34,-249.01 324.16,-256.15 326.91,-249.72"/>
</g>
<!-- Chisel -->
<g id="node24" class="node">
<title>Chisel</title>
<polygon fill="#ffff99" stroke="black" points="494.76,-752.54 494.76,-767.46 473.81,-778 444.19,-778 423.24,-767.46 423.24,-752.54 444.19,-742 473.81,-742 494.76,-752.54"/>
<text text-anchor="middle" x="459" y="-756.3" font-family="Times,serif" font-size="14.00">Chisel</text>
</g>
<!-- FIRFile -->
<g id="node32" class="node">
<title>FIRFile</title>
<polygon fill="#7fc97f" stroke="black" points="480,-687 432,-687 432,-651 486,-651 486,-681 480,-687"/>
<polyline fill="none" stroke="black" points="480,-687 480,-681 "/>
<polyline fill="none" stroke="black" points="486,-681 480,-681 "/>
<text text-anchor="middle" x="459" y="-665.3" font-family="Times,serif" font-size="14.00">.fir</text>
</g>
<!-- Chisel&#45;&gt;FIRFile -->
<g id="edge16" class="edge">
<title>Chisel&#45;&gt;FIRFile</title>
<path fill="none" stroke="black" d="M459,-741.84C459,-729.28 459,-711.98 459,-697.5"/>
<polygon fill="black" stroke="black" points="462.5,-697.11 459,-687.11 455.5,-697.11 462.5,-697.11"/>
</g>
<!-- Calyx_native&#45;&gt;SVFile -->
<g id="edge27" class="edge">
<title>Calyx_native&#45;&gt;SVFile</title>
<path fill="none" stroke="black" d="M513.93,-143.7C512.21,-135.98 510.71,-126.71 509.74,-118.11"/>
<polygon fill="black" stroke="black" points="513.23,-117.76 508.86,-108.1 506.25,-118.37 513.23,-117.76"/>
</g>
<!-- Calyx_native&#45;&gt;SVFile -->
<!-- CPPFile -->
<g id="node28" class="node">
<title>CPPFile</title>
<polygon fill="#7fc97f" stroke="black" points="297,-36 249,-36 249,0 303,0 303,-30 297,-36"/>
<polyline fill="none" stroke="black" points="297,-36 297,-30 "/>
<polyline fill="none" stroke="black" points="303,-30 297,-30 "/>
<text text-anchor="middle" x="276" y="-14.3" font-family="Times,serif" font-size="14.00">.cpp</text>
</g>
<!-- Circilator&#45;&gt;CPPFile -->
<g id="edge28" class="edge">
<title>Circilator&#45;&gt;CPPFile</title>
<path fill="none" stroke="black" stroke-dasharray="5,2" d="M276,-71.7C276,-63.98 276,-54.71 276,-46.11"/>
<polygon fill="black" stroke="black" points="279.5,-46.1 276,-36.1 272.5,-46.1 279.5,-46.1"/>
</g>
<!-- FIRFile&#45;&gt;FIRRTLParser -->
<g id="edge17" class="edge">
<title>FIRFile&#45;&gt;FIRRTLParser</title>
<path fill="none" stroke="black" d="M439.34,-650.87C410.46,-625.71 356.44,-578.65 323.6,-550.04"/>
<polygon fill="black" stroke="black" points="325.57,-547.12 315.73,-543.19 320.97,-552.4 325.57,-547.12"/>
</g>
<!-- PyFile -->
<g id="node34" class="node">
<title>PyFile</title>
<polygon fill="#7fc97f" stroke="black" points="480,-615 432,-615 432,-579 486,-579 486,-609 480,-615"/>
<polyline fill="none" stroke="black" points="480,-615 480,-609 "/>
<polyline fill="none" stroke="black" points="486,-609 480,-609 "/>
<text text-anchor="middle" x="459" y="-593.3" font-family="Times,serif" font-size="14.00">.py</text>
</g>
<!-- FIRFile&#45;&gt;PyFile -->
<!-- SVVHDL -->
<g id="node33" class="node">
<title>SVVHDL</title>
<polygon fill="#7fc97f" stroke="black" points="493,-399 439,-399 439,-363 499,-363 499,-393 493,-399"/>
<polyline fill="none" stroke="black" points="493,-399 493,-393 "/>
<polyline fill="none" stroke="black" points="499,-393 493,-393 "/>
<text text-anchor="middle" x="469" y="-377.3" font-family="Times,serif" font-size="14.00">.sv/.vhd</text>
</g>
<!-- SVVHDL&#45;&gt;Moore -->
<g id="edge21" class="edge">
<title>SVVHDL&#45;&gt;Moore</title>
<path fill="none" stroke="black" d="M469,-362.7C469,-354.25 469,-343.87 469,-334.37"/>
<polygon fill="black" stroke="black" points="472.5,-334.18 469,-324.18 465.5,-334.18 472.5,-334.18"/>
</g>
<!-- PyFile&#45;&gt;PyCDE -->
<g id="edge36" class="edge">
<title>PyFile&#45;&gt;PyCDE</title>
<path fill="none" stroke="black" d="M441.2,-578.7C432.4,-570.14 421.62,-559.66 412,-550.3"/>
<polygon fill="black" stroke="black" points="414.2,-547.57 404.59,-543.1 409.32,-552.58 414.2,-547.57"/>
</g>
</g>
</svg>
