<?xml version="1.0" encoding="UTF-8" standalone="no"?>
<!DOCTYPE svg PUBLIC "-//W3C//DTD SVG 1.1//EN"
 "http://www.w3.org/Graphics/SVG/1.1/DTD/svg11.dtd">
<!-- Generated by graphviz version 2.43.0 (0)
 -->
<!-- Title: G Pages: 1 -->
<svg width="770pt" height="992pt"
 viewBox="0.00 0.00 769.87 992.00" xmlns="http://www.w3.org/2000/svg" xmlns:xlink="http://www.w3.org/1999/xlink">
<g id="graph0" class="graph" transform="scale(1 1) rotate(0) translate(4 988)">
<title>G</title>
<polygon fill="white" stroke="transparent" points="-4,4 -4,-988 765.87,-988 765.87,4 -4,4"/>
<g id="clust1" class="cluster">
<title>cluster_mlir_frontends</title>
<polygon fill="none" stroke="black" points="164.87,-901 164.87,-976 404.87,-976 404.87,-901 164.87,-901"/>
<text text-anchor="middle" x="284.87" y="-960.8" font-family="Times,serif" font-size="14.00">Upstream frontends (selection)</text>
</g>
<g id="clust2" class="cluster">
<title>cluster_mlir</title>
<polygon fill="none" stroke="black" points="114.87,-802 114.87,-893 402.87,-893 402.87,-802 114.87,-802"/>
<text text-anchor="middle" x="258.87" y="-877.8" font-family="Times,serif" font-size="14.00">Upstream MLIR</text>
</g>
<g id="clust3" class="cluster">
<title>cluster_std_arith_dialect</title>
<polygon fill="none" stroke="black" points="256.87,-810 256.87,-862 394.87,-862 394.87,-810 256.87,-810"/>
</g>
<g id="clust4" class="cluster">
<title>cluster_circt</title>
<polygon fill="none" stroke="black" points="155.87,-212 155.87,-794 655.87,-794 655.87,-212 155.87,-212"/>
<text text-anchor="middle" x="405.87" y="-778.8" font-family="Times,serif" font-size="14.00">CIRCT</text>
</g>
<g id="clust6" class="cluster">
<title>cluster_RTL</title>
<polygon fill="none" stroke="black" points="234.87,-356 234.87,-431 528.87,-431 528.87,-356 234.87,-356"/>
<text text-anchor="middle" x="381.87" y="-415.8" font-family="Times,serif" font-size="14.00">Core dialects</text>
</g>
<g id="clust9" class="cluster">
<title>cluster_input_langs</title>
<polygon fill="none" stroke="black" points="412.87,-901 412.87,-976 753.87,-976 753.87,-901 412.87,-901"/>
<text text-anchor="middle" x="583.37" y="-960.8" font-family="Times,serif" font-size="14.00">Input languages</text>
</g>
<!-- PyTorch -->
<g id="node1" class="node">
<title>PyTorch</title>
<polygon fill="white" stroke="black" points="396.87,-945 322.87,-945 322.87,-909 396.87,-909 396.87,-945"/>
<text text-anchor="middle" x="359.87" y="-923.3" font-family="Times,serif" font-size="14.00">PyTorch</text>
</g>
<!-- CF -->
<g id="node5" class="node">
<title>CF</title>
<polygon fill="#beaed4" stroke="black" points="386.87,-854 332.87,-854 332.87,-818 386.87,-818 386.87,-854"/>
<text text-anchor="middle" x="359.87" y="-832.3" font-family="Times,serif" font-size="14.00">CF</text>
</g>
<!-- PyTorch&#45;&gt;CF -->
<g id="edge1" class="edge">
<title>PyTorch&#45;&gt;CF</title>
<path fill="none" stroke="black" d="M355.62,-908.84C355.47,-907.06 355.34,-905.19 355.22,-903.24"/>
<polygon fill="black" stroke="black" points="358.7,-902.84 354.78,-893 351.71,-903.14 358.7,-902.84"/>
</g>
<!-- PyTorch&#45;&gt;CF -->
<!-- Polygeist -->
<g id="node2" class="node">
<title>Polygeist</title>
<polygon fill="white" stroke="black" points="308.87,-945 226.87,-945 226.87,-909 308.87,-909 308.87,-945"/>
<text text-anchor="middle" x="267.87" y="-923.3" font-family="Times,serif" font-size="14.00">Polygeist</text>
</g>
<!-- Affine -->
<g id="node4" class="node">
<title>Affine</title>
<polygon fill="#beaed4" stroke="black" points="248.87,-854 190.87,-854 190.87,-818 248.87,-818 248.87,-854"/>
<text text-anchor="middle" x="219.87" y="-832.3" font-family="Times,serif" font-size="14.00">Affine</text>
</g>
<!-- Polygeist&#45;&gt;Affine -->
<g id="edge2" class="edge">
<title>Polygeist&#45;&gt;Affine</title>
<path fill="none" stroke="black" d="M258.61,-908.84C257.49,-906.77 256.3,-904.56 255.07,-902.26"/>
<polygon fill="black" stroke="black" points="257.89,-900.14 250.07,-893 251.73,-903.46 257.89,-900.14"/>
</g>
<!-- Polygeist&#45;&gt;CF -->
<!-- SCF -->
<g id="node3" class="node">
<title>SCF</title>
<polygon fill="#beaed4" stroke="black" points="176.87,-854 122.87,-854 122.87,-818 176.87,-818 176.87,-854"/>
<text text-anchor="middle" x="149.87" y="-832.3" font-family="Times,serif" font-size="14.00">SCF</text>
</g>
<!-- Calyx -->
<g id="node11" class="node">
<title>Calyx</title>
<g id="a_node11"><a xlink:href="https://circt.llvm.org/docs/Dialects/Calyx/" xlink:title="Calyx">
<polygon fill="white" stroke="black" points="219.87,-619 163.87,-619 163.87,-583 219.87,-583 219.87,-619"/>
<text text-anchor="middle" x="191.87" y="-597.3" font-family="Times,serif" font-size="14.00">Calyx</text>
</a>
</g>
</g>
<!-- SCF&#45;&gt;Calyx -->
<g id="edge3" class="edge">
<title>SCF&#45;&gt;Calyx</title>
<path fill="none" stroke="black" d="M152.96,-817.87C160.18,-777.81 178.21,-677.75 186.96,-629.23"/>
<polygon fill="black" stroke="black" points="190.44,-629.62 188.77,-619.16 183.56,-628.38 190.44,-629.62"/>
</g>
<!-- Pipeline -->
<g id="node13" class="node">
<title>Pipeline</title>
<g id="a_node13"><a xlink:href="https://circt.llvm.org/docs/Dialects/Pipeline/" xlink:title="Pipeline">
<polygon fill="white" stroke="black" points="377.87,-691 303.87,-691 303.87,-655 377.87,-655 377.87,-691"/>
<text text-anchor="middle" x="340.87" y="-669.3" font-family="Times,serif" font-size="14.00">Pipeline</text>
</a>
</g>
</g>
<!-- Affine&#45;&gt;Pipeline -->
<g id="edge4" class="edge">
<title>Affine&#45;&gt;Pipeline</title>
<path fill="none" stroke="black" d="M232.82,-817.77C254.19,-789.32 296.97,-732.4 321.81,-699.36"/>
<polygon fill="black" stroke="black" points="324.8,-701.2 328.01,-691.11 319.2,-697 324.8,-701.2"/>
</g>
<!-- Arith -->
<g id="node6" class="node">
<title>Arith</title>
<polygon fill="#beaed4" stroke="black" points="318.87,-854 264.87,-854 264.87,-818 318.87,-818 318.87,-854"/>
<text text-anchor="middle" x="291.87" y="-832.3" font-family="Times,serif" font-size="14.00">Arith</text>
</g>
<!-- Handshake -->
<g id="node10" class="node">
<title>Handshake</title>
<g id="a_node10"><a xlink:href="https://circt.llvm.org/docs/Dialects/Handshake/" xlink:title="Handshake">
<polygon fill="white" stroke="black" points="329.87,-619 233.87,-619 233.87,-583 329.87,-583 329.87,-619"/>
<text text-anchor="middle" x="281.87" y="-597.3" font-family="Times,serif" font-size="14.00">Handshake</text>
</a>
</g>
</g>
<!-- Arith&#45;&gt;Handshake -->
<g id="edge6" class="edge">
<title>Arith&#45;&gt;Handshake</title>
<path fill="none" stroke="black" d="M290.79,-810C288.9,-765.95 284.99,-674.83 283.04,-629.23"/>
<polygon fill="black" stroke="black" points="286.53,-629 282.6,-619.16 279.54,-629.3 286.53,-629"/>
</g>
<!-- Arith&#45;&gt;Calyx -->
<g id="edge7" class="edge">
<title>Arith&#45;&gt;Calyx</title>
<path fill="none" stroke="black" d="M281.14,-810C262.14,-765.75 222.77,-674.01 203.29,-628.62"/>
<polygon fill="black" stroke="black" points="206.39,-626.97 199.23,-619.16 199.96,-629.73 206.39,-626.97"/>
</g>
<!-- FIRRTLParser -->
<g id="node7" class="node">
<title>FIRRTLParser</title>
<polygon fill="#fdc086" stroke="black" points="461.37,-619 344.37,-619 344.37,-583 461.37,-583 461.37,-619"/>
<text text-anchor="middle" x="402.87" y="-597.3" font-family="Times,serif" font-size="14.00">FIRRTLParser</text>
</g>
<!-- FIRRTL -->
<g id="node12" class="node">
<title>FIRRTL</title>
<g id="a_node12"><a xlink:href="https://circt.llvm.org/docs/Dialects/FIRRTL/" xlink:title="FIRRTL">
<polygon fill="white" stroke="black" points="303.37,-547 232.37,-547 232.37,-511 303.37,-511 303.37,-547"/>
<text text-anchor="middle" x="267.87" y="-525.3" font-family="Times,serif" font-size="14.00">FIRRTL</text>
</a>
</g>
</g>
<!-- FIRRTLParser&#45;&gt;FIRRTL -->
<g id="edge24" class="edge">
<title>FIRRTLParser&#45;&gt;FIRRTL</title>
<path fill="none" stroke="black" d="M369.84,-582.88C351.78,-573.51 329.22,-561.81 309.92,-551.8"/>
<polygon fill="black" stroke="black" points="311.51,-548.69 301.02,-547.19 308.28,-554.9 311.51,-548.69"/>
</g>
<!-- PyCDE -->
<g id="node8" class="node">
<title>PyCDE</title>
<g id="a_node8"><a xlink:href="https://circt.llvm.org/docs/PyCDE/" xlink:title="PyCDE">
<polygon fill="#fdc086" stroke="black" points="542.37,-619 475.37,-619 475.37,-583 542.37,-583 542.37,-619"/>
<text text-anchor="middle" x="508.87" y="-597.3" font-family="Times,serif" font-size="14.00">PyCDE</text>
</a>
</g>
</g>
<!-- MSFT -->
<g id="node14" class="node">
<title>MSFT</title>
<g id="a_node14"><a xlink:href="https://circt.llvm.org/docs/Dialects/MSFT/" xlink:title="MSFT">
<polygon fill="white" stroke="black" points="537.37,-547 478.37,-547 478.37,-511 537.37,-511 537.37,-547"/>
<text text-anchor="middle" x="507.87" y="-525.3" font-family="Times,serif" font-size="14.00">MSFT</text>
</a>
</g>
</g>
<!-- PyCDE&#45;&gt;MSFT -->
<g id="edge40" class="edge">
<title>PyCDE&#45;&gt;MSFT</title>
<path fill="none" stroke="black" d="M508.62,-582.7C508.51,-574.98 508.38,-565.71 508.25,-557.11"/>
<polygon fill="black" stroke="black" points="511.75,-557.05 508.11,-547.1 504.75,-557.15 511.75,-557.05"/>
</g>
<!-- ESI -->
<g id="node15" class="node">
<title>ESI</title>
<g id="a_node15"><a xlink:href="https://circt.llvm.org/docs/Dialects/ESI/" xlink:title="ESI">
<polygon fill="white" stroke="black" points="371.87,-547 317.87,-547 317.87,-511 371.87,-511 371.87,-547"/>
<text text-anchor="middle" x="344.87" y="-525.3" font-family="Times,serif" font-size="14.00">ESI</text>
</a>
</g>
</g>
<!-- PyCDE&#45;&gt;ESI -->
<g id="edge39" class="edge">
<title>PyCDE&#45;&gt;ESI</title>
<path fill="none" stroke="black" d="M475.28,-585.66C473.11,-584.76 470.96,-583.86 468.87,-583 431.84,-567.73 419.84,-564.99 381.43,-548.03"/>
<polygon fill="black" stroke="black" points="382.8,-544.81 372.24,-543.93 379.94,-551.2 382.8,-544.81"/>
</g>
<!-- FSM -->
<g id="node16" class="node">
<title>FSM</title>
<g id="a_node16"><a xlink:href="https://circt.llvm.org/docs/Dialects/FSM/" xlink:title="FSM">
<polygon fill="white" stroke="black" points="217.87,-547 163.87,-547 163.87,-511 217.87,-511 217.87,-547"/>
<text text-anchor="middle" x="190.87" y="-525.3" font-family="Times,serif" font-size="14.00">FSM</text>
</a>
</g>
</g>
<!-- PyCDE&#45;&gt;FSM -->
<g id="edge42" class="edge">
<title>PyCDE&#45;&gt;FSM</title>
<path fill="none" stroke="black" d="M475.04,-584.93C472.97,-584.22 470.9,-583.57 468.87,-583 366.85,-554.28 332.21,-577.76 227.71,-547.11"/>
<polygon fill="black" stroke="black" points="228.64,-543.73 218.06,-544.18 226.61,-550.43 228.64,-543.73"/>
</g>
<!-- HWArith -->
<g id="node17" class="node">
<title>HWArith</title>
<g id="a_node17"><a xlink:href="https://circt.llvm.org/docs/Dialects/HWArith/" xlink:title="HWArith">
<polygon fill="white" stroke="black" points="463.87,-547 385.87,-547 385.87,-511 463.87,-511 463.87,-547"/>
<text text-anchor="middle" x="424.87" y="-525.3" font-family="Times,serif" font-size="14.00">HWArith</text>
</a>
</g>
</g>
<!-- PyCDE&#45;&gt;HWArith -->
<g id="edge41" class="edge">
<title>PyCDE&#45;&gt;HWArith</title>
<path fill="none" stroke="black" d="M488.1,-582.7C477.63,-573.97 464.76,-563.24 453.37,-553.75"/>
<polygon fill="black" stroke="black" points="455.31,-550.82 445.39,-547.1 450.83,-556.19 455.31,-550.82"/>
</g>
<!-- Scheduling -->
<g id="node9" class="node">
<title>Scheduling</title>
<g id="a_node9"><a xlink:href="https://circt.llvm.org/docs/Scheduling/" xlink:title="Scheduling">
<polygon fill="#fdc086" stroke="black" points="513.87,-763 417.87,-763 417.87,-727 513.87,-727 513.87,-763"/>
<text text-anchor="middle" x="465.87" y="-741.3" font-family="Times,serif" font-size="14.00">Scheduling</text>
</a>
</g>
</g>
<!-- Scheduling&#45;&gt;Pipeline -->
<g id="edge21" class="edge">
<title>Scheduling&#45;&gt;Pipeline</title>
<path fill="none" stroke="black" d="M426.33,-721.86C411.67,-713.65 395.06,-704.35 380.4,-696.14"/>
<polygon fill="black" stroke="black" points="424.85,-725.04 435.29,-726.88 428.27,-718.94 424.85,-725.04"/>
<polygon fill="black" stroke="black" points="382,-693.02 371.56,-691.19 378.58,-699.13 382,-693.02"/>
</g>
<!-- Scheduling&#45;&gt;MSFT -->
<g id="edge43" class="edge">
<title>Scheduling&#45;&gt;MSFT</title>
<path fill="none" stroke="black" stroke-dasharray="5,2" d="M489.36,-718.97C509.84,-695.29 538.07,-657.7 549.87,-619 554.53,-603.7 555.13,-598.11 549.87,-583 546.33,-572.86 539.96,-563.19 533.23,-554.96"/>
<polygon fill="black" stroke="black" points="486.48,-716.94 482.47,-726.75 491.72,-721.58 486.48,-716.94"/>
<polygon fill="black" stroke="black" points="535.69,-552.46 526.47,-547.24 530.43,-557.07 535.69,-552.46"/>
</g>
<!-- Handshake&#45;&gt;FIRRTL -->
<g id="edge8" class="edge">
<title>Handshake&#45;&gt;FIRRTL</title>
<path fill="none" stroke="black" d="M278.41,-582.7C276.86,-574.98 275.01,-565.71 273.29,-557.11"/>
<polygon fill="black" stroke="black" points="276.68,-556.22 271.29,-547.1 269.82,-557.6 276.68,-556.22"/>
</g>
<!-- Calyx&#45;&gt;FSM -->
<g id="edge9" class="edge">
<title>Calyx&#45;&gt;FSM</title>
<path fill="none" stroke="black" d="M191.62,-582.7C191.51,-574.98 191.38,-565.71 191.25,-557.11"/>
<polygon fill="black" stroke="black" points="194.75,-557.05 191.11,-547.1 187.75,-557.15 194.75,-557.05"/>
</g>
<!-- Calyx_native -->
<g id="node31" class="node">
<title>Calyx_native</title>
<polygon fill="#ffff99" stroke="black" points="147.6,-521.54 147.6,-536.46 104.41,-547 43.33,-547 0.13,-536.46 0.13,-521.54 43.33,-511 104.41,-511 147.6,-521.54"/>
<text text-anchor="middle" x="73.87" y="-525.3" font-family="Times,serif" font-size="14.00">Calyx native</text>
</g>
<!-- Calyx&#45;&gt;Calyx_native -->
<g id="edge32" class="edge">
<title>Calyx&#45;&gt;Calyx_native</title>
<path fill="none" stroke="black" d="M163.6,-583.23C148.07,-574.02 128.59,-562.47 111.76,-552.48"/>
<polygon fill="black" stroke="black" points="113.11,-549.21 102.72,-547.12 109.53,-555.23 113.11,-549.21"/>
</g>
<!-- space_above_RTL -->
<!-- FIRRTL&#45;&gt;space_above_RTL -->
<!-- HW -->
<g id="node21" class="node">
<title>HW</title>
<g id="a_node21"><a xlink:href="https://circt.llvm.org/docs/Dialects/HW/" xlink:title="HW">
<polygon fill="white" stroke="black" points="380.87,-400 326.87,-400 326.87,-364 380.87,-364 380.87,-400"/>
<text text-anchor="middle" x="353.87" y="-378.3" font-family="Times,serif" font-size="14.00">HW</text>
</a>
</g>
</g>
<!-- FIRRTL&#45;&gt;HW -->
<g id="edge10" class="edge">
<title>FIRRTL&#45;&gt;HW</title>
<path fill="none" stroke="black" d="M278.07,-510.8C288.45,-493.3 305.1,-465.23 320.15,-439.84"/>
<polygon fill="black" stroke="black" points="323.31,-441.38 325.4,-431 317.29,-437.81 323.31,-441.38"/>
</g>
<!-- Pipeline&#45;&gt;Calyx -->
<g id="edge5" class="edge">
<title>Pipeline&#45;&gt;Calyx</title>
<path fill="none" stroke="black" d="M303.83,-654.97C283.67,-645.66 258.09,-633.78 229.5,-620.23"/>
<polygon fill="black" stroke="black" points="230.65,-616.9 220.12,-615.77 227.65,-623.22 230.65,-616.9"/>
</g>
<!-- MSFT&#45;&gt;space_above_RTL -->
<!-- MSFT&#45;&gt;HW -->
<g id="edge11" class="edge">
<title>MSFT&#45;&gt;HW</title>
<path fill="none" stroke="black" d="M503.06,-510.99C496.24,-490.24 481.62,-455.86 455.87,-439 433.59,-424.42 418.27,-441.12 397.26,-435.12"/>
<polygon fill="black" stroke="black" points="398.43,-431.81 387.87,-431 395.62,-438.22 398.43,-431.81"/>
</g>
<!-- TCL -->
<g id="node41" class="node">
<title>TCL</title>
<polygon fill="#7fc97f" stroke="black" points="655.87,-111 529.87,-111 529.87,-75 661.87,-75 661.87,-105 655.87,-111"/>
<polyline fill="none" stroke="black" points="655.87,-111 655.87,-105 "/>
<polyline fill="none" stroke="black" points="661.87,-105 655.87,-105 "/>
<text text-anchor="middle" x="595.87" y="-89.3" font-family="Times,serif" font-size="14.00">Placements (tcl)</text>
</g>
<!-- MSFT&#45;&gt;TCL -->
<g id="edge37" class="edge">
<title>MSFT&#45;&gt;TCL</title>
<path fill="none" stroke="black" d="M537.59,-512.25C576.24,-489.38 638.87,-443.05 638.87,-383 638.87,-383 638.87,-383 638.87,-237 638.87,-196.89 636.59,-186.04 623.87,-148 620.72,-138.59 616.11,-128.8 611.53,-120.19"/>
<polygon fill="black" stroke="black" points="614.56,-118.44 606.65,-111.39 608.44,-121.83 614.56,-118.44"/>
</g>
<!-- ESI&#45;&gt;space_above_RTL -->
<!-- ESI&#45;&gt;HW -->
<g id="edge12" class="edge">
<title>ESI&#45;&gt;HW</title>
<path fill="none" stroke="black" d="M345.93,-510.8C347,-493.61 348.7,-466.21 350.26,-441.18"/>
<polygon fill="black" stroke="black" points="353.76,-441.2 350.89,-431 346.77,-440.76 353.76,-441.2"/>
</g>
<!-- ServiceDesc -->
<g id="node39" class="node">
<title>ServiceDesc</title>
<polygon fill="#7fc97f" stroke="black" points="509.87,-112 333.87,-112 333.87,-74 515.87,-74 515.87,-106 509.87,-112"/>
<polyline fill="none" stroke="black" points="509.87,-112 509.87,-106 "/>
<polyline fill="none" stroke="black" points="515.87,-106 509.87,-106 "/>
<text text-anchor="middle" x="424.87" y="-96.8" font-family="Times,serif" font-size="14.00">ESI system description</text>
<text text-anchor="middle" x="424.87" y="-81.8" font-family="Times,serif" font-size="14.00">(JSON/Capnp)</text>
</g>
<!-- ESI&#45;&gt;ServiceDesc -->
<g id="edge36" class="edge">
<title>ESI&#45;&gt;ServiceDesc</title>
<path fill="none" stroke="black" d="M317.45,-511.43C291.6,-494.4 253.67,-465.55 231.87,-431 220.07,-412.31 218.87,-405.1 218.87,-383 218.87,-383 218.87,-383 218.87,-237 218.87,-196.55 210.3,-177.59 237.87,-148 260.11,-124.13 292.17,-110.58 323.48,-102.97"/>
<polygon fill="black" stroke="black" points="324.62,-106.3 333.61,-100.7 323.09,-99.47 324.62,-106.3"/>
</g>
<!-- FSM&#45;&gt;space_above_RTL -->
<!-- FSM&#45;&gt;HW -->
<g id="edge13" class="edge">
<title>FSM&#45;&gt;HW</title>
<path fill="none" stroke="black" d="M218.1,-511.1C232.89,-501.35 251.12,-488.4 265.87,-475 281.49,-460.8 279.41,-450.88 296.87,-439 302.18,-435.39 306.24,-435.54 310.48,-434.89"/>
<polygon fill="black" stroke="black" points="311.97,-438.06 319.87,-431 309.29,-431.6 311.97,-438.06"/>
</g>
<!-- HWArith&#45;&gt;space_above_RTL -->
<!-- HWArith&#45;&gt;HW -->
<g id="edge14" class="edge">
<title>HWArith&#45;&gt;HW</title>
<path fill="none" stroke="black" d="M411,-510.57C403.48,-500.57 394.42,-487.53 387.87,-475 382.22,-464.2 377.08,-452.25 372.59,-440.64"/>
<polygon fill="black" stroke="black" points="375.77,-439.14 368.98,-431 369.21,-441.59 375.77,-439.14"/>
</g>
<!-- MooreMIR -->
<g id="node18" class="node">
<title>MooreMIR</title>
<g id="a_node18"><a xlink:href="https://circt.llvm.org/docs/Dialects/Moore/" xlink:title="Moore MIR">
<polygon fill="white" stroke="black" points="648.37,-547 551.37,-547 551.37,-511 648.37,-511 648.37,-547"/>
<text text-anchor="middle" x="599.87" y="-525.3" font-family="Times,serif" font-size="14.00">Moore MIR</text>
</a>
</g>
</g>
<!-- MooreMIR&#45;&gt;space_above_RTL -->
<!-- MooreMIR&#45;&gt;HW -->
<g id="edge15" class="edge">
<title>MooreMIR&#45;&gt;HW</title>
<path fill="none" stroke="black" d="M582.2,-510.69C559.49,-489.63 517.83,-454.94 474.87,-439 441.87,-426.76 424.85,-446.07 396.92,-435.36"/>
<polygon fill="black" stroke="black" points="398.4,-432.18 387.87,-431 395.36,-438.49 398.4,-432.18"/>
</g>
<!-- LLHD -->
<g id="node24" class="node">
<title>LLHD</title>
<g id="a_node24"><a xlink:href="https://circt.llvm.org/docs/Dialects/LLHD/" xlink:title="LLHD">
<polygon fill="white" stroke="black" points="375.87,-328 317.87,-328 317.87,-292 375.87,-292 375.87,-328"/>
<text text-anchor="middle" x="346.87" y="-306.3" font-family="Times,serif" font-size="14.00">LLHD</text>
</a>
</g>
</g>
<!-- MooreMIR&#45;&gt;LLHD -->
<g id="edge17" class="edge">
<title>MooreMIR&#45;&gt;LLHD</title>
<path fill="none" stroke="black" d="M598.44,-510.95C594.55,-476.01 580.53,-396.16 531.87,-356 482.34,-315.12 450.09,-345.61 385.81,-328.44"/>
<polygon fill="black" stroke="black" points="386.67,-325.04 376.09,-325.55 384.67,-331.75 386.67,-325.04"/>
</g>
<!-- Seq -->
<g id="node20" class="node">
<title>Seq</title>
<g id="a_node20"><a xlink:href="https://circt.llvm.org/docs/Dialects/Seq/" xlink:title="Seq">
<polygon fill="white" stroke="black" points="448.87,-400 394.87,-400 394.87,-364 448.87,-364 448.87,-400"/>
<text text-anchor="middle" x="421.87" y="-378.3" font-family="Times,serif" font-size="14.00">Seq</text>
</a>
</g>
</g>
<!-- space_above_RTL&#45;&gt;Seq -->
<!-- space_above_RTL&#45;&gt;HW -->
<!-- Comb -->
<g id="node22" class="node">
<title>Comb</title>
<g id="a_node22"><a xlink:href="https://circt.llvm.org/docs/Dialects/Comb/" xlink:title="Comb">
<polygon fill="white" stroke="black" points="520.87,-400 462.87,-400 462.87,-364 520.87,-364 520.87,-400"/>
<text text-anchor="middle" x="491.87" y="-378.3" font-family="Times,serif" font-size="14.00">Comb</text>
</a>
</g>
</g>
<!-- space_above_RTL&#45;&gt;Comb -->
<!-- SV -->
<g id="node25" class="node">
<title>SV</title>
<g id="a_node25"><a xlink:href="https://circt.llvm.org/docs/Dialects/SV/" xlink:title="SV">
<polygon fill="white" stroke="black" points="443.87,-328 389.87,-328 389.87,-292 443.87,-292 443.87,-328"/>
<text text-anchor="middle" x="416.87" y="-306.3" font-family="Times,serif" font-size="14.00">SV</text>
</a>
</g>
</g>
<!-- Seq&#45;&gt;SV -->
<g id="edge16" class="edge">
<title>Seq&#45;&gt;SV</title>
<path fill="none" stroke="black" d="M420.63,-363.7C420.08,-355.98 419.42,-346.71 418.8,-338.11"/>
<polygon fill="black" stroke="black" points="422.29,-337.83 418.09,-328.1 415.31,-338.33 422.29,-337.83"/>
</g>
<!-- ExportVerilog -->
<g id="node29" class="node">
<title>ExportVerilog</title>
<g id="a_node29"><a xlink:href="https://circt.llvm.org/docs/VerilogGeneration/" xlink:title="ExportVerilog">
<polygon fill="#fdc086" stroke="black" points="472.87,-256 356.87,-256 356.87,-220 472.87,-220 472.87,-256"/>
<text text-anchor="middle" x="414.87" y="-234.3" font-family="Times,serif" font-size="14.00">ExportVerilog</text>
</a>
</g>
</g>
<!-- Seq&#45;&gt;ExportVerilog -->
<g id="edge28" class="edge">
<title>Seq&#45;&gt;ExportVerilog</title>
<path fill="none" stroke="black" d="M438.88,-356C443.74,-347.49 448.39,-337.68 450.87,-328 454.83,-312.5 455.57,-307.29 450.87,-292 447.86,-282.22 442.36,-272.62 436.55,-264.33"/>
<polygon fill="black" stroke="black" points="439.27,-262.13 430.48,-256.23 433.67,-266.33 439.27,-262.13"/>
</g>
<!-- HW&#45;&gt;LLHD -->
<g id="edge18" class="edge">
<title>HW&#45;&gt;LLHD</title>
<path fill="none" stroke="black" d="M352.14,-363.7C351.36,-355.98 350.44,-346.71 349.58,-338.11"/>
<polygon fill="black" stroke="black" points="353.05,-337.71 348.58,-328.1 346.09,-338.4 353.05,-337.71"/>
</g>
<!-- llhd_sim -->
<g id="node27" class="node">
<title>llhd_sim</title>
<polygon fill="#fdc086" stroke="black" points="339.87,-256 265.87,-256 265.87,-220 339.87,-220 339.87,-256"/>
<text text-anchor="middle" x="302.87" y="-234.3" font-family="Times,serif" font-size="14.00">llhd&#45;sim</text>
</g>
<!-- HW&#45;&gt;llhd_sim -->
<g id="edge29" class="edge">
<title>HW&#45;&gt;llhd_sim</title>
<path fill="none" stroke="black" d="M328.54,-356C321.65,-347.75 314.96,-338.08 310.87,-328 302.9,-308.39 301.16,-284.4 301.26,-266.27"/>
<polygon fill="black" stroke="black" points="304.77,-266.17 301.52,-256.09 297.77,-266 304.77,-266.17"/>
</g>
<!-- SystemC -->
<g id="node26" class="node">
<title>SystemC</title>
<g id="a_node26"><a xlink:href="https://circt.llvm.org/docs/Dialects/SystemC/" xlink:title="SystemC">
<polygon fill="white" stroke="black" points="573.87,-328 493.87,-328 493.87,-292 573.87,-292 573.87,-328"/>
<text text-anchor="middle" x="533.87" y="-306.3" font-family="Times,serif" font-size="14.00">SystemC</text>
</a>
</g>
</g>
<!-- Comb&#45;&gt;SystemC -->
<g id="edge19" class="edge">
<title>Comb&#45;&gt;SystemC</title>
<path fill="none" stroke="black" d="M506.87,-356C510.63,-349.73 514.67,-343 518.45,-336.7"/>
<polygon fill="black" stroke="black" points="521.46,-338.48 523.6,-328.1 515.46,-334.88 521.46,-338.48"/>
</g>
<!-- Interop -->
<g id="node23" class="node">
<title>Interop</title>
<g id="a_node23"><a xlink:href="https://circt.llvm.org/docs/Dialects/Interop/" xlink:title="Interop">
<polygon fill="white" stroke="black" points="312.37,-400 243.37,-400 243.37,-364 312.37,-364 312.37,-400"/>
<text text-anchor="middle" x="277.87" y="-378.3" font-family="Times,serif" font-size="14.00">Interop</text>
</a>
</g>
</g>
<!-- LLHD&#45;&gt;llhd_sim -->
<g id="edge34" class="edge">
<title>LLHD&#45;&gt;llhd_sim</title>
<path fill="none" stroke="black" d="M335.99,-291.7C330.88,-283.56 324.67,-273.69 319.02,-264.7"/>
<polygon fill="black" stroke="black" points="321.9,-262.71 313.62,-256.1 315.98,-266.43 321.9,-262.71"/>
</g>
<!-- SV&#45;&gt;ExportVerilog -->
<g id="edge27" class="edge">
<title>SV&#45;&gt;ExportVerilog</title>
<path fill="none" stroke="black" d="M416.37,-291.7C416.15,-283.98 415.89,-274.71 415.64,-266.11"/>
<polygon fill="black" stroke="black" points="419.14,-266 415.36,-256.1 412.14,-266.2 419.14,-266"/>
</g>
<!-- ExportSystemC -->
<g id="node28" class="node">
<title>ExportSystemC</title>
<polygon fill="#fdc086" stroke="black" points="616.37,-256 487.37,-256 487.37,-220 616.37,-220 616.37,-256"/>
<text text-anchor="middle" x="551.87" y="-234.3" font-family="Times,serif" font-size="14.00">ExportSystemC</text>
</g>
<!-- SystemC&#45;&gt;ExportSystemC -->
<g id="edge25" class="edge">
<title>SystemC&#45;&gt;ExportSystemC</title>
<path fill="none" stroke="black" d="M538.32,-291.7C540.32,-283.9 542.74,-274.51 544.97,-265.83"/>
<polygon fill="black" stroke="black" points="548.37,-266.66 547.47,-256.1 541.59,-264.92 548.37,-266.66"/>
</g>
<!-- VCDTrace -->
<g id="node36" class="node">
<title>VCDTrace</title>
<polygon fill="#7fc97f" stroke="black" points="334.87,-184 244.87,-184 244.87,-148 340.87,-148 340.87,-178 334.87,-184"/>
<polyline fill="none" stroke="black" points="334.87,-184 334.87,-178 "/>
<polyline fill="none" stroke="black" points="340.87,-178 334.87,-178 "/>
<text text-anchor="middle" x="292.87" y="-162.3" font-family="Times,serif" font-size="14.00">Trace (vcd)</text>
</g>
<!-- llhd_sim&#45;&gt;VCDTrace -->
<g id="edge35" class="edge">
<title>llhd_sim&#45;&gt;VCDTrace</title>
<path fill="none" stroke="black" d="M300.39,-219.7C299.29,-211.98 297.97,-202.71 296.74,-194.11"/>
<polygon fill="black" stroke="black" points="300.19,-193.51 295.31,-184.1 293.26,-194.5 300.19,-193.51"/>
</g>
<!-- SystemCFile -->
<g id="node37" class="node">
<title>SystemCFile</title>
<polygon fill="#7fc97f" stroke="black" points="610.37,-184 489.37,-184 489.37,-148 616.37,-148 616.37,-178 610.37,-184"/>
<polyline fill="none" stroke="black" points="610.37,-184 610.37,-178 "/>
<polyline fill="none" stroke="black" points="616.37,-178 610.37,-178 "/>
<text text-anchor="middle" x="552.87" y="-162.3" font-family="Times,serif" font-size="14.00">SystemC (c++)</text>
</g>
<!-- ExportSystemC&#45;&gt;SystemCFile -->
<g id="edge26" class="edge">
<title>ExportSystemC&#45;&gt;SystemCFile</title>
<path fill="none" stroke="black" d="M552.11,-219.7C552.22,-211.98 552.36,-202.71 552.48,-194.11"/>
<polygon fill="black" stroke="black" points="555.98,-194.15 552.62,-184.1 548.98,-194.05 555.98,-194.15"/>
</g>
<!-- SVFile -->
<g id="node38" class="node">
<title>SVFile</title>
<polygon fill="#7fc97f" stroke="black" points="468.87,-184 354.87,-184 354.87,-148 474.87,-148 474.87,-178 468.87,-184"/>
<polyline fill="none" stroke="black" points="468.87,-184 468.87,-178 "/>
<polyline fill="none" stroke="black" points="474.87,-178 468.87,-178 "/>
<text text-anchor="middle" x="414.87" y="-162.3" font-family="Times,serif" font-size="14.00">SystemVerilog</text>
</g>
<!-- ExportVerilog&#45;&gt;SVFile -->
<g id="edge20" class="edge">
<title>ExportVerilog&#45;&gt;SVFile</title>
<path fill="none" stroke="black" d="M414.87,-219.7C414.87,-211.98 414.87,-202.71 414.87,-194.11"/>
<polygon fill="black" stroke="black" points="418.37,-194.1 414.87,-184.1 411.37,-194.1 418.37,-194.1"/>
</g>
<!-- Moore -->
<g id="node30" class="node">
<title>Moore</title>
<polygon fill="#ffff99" stroke="black" points="731.6,-828.54 731.6,-843.46 705.98,-854 669.75,-854 644.13,-843.46 644.13,-828.54 669.75,-818 705.98,-818 731.6,-828.54"/>
<text text-anchor="middle" x="687.87" y="-832.3" font-family="Times,serif" font-size="14.00">Moore</text>
</g>
<!-- Moore&#45;&gt;MooreMIR -->
<g id="edge31" class="edge">
<title>Moore&#45;&gt;MooreMIR</title>
<path fill="none" stroke="black" d="M682.88,-817.73C668.24,-766.98 625.28,-618.06 607.6,-556.8"/>
<polygon fill="black" stroke="black" points="610.93,-555.72 604.8,-547.08 604.2,-557.66 610.93,-555.72"/>
</g>
<!-- Calyx_native&#45;&gt;HW -->
<g id="edge33" class="edge">
<title>Calyx_native&#45;&gt;HW</title>
<path fill="none" stroke="black" d="M103.9,-510.89C141,-490.53 206.6,-457.05 266.87,-439 285.94,-433.29 295.99,-440.27 310.62,-435.41"/>
<polygon fill="black" stroke="black" points="312.35,-438.46 319.87,-431 309.33,-432.15 312.35,-438.46"/>
</g>
<!-- FIRFile -->
<g id="node32" class="node">
<title>FIRFile</title>
<polygon fill="#7fc97f" stroke="black" points="486.87,-854 438.87,-854 438.87,-818 492.87,-818 492.87,-848 486.87,-854"/>
<polyline fill="none" stroke="black" points="486.87,-854 486.87,-848 "/>
<polyline fill="none" stroke="black" points="492.87,-848 486.87,-848 "/>
<text text-anchor="middle" x="465.87" y="-832.3" font-family="Times,serif" font-size="14.00">.fir</text>
</g>
<!-- FIRFile&#45;&gt;FIRRTLParser -->
<g id="edge23" class="edge">
<title>FIRFile&#45;&gt;FIRRTLParser</title>
<path fill="none" stroke="black" d="M493.11,-821.81C503.81,-815.09 514.94,-805.82 520.87,-794 534.22,-767.39 531.86,-754.67 520.87,-727 503.86,-684.22 464.5,-647.6 435.9,-625.26"/>
<polygon fill="black" stroke="black" points="437.85,-622.35 427.78,-619.07 433.61,-627.91 437.85,-622.35"/>
</g>
<!-- FIRFile&#45;&gt;Scheduling -->
<!-- Chisel -->
<g id="node33" class="node">
<title>Chisel</title>
<polygon fill="#ffff99" stroke="black" points="506.69,-919.54 506.69,-934.46 481.61,-945 446.13,-945 421.04,-934.46 421.04,-919.54 446.13,-909 481.61,-909 506.69,-919.54"/>
<text text-anchor="middle" x="463.87" y="-923.3" font-family="Times,serif" font-size="14.00">Chisel</text>
</g>
<!-- Chisel&#45;&gt;CF -->
<!-- Chisel&#45;&gt;FIRFile -->
<g id="edge22" class="edge">
<title>Chisel&#45;&gt;FIRFile</title>
<path fill="none" stroke="black" d="M464.25,-908.84C464.53,-896.28 464.92,-878.98 465.25,-864.5"/>
<polygon fill="black" stroke="black" points="468.76,-864.18 465.48,-854.11 461.76,-864.03 468.76,-864.18"/>
</g>
<!-- SVVHDL -->
<g id="node34" class="node">
<title>SVVHDL</title>
<polygon fill="#ffff99" stroke="black" points="746.15,-919.54 746.15,-934.46 712.01,-945 663.73,-945 629.59,-934.46 629.59,-919.54 663.73,-909 712.01,-909 746.15,-919.54"/>
<text text-anchor="middle" x="687.87" y="-923.3" font-family="Times,serif" font-size="14.00">SV/VHDL</text>
</g>
<!-- SVVHDL&#45;&gt;Moore -->
<g id="edge30" class="edge">
<title>SVVHDL&#45;&gt;Moore</title>
<path fill="none" stroke="black" d="M687.87,-908.84C687.87,-896.28 687.87,-878.98 687.87,-864.5"/>
<polygon fill="black" stroke="black" points="691.37,-864.11 687.87,-854.11 684.37,-864.11 691.37,-864.11"/>
</g>
<!-- PyFile -->
<g id="node35" class="node">
<title>PyFile</title>
<polygon fill="#ffff99" stroke="black" points="615.14,-919.54 615.14,-934.46 587.45,-945 548.29,-945 520.6,-934.46 520.6,-919.54 548.29,-909 587.45,-909 615.14,-919.54"/>
<text text-anchor="middle" x="567.87" y="-923.3" font-family="Times,serif" font-size="14.00">Python</text>
</g>
<!-- PyFile&#45;&gt;PyCDE -->
<g id="edge38" class="edge">
<title>PyFile&#45;&gt;PyCDE</title>
<path fill="none" stroke="black" d="M565.43,-908.91C560.45,-874.42 548.49,-794.06 535.87,-727 529.51,-693.21 520.96,-654.55 515.2,-629.29"/>
<polygon fill="black" stroke="black" points="518.56,-628.3 512.92,-619.33 511.74,-629.86 518.56,-628.3"/>
</g>
<!-- SystemCFile&#45;&gt;ServiceDesc -->
<!-- SystemCFile&#45;&gt;TCL -->
<!-- SoftwareAPI -->
<g id="node40" class="node">
<title>SoftwareAPI</title>
<polygon fill="none" stroke="black" stroke-dasharray="5,2" points="486.37,-38 357.37,-38 357.37,0 492.37,0 492.37,-32 486.37,-38"/>
<polyline fill="none" stroke="black" stroke-dasharray="5,2" points="486.37,-38 486.37,-32 "/>
<polyline fill="none" stroke="black" stroke-dasharray="5,2" points="492.37,-32 486.37,-32 "/>
<text text-anchor="middle" x="424.87" y="-22.8" font-family="Times,serif" font-size="14.00">Software API</text>
<text text-anchor="middle" x="424.87" y="-7.8" font-family="Times,serif" font-size="14.00">(e.g. py/c++/c#)</text>
</g>
<!-- ServiceDesc&#45;&gt;SoftwareAPI -->
<g id="edge44" class="edge">
<title>ServiceDesc&#45;&gt;SoftwareAPI</title>
<path fill="none" stroke="black" stroke-dasharray="5,2" d="M424.87,-73.83C424.87,-66.13 424.87,-56.97 424.87,-48.42"/>
<polygon fill="black" stroke="black" points="428.37,-48.41 424.87,-38.41 421.37,-48.41 428.37,-48.41"/>
</g>
</g>
</svg>
