<?xml version="1.0" encoding="UTF-8" standalone="no"?>
<!DOCTYPE svg PUBLIC "-//W3C//DTD SVG 1.1//EN"
 "http://www.w3.org/Graphics/SVG/1.1/DTD/svg11.dtd">
<!-- Generated by graphviz version 2.43.0 (0)
 -->
<!-- Title: G Pages: 1 -->
<svg width="604pt" height="761pt"
 viewBox="0.00 0.00 603.77 761.00" xmlns="http://www.w3.org/2000/svg" xmlns:xlink="http://www.w3.org/1999/xlink">
<g id="graph0" class="graph" transform="scale(1 1) rotate(0) translate(4 757)">
<title>G</title>
<polygon fill="white" stroke="transparent" points="-4,4 -4,-757 599.77,-757 599.77,4 -4,4"/>
<g id="clust1" class="cluster">
<title>cluster_mlir</title>
<polygon fill="none" stroke="black" points="101.5,-654 101.5,-745 419.5,-745 419.5,-654 101.5,-654"/>
<text text-anchor="middle" x="260.5" y="-729.8" font-family="Times,serif" font-size="14.00">Upstream MLIR</text>
</g>
<g id="clust2" class="cluster">
<title>cluster_std_arith_dialect</title>
<polygon fill="none" stroke="black" points="243.5,-662 243.5,-714 411.5,-714 411.5,-662 243.5,-662"/>
</g>
<g id="clust3" class="cluster">
<title>cluster_circt</title>
<polygon fill="none" stroke="black" points="41.5,-136 41.5,-646 437.5,-646 437.5,-136 41.5,-136"/>
<text text-anchor="middle" x="239.5" y="-630.8" font-family="Times,serif" font-size="14.00">CIRCT</text>
</g>
<g id="clust5" class="cluster">
<title>cluster_RTL</title>
<polygon fill="none" stroke="black" points="174.5,-208 174.5,-355 384.5,-355 384.5,-208 174.5,-208"/>
<text text-anchor="middle" x="279.5" y="-339.8" font-family="Times,serif" font-size="14.00">RTL dialects</text>
</g>
<!-- SCF -->
<g id="node1" class="node">
<title>SCF</title>
<polygon fill="#beaed4" stroke="black" points="163.5,-706 109.5,-706 109.5,-670 163.5,-670 163.5,-706"/>
<text text-anchor="middle" x="136.5" y="-684.3" font-family="Times,serif" font-size="14.00">SCF</text>
</g>
<!-- Calyx -->
<g id="node6" class="node">
<title>Calyx</title>
<g id="a_node6"><a xlink:href="https://circt.llvm.org/docs/Dialects/Calyx/" xlink:title="Calyx">
<polygon fill="white" stroke="black" points="187.5,-471 131.5,-471 131.5,-435 187.5,-435 187.5,-471"/>
<text text-anchor="middle" x="159.5" y="-449.3" font-family="Times,serif" font-size="14.00">Calyx</text>
</a>
</g>
</g>
<!-- SCF&#45;&gt;Calyx -->
<g id="edge1" class="edge">
<title>SCF&#45;&gt;Calyx</title>
<path fill="none" stroke="black" d="M138.19,-669.87C142.15,-629.81 152.02,-529.75 156.81,-481.23"/>
<polygon fill="black" stroke="black" points="160.31,-481.45 157.81,-471.16 153.34,-480.77 160.31,-481.45"/>
</g>
<!-- Affine -->
<g id="node2" class="node">
<title>Affine</title>
<polygon fill="#beaed4" stroke="black" points="235.5,-706 177.5,-706 177.5,-670 235.5,-670 235.5,-706"/>
<text text-anchor="middle" x="206.5" y="-684.3" font-family="Times,serif" font-size="14.00">Affine</text>
</g>
<!-- StaticLogic -->
<g id="node8" class="node">
<title>StaticLogic</title>
<g id="a_node8"><a xlink:href="https://circt.llvm.org/docs/Dialects/StaticLogic/" xlink:title="StaticLogic">
<polygon fill="white" stroke="black" points="342,-543 245,-543 245,-507 342,-507 342,-543"/>
<text text-anchor="middle" x="293.5" y="-521.3" font-family="Times,serif" font-size="14.00">StaticLogic</text>
</a>
</g>
</g>
<!-- Affine&#45;&gt;StaticLogic -->
<g id="edge2" class="edge">
<title>Affine&#45;&gt;StaticLogic</title>
<path fill="none" stroke="black" stroke-dasharray="5,2" d="M219.65,-669.97C225.35,-663.84 232.55,-657.57 240.5,-654 262.45,-644.14 332.12,-663.63 348.5,-646 368.76,-624.18 360.15,-606.4 348.5,-579 343.77,-567.86 335.42,-557.93 326.63,-549.76"/>
<polygon fill="black" stroke="black" points="328.73,-546.95 318.88,-543.05 324.15,-552.24 328.73,-546.95"/>
</g>
<!-- Standard -->
<g id="node3" class="node">
<title>Standard</title>
<polygon fill="#beaed4" stroke="black" points="335,-706 252,-706 252,-670 335,-670 335,-706"/>
<text text-anchor="middle" x="293.5" y="-684.3" font-family="Times,serif" font-size="14.00">Standard</text>
</g>
<!-- Scheduling -->
<g id="node19" class="node">
<title>Scheduling</title>
<polygon fill="#fdc086" stroke="black" points="341.5,-615 245.5,-615 245.5,-579 341.5,-579 341.5,-615"/>
<text text-anchor="middle" x="293.5" y="-593.3" font-family="Times,serif" font-size="14.00">Scheduling</text>
</g>
<!-- Standard&#45;&gt;Scheduling -->
<!-- Arith -->
<g id="node4" class="node">
<title>Arith</title>
<polygon fill="#beaed4" stroke="black" points="403.5,-706 349.5,-706 349.5,-670 403.5,-670 403.5,-706"/>
<text text-anchor="middle" x="376.5" y="-684.3" font-family="Times,serif" font-size="14.00">Arith</text>
</g>
<!-- Handshake -->
<g id="node5" class="node">
<title>Handshake</title>
<g id="a_node5"><a xlink:href="https://circt.llvm.org/docs/Dialects/Handshake/" xlink:title="Handshake">
<polygon fill="white" stroke="black" points="297.5,-471 201.5,-471 201.5,-435 297.5,-435 297.5,-471"/>
<text text-anchor="middle" x="249.5" y="-449.3" font-family="Times,serif" font-size="14.00">Handshake</text>
</a>
</g>
</g>
<!-- Arith&#45;&gt;Handshake -->
<g id="edge4" class="edge">
<title>Arith&#45;&gt;Handshake</title>
<path fill="none" stroke="black" d="M394.32,-662C397.82,-656.79 401.38,-651.28 404.5,-646 421.51,-617.26 413.69,-601.35 438.5,-579 471.73,-549.05 507.15,-579.86 532.5,-543 541.57,-529.82 542.89,-519.17 532.5,-507 501.15,-470.28 370.7,-481.04 307.85,-471.03"/>
<polygon fill="black" stroke="black" points="308.13,-467.53 297.65,-469.08 306.81,-474.4 308.13,-467.53"/>
</g>
<!-- Arith&#45;&gt;Calyx -->
<g id="edge5" class="edge">
<title>Arith&#45;&gt;Calyx</title>
<path fill="none" stroke="black" d="M376.82,-662C378.45,-637.85 384.56,-601.68 405.5,-579 437.82,-543.98 479.04,-581.95 506.5,-543 515.72,-529.92 517.15,-518.94 506.5,-507 462.06,-457.14 278.29,-487.62 198,-471.23"/>
<polygon fill="black" stroke="black" points="198.38,-467.72 187.84,-468.73 196.71,-474.52 198.38,-467.72"/>
</g>
<!-- FIRRTL -->
<g id="node7" class="node">
<title>FIRRTL</title>
<g id="a_node7"><a xlink:href="https://circt.llvm.org/docs/Dialects/FIRRTL/" xlink:title="FIRRTL">
<polygon fill="white" stroke="black" points="285,-399 214,-399 214,-363 285,-363 285,-399"/>
<text text-anchor="middle" x="249.5" y="-377.3" font-family="Times,serif" font-size="14.00">FIRRTL</text>
</a>
</g>
</g>
<!-- Handshake&#45;&gt;FIRRTL -->
<g id="edge6" class="edge">
<title>Handshake&#45;&gt;FIRRTL</title>
<path fill="none" stroke="black" d="M249.5,-434.7C249.5,-426.98 249.5,-417.71 249.5,-409.11"/>
<polygon fill="black" stroke="black" points="253,-409.1 249.5,-399.1 246,-409.1 253,-409.1"/>
</g>
<!-- FSM -->
<g id="node11" class="node">
<title>FSM</title>
<g id="a_node11"><a xlink:href="https://circt.llvm.org/docs/Dialects/FSM/" xlink:title="FSM">
<polygon fill="white" stroke="black" points="197.5,-399 143.5,-399 143.5,-363 197.5,-363 197.5,-399"/>
<text text-anchor="middle" x="170.5" y="-377.3" font-family="Times,serif" font-size="14.00">FSM</text>
</a>
</g>
</g>
<!-- Calyx&#45;&gt;FSM -->
<g id="edge7" class="edge">
<title>Calyx&#45;&gt;FSM</title>
<path fill="none" stroke="black" stroke-dasharray="5,2" d="M162.22,-434.7C163.43,-426.98 164.89,-417.71 166.24,-409.11"/>
<polygon fill="black" stroke="black" points="169.72,-409.53 167.81,-399.1 162.8,-408.44 169.72,-409.53"/>
</g>
<!-- Calyx_native -->
<g id="node23" class="node">
<title>Calyx_native</title>
<polygon fill="#ffff99" stroke="black" points="595.55,-373.54 595.55,-388.46 551.59,-399 489.41,-399 445.45,-388.46 445.45,-373.54 489.41,-363 551.59,-363 595.55,-373.54"/>
<text text-anchor="middle" x="520.5" y="-377.3" font-family="Times,serif" font-size="14.00">Calyx_native</text>
</g>
<!-- Calyx&#45;&gt;Calyx_native -->
<g id="edge26" class="edge">
<title>Calyx&#45;&gt;Calyx_native</title>
<path fill="none" stroke="black" d="M187.11,-435.12C187.24,-435.08 187.37,-435.04 187.5,-435 293.1,-402.48 324.74,-418.49 433.5,-399 440.17,-397.81 447.13,-396.47 454.09,-395.08"/>
<polygon fill="black" stroke="black" points="455.14,-398.43 464.24,-393.02 453.75,-391.57 455.14,-398.43"/>
</g>
<!-- Calyx&#45;&gt;Calyx_native -->
<!-- HW -->
<g id="node13" class="node">
<title>HW</title>
<g id="a_node13"><a xlink:href="https://circt.llvm.org/docs/Dialects/HW/" xlink:title="HW">
<polygon fill="white" stroke="black" points="236.5,-324 182.5,-324 182.5,-288 236.5,-288 236.5,-324"/>
<text text-anchor="middle" x="209.5" y="-302.3" font-family="Times,serif" font-size="14.00">HW</text>
</a>
</g>
</g>
<!-- FIRRTL&#45;&gt;HW -->
<g id="edge8" class="edge">
<title>FIRRTL&#45;&gt;HW</title>
<path fill="none" stroke="black" d="M240.02,-362.7C239.94,-362.55 239.85,-362.4 239.77,-362.24"/>
<polygon fill="black" stroke="black" points="243.68,-362.09 235.8,-355 237.54,-365.45 243.68,-362.09"/>
</g>
<!-- StaticLogic&#45;&gt;Calyx -->
<g id="edge3" class="edge">
<title>StaticLogic&#45;&gt;Calyx</title>
<path fill="none" stroke="black" stroke-dasharray="5,2" d="M260.72,-506.88C241.37,-496.77 216.81,-483.94 196.73,-473.45"/>
<polygon fill="black" stroke="black" points="198.34,-470.34 187.86,-468.81 195.1,-476.55 198.34,-470.34"/>
</g>
<!-- MSFT -->
<g id="node9" class="node">
<title>MSFT</title>
<g id="a_node9"><a xlink:href="https://circt.llvm.org/docs/Dialects/MSFT/" xlink:title="MSFT">
<polygon fill="white" stroke="black" points="394,-399 335,-399 335,-363 394,-363 394,-399"/>
<text text-anchor="middle" x="364.5" y="-377.3" font-family="Times,serif" font-size="14.00">MSFT</text>
</a>
</g>
</g>
<!-- MSFT&#45;&gt;HW -->
<g id="edge9" class="edge">
<title>MSFT&#45;&gt;HW</title>
<path fill="none" stroke="black" d="M334.83,-372.5C321.87,-369.35 306.48,-365.79 292.5,-363 274.75,-359.46 265.74,-364.21 252.75,-359.58"/>
<polygon fill="black" stroke="black" points="254.01,-356.3 243.5,-355 250.91,-362.57 254.01,-356.3"/>
</g>
<!-- TCL -->
<g id="node30" class="node">
<title>TCL</title>
<polygon fill="#7fc97f" stroke="black" points="363.5,-108 315.5,-108 315.5,-72 369.5,-72 369.5,-102 363.5,-108"/>
<polyline fill="none" stroke="black" points="363.5,-108 363.5,-102 "/>
<polyline fill="none" stroke="black" points="369.5,-102 363.5,-102 "/>
<text text-anchor="middle" x="342.5" y="-86.3" font-family="Times,serif" font-size="14.00">.tcl</text>
</g>
<!-- MSFT&#45;&gt;TCL -->
<g id="edge36" class="edge">
<title>MSFT&#45;&gt;TCL</title>
<path fill="none" stroke="black" d="M382.58,-362.98C384.49,-360.47 386.21,-357.78 387.5,-355 428.67,-266.26 455.51,-222.33 409.5,-136 405.76,-128.99 392.18,-119.35 378.21,-110.79"/>
<polygon fill="black" stroke="black" points="379.93,-107.75 369.55,-105.64 376.35,-113.76 379.93,-107.75"/>
</g>
<!-- ESI -->
<g id="node10" class="node">
<title>ESI</title>
<g id="a_node10"><a xlink:href="https://circt.llvm.org/docs/Dialects/ESI/" xlink:title="ESI">
<polygon fill="white" stroke="black" points="110.5,-399 56.5,-399 56.5,-363 110.5,-363 110.5,-399"/>
<text text-anchor="middle" x="83.5" y="-377.3" font-family="Times,serif" font-size="14.00">ESI</text>
</a>
</g>
</g>
<!-- ESI&#45;&gt;HW -->
<g id="edge10" class="edge">
<title>ESI&#45;&gt;HW</title>
<path fill="none" stroke="black" d="M110.71,-367.34C114.93,-365.7 119.29,-364.18 123.5,-363 143.57,-357.38 154.13,-365.05 169.43,-359.57"/>
<polygon fill="black" stroke="black" points="171.14,-362.62 178.5,-355 167.99,-356.37 171.14,-362.62"/>
</g>
<!-- CapNProto -->
<g id="node29" class="node">
<title>CapNProto</title>
<polygon fill="#7fc97f" stroke="black" points="95,-108 0,-108 0,-72 101,-72 101,-102 95,-108"/>
<polyline fill="none" stroke="black" points="95,-108 95,-102 "/>
<polyline fill="none" stroke="black" points="101,-102 95,-102 "/>
<text text-anchor="middle" x="50.5" y="-86.3" font-family="Times,serif" font-size="14.00">Cap&#39;n Proto</text>
</g>
<!-- ESI&#45;&gt;CapNProto -->
<g id="edge35" class="edge">
<title>ESI&#45;&gt;CapNProto</title>
<path fill="none" stroke="black" d="M81.53,-362.79C76.01,-314.4 60.31,-176.87 53.6,-118.13"/>
<polygon fill="black" stroke="black" points="57.07,-117.66 52.46,-108.12 50.11,-118.46 57.07,-117.66"/>
</g>
<!-- FSM&#45;&gt;HW -->
<g id="edge11" class="edge">
<title>FSM&#45;&gt;HW</title>
<path fill="none" stroke="black" d="M179.74,-362.7C179.82,-362.55 179.91,-362.4 179.99,-362.24"/>
<polygon fill="black" stroke="black" points="182.23,-365.47 183.86,-355 176.06,-362.17 182.23,-365.47"/>
</g>
<!-- Seq -->
<g id="node12" class="node">
<title>Seq</title>
<g id="a_node12"><a xlink:href="https://circt.llvm.org/docs/Dialects/Seq/" xlink:title="Seq">
<polygon fill="white" stroke="black" points="376.5,-324 322.5,-324 322.5,-288 376.5,-288 376.5,-324"/>
<text text-anchor="middle" x="349.5" y="-302.3" font-family="Times,serif" font-size="14.00">Seq</text>
</a>
</g>
</g>
<!-- SV -->
<g id="node14" class="node">
<title>SV</title>
<g id="a_node14"><a xlink:href="https://circt.llvm.org/docs/Dialects/SV/" xlink:title="SV">
<polygon fill="white" stroke="black" points="308.5,-252 254.5,-252 254.5,-216 308.5,-216 308.5,-252"/>
<text text-anchor="middle" x="281.5" y="-230.3" font-family="Times,serif" font-size="14.00">SV</text>
</a>
</g>
</g>
<!-- Seq&#45;&gt;SV -->
<g id="edge13" class="edge">
<title>Seq&#45;&gt;SV</title>
<path fill="none" stroke="black" d="M332.69,-287.7C324.37,-279.14 314.19,-268.66 305.11,-259.3"/>
<polygon fill="black" stroke="black" points="307.59,-256.84 298.12,-252.1 302.57,-261.72 307.59,-256.84"/>
</g>
<!-- llhd_sim -->
<g id="node20" class="node">
<title>llhd_sim</title>
<polygon fill="#fdc086" stroke="black" points="272.5,-180 196.5,-180 196.5,-144 272.5,-144 272.5,-180"/>
<text text-anchor="middle" x="234.5" y="-158.3" font-family="Times,serif" font-size="14.00">llhd_sim</text>
</g>
<!-- Seq&#45;&gt;llhd_sim -->
<g id="edge30" class="edge">
<title>Seq&#45;&gt;llhd_sim</title>
<path fill="none" stroke="black" d="M348.8,-287.68C347.1,-266.65 341.41,-231.15 322.5,-208 316.54,-200.7 299.49,-191.38 281.97,-183.12"/>
<polygon fill="black" stroke="black" points="283.36,-179.91 272.82,-178.91 280.44,-186.27 283.36,-179.91"/>
</g>
<!-- LLHD -->
<g id="node16" class="node">
<title>LLHD</title>
<g id="a_node16"><a xlink:href="https://circt.llvm.org/docs/Dialects/LLHD/" xlink:title="LLHD">
<polygon fill="white" stroke="black" points="240.5,-252 182.5,-252 182.5,-216 240.5,-216 240.5,-252"/>
<text text-anchor="middle" x="211.5" y="-230.3" font-family="Times,serif" font-size="14.00">LLHD</text>
</a>
</g>
</g>
<!-- HW&#45;&gt;LLHD -->
<g id="edge14" class="edge">
<title>HW&#45;&gt;LLHD</title>
<path fill="none" stroke="black" d="M209.99,-287.7C210.21,-279.98 210.48,-270.71 210.73,-262.11"/>
<polygon fill="black" stroke="black" points="214.22,-262.2 211.01,-252.1 207.23,-262 214.22,-262.2"/>
</g>
<!-- ExportVerilog -->
<g id="node17" class="node">
<title>ExportVerilog</title>
<polygon fill="#fdc086" stroke="black" points="402.5,-180 286.5,-180 286.5,-144 402.5,-144 402.5,-180"/>
<text text-anchor="middle" x="344.5" y="-158.3" font-family="Times,serif" font-size="14.00">ExportVerilog</text>
</g>
<!-- HW&#45;&gt;ExportVerilog -->
<g id="edge20" class="edge">
<title>HW&#45;&gt;ExportVerilog</title>
<path fill="none" stroke="black" d="M236.55,-291.36C238.9,-290.22 241.24,-289.08 243.5,-288 278.32,-271.37 297.86,-281.69 322.5,-252 336.84,-234.72 342.06,-209.45 343.85,-190.25"/>
<polygon fill="black" stroke="black" points="347.36,-190.24 344.54,-180.03 340.38,-189.77 347.36,-190.24"/>
</g>
<!-- HW&#45;&gt;llhd_sim -->
<g id="edge31" class="edge">
<title>HW&#45;&gt;llhd_sim</title>
<path fill="none" stroke="black" d="M236.52,-291.49C267.93,-275.79 315.5,-252 315.5,-252 325.78,-235.37 325.42,-224.85 315.5,-208 311.27,-200.81 297.19,-192.07 281.92,-184.21"/>
<polygon fill="black" stroke="black" points="283.38,-181.02 272.86,-179.7 280.26,-187.29 283.38,-181.02"/>
</g>
<!-- Circilator -->
<g id="node25" class="node">
<title>Circilator</title>
<polygon fill="#ffff99" stroke="black" stroke-dasharray="5,2" points="233.69,-82.54 233.69,-97.46 199.02,-108 149.98,-108 115.31,-97.46 115.31,-82.54 149.98,-72 199.02,-72 233.69,-82.54"/>
<text text-anchor="middle" x="174.5" y="-86.3" font-family="Times,serif" font-size="14.00">Circilator</text>
</g>
<!-- HW&#45;&gt;Circilator -->
<g id="edge25" class="edge">
<title>HW&#45;&gt;Circilator</title>
<path fill="none" stroke="black" stroke-dasharray="5,2" d="M185.02,-287.77C174.1,-278.56 162.38,-266.19 156.5,-252 138.14,-207.69 152.23,-150.96 163.69,-118.03"/>
<polygon fill="black" stroke="black" points="167.13,-118.81 167.27,-108.22 160.55,-116.41 167.13,-118.81"/>
</g>
<!-- SV&#45;&gt;ExportVerilog -->
<g id="edge21" class="edge">
<title>SV&#45;&gt;ExportVerilog</title>
<path fill="none" stroke="black" d="M297.07,-215.7C304.7,-207.22 314.02,-196.86 322.38,-187.58"/>
<polygon fill="black" stroke="black" points="325.02,-189.88 329.11,-180.1 319.81,-185.2 325.02,-189.88"/>
</g>
<!-- Comb -->
<g id="node15" class="node">
<title>Comb</title>
<g id="a_node15"><a xlink:href="https://circt.llvm.org/docs/Dialects/Comb/" xlink:title="Comb">
<polygon fill="white" stroke="black" points="308.5,-324 250.5,-324 250.5,-288 308.5,-288 308.5,-324"/>
<text text-anchor="middle" x="279.5" y="-302.3" font-family="Times,serif" font-size="14.00">Comb</text>
</a>
</g>
</g>
<!-- Comb&#45;&gt;ExportVerilog -->
<g id="edge15" class="edge">
<title>Comb&#45;&gt;ExportVerilog</title>
<path fill="none" stroke="black" d="M308.52,-289.02C321.76,-280.04 336.11,-267.49 343.5,-252 352.68,-232.76 352.26,-208.42 349.92,-190.06"/>
<polygon fill="black" stroke="black" points="353.35,-189.37 348.37,-180.02 346.43,-190.44 353.35,-189.37"/>
</g>
<!-- Comb&#45;&gt;llhd_sim -->
<g id="edge32" class="edge">
<title>Comb&#45;&gt;llhd_sim</title>
<path fill="none" stroke="black" d="M250.25,-291.02C220.26,-276.55 177.68,-255.56 175.5,-252 165.28,-235.33 166.83,-225.53 175.5,-208 179.65,-199.61 186.21,-192.35 193.46,-186.26"/>
<polygon fill="black" stroke="black" points="195.7,-188.96 201.53,-180.12 191.45,-183.39 195.7,-188.96"/>
</g>
<!-- LLHD&#45;&gt;llhd_sim -->
<g id="edge33" class="edge">
<title>LLHD&#45;&gt;llhd_sim</title>
<path fill="none" stroke="black" d="M217.19,-215.7C219.75,-207.9 222.83,-198.51 225.68,-189.83"/>
<polygon fill="black" stroke="black" points="229.08,-190.7 228.88,-180.1 222.43,-188.51 229.08,-190.7"/>
</g>
<!-- LLHD&#45;&gt;Circilator -->
<g id="edge24" class="edge">
<title>LLHD&#45;&gt;Circilator</title>
<path fill="none" stroke="black" stroke-dasharray="5,2" d="M201.77,-215.87C196.44,-205.74 190.19,-192.49 186.5,-180 180.51,-159.72 177.5,-135.95 175.99,-118.08"/>
<polygon fill="black" stroke="black" points="179.48,-117.77 175.25,-108.05 172.49,-118.28 179.48,-117.77"/>
</g>
<!-- SVFile -->
<g id="node28" class="node">
<title>SVFile</title>
<polygon fill="#7fc97f" stroke="black" points="431.5,-108 383.5,-108 383.5,-72 437.5,-72 437.5,-102 431.5,-108"/>
<polyline fill="none" stroke="black" points="431.5,-108 431.5,-102 "/>
<polyline fill="none" stroke="black" points="437.5,-102 431.5,-102 "/>
<text text-anchor="middle" x="410.5" y="-86.3" font-family="Times,serif" font-size="14.00">.sv</text>
</g>
<!-- ExportVerilog&#45;&gt;SVFile -->
<g id="edge28" class="edge">
<title>ExportVerilog&#45;&gt;SVFile</title>
<path fill="none" stroke="black" d="M360.81,-143.7C368.81,-135.22 378.57,-124.86 387.32,-115.58"/>
<polygon fill="black" stroke="black" points="390.06,-117.78 394.37,-108.1 384.97,-112.98 390.06,-117.78"/>
</g>
<!-- FIRRTLParser -->
<g id="node18" class="node">
<title>FIRRTLParser</title>
<polygon fill="#fdc086" stroke="black" points="429,-471 312,-471 312,-435 429,-435 429,-471"/>
<text text-anchor="middle" x="370.5" y="-449.3" font-family="Times,serif" font-size="14.00">FIRRTLParser</text>
</g>
<!-- FIRRTLParser&#45;&gt;FIRRTL -->
<g id="edge19" class="edge">
<title>FIRRTLParser&#45;&gt;FIRRTL</title>
<path fill="none" stroke="black" d="M340.9,-434.88C324.93,-425.64 305.04,-414.13 287.89,-404.21"/>
<polygon fill="black" stroke="black" points="289.62,-401.17 279.21,-399.19 286.12,-407.23 289.62,-401.17"/>
</g>
<!-- Scheduling&#45;&gt;StaticLogic -->
<g id="edge16" class="edge">
<title>Scheduling&#45;&gt;StaticLogic</title>
<path fill="none" stroke="black" d="M293.5,-568.67C293.5,-563.69 293.5,-558.49 293.5,-553.51"/>
<polygon fill="black" stroke="black" points="290,-568.7 293.5,-578.7 297,-568.7 290,-568.7"/>
<polygon fill="black" stroke="black" points="297,-553.1 293.5,-543.1 290,-553.1 297,-553.1"/>
</g>
<!-- llhd_sim&#45;&gt;Circilator -->
<!-- VCDTrace -->
<g id="node26" class="node">
<title>VCDTrace</title>
<polygon fill="#7fc97f" stroke="black" points="295.5,-108 247.5,-108 247.5,-72 301.5,-72 301.5,-102 295.5,-108"/>
<polyline fill="none" stroke="black" points="295.5,-108 295.5,-102 "/>
<polyline fill="none" stroke="black" points="301.5,-102 295.5,-102 "/>
<text text-anchor="middle" x="274.5" y="-86.3" font-family="Times,serif" font-size="14.00">.vcd</text>
</g>
<!-- llhd_sim&#45;&gt;VCDTrace -->
<g id="edge34" class="edge">
<title>llhd_sim&#45;&gt;VCDTrace</title>
<path fill="none" stroke="black" d="M244.39,-143.7C248.99,-135.64 254.56,-125.89 259.65,-116.98"/>
<polygon fill="black" stroke="black" points="262.8,-118.52 264.73,-108.1 256.73,-115.05 262.8,-118.52"/>
</g>
<!-- llhd_sim&#45;&gt;SVFile -->
<!-- llhd_sim&#45;&gt;CapNProto -->
<!-- llhd_sim&#45;&gt;TCL -->
<!-- PyCDE -->
<g id="node21" class="node">
<title>PyCDE</title>
<polygon fill="#fdc086" stroke="black" points="117,-471 50,-471 50,-435 117,-435 117,-471"/>
<text text-anchor="middle" x="83.5" y="-449.3" font-family="Times,serif" font-size="14.00">PyCDE</text>
</g>
<!-- PyCDE&#45;&gt;ESI -->
<g id="edge38" class="edge">
<title>PyCDE&#45;&gt;ESI</title>
<path fill="none" stroke="black" stroke-dasharray="5,2" d="M83.5,-434.7C83.5,-426.98 83.5,-417.71 83.5,-409.11"/>
<polygon fill="black" stroke="black" points="87,-409.1 83.5,-399.1 80,-409.1 87,-409.1"/>
</g>
<!-- PyCDE&#45;&gt;HW -->
<g id="edge12" class="edge">
<title>PyCDE&#45;&gt;HW</title>
<path fill="none" stroke="black" d="M95.21,-434.57C101.95,-424.34 110.45,-411.09 117.5,-399 126.61,-383.37 121.95,-373.76 136.5,-363 148.56,-354.09 157.92,-360.87 169.08,-358.91"/>
<polygon fill="black" stroke="black" points="170.61,-362.07 178.5,-355 167.92,-355.6 170.61,-362.07"/>
</g>
<!-- Moore -->
<g id="node22" class="node">
<title>Moore</title>
<polygon fill="#ffff99" stroke="black" points="564.23,-226.54 564.23,-241.46 538.61,-252 502.39,-252 476.77,-241.46 476.77,-226.54 502.39,-216 538.61,-216 564.23,-226.54"/>
<text text-anchor="middle" x="520.5" y="-230.3" font-family="Times,serif" font-size="14.00">Moore</text>
</g>
<!-- Moore&#45;&gt;LLHD -->
<g id="edge23" class="edge">
<title>Moore&#45;&gt;LLHD</title>
<path fill="none" stroke="black" d="M498.52,-250.59C487.2,-258.1 472.8,-266.15 458.5,-270 414.73,-281.79 297.11,-285.48 254.5,-270 247.74,-267.54 241.29,-263.5 235.55,-259"/>
<polygon fill="black" stroke="black" points="237.54,-256.09 227.68,-252.2 232.96,-261.39 237.54,-256.09"/>
</g>
<!-- Calyx_native&#45;&gt;SVFile -->
<g id="edge27" class="edge">
<title>Calyx_native&#45;&gt;SVFile</title>
<path fill="none" stroke="black" d="M485.73,-363.72C482.6,-361.16 479.76,-358.27 477.5,-355 421.29,-273.85 476.9,-227.76 440.5,-136 437.89,-129.43 434.23,-122.84 430.35,-116.8"/>
<polygon fill="black" stroke="black" points="433.15,-114.7 424.62,-108.42 427.37,-118.65 433.15,-114.7"/>
</g>
<!-- SVVHDL -->
<g id="node32" class="node">
<title>SVVHDL</title>
<polygon fill="#7fc97f" stroke="black" points="550.5,-324 484.5,-324 484.5,-288 556.5,-288 556.5,-318 550.5,-324"/>
<polyline fill="none" stroke="black" points="550.5,-324 550.5,-318 "/>
<polyline fill="none" stroke="black" points="556.5,-318 550.5,-318 "/>
<text text-anchor="middle" x="520.5" y="-302.3" font-family="Times,serif" font-size="14.00">.sv/.vhd</text>
</g>
<!-- Calyx_native&#45;&gt;SVVHDL -->
<!-- Chisel -->
<g id="node24" class="node">
<title>Chisel</title>
<polygon fill="#ffff99" stroke="black" points="515.33,-680.54 515.33,-695.46 490.24,-706 454.76,-706 429.67,-695.46 429.67,-680.54 454.76,-670 490.24,-670 515.33,-680.54"/>
<text text-anchor="middle" x="472.5" y="-684.3" font-family="Times,serif" font-size="14.00">Chisel</text>
</g>
<!-- FIRFile -->
<g id="node31" class="node">
<title>FIRFile</title>
<polygon fill="#7fc97f" stroke="black" points="493.5,-615 445.5,-615 445.5,-579 499.5,-579 499.5,-609 493.5,-615"/>
<polyline fill="none" stroke="black" points="493.5,-615 493.5,-609 "/>
<polyline fill="none" stroke="black" points="499.5,-609 493.5,-609 "/>
<text text-anchor="middle" x="472.5" y="-593.3" font-family="Times,serif" font-size="14.00">.fir</text>
</g>
<!-- Chisel&#45;&gt;FIRFile -->
<g id="edge17" class="edge">
<title>Chisel&#45;&gt;FIRFile</title>
<path fill="none" stroke="black" d="M472.5,-669.84C472.5,-657.28 472.5,-639.98 472.5,-625.5"/>
<polygon fill="black" stroke="black" points="476,-625.11 472.5,-615.11 469,-625.11 476,-625.11"/>
</g>
<!-- CPPFile -->
<g id="node27" class="node">
<title>CPPFile</title>
<polygon fill="#7fc97f" stroke="black" points="195.5,-36 147.5,-36 147.5,0 201.5,0 201.5,-30 195.5,-36"/>
<polyline fill="none" stroke="black" points="195.5,-36 195.5,-30 "/>
<polyline fill="none" stroke="black" points="201.5,-30 195.5,-30 "/>
<text text-anchor="middle" x="174.5" y="-14.3" font-family="Times,serif" font-size="14.00">.cpp</text>
</g>
<!-- Circilator&#45;&gt;CPPFile -->
<g id="edge29" class="edge">
<title>Circilator&#45;&gt;CPPFile</title>
<path fill="none" stroke="black" stroke-dasharray="5,2" d="M174.5,-71.7C174.5,-63.98 174.5,-54.71 174.5,-46.11"/>
<polygon fill="black" stroke="black" points="178,-46.1 174.5,-36.1 171,-46.1 178,-46.1"/>
</g>
<!-- FIRFile&#45;&gt;FIRRTLParser -->
<g id="edge18" class="edge">
<title>FIRFile&#45;&gt;FIRRTLParser</title>
<path fill="none" stroke="black" d="M499.93,-588.1C521.18,-580.37 549.18,-566.3 562.5,-543 570.44,-529.11 572.19,-519.73 562.5,-507 547.36,-487.12 488.11,-472.79 439.38,-464.08"/>
<polygon fill="black" stroke="black" points="439.93,-460.63 429.48,-462.36 438.74,-467.52 439.93,-460.63"/>
</g>
<!-- PyFile -->
<g id="node33" class="node">
<title>PyFile</title>
<polygon fill="#7fc97f" stroke="black" points="493.5,-543 445.5,-543 445.5,-507 499.5,-507 499.5,-537 493.5,-543"/>
<polyline fill="none" stroke="black" points="493.5,-543 493.5,-537 "/>
<polyline fill="none" stroke="black" points="499.5,-537 493.5,-537 "/>
<text text-anchor="middle" x="472.5" y="-521.3" font-family="Times,serif" font-size="14.00">.py</text>
</g>
<!-- FIRFile&#45;&gt;PyFile -->
<!-- SVVHDL&#45;&gt;Moore -->
<g id="edge22" class="edge">
<title>SVVHDL&#45;&gt;Moore</title>
<path fill="none" stroke="black" d="M520.5,-287.7C520.5,-279.98 520.5,-270.71 520.5,-262.11"/>
<polygon fill="black" stroke="black" points="524,-262.1 520.5,-252.1 517,-262.1 524,-262.1"/>
</g>
<!-- PyFile&#45;&gt;PyCDE -->
<g id="edge37" class="edge">
<title>PyFile&#45;&gt;PyCDE</title>
<path fill="none" stroke="black" d="M445.21,-508.66C443.64,-508.05 442.06,-507.48 440.5,-507 308.66,-466.09 263.46,-504.53 127.22,-471.36"/>
<polygon fill="black" stroke="black" points="127.81,-467.9 117.26,-468.85 126.1,-474.69 127.81,-467.9"/>
</g>
</g>
</svg>
