<?xml version="1.0" encoding="UTF-8" standalone="no"?>
<!DOCTYPE svg PUBLIC "-//W3C//DTD SVG 1.1//EN"
 "http://www.w3.org/Graphics/SVG/1.1/DTD/svg11.dtd">
<!-- Generated by graphviz version 2.30.1 (20201013.1554)
 -->
<!-- Title: G Pages: 1 -->
<svg width="685pt" height="992pt"
 viewBox="0.00 0.00 685.00 992.00" xmlns="http://www.w3.org/2000/svg" xmlns:xlink="http://www.w3.org/1999/xlink">
<g id="graph0" class="graph" transform="scale(1 1) rotate(0) translate(4 988)">
<title>G</title>
<polygon fill="white" stroke="white" points="-4,5 -4,-988 682,-988 682,5 -4,5"/>
<g id="clust1" class="cluster"><title>cluster_mlir_frontends</title>
<polygon fill="none" stroke="black" points="177,-901 177,-976 362,-976 362,-901 177,-901"/>
<text text-anchor="middle" x="269.5" y="-960.8" font-family="Times,serif" font-size="14.00">Upstream frontends (selection)</text>
</g>
<g id="clust2" class="cluster"><title>cluster_mlir</title>
<polygon fill="none" stroke="black" points="82,-802 82,-893 366,-893 366,-802 82,-802"/>
<text text-anchor="middle" x="224" y="-877.8" font-family="Times,serif" font-size="14.00">Upstream MLIR</text>
</g>
<g id="clust3" class="cluster"><title>cluster_std_arith_dialect</title>
<polygon fill="none" stroke="black" points="220,-810 220,-862 358,-862 358,-810 220,-810"/>
</g>
<g id="clust4" class="cluster"><title>cluster_circt</title>
<polygon fill="none" stroke="black" points="126,-212 126,-794 588,-794 588,-212 126,-212"/>
<text text-anchor="middle" x="357" y="-778.8" font-family="Times,serif" font-size="14.00">CIRCT</text>
</g>
<g id="clust6" class="cluster"><title>cluster_RTL</title>
<polygon fill="none" stroke="black" points="203,-356 203,-431 479,-431 479,-356 203,-356"/>
<text text-anchor="middle" x="341" y="-415.8" font-family="Times,serif" font-size="14.00">Core dialects</text>
</g>
<g id="clust9" class="cluster"><title>cluster_input_langs</title>
<polygon fill="none" stroke="black" points="370,-901 370,-976 669,-976 669,-901 370,-901"/>
<text text-anchor="middle" x="519.5" y="-960.8" font-family="Times,serif" font-size="14.00">Input languages</text>
</g>
<!-- PyTorch -->
<g id="node1" class="node"><title>PyTorch</title>
<polygon fill="white" stroke="black" points="354,-945 292,-945 292,-909 354,-909 354,-945"/>
<text text-anchor="middle" x="323" y="-923.3" font-family="Times,serif" font-size="14.00">PyTorch</text>
</g>
<!-- CF -->
<g id="node5" class="node"><title>CF</title>
<polygon fill="#beaed4" stroke="black" points="350,-854 296,-854 296,-818 350,-818 350,-854"/>
<text text-anchor="middle" x="323" y="-832.3" font-family="Times,serif" font-size="14.00">CF</text>
</g>
<!-- PyTorch&#45;&gt;CF -->
<g id="edge1" class="edge"><title>PyTorch&#45;&gt;CF</title>
<path fill="none" stroke="black" d="M318.755,-908.84C318.601,-907.037 318.466,-905.136 318.347,-903.16"/>
<polygon fill="black" stroke="black" points="321.826,-902.598 317.902,-892.756 314.833,-902.897 321.826,-902.598"/>
</g>
<!-- PyTorch&#45;&gt;CF -->
<!-- Polygeist -->
<g id="node2" class="node"><title>Polygeist</title>
<polygon fill="white" stroke="black" points="277.25,-945 212.75,-945 212.75,-909 277.25,-909 277.25,-945"/>
<text text-anchor="middle" x="245" y="-923.3" font-family="Times,serif" font-size="14.00">Polygeist</text>
</g>
<!-- Affine -->
<g id="node4" class="node"><title>Affine</title>
<polygon fill="#beaed4" stroke="black" points="212,-854 158,-854 158,-818 212,-818 212,-854"/>
<text text-anchor="middle" x="185" y="-832.3" font-family="Times,serif" font-size="14.00">Affine</text>
</g>
<!-- Polygeist&#45;&gt;Affine -->
<g id="edge2" class="edge"><title>Polygeist&#45;&gt;Affine</title>
<path fill="none" stroke="black" d="M229.263,-908.67C227.305,-906.365 225.303,-903.94 223.347,-901.469"/>
<polygon fill="black" stroke="black" points="225.798,-898.904 217,-893 220.196,-903.101 225.798,-898.904"/>
</g>
<!-- Polygeist&#45;&gt;CF -->
<!-- SCF -->
<g id="node3" class="node"><title>SCF</title>
<polygon fill="#beaed4" stroke="black" points="144,-854 90,-854 90,-818 144,-818 144,-854"/>
<text text-anchor="middle" x="117" y="-832.3" font-family="Times,serif" font-size="14.00">SCF</text>
</g>
<!-- Calyx -->
<g id="node11" class="node"><title>Calyx</title>
<g id="a_node11"><a xlink:href="https://circt.llvm.org/docs/Dialects/Calyx/" xlink:title="Calyx">
<polygon fill="white" stroke="black" points="280,-619 226,-619 226,-583 280,-583 280,-619"/>
<text text-anchor="middle" x="253" y="-597.3" font-family="Times,serif" font-size="14.00">Calyx</text>
</a>
</g>
</g>
<!-- SCF&#45;&gt;Calyx -->
<g id="edge3" class="edge"><title>SCF&#45;&gt;Calyx</title>
<path fill="none" stroke="black" d="M127,-817.867C150.579,-777.471 209.768,-676.066 237.811,-628.022"/>
<polygon fill="black" stroke="black" points="240.967,-629.559 242.985,-619.158 234.921,-626.03 240.967,-629.559"/>
</g>
<!-- LoopSchedule -->
<g id="node13" class="node"><title>LoopSchedule</title>
<g id="a_node13"><a xlink:href="https://circt.llvm.org/docs/Dialects/LoopSchedule/" xlink:title="LoopSchedule">
<polygon fill="white" stroke="black" points="370.25,-691 275.75,-691 275.75,-655 370.25,-655 370.25,-691"/>
<text text-anchor="middle" x="323" y="-669.3" font-family="Times,serif" font-size="14.00">LoopSchedule</text>
</a>
</g>
</g>
<!-- Affine&#45;&gt;LoopSchedule -->
<g id="edge4" class="edge"><title>Affine&#45;&gt;LoopSchedule</title>
<path fill="none" stroke="black" d="M199.768,-817.77C224.254,-789.203 273.355,-731.919 301.627,-698.936"/>
<polygon fill="black" stroke="black" points="304.487,-700.976 308.338,-691.106 299.172,-696.421 304.487,-700.976"/>
</g>
<!-- Arith -->
<g id="node6" class="node"><title>Arith</title>
<polygon fill="#beaed4" stroke="black" points="282,-854 228,-854 228,-818 282,-818 282,-854"/>
<text text-anchor="middle" x="255" y="-832.3" font-family="Times,serif" font-size="14.00">Arith</text>
</g>
<!-- Handshake -->
<g id="node10" class="node"><title>Handshake</title>
<g id="a_node10"><a xlink:href="https://circt.llvm.org/docs/Dialects/Handshake/" xlink:title="Handshake">
<polygon fill="white" stroke="black" points="211.25,-619 134.75,-619 134.75,-583 211.25,-583 211.25,-619"/>
<text text-anchor="middle" x="173" y="-597.3" font-family="Times,serif" font-size="14.00">Handshake</text>
</a>
</g>
</g>
<!-- Arith&#45;&gt;Handshake -->
<g id="edge6" class="edge"><title>Arith&#45;&gt;Handshake</title>
<path fill="none" stroke="black" d="M246.27,-810.195C230.722,-766.015 198.367,-674.081 182.37,-628.625"/>
<polygon fill="black" stroke="black" points="185.66,-627.429 179.038,-619.158 179.057,-629.753 185.66,-627.429"/>
</g>
<!-- Arith&#45;&gt;Calyx -->
<g id="edge7" class="edge"><title>Arith&#45;&gt;Calyx</title>
<path fill="none" stroke="black" d="M254.787,-810.23C254.41,-766.259 253.626,-674.909 253.234,-629.234"/>
<polygon fill="black" stroke="black" points="256.733,-629.128 253.147,-619.158 249.733,-629.188 256.733,-629.128"/>
</g>
<!-- FIRRTLParser -->
<g id="node7" class="node"><title>FIRRTLParser</title>
<polygon fill="#fdc086" stroke="black" points="390,-619 294,-619 294,-583 390,-583 390,-619"/>
<text text-anchor="middle" x="342" y="-597.3" font-family="Times,serif" font-size="14.00">FIRRTLParser</text>
</g>
<!-- FIRRTL -->
<g id="node12" class="node"><title>FIRRTL</title>
<g id="a_node12"><a xlink:href="https://circt.llvm.org/docs/Dialects/FIRRTL/" xlink:title="FIRRTL">
<polygon fill="white" stroke="black" points="196,-547 134,-547 134,-511 196,-511 196,-547"/>
<text text-anchor="middle" x="165" y="-525.3" font-family="Times,serif" font-size="14.00">FIRRTL</text>
</a>
</g>
</g>
<!-- FIRRTLParser&#45;&gt;FIRRTL -->
<g id="edge29" class="edge"><title>FIRRTLParser&#45;&gt;FIRRTL</title>
<path fill="none" stroke="black" d="M295.408,-582.983C270.625,-573.761 239.461,-561.898 205.649,-548.025"/>
<polygon fill="black" stroke="black" points="206.624,-544.641 196.045,-544.06 203.952,-551.111 206.624,-544.641"/>
</g>
<!-- PyCDE -->
<g id="node8" class="node"><title>PyCDE</title>
<g id="a_node8"><a xlink:href="https://circt.llvm.org/docs/PyCDE/" xlink:title="PyCDE">
<polygon fill="#fdc086" stroke="black" points="462,-619 404,-619 404,-583 462,-583 462,-619"/>
<text text-anchor="middle" x="433" y="-597.3" font-family="Times,serif" font-size="14.00">PyCDE</text>
</a>
</g>
</g>
<!-- MSFT -->
<g id="node15" class="node"><title>MSFT</title>
<g id="a_node15"><a xlink:href="https://circt.llvm.org/docs/Dialects/MSFT/" xlink:title="MSFT">
<polygon fill="white" stroke="black" points="482,-547 428,-547 428,-511 482,-511 482,-547"/>
<text text-anchor="middle" x="455" y="-525.3" font-family="Times,serif" font-size="14.00">MSFT</text>
</a>
</g>
</g>
<!-- PyCDE&#45;&gt;MSFT -->
<g id="edge44" class="edge"><title>PyCDE&#45;&gt;MSFT</title>
<path fill="none" stroke="black" d="M438.438,-582.697C440.889,-574.898 443.84,-565.509 446.568,-556.829"/>
<polygon fill="black" stroke="black" points="449.965,-557.694 449.624,-547.104 443.287,-555.595 449.965,-557.694"/>
</g>
<!-- ESI -->
<g id="node16" class="node"><title>ESI</title>
<g id="a_node16"><a xlink:href="https://circt.llvm.org/docs/Dialects/ESI/" xlink:title="ESI">
<polygon fill="white" stroke="black" points="332,-547 278,-547 278,-511 332,-511 332,-547"/>
<text text-anchor="middle" x="305" y="-525.3" font-family="Times,serif" font-size="14.00">ESI</text>
</a>
</g>
</g>
<!-- PyCDE&#45;&gt;ESI -->
<g id="edge45" class="edge"><title>PyCDE&#45;&gt;ESI</title>
<path fill="none" stroke="black" d="M403.955,-584.116C385.277,-573.902 360.87,-560.554 340.969,-549.671"/>
<polygon fill="black" stroke="black" points="342.633,-546.591 332.18,-544.864 339.274,-552.733 342.633,-546.591"/>
</g>
<!-- FSM -->
<g id="node17" class="node"><title>FSM</title>
<g id="a_node17"><a xlink:href="https://circt.llvm.org/docs/Dialects/FSM/" xlink:title="FSM">
<polygon fill="white" stroke="black" points="264,-547 210,-547 210,-511 264,-511 264,-547"/>
<text text-anchor="middle" x="237" y="-525.3" font-family="Times,serif" font-size="14.00">FSM</text>
</a>
</g>
</g>
<!-- PyCDE&#45;&gt;FSM -->
<g id="edge46" class="edge"><title>PyCDE&#45;&gt;FSM</title>
<path fill="none" stroke="black" d="M403.699,-585.686C401.45,-584.735 399.2,-583.827 397,-583 345.468,-563.619 327.273,-567.577 273.896,-547.849"/>
<polygon fill="black" stroke="black" points="274.857,-544.469 264.266,-544.178 272.364,-551.01 274.857,-544.469"/>
</g>
<!-- HWArith -->
<g id="node18" class="node"><title>HWArith</title>
<g id="a_node18"><a xlink:href="https://circt.llvm.org/docs/Dialects/HWArith/" xlink:title="HWArith">
<polygon fill="white" stroke="black" points="413.25,-547 346.75,-547 346.75,-511 413.25,-511 413.25,-547"/>
<text text-anchor="middle" x="380" y="-525.3" font-family="Times,serif" font-size="14.00">HWArith</text>
</a>
</g>
</g>
<!-- PyCDE&#45;&gt;HWArith -->
<g id="edge47" class="edge"><title>PyCDE&#45;&gt;HWArith</title>
<path fill="none" stroke="black" d="M419.899,-582.697C413.609,-574.389 405.953,-564.277 399.035,-555.141"/>
<polygon fill="black" stroke="black" points="401.777,-552.964 392.95,-547.104 396.196,-557.19 401.777,-552.964"/>
</g>
<!-- Scheduling -->
<g id="node9" class="node"><title>Scheduling</title>
<g id="a_node9"><a xlink:href="https://circt.llvm.org/docs/Scheduling/" xlink:title="Scheduling">
<polygon fill="#fdc086" stroke="black" points="452.25,-763 375.75,-763 375.75,-727 452.25,-727 452.25,-763"/>
<text text-anchor="middle" x="414" y="-741.3" font-family="Times,serif" font-size="14.00">Scheduling</text>
</a>
</g>
</g>
<!-- Scheduling&#45;&gt;LoopSchedule -->
<g id="edge26" class="edge"><title>Scheduling&#45;&gt;LoopSchedule</title>
<path fill="none" stroke="black" d="M383.561,-720.585C373.864,-713.126 363.138,-704.875 353.441,-697.416"/>
<polygon fill="black" stroke="black" points="381.445,-723.374 391.506,-726.697 385.713,-717.825 381.445,-723.374"/>
<polygon fill="black" stroke="black" points="355.296,-694.427 345.236,-691.104 351.028,-699.976 355.296,-694.427"/>
</g>
<!-- SSP -->
<g id="node14" class="node"><title>SSP</title>
<g id="a_node14"><a xlink:href="https://circt.llvm.org/docs/Dialects/SSP/" xlink:title="SSP">
<polygon fill="white" stroke="black" points="469,-691 415,-691 415,-655 469,-655 469,-691"/>
<text text-anchor="middle" x="442" y="-669.3" font-family="Times,serif" font-size="14.00">SSP</text>
</a>
</g>
</g>
<!-- Scheduling&#45;&gt;SSP -->
<g id="edge48" class="edge"><title>Scheduling&#45;&gt;SSP</title>
<path fill="none" stroke="black" d="M424.707,-717.232C426.9,-711.75 429.207,-705.983 431.396,-700.511"/>
<polygon fill="black" stroke="black" points="421.386,-716.112 420.921,-726.697 427.885,-718.712 421.386,-716.112"/>
<polygon fill="black" stroke="black" points="434.694,-701.689 435.158,-691.104 428.195,-699.089 434.694,-701.689"/>
</g>
<!-- Scheduling&#45;&gt;MSFT -->
<g id="edge49" class="edge"><title>Scheduling&#45;&gt;MSFT</title>
<path fill="none" stroke="black" stroke-dasharray="5,2" d="M404.719,-717.024C400.021,-698.403 397.309,-673.723 408,-655 423.61,-627.662 453.39,-646.338 469,-619 479.848,-600.002 474.663,-575.198 467.727,-556.602"/>
<polygon fill="black" stroke="black" points="401.36,-718.008 407.462,-726.669 408.093,-716.093 401.36,-718.008"/>
<polygon fill="black" stroke="black" points="470.926,-555.177 463.9,-547.247 464.447,-557.827 470.926,-555.177"/>
</g>
<!-- Handshake&#45;&gt;FIRRTL -->
<g id="edge8" class="edge"><title>Handshake&#45;&gt;FIRRTL</title>
<path fill="none" stroke="black" d="M171.022,-582.697C170.141,-574.983 169.081,-565.712 168.099,-557.112"/>
<polygon fill="black" stroke="black" points="171.568,-556.642 166.955,-547.104 164.613,-557.437 171.568,-556.642"/>
</g>
<!-- Calyx&#45;&gt;FSM -->
<g id="edge9" class="edge"><title>Calyx&#45;&gt;FSM</title>
<path fill="none" stroke="black" d="M249.045,-582.697C247.282,-574.983 245.163,-565.712 243.197,-557.112"/>
<polygon fill="black" stroke="black" points="246.55,-556.073 240.91,-547.104 239.726,-557.633 246.55,-556.073"/>
</g>
<!-- Calyx_native -->
<g id="node35" class="node"><title>Calyx_native</title>
<polygon fill="#ffff99" stroke="black" points="118.14,-521.544 118.14,-536.456 83.4966,-547 34.5034,-547 -0.14013,-536.456 -0.14013,-521.544 34.5034,-511 83.4966,-511 118.14,-521.544"/>
<text text-anchor="middle" x="59" y="-525.3" font-family="Times,serif" font-size="14.00">Calyx native</text>
</g>
<!-- Calyx&#45;&gt;Calyx_native -->
<g id="edge37" class="edge"><title>Calyx&#45;&gt;Calyx_native</title>
<path fill="none" stroke="black" d="M225.641,-586.293C223.077,-585.136 220.502,-584.02 218,-583 182.501,-568.534 141.43,-554.921 109.924,-545.114"/>
<polygon fill="black" stroke="black" points="110.638,-541.671 100.05,-542.067 108.574,-548.36 110.638,-541.671"/>
</g>
<!-- lower_to_sv_and_core -->
<g id="node20" class="node"><title>lower_to_sv_and_core</title>
<ellipse fill="black" stroke="black" cx="216" cy="-457" rx="1.8" ry="1.8"/>
</g>
<!-- FIRRTL&#45;&gt;lower_to_sv_and_core -->
<g id="edge13" class="edge"><title>FIRRTL&#45;&gt;lower_to_sv_and_core</title>
<path fill="none" stroke="black" d="M177.607,-510.697C191.293,-491.911 211.705,-463.895 215.412,-458.807"/>
</g>
<!-- space_above_RTL -->
<!-- FIRRTL&#45;&gt;space_above_RTL -->
<!-- LoopSchedule&#45;&gt;Calyx -->
<g id="edge5" class="edge"><title>LoopSchedule&#45;&gt;Calyx</title>
<path fill="none" stroke="black" d="M305.697,-654.697C297.135,-646.135 286.656,-635.656 277.304,-626.304"/>
<polygon fill="black" stroke="black" points="279.65,-623.701 270.104,-619.104 274.701,-628.65 279.65,-623.701"/>
</g>
<!-- HW -->
<g id="node23" class="node"><title>HW</title>
<g id="a_node23"><a xlink:href="https://circt.llvm.org/docs/Dialects/HW/" xlink:title="HW">
<polygon fill="white" stroke="black" points="471,-400 417,-400 417,-364 471,-364 471,-400"/>
<text text-anchor="middle" x="444" y="-378.3" font-family="Times,serif" font-size="14.00">HW</text>
</a>
</g>
</g>
<!-- MSFT&#45;&gt;HW -->
<g id="edge10" class="edge"><title>MSFT&#45;&gt;HW</title>
<path fill="none" stroke="black" d="M453.695,-510.797C452.387,-493.56 450.301,-466.057 448.398,-440.973"/>
<polygon fill="black" stroke="black" points="451.871,-440.482 447.624,-430.776 444.891,-441.012 451.871,-440.482"/>
</g>
<!-- TCL -->
<g id="node45" class="node"><title>TCL</title>
<polygon fill="#7fc97f" stroke="black" points="559,-111 461,-111 461,-75 565,-75 565,-105 559,-111"/>
<polyline fill="none" stroke="black" points="559,-111 559,-105 "/>
<polyline fill="none" stroke="black" points="565,-105 559,-105 "/>
<text text-anchor="middle" x="513" y="-89.3" font-family="Times,serif" font-size="14.00">Placements (tcl)</text>
</g>
<!-- MSFT&#45;&gt;TCL -->
<g id="edge42" class="edge"><title>MSFT&#45;&gt;TCL</title>
<path fill="none" stroke="black" d="M482.164,-513.876C510.03,-499.279 549.645,-478.181 552,-475 576.84,-441.441 571,-424.752 571,-383 571,-383 571,-383 571,-237 571,-196.553 568.415,-184.966 552,-148 547.565,-138.012 541.09,-128.04 534.685,-119.433"/>
<polygon fill="black" stroke="black" points="537.285,-117.074 528.382,-111.33 531.76,-121.372 537.285,-117.074"/>
</g>
<!-- MSFT&#45;&gt;space_above_RTL -->
<!-- ESI&#45;&gt;lower_to_sv_and_core -->
<g id="edge14" class="edge"><title>ESI&#45;&gt;lower_to_sv_and_core</title>
<path fill="none" stroke="black" d="M283,-510.697C259.115,-491.911 223.495,-463.895 217.026,-458.807"/>
</g>
<!-- ServiceDesc -->
<g id="node43" class="node"><title>ServiceDesc</title>
<polygon fill="#7fc97f" stroke="black" points="441,-112 305,-112 305,-74 447,-74 447,-106 441,-112"/>
<polyline fill="none" stroke="black" points="441,-112 441,-106 "/>
<polyline fill="none" stroke="black" points="447,-106 441,-106 "/>
<text text-anchor="middle" x="376" y="-96.8" font-family="Times,serif" font-size="14.00">ESI system description</text>
<text text-anchor="middle" x="376" y="-81.8" font-family="Times,serif" font-size="14.00">(JSON/Capnp)</text>
</g>
<!-- ESI&#45;&gt;ServiceDesc -->
<g id="edge41" class="edge"><title>ESI&#45;&gt;ServiceDesc</title>
<path fill="none" stroke="black" d="M332.063,-514.483C360.645,-500.183 402.596,-479.122 410,-475 442.766,-456.758 451.385,-452.66 482,-431 509.596,-411.476 541,-416.804 541,-383 541,-383 541,-383 541,-237 541,-196.887 551.722,-178.781 526,-148 516.151,-136.214 486.647,-124.497 456.383,-115.006"/>
<polygon fill="black" stroke="black" points="457.14,-111.577 446.554,-112.005 455.096,-118.272 457.14,-111.577"/>
</g>
<!-- ESI&#45;&gt;space_above_RTL -->
<!-- FSM&#45;&gt;lower_to_sv_and_core -->
<g id="edge15" class="edge"><title>FSM&#45;&gt;lower_to_sv_and_core</title>
<path fill="none" stroke="black" d="M231.809,-510.697C226.173,-491.911 217.769,-463.895 216.242,-458.807"/>
</g>
<!-- FSM&#45;&gt;space_above_RTL -->
<!-- HWArith&#45;&gt;HW -->
<g id="edge11" class="edge"><title>HWArith&#45;&gt;HW</title>
<path fill="none" stroke="black" d="M390.727,-510.707C396.802,-500.526 404.302,-487.276 410,-475 415.086,-464.042 419.964,-452.092 424.359,-440.542"/>
<polygon fill="black" stroke="black" points="427.716,-441.556 427.931,-430.964 421.157,-439.11 427.716,-441.556"/>
</g>
<!-- HWArith&#45;&gt;space_above_RTL -->
<!-- MooreMIR -->
<g id="node19" class="node"><title>MooreMIR</title>
<g id="a_node19"><a xlink:href="https://circt.llvm.org/docs/Dialects/Moore/" xlink:title="Moore MIR">
<polygon fill="white" stroke="black" points="579.25,-547 496.75,-547 496.75,-511 579.25,-511 579.25,-547"/>
<text text-anchor="middle" x="538" y="-525.3" font-family="Times,serif" font-size="14.00">Moore MIR</text>
</a>
</g>
</g>
<!-- MooreMIR&#45;&gt;HW -->
<g id="edge12" class="edge"><title>MooreMIR&#45;&gt;HW</title>
<path fill="none" stroke="black" d="M524.571,-510.634C516.844,-500.428 507.094,-487.178 499,-475 491.533,-463.765 483.884,-451.515 476.755,-439.727"/>
<polygon fill="black" stroke="black" points="479.562,-437.602 471.417,-430.826 473.559,-441.202 479.562,-437.602"/>
</g>
<!-- LLHD -->
<g id="node26" class="node"><title>LLHD</title>
<g id="a_node26"><a xlink:href="https://circt.llvm.org/docs/Dialects/LLHD/" xlink:title="LLHD">
<polygon fill="white" stroke="black" points="513,-328 459,-328 459,-292 513,-292 513,-328"/>
<text text-anchor="middle" x="486" y="-306.3" font-family="Times,serif" font-size="14.00">LLHD</text>
</a>
</g>
</g>
<!-- MooreMIR&#45;&gt;LLHD -->
<g id="edge19" class="edge"><title>MooreMIR&#45;&gt;LLHD</title>
<path fill="none" stroke="black" d="M533.92,-510.972C524.924,-473.432 503.325,-383.297 492.465,-337.977"/>
<polygon fill="black" stroke="black" points="495.867,-337.158 490.133,-328.249 489.06,-338.789 495.867,-337.158"/>
</g>
<!-- MooreMIR&#45;&gt;space_above_RTL -->
<!-- SV -->
<g id="node28" class="node"><title>SV</title>
<g id="a_node28"><a xlink:href="https://circt.llvm.org/docs/Dialects/SV/" xlink:title="SV">
<polygon fill="white" stroke="black" points="221,-328 167,-328 167,-292 221,-292 221,-328"/>
<text text-anchor="middle" x="194" y="-306.3" font-family="Times,serif" font-size="14.00">SV</text>
</a>
</g>
</g>
<!-- lower_to_sv_and_core&#45;&gt;SV -->
<g id="edge16" class="edge"><title>lower_to_sv_and_core&#45;&gt;SV</title>
<path fill="none" stroke="black" d="M215.199,-455.136C212.451,-452.111 203.392,-441.601 200,-431 190.2,-400.368 190.028,-363.105 191.442,-338.31"/>
<polygon fill="black" stroke="black" points="194.944,-338.403 192.147,-328.183 187.961,-337.916 194.944,-338.403"/>
</g>
<!-- Seq -->
<g id="node22" class="node"><title>Seq</title>
<g id="a_node22"><a xlink:href="https://circt.llvm.org/docs/Dialects/Seq/" xlink:title="Seq">
<polygon fill="white" stroke="black" points="265,-400 211,-400 211,-364 265,-364 265,-400"/>
<text text-anchor="middle" x="238" y="-378.3" font-family="Times,serif" font-size="14.00">Seq</text>
</a>
</g>
</g>
<!-- lower_to_sv_and_core&#45;&gt;Seq -->
<g id="edge17" class="edge"><title>lower_to_sv_and_core&#45;&gt;Seq</title>
<path fill="none" stroke="black" d="M216.247,-455.18C216.85,-453.181 218.504,-447.692 220.648,-440.578"/>
<polygon fill="black" stroke="black" points="224.049,-441.423 223.583,-430.838 217.346,-439.403 224.049,-441.423"/>
</g>
<!-- space_above_RTL&#45;&gt;Seq -->
<!-- space_above_RTL&#45;&gt;HW -->
<!-- Comb -->
<g id="node24" class="node"><title>Comb</title>
<g id="a_node24"><a xlink:href="https://circt.llvm.org/docs/Dialects/Comb/" xlink:title="Comb">
<polygon fill="white" stroke="black" points="403,-400 349,-400 349,-364 403,-364 403,-400"/>
<text text-anchor="middle" x="376" y="-378.3" font-family="Times,serif" font-size="14.00">Comb</text>
</a>
</g>
</g>
<!-- space_above_RTL&#45;&gt;Comb -->
<!-- Seq&#45;&gt;SV -->
<g id="edge18" class="edge"><title>Seq&#45;&gt;SV</title>
<path fill="none" stroke="black" d="M227.124,-363.697C222.008,-355.559 215.805,-345.689 210.155,-336.701"/>
<polygon fill="black" stroke="black" points="213.036,-334.708 204.751,-328.104 207.11,-338.433 213.036,-334.708"/>
</g>
<!-- ExportVerilog -->
<g id="node33" class="node"><title>ExportVerilog</title>
<g id="a_node33"><a xlink:href="https://circt.llvm.org/docs/VerilogGeneration/" xlink:title="ExportVerilog">
<polygon fill="#fdc086" stroke="black" points="231.25,-256 138.75,-256 138.75,-220 231.25,-220 231.25,-256"/>
<text text-anchor="middle" x="185" y="-234.3" font-family="Times,serif" font-size="14.00">ExportVerilog</text>
</a>
</g>
</g>
<!-- Seq&#45;&gt;ExportVerilog -->
<g id="edge33" class="edge"><title>Seq&#45;&gt;ExportVerilog</title>
<path fill="none" stroke="black" d="M238.899,-356.466C238.72,-338.052 236.622,-312.579 228,-292 223.811,-282 217.123,-272.378 210.257,-264.141"/>
<polygon fill="black" stroke="black" points="212.664,-261.579 203.419,-256.403 207.418,-266.214 212.664,-261.579"/>
</g>
<!-- HW&#45;&gt;LLHD -->
<g id="edge20" class="edge"><title>HW&#45;&gt;LLHD</title>
<path fill="none" stroke="black" d="M454.382,-363.697C459.265,-355.559 465.187,-345.689 470.579,-336.701"/>
<polygon fill="black" stroke="black" points="473.594,-338.48 475.737,-328.104 467.591,-334.879 473.594,-338.48"/>
</g>
<!-- llhd_sim -->
<g id="node31" class="node"><title>llhd_sim</title>
<polygon fill="#fdc086" stroke="black" points="511,-256 449,-256 449,-220 511,-220 511,-256"/>
<text text-anchor="middle" x="480" y="-234.3" font-family="Times,serif" font-size="14.00">llhd&#45;sim</text>
</g>
<!-- HW&#45;&gt;llhd_sim -->
<g id="edge34" class="edge"><title>HW&#45;&gt;llhd_sim</title>
<path fill="none" stroke="black" d="M443.631,-356.089C443.985,-337.967 445.775,-313.027 452,-292 454.704,-282.865 459.055,-273.486 463.529,-265.205"/>
<polygon fill="black" stroke="black" points="466.64,-266.815 468.552,-256.394 460.559,-263.349 466.64,-266.815"/>
</g>
<!-- SystemC -->
<g id="node29" class="node"><title>SystemC</title>
<g id="a_node29"><a xlink:href="https://circt.llvm.org/docs/Dialects/SystemC/" xlink:title="SystemC">
<polygon fill="white" stroke="black" points="408.25,-328 343.75,-328 343.75,-292 408.25,-292 408.25,-328"/>
<text text-anchor="middle" x="376" y="-306.3" font-family="Times,serif" font-size="14.00">SystemC</text>
</a>
</g>
</g>
<!-- Comb&#45;&gt;SystemC -->
<g id="edge22" class="edge"><title>Comb&#45;&gt;SystemC</title>
<path fill="none" stroke="black" d="M376,-356.077C376,-350.254 376,-344.025 376,-338.112"/>
<polygon fill="black" stroke="black" points="379.5,-338.104 376,-328.104 372.5,-338.104 379.5,-338.104"/>
</g>
<!-- Interop -->
<g id="node25" class="node"><title>Interop</title>
<g id="a_node25"><a xlink:href="https://circt.llvm.org/docs/Dialects/Interop/" xlink:title="Interop">
<polygon fill="white" stroke="black" points="335,-400 279,-400 279,-364 335,-364 335,-400"/>
<text text-anchor="middle" x="307" y="-378.3" font-family="Times,serif" font-size="14.00">Interop</text>
</a>
</g>
</g>
<!-- Arc -->
<g id="node27" class="node"><title>Arc</title>
<g id="a_node27"><a xlink:href="https://circt.llvm.org/docs/Dialects/Arc/" xlink:title="Arc">
<polygon fill="white" stroke="black" points="317,-328 263,-328 263,-292 317,-292 317,-328"/>
<text text-anchor="middle" x="290" y="-306.3" font-family="Times,serif" font-size="14.00">Arc</text>
</a>
</g>
</g>
<!-- Interop&#45;&gt;Arc -->
<g id="edge21" class="edge"><title>Interop&#45;&gt;Arc</title>
<path fill="none" stroke="black" d="M301.023,-356.391C299.565,-350.386 297.998,-343.932 296.516,-337.829"/>
<polygon fill="black" stroke="black" points="299.915,-336.996 294.154,-328.104 293.113,-338.648 299.915,-336.996"/>
</g>
<!-- LLHD&#45;&gt;llhd_sim -->
<g id="edge39" class="edge"><title>LLHD&#45;&gt;llhd_sim</title>
<path fill="none" stroke="black" d="M484.517,-291.697C483.856,-283.983 483.061,-274.712 482.324,-266.112"/>
<polygon fill="black" stroke="black" points="485.807,-265.769 481.466,-256.104 478.833,-266.367 485.807,-265.769"/>
</g>
<!-- Arcilator -->
<g id="node30" class="node"><title>Arcilator</title>
<polygon fill="#fdc086" stroke="black" points="310.25,-256 245.75,-256 245.75,-220 310.25,-220 310.25,-256"/>
<text text-anchor="middle" x="278" y="-234.3" font-family="Times,serif" font-size="14.00">Arcilator</text>
</g>
<!-- Arc&#45;&gt;Arcilator -->
<g id="edge24" class="edge"><title>Arc&#45;&gt;Arcilator</title>
<path fill="none" stroke="black" d="M287.034,-291.697C285.711,-283.983 284.122,-274.712 282.648,-266.112"/>
<polygon fill="black" stroke="black" points="286.072,-265.369 280.932,-256.104 279.172,-266.552 286.072,-265.369"/>
</g>
<!-- SV&#45;&gt;ExportVerilog -->
<g id="edge32" class="edge"><title>SV&#45;&gt;ExportVerilog</title>
<path fill="none" stroke="black" d="M191.775,-291.697C190.783,-283.983 189.592,-274.712 188.486,-266.112"/>
<polygon fill="black" stroke="black" points="191.946,-265.576 187.199,-256.104 185.003,-266.469 191.946,-265.576"/>
</g>
<!-- ExportSystemC -->
<g id="node32" class="node"><title>ExportSystemC</title>
<polygon fill="#fdc086" stroke="black" points="427,-256 325,-256 325,-220 427,-220 427,-256"/>
<text text-anchor="middle" x="376" y="-234.3" font-family="Times,serif" font-size="14.00">ExportSystemC</text>
</g>
<!-- SystemC&#45;&gt;ExportSystemC -->
<g id="edge30" class="edge"><title>SystemC&#45;&gt;ExportSystemC</title>
<path fill="none" stroke="black" d="M376,-291.697C376,-283.983 376,-274.712 376,-266.112"/>
<polygon fill="black" stroke="black" points="379.5,-266.104 376,-256.104 372.5,-266.104 379.5,-266.104"/>
</g>
<!-- SimBinary -->
<g id="node46" class="node"><title>SimBinary</title>
<polygon fill="#7fc97f" stroke="black" points="305.25,-184 164.75,-184 164.75,-148 311.25,-148 311.25,-178 305.25,-184"/>
<polyline fill="none" stroke="black" points="305.25,-184 305.25,-178 "/>
<polyline fill="none" stroke="black" points="311.25,-178 305.25,-178 "/>
<text text-anchor="middle" x="238" y="-162.3" font-family="Times,serif" font-size="14.00">Simulation Binary (obj)</text>
</g>
<!-- Arcilator&#45;&gt;SimBinary -->
<g id="edge25" class="edge"><title>Arcilator&#45;&gt;SimBinary</title>
<path fill="none" stroke="black" d="M268.112,-219.697C263.511,-211.644 257.94,-201.894 252.847,-192.982"/>
<polygon fill="black" stroke="black" points="255.774,-191.05 247.774,-184.104 249.696,-194.523 255.774,-191.05"/>
</g>
<!-- VCDTrace -->
<g id="node40" class="node"><title>VCDTrace</title>
<polygon fill="#7fc97f" stroke="black" points="513,-184 441,-184 441,-148 519,-148 519,-178 513,-184"/>
<polyline fill="none" stroke="black" points="513,-184 513,-178 "/>
<polyline fill="none" stroke="black" points="519,-178 513,-178 "/>
<text text-anchor="middle" x="480" y="-162.3" font-family="Times,serif" font-size="14.00">Trace (vcd)</text>
</g>
<!-- llhd_sim&#45;&gt;VCDTrace -->
<g id="edge40" class="edge"><title>llhd_sim&#45;&gt;VCDTrace</title>
<path fill="none" stroke="black" d="M480,-219.697C480,-211.983 480,-202.712 480,-194.112"/>
<polygon fill="black" stroke="black" points="483.5,-194.104 480,-184.104 476.5,-194.104 483.5,-194.104"/>
</g>
<!-- SystemCFile -->
<g id="node41" class="node"><title>SystemCFile</title>
<polygon fill="#7fc97f" stroke="black" points="420.25,-184 325.75,-184 325.75,-148 426.25,-148 426.25,-178 420.25,-184"/>
<polyline fill="none" stroke="black" points="420.25,-184 420.25,-178 "/>
<polyline fill="none" stroke="black" points="426.25,-178 420.25,-178 "/>
<text text-anchor="middle" x="376" y="-162.3" font-family="Times,serif" font-size="14.00">SystemC (c++)</text>
</g>
<!-- ExportSystemC&#45;&gt;SystemCFile -->
<g id="edge31" class="edge"><title>ExportSystemC&#45;&gt;SystemCFile</title>
<path fill="none" stroke="black" d="M376,-219.697C376,-211.983 376,-202.712 376,-194.112"/>
<polygon fill="black" stroke="black" points="379.5,-194.104 376,-184.104 372.5,-194.104 379.5,-194.104"/>
</g>
<!-- SVFile -->
<g id="node42" class="node"><title>SVFile</title>
<polygon fill="#7fc97f" stroke="black" points="144,-184 54,-184 54,-148 150,-148 150,-178 144,-184"/>
<polyline fill="none" stroke="black" points="144,-184 144,-178 "/>
<polyline fill="none" stroke="black" points="150,-178 144,-178 "/>
<text text-anchor="middle" x="102" y="-162.3" font-family="Times,serif" font-size="14.00">SystemVerilog</text>
</g>
<!-- ExportVerilog&#45;&gt;SVFile -->
<g id="edge23" class="edge"><title>ExportVerilog&#45;&gt;SVFile</title>
<path fill="none" stroke="black" d="M164.483,-219.697C154.131,-210.965 141.414,-200.24 130.161,-190.75"/>
<polygon fill="black" stroke="black" points="132.182,-187.876 122.281,-184.104 127.669,-193.227 132.182,-187.876"/>
</g>
<!-- Moore -->
<g id="node34" class="node"><title>Moore</title>
<polygon fill="#ffff99" stroke="black" points="644.93,-828.544 644.93,-843.456 623.297,-854 592.703,-854 571.07,-843.456 571.07,-828.544 592.703,-818 623.297,-818 644.93,-828.544"/>
<text text-anchor="middle" x="608" y="-832.3" font-family="Times,serif" font-size="14.00">Moore</text>
</g>
<!-- Moore&#45;&gt;MooreMIR -->
<g id="edge36" class="edge"><title>Moore&#45;&gt;MooreMIR</title>
<path fill="none" stroke="black" d="M604.036,-817.728C592.413,-767.085 558.353,-618.68 544.238,-557.18"/>
<polygon fill="black" stroke="black" points="547.569,-556.046 541.921,-547.083 540.746,-557.612 547.569,-556.046"/>
</g>
<!-- Calyx_native&#45;&gt;lower_to_sv_and_core -->
<g id="edge38" class="edge"><title>Calyx_native&#45;&gt;lower_to_sv_and_core</title>
<path fill="none" stroke="black" d="M91.9123,-513.326C134.713,-494.243 205.182,-462.823 214.881,-458.499"/>
</g>
<!-- FIRFile -->
<g id="node36" class="node"><title>FIRFile</title>
<polygon fill="#7fc97f" stroke="black" points="435,-854 387,-854 387,-818 441,-818 441,-848 435,-854"/>
<polyline fill="none" stroke="black" points="435,-854 435,-848 "/>
<polyline fill="none" stroke="black" points="441,-848 435,-848 "/>
<text text-anchor="middle" x="414" y="-832.3" font-family="Times,serif" font-size="14.00">.fir</text>
</g>
<!-- FIRFile&#45;&gt;FIRRTLParser -->
<g id="edge28" class="edge"><title>FIRFile&#45;&gt;FIRRTLParser</title>
<path fill="none" stroke="black" d="M438.614,-817.825C446.302,-811.242 454.055,-803.101 459,-794 488.714,-739.313 510.992,-706.47 476,-655 471.227,-647.979 433.843,-633.503 399.772,-621.452"/>
<polygon fill="black" stroke="black" points="400.874,-618.13 390.28,-618.125 398.559,-624.736 400.874,-618.13"/>
</g>
<!-- FIRFile&#45;&gt;Scheduling -->
<!-- Chisel -->
<g id="node37" class="node"><title>Chisel</title>
<polygon fill="#ffff99" stroke="black" points="449.319,-919.544 449.319,-934.456 428.63,-945 399.37,-945 378.681,-934.456 378.681,-919.544 399.37,-909 428.63,-909 449.319,-919.544"/>
<text text-anchor="middle" x="414" y="-923.3" font-family="Times,serif" font-size="14.00">Chisel</text>
</g>
<!-- Chisel&#45;&gt;FIRFile -->
<g id="edge27" class="edge"><title>Chisel&#45;&gt;FIRFile</title>
<path fill="none" stroke="black" d="M414,-908.84C414,-896.281 414,-878.979 414,-864.502"/>
<polygon fill="black" stroke="black" points="417.5,-864.107 414,-854.107 410.5,-864.107 417.5,-864.107"/>
</g>
<!-- Chisel&#45;&gt;CF -->
<!-- SVVHDL -->
<g id="node38" class="node"><title>SVVHDL</title>
<polygon fill="#ffff99" stroke="black" points="660.146,-919.544 660.146,-934.456 629.599,-945 586.401,-945 555.854,-934.456 555.854,-919.544 586.401,-909 629.599,-909 660.146,-919.544"/>
<text text-anchor="middle" x="608" y="-923.3" font-family="Times,serif" font-size="14.00">SV/VHDL</text>
</g>
<!-- SVVHDL&#45;&gt;Moore -->
<g id="edge35" class="edge"><title>SVVHDL&#45;&gt;Moore</title>
<path fill="none" stroke="black" d="M608,-908.84C608,-896.281 608,-878.979 608,-864.502"/>
<polygon fill="black" stroke="black" points="611.5,-864.107 608,-854.107 604.5,-864.107 611.5,-864.107"/>
</g>
<!-- PyFile -->
<g id="node39" class="node"><title>PyFile</title>
<polygon fill="#ffff99" stroke="black" points="541.537,-919.544 541.537,-934.456 518.963,-945 487.037,-945 464.463,-934.456 464.463,-919.544 487.037,-909 518.963,-909 541.537,-919.544"/>
<text text-anchor="middle" x="503" y="-923.3" font-family="Times,serif" font-size="14.00">Python</text>
</g>
<!-- PyFile&#45;&gt;PyCDE -->
<g id="edge43" class="edge"><title>PyFile&#45;&gt;PyCDE</title>
<path fill="none" stroke="black" d="M507.187,-908.697C517.06,-864.01 537.947,-742.147 496,-655 490.277,-643.11 480.488,-632.903 470.311,-624.712"/>
<polygon fill="black" stroke="black" points="472.236,-621.78 462.136,-618.581 468.036,-627.38 472.236,-621.78"/>
</g>
<!-- SystemCFile&#45;&gt;ServiceDesc -->
<!-- SystemCFile&#45;&gt;TCL -->
<!-- SoftwareAPI -->
<g id="node44" class="node"><title>SoftwareAPI</title>
<polygon fill="none" stroke="black" stroke-dasharray="5,2" points="422,-38 324,-38 324,-0 428,-0 428,-32 422,-38"/>
<polyline fill="none" stroke="black" stroke-dasharray="5,2" points="422,-38 422,-32 "/>
<polyline fill="none" stroke="black" stroke-dasharray="5,2" points="428,-32 422,-32 "/>
<text text-anchor="middle" x="376" y="-22.8" font-family="Times,serif" font-size="14.00">Software API</text>
<text text-anchor="middle" x="376" y="-7.8" font-family="Times,serif" font-size="14.00">(e.g. py/c++/c#)</text>
</g>
<!-- ServiceDesc&#45;&gt;SoftwareAPI -->
<g id="edge50" class="edge"><title>ServiceDesc&#45;&gt;SoftwareAPI</title>
<path fill="none" stroke="black" stroke-dasharray="5,2" d="M376,-73.8314C376,-66.131 376,-56.9743 376,-48.4166"/>
<polygon fill="black" stroke="black" points="379.5,-48.4132 376,-38.4133 372.5,-48.4133 379.5,-48.4132"/>
</g>
</g>
</svg>
