<?xml version="1.0" encoding="UTF-8" standalone="no"?>
<!DOCTYPE svg PUBLIC "-//W3C//DTD SVG 1.1//EN"
 "http://www.w3.org/Graphics/SVG/1.1/DTD/svg11.dtd">
<!-- Generated by graphviz version 2.43.0 (0)
 -->
<!-- Title: G Pages: 1 -->
<svg width="772pt" height="992pt"
 viewBox="0.00 0.00 771.87 992.00" xmlns="http://www.w3.org/2000/svg" xmlns:xlink="http://www.w3.org/1999/xlink">
<g id="graph0" class="graph" transform="scale(1 1) rotate(0) translate(4 988)">
<title>G</title>
<polygon fill="white" stroke="transparent" points="-4,4 -4,-988 767.87,-988 767.87,4 -4,4"/>
<g id="clust1" class="cluster">
<title>cluster_mlir_frontends</title>
<polygon fill="none" stroke="black" points="166.87,-901 166.87,-976 406.87,-976 406.87,-901 166.87,-901"/>
<text text-anchor="middle" x="286.87" y="-960.8" font-family="Times,serif" font-size="14.00">Upstream frontends (selection)</text>
</g>
<g id="clust2" class="cluster">
<title>cluster_mlir</title>
<polygon fill="none" stroke="black" points="116.87,-802 116.87,-893 404.87,-893 404.87,-802 116.87,-802"/>
<text text-anchor="middle" x="260.87" y="-877.8" font-family="Times,serif" font-size="14.00">Upstream MLIR</text>
</g>
<g id="clust3" class="cluster">
<title>cluster_std_arith_dialect</title>
<polygon fill="none" stroke="black" points="258.87,-810 258.87,-862 396.87,-862 396.87,-810 258.87,-810"/>
</g>
<g id="clust4" class="cluster">
<title>cluster_circt</title>
<polygon fill="none" stroke="black" points="155.87,-212 155.87,-794 655.87,-794 655.87,-212 155.87,-212"/>
<text text-anchor="middle" x="405.87" y="-778.8" font-family="Times,serif" font-size="14.00">CIRCT</text>
</g>
<g id="clust5" class="cluster">
<title>cluster_RTL</title>
<polygon fill="none" stroke="black" points="256.87,-284 256.87,-431 466.87,-431 466.87,-284 256.87,-284"/>
<text text-anchor="middle" x="361.87" y="-415.8" font-family="Times,serif" font-size="14.00">Core dialects</text>
</g>
<g id="clust8" class="cluster">
<title>cluster_input_langs</title>
<polygon fill="none" stroke="black" points="414.87,-901 414.87,-976 755.87,-976 755.87,-901 414.87,-901"/>
<text text-anchor="middle" x="585.37" y="-960.8" font-family="Times,serif" font-size="14.00">Input languages</text>
</g>
<!-- PyTorch -->
<g id="node1" class="node">
<title>PyTorch</title>
<polygon fill="white" stroke="black" points="398.87,-945 324.87,-945 324.87,-909 398.87,-909 398.87,-945"/>
<text text-anchor="middle" x="361.87" y="-923.3" font-family="Times,serif" font-size="14.00">PyTorch</text>
</g>
<!-- CF -->
<g id="node5" class="node">
<title>CF</title>
<polygon fill="#beaed4" stroke="black" points="388.87,-854 334.87,-854 334.87,-818 388.87,-818 388.87,-854"/>
<text text-anchor="middle" x="361.87" y="-832.3" font-family="Times,serif" font-size="14.00">CF</text>
</g>
<!-- PyTorch&#45;&gt;CF -->
<g id="edge1" class="edge">
<title>PyTorch&#45;&gt;CF</title>
<path fill="none" stroke="black" d="M357.62,-908.84C357.47,-907.06 357.34,-905.19 357.22,-903.24"/>
<polygon fill="black" stroke="black" points="360.7,-902.84 356.78,-893 353.71,-903.14 360.7,-902.84"/>
</g>
<!-- PyTorch&#45;&gt;CF -->
<!-- Polygeist -->
<g id="node2" class="node">
<title>Polygeist</title>
<polygon fill="white" stroke="black" points="310.87,-945 228.87,-945 228.87,-909 310.87,-909 310.87,-945"/>
<text text-anchor="middle" x="269.87" y="-923.3" font-family="Times,serif" font-size="14.00">Polygeist</text>
</g>
<!-- Affine -->
<g id="node4" class="node">
<title>Affine</title>
<polygon fill="#beaed4" stroke="black" points="250.87,-854 192.87,-854 192.87,-818 250.87,-818 250.87,-854"/>
<text text-anchor="middle" x="221.87" y="-832.3" font-family="Times,serif" font-size="14.00">Affine</text>
</g>
<!-- Polygeist&#45;&gt;Affine -->
<g id="edge2" class="edge">
<title>Polygeist&#45;&gt;Affine</title>
<path fill="none" stroke="black" d="M260.61,-908.84C259.49,-906.77 258.3,-904.56 257.07,-902.26"/>
<polygon fill="black" stroke="black" points="259.89,-900.14 252.07,-893 253.73,-903.46 259.89,-900.14"/>
</g>
<!-- Polygeist&#45;&gt;CF -->
<!-- SCF -->
<g id="node3" class="node">
<title>SCF</title>
<polygon fill="#beaed4" stroke="black" points="178.87,-854 124.87,-854 124.87,-818 178.87,-818 178.87,-854"/>
<text text-anchor="middle" x="151.87" y="-832.3" font-family="Times,serif" font-size="14.00">SCF</text>
</g>
<!-- Calyx -->
<g id="node8" class="node">
<title>Calyx</title>
<g id="a_node8"><a xlink:href="https://circt.llvm.org/docs/Dialects/Calyx/" xlink:title="Calyx">
<polygon fill="white" stroke="black" points="219.87,-619 163.87,-619 163.87,-583 219.87,-583 219.87,-619"/>
<text text-anchor="middle" x="191.87" y="-597.3" font-family="Times,serif" font-size="14.00">Calyx</text>
</a>
</g>
</g>
<!-- SCF&#45;&gt;Calyx -->
<g id="edge3" class="edge">
<title>SCF&#45;&gt;Calyx</title>
<path fill="none" stroke="black" d="M154.81,-817.87C161.69,-777.81 178.86,-677.75 187.19,-629.23"/>
<polygon fill="black" stroke="black" points="190.68,-629.61 188.92,-619.16 183.78,-628.42 190.68,-629.61"/>
</g>
<!-- Pipeline -->
<g id="node10" class="node">
<title>Pipeline</title>
<g id="a_node10"><a xlink:href="https://circt.llvm.org/docs/Dialects/Pipeline/" xlink:title="Pipeline">
<polygon fill="white" stroke="black" points="377.87,-691 303.87,-691 303.87,-655 377.87,-655 377.87,-691"/>
<text text-anchor="middle" x="340.87" y="-669.3" font-family="Times,serif" font-size="14.00">Pipeline</text>
</a>
</g>
</g>
<!-- Affine&#45;&gt;Pipeline -->
<g id="edge4" class="edge">
<title>Affine&#45;&gt;Pipeline</title>
<path fill="none" stroke="black" d="M234.6,-817.77C255.63,-789.32 297.7,-732.4 322.13,-699.36"/>
<polygon fill="black" stroke="black" points="325.09,-701.23 328.22,-691.11 319.46,-697.07 325.09,-701.23"/>
</g>
<!-- Arith -->
<g id="node6" class="node">
<title>Arith</title>
<polygon fill="#beaed4" stroke="black" points="320.87,-854 266.87,-854 266.87,-818 320.87,-818 320.87,-854"/>
<text text-anchor="middle" x="293.87" y="-832.3" font-family="Times,serif" font-size="14.00">Arith</text>
</g>
<!-- Handshake -->
<g id="node7" class="node">
<title>Handshake</title>
<g id="a_node7"><a xlink:href="https://circt.llvm.org/docs/Dialects/Handshake/" xlink:title="Handshake">
<polygon fill="white" stroke="black" points="329.87,-619 233.87,-619 233.87,-583 329.87,-583 329.87,-619"/>
<text text-anchor="middle" x="281.87" y="-597.3" font-family="Times,serif" font-size="14.00">Handshake</text>
</a>
</g>
</g>
<!-- Arith&#45;&gt;Handshake -->
<g id="edge6" class="edge">
<title>Arith&#45;&gt;Handshake</title>
<path fill="none" stroke="black" d="M292.58,-810C290.31,-765.95 285.62,-674.83 283.27,-629.23"/>
<polygon fill="black" stroke="black" points="286.76,-628.96 282.75,-619.16 279.77,-629.32 286.76,-628.96"/>
</g>
<!-- Arith&#45;&gt;Calyx -->
<g id="edge7" class="edge">
<title>Arith&#45;&gt;Calyx</title>
<path fill="none" stroke="black" d="M282.92,-810C263.51,-765.65 223.21,-673.61 203.39,-628.32"/>
<polygon fill="black" stroke="black" points="206.59,-626.92 199.38,-619.16 200.18,-629.72 206.59,-626.92"/>
</g>
<!-- FIRRTL -->
<g id="node9" class="node">
<title>FIRRTL</title>
<g id="a_node9"><a xlink:href="https://circt.llvm.org/docs/Dialects/FIRRTL/" xlink:title="FIRRTL">
<polygon fill="white" stroke="black" points="303.37,-547 232.37,-547 232.37,-511 303.37,-511 303.37,-547"/>
<text text-anchor="middle" x="267.87" y="-525.3" font-family="Times,serif" font-size="14.00">FIRRTL</text>
</a>
</g>
</g>
<!-- Handshake&#45;&gt;FIRRTL -->
<g id="edge8" class="edge">
<title>Handshake&#45;&gt;FIRRTL</title>
<path fill="none" stroke="black" d="M278.41,-582.7C276.86,-574.98 275.01,-565.71 273.29,-557.11"/>
<polygon fill="black" stroke="black" points="276.68,-556.22 271.29,-547.1 269.82,-557.6 276.68,-556.22"/>
</g>
<!-- FSM -->
<g id="node13" class="node">
<title>FSM</title>
<g id="a_node13"><a xlink:href="https://circt.llvm.org/docs/Dialects/FSM/" xlink:title="FSM">
<polygon fill="white" stroke="black" points="217.87,-547 163.87,-547 163.87,-511 217.87,-511 217.87,-547"/>
<text text-anchor="middle" x="190.87" y="-525.3" font-family="Times,serif" font-size="14.00">FSM</text>
</a>
</g>
</g>
<!-- Calyx&#45;&gt;FSM -->
<g id="edge9" class="edge">
<title>Calyx&#45;&gt;FSM</title>
<path fill="none" stroke="black" d="M191.62,-582.7C191.51,-574.98 191.38,-565.71 191.25,-557.11"/>
<polygon fill="black" stroke="black" points="194.75,-557.05 191.11,-547.1 187.75,-557.15 194.75,-557.05"/>
</g>
<!-- Calyx_native -->
<g id="node30" class="node">
<title>Calyx_native</title>
<polygon fill="#ffff99" stroke="black" points="147.6,-521.54 147.6,-536.46 104.41,-547 43.33,-547 0.13,-536.46 0.13,-521.54 43.33,-511 104.41,-511 147.6,-521.54"/>
<text text-anchor="middle" x="73.87" y="-525.3" font-family="Times,serif" font-size="14.00">Calyx native</text>
</g>
<!-- Calyx&#45;&gt;Calyx_native -->
<g id="edge31" class="edge">
<title>Calyx&#45;&gt;Calyx_native</title>
<path fill="none" stroke="black" d="M163.6,-583.23C148.07,-574.02 128.59,-562.47 111.76,-552.48"/>
<polygon fill="black" stroke="black" points="113.11,-549.21 102.72,-547.12 109.53,-555.23 113.11,-549.21"/>
</g>
<!-- space_above_RTL -->
<!-- FIRRTL&#45;&gt;space_above_RTL -->
<!-- Seq -->
<g id="node18" class="node">
<title>Seq</title>
<g id="a_node18"><a xlink:href="https://circt.llvm.org/docs/Dialects/Seq/" xlink:title="Seq">
<polygon fill="white" stroke="black" points="386.87,-400 332.87,-400 332.87,-364 386.87,-364 386.87,-400"/>
<text text-anchor="middle" x="359.87" y="-378.3" font-family="Times,serif" font-size="14.00">Seq</text>
</a>
</g>
</g>
<!-- FIRRTL&#45;&gt;Seq -->
<g id="edge10" class="edge">
<title>FIRRTL&#45;&gt;Seq</title>
<path fill="none" stroke="black" d="M277.08,-510.92C287.06,-492.74 303.73,-463.3 319.87,-439 319.94,-438.88 320.02,-438.77 320.09,-438.66"/>
<polygon fill="black" stroke="black" points="322.64,-441.09 325.87,-431 317.05,-436.88 322.64,-441.09"/>
</g>
<!-- Pipeline&#45;&gt;Calyx -->
<g id="edge5" class="edge">
<title>Pipeline&#45;&gt;Calyx</title>
<path fill="none" stroke="black" d="M303.83,-654.97C283.67,-645.66 258.09,-633.78 229.5,-620.23"/>
<polygon fill="black" stroke="black" points="230.65,-616.9 220.12,-615.77 227.65,-623.22 230.65,-616.9"/>
</g>
<!-- MSFT -->
<g id="node11" class="node">
<title>MSFT</title>
<g id="a_node11"><a xlink:href="https://circt.llvm.org/docs/Dialects/MSFT/" xlink:title="MSFT">
<polygon fill="white" stroke="black" points="537.37,-547 478.37,-547 478.37,-511 537.37,-511 537.37,-547"/>
<text text-anchor="middle" x="507.87" y="-525.3" font-family="Times,serif" font-size="14.00">MSFT</text>
</a>
</g>
</g>
<!-- MSFT&#45;&gt;space_above_RTL -->
<!-- MSFT&#45;&gt;Seq -->
<g id="edge11" class="edge">
<title>MSFT&#45;&gt;Seq</title>
<path fill="none" stroke="black" d="M488.91,-510.78C468.55,-492.48 435.04,-462.94 404.87,-439 403.83,-438.18 402.92,-437.54 402.1,-437"/>
<polygon fill="black" stroke="black" points="404.01,-434.06 393.87,-431 399.89,-439.72 404.01,-434.06"/>
</g>
<!-- TCL -->
<g id="node40" class="node">
<title>TCL</title>
<polygon fill="#7fc97f" stroke="black" points="686.87,-111 560.87,-111 560.87,-75 692.87,-75 692.87,-105 686.87,-111"/>
<polyline fill="none" stroke="black" points="686.87,-111 686.87,-105 "/>
<polyline fill="none" stroke="black" points="692.87,-105 686.87,-105 "/>
<text text-anchor="middle" x="626.87" y="-89.3" font-family="Times,serif" font-size="14.00">Placements (tcl)</text>
</g>
<!-- MSFT&#45;&gt;TCL -->
<g id="edge36" class="edge">
<title>MSFT&#45;&gt;TCL</title>
<path fill="none" stroke="black" d="M534.98,-510.97C581.1,-481.03 669.87,-418.76 669.87,-383 669.87,-383 669.87,-383 669.87,-237 669.87,-196.89 667.59,-186.04 654.87,-148 651.72,-138.59 647.11,-128.8 642.53,-120.19"/>
<polygon fill="black" stroke="black" points="645.56,-118.44 637.65,-111.39 639.44,-121.83 645.56,-118.44"/>
</g>
<!-- ESI -->
<g id="node12" class="node">
<title>ESI</title>
<g id="a_node12"><a xlink:href="https://circt.llvm.org/docs/Dialects/ESI/" xlink:title="ESI">
<polygon fill="white" stroke="black" points="371.87,-547 317.87,-547 317.87,-511 371.87,-511 371.87,-547"/>
<text text-anchor="middle" x="344.87" y="-525.3" font-family="Times,serif" font-size="14.00">ESI</text>
</a>
</g>
</g>
<!-- ESI&#45;&gt;space_above_RTL -->
<!-- ESI&#45;&gt;Seq -->
<g id="edge12" class="edge">
<title>ESI&#45;&gt;Seq</title>
<path fill="none" stroke="black" d="M336.27,-510.78C329.21,-494.57 320.87,-469.44 326.22,-440.83"/>
<polygon fill="black" stroke="black" points="329.64,-441.54 328.57,-431 322.84,-439.91 329.64,-441.54"/>
</g>
<!-- ServiceDesc -->
<g id="node38" class="node">
<title>ServiceDesc</title>
<polygon fill="#7fc97f" stroke="black" points="540.87,-112 364.87,-112 364.87,-74 546.87,-74 546.87,-106 540.87,-112"/>
<polyline fill="none" stroke="black" points="540.87,-112 540.87,-106 "/>
<polyline fill="none" stroke="black" points="546.87,-106 540.87,-106 "/>
<text text-anchor="middle" x="455.87" y="-96.8" font-family="Times,serif" font-size="14.00">ESI system description</text>
<text text-anchor="middle" x="455.87" y="-81.8" font-family="Times,serif" font-size="14.00">(JSON/Capnp)</text>
</g>
<!-- ESI&#45;&gt;ServiceDesc -->
<g id="edge35" class="edge">
<title>ESI&#45;&gt;ServiceDesc</title>
<path fill="none" stroke="black" d="M319.17,-510.98C286.11,-486.79 232.87,-439.14 232.87,-383 232.87,-383 232.87,-383 232.87,-237 232.87,-194.33 237.18,-176.57 268.87,-148 292.53,-126.66 324.13,-113.72 354.61,-105.88"/>
<polygon fill="black" stroke="black" points="355.56,-109.25 364.46,-103.51 353.92,-102.44 355.56,-109.25"/>
</g>
<!-- FSM&#45;&gt;space_above_RTL -->
<!-- FSM&#45;&gt;Seq -->
<g id="edge13" class="edge">
<title>FSM&#45;&gt;Seq</title>
<path fill="none" stroke="black" d="M218.14,-514.72C235.51,-505.32 257.71,-491.48 273.87,-475 286.99,-461.61 280.84,-450.22 295.87,-439 303.47,-433.32 309.44,-435.39 316.12,-434.68"/>
<polygon fill="black" stroke="black" points="317.75,-437.81 325.87,-431 315.28,-431.26 317.75,-437.81"/>
</g>
<!-- HWArith -->
<g id="node14" class="node">
<title>HWArith</title>
<g id="a_node14"><a xlink:href="https://circt.llvm.org/docs/Dialects/HWArith/" xlink:title="HWArith">
<polygon fill="white" stroke="black" points="463.87,-547 385.87,-547 385.87,-511 463.87,-511 463.87,-547"/>
<text text-anchor="middle" x="424.87" y="-525.3" font-family="Times,serif" font-size="14.00">HWArith</text>
</a>
</g>
</g>
<!-- HWArith&#45;&gt;space_above_RTL -->
<!-- HWArith&#45;&gt;Seq -->
<g id="edge14" class="edge">
<title>HWArith&#45;&gt;Seq</title>
<path fill="none" stroke="black" d="M420.07,-510.85C415.22,-494.39 407.04,-468.78 394.21,-440.32"/>
<polygon fill="black" stroke="black" points="397.27,-438.59 389.88,-431 390.92,-441.54 397.27,-438.59"/>
</g>
<!-- SystemC -->
<g id="node15" class="node">
<title>SystemC</title>
<g id="a_node15"><a xlink:href="https://circt.llvm.org/docs/Dialects/SystemC/" xlink:title="SystemC">
<polygon fill="white" stroke="black" points="626.87,-328 546.87,-328 546.87,-292 626.87,-292 626.87,-328"/>
<text text-anchor="middle" x="586.87" y="-306.3" font-family="Times,serif" font-size="14.00">SystemC</text>
</a>
</g>
</g>
<!-- ExportSystemC -->
<g id="node25" class="node">
<title>ExportSystemC</title>
<polygon fill="#fdc086" stroke="black" points="647.37,-256 518.37,-256 518.37,-220 647.37,-220 647.37,-256"/>
<text text-anchor="middle" x="582.87" y="-234.3" font-family="Times,serif" font-size="14.00">ExportSystemC</text>
</g>
<!-- SystemC&#45;&gt;ExportSystemC -->
<g id="edge24" class="edge">
<title>SystemC&#45;&gt;ExportSystemC</title>
<path fill="none" stroke="black" d="M585.88,-291.7C585.44,-283.98 584.91,-274.71 584.42,-266.11"/>
<polygon fill="black" stroke="black" points="587.91,-265.89 583.84,-256.1 580.92,-266.29 587.91,-265.89"/>
</g>
<!-- MooreMIR -->
<g id="node16" class="node">
<title>MooreMIR</title>
<g id="a_node16"><a xlink:href="https://circt.llvm.org/docs/Dialects/Moore/" xlink:title="Moore MIR">
<polygon fill="white" stroke="black" points="648.37,-547 551.37,-547 551.37,-511 648.37,-511 648.37,-547"/>
<text text-anchor="middle" x="599.87" y="-525.3" font-family="Times,serif" font-size="14.00">Moore MIR</text>
</a>
</g>
</g>
<!-- MooreMIR&#45;&gt;space_above_RTL -->
<!-- MooreMIR&#45;&gt;Seq -->
<g id="edge15" class="edge">
<title>MooreMIR&#45;&gt;Seq</title>
<path fill="none" stroke="black" d="M572.63,-510.85C539.89,-490.93 482.74,-458.33 429.87,-439 418.32,-434.78 411.52,-437.49 403.09,-435.29"/>
<polygon fill="black" stroke="black" points="404.41,-432.04 393.87,-431 401.46,-438.39 404.41,-432.04"/>
</g>
<!-- space_above_RTL&#45;&gt;Seq -->
<!-- HW -->
<g id="node19" class="node">
<title>HW</title>
<g id="a_node19"><a xlink:href="https://circt.llvm.org/docs/Dialects/HW/" xlink:title="HW">
<polygon fill="white" stroke="black" points="318.87,-400 264.87,-400 264.87,-364 318.87,-364 318.87,-400"/>
<text text-anchor="middle" x="291.87" y="-378.3" font-family="Times,serif" font-size="14.00">HW</text>
</a>
</g>
</g>
<!-- space_above_RTL&#45;&gt;HW -->
<!-- Comb -->
<g id="node21" class="node">
<title>Comb</title>
<g id="a_node21"><a xlink:href="https://circt.llvm.org/docs/Dialects/Comb/" xlink:title="Comb">
<polygon fill="white" stroke="black" points="458.87,-400 400.87,-400 400.87,-364 458.87,-364 458.87,-400"/>
<text text-anchor="middle" x="429.87" y="-378.3" font-family="Times,serif" font-size="14.00">Comb</text>
</a>
</g>
</g>
<!-- space_above_RTL&#45;&gt;Comb -->
<!-- SV -->
<g id="node20" class="node">
<title>SV</title>
<g id="a_node20"><a xlink:href="https://circt.llvm.org/docs/Dialects/SV/" xlink:title="SV">
<polygon fill="white" stroke="black" points="386.87,-328 332.87,-328 332.87,-292 386.87,-292 386.87,-328"/>
<text text-anchor="middle" x="359.87" y="-306.3" font-family="Times,serif" font-size="14.00">SV</text>
</a>
</g>
</g>
<!-- Seq&#45;&gt;SV -->
<g id="edge16" class="edge">
<title>Seq&#45;&gt;SV</title>
<path fill="none" stroke="black" d="M359.87,-363.7C359.87,-355.98 359.87,-346.71 359.87,-338.11"/>
<polygon fill="black" stroke="black" points="363.37,-338.1 359.87,-328.1 356.37,-338.1 363.37,-338.1"/>
</g>
<!-- HW&#45;&gt;SystemC -->
<g id="edge18" class="edge">
<title>HW&#45;&gt;SystemC</title>
<path fill="none" stroke="black" d="M319.03,-366.55C321.31,-365.6 323.61,-364.74 325.87,-364 414.52,-335.1 444.59,-351.33 537.02,-328.53"/>
<polygon fill="black" stroke="black" points="537.94,-331.91 546.76,-326.04 536.21,-325.13 537.94,-331.91"/>
</g>
<!-- LLHD -->
<g id="node22" class="node">
<title>LLHD</title>
<g id="a_node22"><a xlink:href="https://circt.llvm.org/docs/Dialects/LLHD/" xlink:title="LLHD">
<polygon fill="white" stroke="black" points="532.87,-328 474.87,-328 474.87,-292 532.87,-292 532.87,-328"/>
<text text-anchor="middle" x="503.87" y="-306.3" font-family="Times,serif" font-size="14.00">LLHD</text>
</a>
</g>
</g>
<!-- HW&#45;&gt;LLHD -->
<g id="edge17" class="edge">
<title>HW&#45;&gt;LLHD</title>
<path fill="none" stroke="black" d="M319.1,-366.74C321.36,-365.75 323.64,-364.82 325.87,-364 384.72,-342.23 405.92,-350.01 465.29,-329.46"/>
<polygon fill="black" stroke="black" points="466.52,-332.74 474.74,-326.07 464.15,-326.15 466.52,-332.74"/>
</g>
<!-- llhd_sim -->
<g id="node24" class="node">
<title>llhd_sim</title>
<polygon fill="#fdc086" stroke="black" points="495.87,-256 419.87,-256 419.87,-220 495.87,-220 495.87,-256"/>
<text text-anchor="middle" x="457.87" y="-234.3" font-family="Times,serif" font-size="14.00">llhd_sim</text>
</g>
<!-- SV&#45;&gt;llhd_sim -->
<g id="edge28" class="edge">
<title>SV&#45;&gt;llhd_sim</title>
<path fill="none" stroke="black" d="M390.87,-284C401.09,-276.47 412.47,-268.63 422.91,-261.64"/>
<polygon fill="black" stroke="black" points="425.01,-264.45 431.41,-256 421.14,-258.62 425.01,-264.45"/>
</g>
<!-- ExportVerilog -->
<g id="node26" class="node">
<title>ExportVerilog</title>
<g id="a_node26"><a xlink:href="https://circt.llvm.org/docs/VerilogGeneration/" xlink:title="ExportVerilog">
<polygon fill="#fdc086" stroke="black" points="399.87,-256 283.87,-256 283.87,-220 399.87,-220 399.87,-256"/>
<text text-anchor="middle" x="341.87" y="-234.3" font-family="Times,serif" font-size="14.00">ExportVerilog</text>
</a>
</g>
</g>
<!-- SV&#45;&gt;ExportVerilog -->
<g id="edge27" class="edge">
<title>SV&#45;&gt;ExportVerilog</title>
<path fill="none" stroke="black" d="M353.44,-284C351.92,-278.11 350.3,-271.8 348.77,-265.83"/>
<polygon fill="black" stroke="black" points="352.15,-264.92 346.26,-256.1 345.37,-266.66 352.15,-264.92"/>
</g>
<!-- Comb&#45;&gt;ExportSystemC -->
<g id="edge25" class="edge">
<title>Comb&#45;&gt;ExportSystemC</title>
<path fill="none" stroke="black" d="M458.91,-377.78C509.99,-371.46 612.54,-355.57 633.87,-328 645.83,-312.53 641.91,-301.82 633.87,-284 630.27,-276.03 624.49,-268.91 618.09,-262.81"/>
<polygon fill="black" stroke="black" points="620.23,-260.03 610.38,-256.13 615.65,-265.32 620.23,-260.03"/>
</g>
<!-- LLHD&#45;&gt;llhd_sim -->
<g id="edge33" class="edge">
<title>LLHD&#45;&gt;llhd_sim</title>
<path fill="none" stroke="black" d="M492.5,-291.7C487.15,-283.56 480.66,-273.69 474.76,-264.7"/>
<polygon fill="black" stroke="black" points="477.52,-262.54 469.11,-256.1 471.67,-266.38 477.52,-262.54"/>
</g>
<!-- FIRRTLParser -->
<g id="node23" class="node">
<title>FIRRTLParser</title>
<polygon fill="#fdc086" stroke="black" points="461.37,-619 344.37,-619 344.37,-583 461.37,-583 461.37,-619"/>
<text text-anchor="middle" x="402.87" y="-597.3" font-family="Times,serif" font-size="14.00">FIRRTLParser</text>
</g>
<!-- FIRRTLParser&#45;&gt;FIRRTL -->
<g id="edge23" class="edge">
<title>FIRRTLParser&#45;&gt;FIRRTL</title>
<path fill="none" stroke="black" d="M369.84,-582.88C351.78,-573.51 329.22,-561.81 309.92,-551.8"/>
<polygon fill="black" stroke="black" points="311.51,-548.69 301.02,-547.19 308.28,-554.9 311.51,-548.69"/>
</g>
<!-- VCDTrace -->
<g id="node35" class="node">
<title>VCDTrace</title>
<polygon fill="#7fc97f" stroke="black" points="499.87,-184 409.87,-184 409.87,-148 505.87,-148 505.87,-178 499.87,-184"/>
<polyline fill="none" stroke="black" points="499.87,-184 499.87,-178 "/>
<polyline fill="none" stroke="black" points="505.87,-178 499.87,-178 "/>
<text text-anchor="middle" x="457.87" y="-162.3" font-family="Times,serif" font-size="14.00">Trace (vcd)</text>
</g>
<!-- llhd_sim&#45;&gt;VCDTrace -->
<g id="edge34" class="edge">
<title>llhd_sim&#45;&gt;VCDTrace</title>
<path fill="none" stroke="black" d="M457.87,-219.7C457.87,-211.98 457.87,-202.71 457.87,-194.11"/>
<polygon fill="black" stroke="black" points="461.37,-194.1 457.87,-184.1 454.37,-194.1 461.37,-194.1"/>
</g>
<!-- SystemCFile -->
<g id="node36" class="node">
<title>SystemCFile</title>
<polygon fill="#7fc97f" stroke="black" points="641.37,-184 520.37,-184 520.37,-148 647.37,-148 647.37,-178 641.37,-184"/>
<polyline fill="none" stroke="black" points="641.37,-184 641.37,-178 "/>
<polyline fill="none" stroke="black" points="647.37,-178 641.37,-178 "/>
<text text-anchor="middle" x="583.87" y="-162.3" font-family="Times,serif" font-size="14.00">SystemC (c++)</text>
</g>
<!-- ExportSystemC&#45;&gt;SystemCFile -->
<g id="edge26" class="edge">
<title>ExportSystemC&#45;&gt;SystemCFile</title>
<path fill="none" stroke="black" d="M583.11,-219.7C583.22,-211.98 583.36,-202.71 583.48,-194.11"/>
<polygon fill="black" stroke="black" points="586.98,-194.15 583.62,-184.1 579.98,-194.05 586.98,-194.15"/>
</g>
<!-- SVFile -->
<g id="node37" class="node">
<title>SVFile</title>
<polygon fill="#7fc97f" stroke="black" points="389.87,-184 275.87,-184 275.87,-148 395.87,-148 395.87,-178 389.87,-184"/>
<polyline fill="none" stroke="black" points="389.87,-184 389.87,-178 "/>
<polyline fill="none" stroke="black" points="395.87,-178 389.87,-178 "/>
<text text-anchor="middle" x="335.87" y="-162.3" font-family="Times,serif" font-size="14.00">SystemVerilog</text>
</g>
<!-- ExportVerilog&#45;&gt;SVFile -->
<g id="edge19" class="edge">
<title>ExportVerilog&#45;&gt;SVFile</title>
<path fill="none" stroke="black" d="M340.38,-219.7C339.72,-211.98 338.93,-202.71 338.19,-194.11"/>
<polygon fill="black" stroke="black" points="341.67,-193.77 337.33,-184.1 334.7,-194.37 341.67,-193.77"/>
</g>
<!-- PyCDE -->
<g id="node27" class="node">
<title>PyCDE</title>
<g id="a_node27"><a xlink:href="https://circt.llvm.org/docs/PyCDE/" xlink:title="PyCDE">
<polygon fill="#fdc086" stroke="black" points="542.37,-619 475.37,-619 475.37,-583 542.37,-583 542.37,-619"/>
<text text-anchor="middle" x="508.87" y="-597.3" font-family="Times,serif" font-size="14.00">PyCDE</text>
</a>
</g>
</g>
<!-- PyCDE&#45;&gt;MSFT -->
<g id="edge39" class="edge">
<title>PyCDE&#45;&gt;MSFT</title>
<path fill="none" stroke="black" d="M508.62,-582.7C508.51,-574.98 508.38,-565.71 508.25,-557.11"/>
<polygon fill="black" stroke="black" points="511.75,-557.05 508.11,-547.1 504.75,-557.15 511.75,-557.05"/>
</g>
<!-- PyCDE&#45;&gt;ESI -->
<g id="edge38" class="edge">
<title>PyCDE&#45;&gt;ESI</title>
<path fill="none" stroke="black" d="M475.28,-585.66C473.11,-584.76 470.96,-583.86 468.87,-583 431.84,-567.73 419.84,-564.99 381.43,-548.03"/>
<polygon fill="black" stroke="black" points="382.8,-544.81 372.24,-543.93 379.94,-551.2 382.8,-544.81"/>
</g>
<!-- PyCDE&#45;&gt;FSM -->
<g id="edge41" class="edge">
<title>PyCDE&#45;&gt;FSM</title>
<path fill="none" stroke="black" d="M475.04,-584.93C472.97,-584.22 470.9,-583.57 468.87,-583 366.85,-554.28 332.21,-577.76 227.71,-547.11"/>
<polygon fill="black" stroke="black" points="228.64,-543.73 218.06,-544.18 226.61,-550.43 228.64,-543.73"/>
</g>
<!-- PyCDE&#45;&gt;HWArith -->
<g id="edge40" class="edge">
<title>PyCDE&#45;&gt;HWArith</title>
<path fill="none" stroke="black" d="M488.1,-582.7C477.63,-573.97 464.76,-563.24 453.37,-553.75"/>
<polygon fill="black" stroke="black" points="455.31,-550.82 445.39,-547.1 450.83,-556.19 455.31,-550.82"/>
</g>
<!-- Scheduling -->
<g id="node28" class="node">
<title>Scheduling</title>
<g id="a_node28"><a xlink:href="https://circt.llvm.org/docs/Scheduling/" xlink:title="Scheduling">
<polygon fill="#fdc086" stroke="black" points="515.87,-763 419.87,-763 419.87,-727 515.87,-727 515.87,-763"/>
<text text-anchor="middle" x="467.87" y="-741.3" font-family="Times,serif" font-size="14.00">Scheduling</text>
</a>
</g>
</g>
<!-- Scheduling&#45;&gt;Pipeline -->
<g id="edge20" class="edge">
<title>Scheduling&#45;&gt;Pipeline</title>
<path fill="none" stroke="black" d="M427.7,-721.86C412.8,-713.65 395.92,-704.35 381.03,-696.14"/>
<polygon fill="black" stroke="black" points="426.35,-725.11 436.8,-726.88 429.73,-718.98 426.35,-725.11"/>
<polygon fill="black" stroke="black" points="382.5,-692.95 372.05,-691.19 379.12,-699.08 382.5,-692.95"/>
</g>
<!-- Scheduling&#45;&gt;MSFT -->
<g id="edge42" class="edge">
<title>Scheduling&#45;&gt;MSFT</title>
<path fill="none" stroke="black" stroke-dasharray="5,2" d="M490.8,-718.87C510.81,-695.12 538.37,-657.48 549.87,-619 554.45,-603.67 555.13,-598.11 549.87,-583 546.33,-572.86 539.96,-563.19 533.23,-554.96"/>
<polygon fill="black" stroke="black" points="487.96,-716.81 484.08,-726.67 493.26,-721.38 487.96,-716.81"/>
<polygon fill="black" stroke="black" points="535.69,-552.46 526.47,-547.24 530.43,-557.07 535.69,-552.46"/>
</g>
<!-- Moore -->
<g id="node29" class="node">
<title>Moore</title>
<polygon fill="#ffff99" stroke="black" points="733.6,-828.54 733.6,-843.46 707.98,-854 671.75,-854 646.13,-843.46 646.13,-828.54 671.75,-818 707.98,-818 733.6,-828.54"/>
<text text-anchor="middle" x="689.87" y="-832.3" font-family="Times,serif" font-size="14.00">Moore</text>
</g>
<!-- Moore&#45;&gt;MooreMIR -->
<g id="edge30" class="edge">
<title>Moore&#45;&gt;MooreMIR</title>
<path fill="none" stroke="black" d="M684.77,-817.73C669.8,-766.98 625.85,-618.06 607.77,-556.8"/>
<polygon fill="black" stroke="black" points="611.09,-555.68 604.91,-547.08 604.38,-557.66 611.09,-555.68"/>
</g>
<!-- Calyx_native&#45;&gt;HW -->
<g id="edge32" class="edge">
<title>Calyx_native&#45;&gt;HW</title>
<path fill="none" stroke="black" d="M99.73,-510.8C136.37,-486.43 203.86,-441.54 248.3,-411.97"/>
<polygon fill="black" stroke="black" points="250.48,-414.73 256.87,-406.28 246.61,-408.9 250.48,-414.73"/>
</g>
<!-- FIRFile -->
<g id="node31" class="node">
<title>FIRFile</title>
<polygon fill="#7fc97f" stroke="black" points="488.87,-854 440.87,-854 440.87,-818 494.87,-818 494.87,-848 488.87,-854"/>
<polyline fill="none" stroke="black" points="488.87,-854 488.87,-848 "/>
<polyline fill="none" stroke="black" points="494.87,-848 488.87,-848 "/>
<text text-anchor="middle" x="467.87" y="-832.3" font-family="Times,serif" font-size="14.00">.fir</text>
</g>
<!-- FIRFile&#45;&gt;FIRRTLParser -->
<g id="edge22" class="edge">
<title>FIRFile&#45;&gt;FIRRTLParser</title>
<path fill="none" stroke="black" d="M495.11,-821.81C505.81,-815.09 516.94,-805.82 522.87,-794 536.22,-767.39 533.98,-754.63 522.87,-727 505.6,-684.07 465.76,-647.6 436.71,-625.33"/>
<polygon fill="black" stroke="black" points="438.55,-622.34 428.45,-619.16 434.36,-627.95 438.55,-622.34"/>
</g>
<!-- FIRFile&#45;&gt;Scheduling -->
<!-- Chisel -->
<g id="node32" class="node">
<title>Chisel</title>
<polygon fill="#ffff99" stroke="black" points="508.69,-919.54 508.69,-934.46 483.61,-945 448.13,-945 423.04,-934.46 423.04,-919.54 448.13,-909 483.61,-909 508.69,-919.54"/>
<text text-anchor="middle" x="465.87" y="-923.3" font-family="Times,serif" font-size="14.00">Chisel</text>
</g>
<!-- Chisel&#45;&gt;CF -->
<!-- Chisel&#45;&gt;FIRFile -->
<g id="edge21" class="edge">
<title>Chisel&#45;&gt;FIRFile</title>
<path fill="none" stroke="black" d="M466.25,-908.84C466.53,-896.28 466.92,-878.98 467.25,-864.5"/>
<polygon fill="black" stroke="black" points="470.76,-864.18 467.48,-854.11 463.76,-864.03 470.76,-864.18"/>
</g>
<!-- SVVHDL -->
<g id="node33" class="node">
<title>SVVHDL</title>
<polygon fill="#ffff99" stroke="black" points="748.15,-919.54 748.15,-934.46 714.01,-945 665.73,-945 631.59,-934.46 631.59,-919.54 665.73,-909 714.01,-909 748.15,-919.54"/>
<text text-anchor="middle" x="689.87" y="-923.3" font-family="Times,serif" font-size="14.00">SV/VHDL</text>
</g>
<!-- SVVHDL&#45;&gt;Moore -->
<g id="edge29" class="edge">
<title>SVVHDL&#45;&gt;Moore</title>
<path fill="none" stroke="black" d="M689.87,-908.84C689.87,-896.28 689.87,-878.98 689.87,-864.5"/>
<polygon fill="black" stroke="black" points="693.37,-864.11 689.87,-854.11 686.37,-864.11 693.37,-864.11"/>
</g>
<!-- PyFile -->
<g id="node34" class="node">
<title>PyFile</title>
<polygon fill="#ffff99" stroke="black" points="617.14,-919.54 617.14,-934.46 589.45,-945 550.29,-945 522.6,-934.46 522.6,-919.54 550.29,-909 589.45,-909 617.14,-919.54"/>
<text text-anchor="middle" x="569.87" y="-923.3" font-family="Times,serif" font-size="14.00">Python</text>
</g>
<!-- PyFile&#45;&gt;PyCDE -->
<g id="edge37" class="edge">
<title>PyFile&#45;&gt;PyCDE</title>
<path fill="none" stroke="black" d="M567.52,-908.89C562.69,-874.37 551,-793.96 537.87,-727 531.23,-693.14 522.01,-654.5 515.76,-629.26"/>
<polygon fill="black" stroke="black" points="519.09,-628.17 513.28,-619.31 512.3,-629.86 519.09,-628.17"/>
</g>
<!-- SystemCFile&#45;&gt;ServiceDesc -->
<!-- SystemCFile&#45;&gt;TCL -->
<!-- SoftwareAPI -->
<g id="node39" class="node">
<title>SoftwareAPI</title>
<polygon fill="none" stroke="black" stroke-dasharray="5,2" points="517.37,-38 388.37,-38 388.37,0 523.37,0 523.37,-32 517.37,-38"/>
<polyline fill="none" stroke="black" stroke-dasharray="5,2" points="517.37,-38 517.37,-32 "/>
<polyline fill="none" stroke="black" stroke-dasharray="5,2" points="523.37,-32 517.37,-32 "/>
<text text-anchor="middle" x="455.87" y="-22.8" font-family="Times,serif" font-size="14.00">Software API</text>
<text text-anchor="middle" x="455.87" y="-7.8" font-family="Times,serif" font-size="14.00">(e.g. py/c++/c#)</text>
</g>
<!-- ServiceDesc&#45;&gt;SoftwareAPI -->
<g id="edge43" class="edge">
<title>ServiceDesc&#45;&gt;SoftwareAPI</title>
<path fill="none" stroke="black" stroke-dasharray="5,2" d="M455.87,-73.83C455.87,-66.13 455.87,-56.97 455.87,-48.42"/>
<polygon fill="black" stroke="black" points="459.37,-48.41 455.87,-38.41 452.37,-48.41 459.37,-48.41"/>
</g>
</g>
</svg>
